<svg width="101" height="100" viewBox="0 0 101 100" fill="none" xmlns="http://www.w3.org/2000/svg">
<rect x="0.547445" y="0.543539" width="99.5037" height="98.9051" rx="49.4526" stroke="#D9D9D9" stroke-width="1.09489"/>
<path d="M38.9723 50.1808C38.9723 47.518 38.8088 44.9253 38.4818 42.4027C38.2015 39.8333 37.6176 37.5443 36.73 35.5355C35.8424 33.5267 34.5811 31.9151 32.946 30.7005C31.3577 29.4859 29.2555 28.8786 26.6395 28.8786C24.1636 28.8786 22.1314 29.5092 20.5431 30.7705C19.0015 31.9851 17.7869 33.6202 16.8993 35.6757C16.0117 37.7311 15.3811 40.0669 15.0073 42.683C14.6803 45.299 14.5168 47.9618 14.5168 50.6713C14.5168 53.8479 14.7037 56.7443 15.0774 59.3603C15.4979 61.9297 16.1752 64.1253 17.1095 65.9472C18.0438 67.7691 19.2818 69.1939 20.8234 70.2216C22.4117 71.2027 24.3971 71.6932 26.7796 71.6932C29.4424 71.6932 31.5679 71.0392 33.1563 69.7311C34.7913 68.4231 36.0292 66.7413 36.8701 64.6859C37.711 62.6304 38.2716 60.318 38.5519 57.7486C38.8322 55.1793 38.9723 52.6567 38.9723 50.1808ZM26.7796 25.0946C29.2088 25.0946 31.311 25.4684 33.0862 26.2158C34.8614 26.9165 36.3563 27.8976 37.5708 29.1589C38.8322 30.4202 39.8365 31.8917 40.584 33.5735C41.3781 35.2552 41.9854 37.0538 42.4059 38.9691C42.8263 40.8377 43.1066 42.7764 43.2468 44.7851C43.3869 46.7939 43.457 48.7559 43.457 50.6713C43.457 53.9413 43.2234 57.0713 42.7563 60.0611C42.2891 63.0508 41.4249 65.6903 40.1635 67.9793C38.949 70.2684 37.2672 72.0903 35.1183 73.445C32.9694 74.7997 30.1898 75.4771 26.7796 75.4771C23.3694 75.4771 20.5665 74.7997 18.3708 73.445C16.2219 72.0903 14.5168 70.2684 13.2555 67.9793C12.0409 65.6435 11.2 62.9574 10.7329 59.9209C10.2657 56.8377 10.0322 53.591 10.0322 50.1808C10.0322 47.0508 10.2424 43.991 10.6628 41.0012C11.0833 38.0114 11.8774 35.3486 13.0453 33.0129C14.2599 30.6304 15.965 28.7151 18.1606 27.2669C20.3563 25.8187 23.2292 25.0946 26.7796 25.0946ZM67.2583 39.4596H71.4626V54.8757H86.8787V59.08H71.4626V74.4961H67.2583V59.08H51.8422V54.8757H67.2583V39.4596Z" fill="#D9D9D9"/>
</svg>
