<svg width="32" height="32" viewBox="0 0 32 32" fill="none" xmlns="http://www.w3.org/2000/svg">
<circle cx="16" cy="16" r="16" fill="#FAA685"/>
<path d="M17.7158 5.24943C17.7158 5.87245 18.1779 6.39132 18.7806 6.54906C19.7442 6.80121 20.647 7.20316 21.4628 7.72873C21.9505 8.04295 22.6007 8.01573 23.0111 7.60561V7.60561C23.4537 7.16323 24.1712 7.16335 24.6137 7.60587L24.9092 7.90143C25.3989 8.39107 25.3988 9.18498 24.909 9.67447V9.67447C24.4857 10.0975 24.4289 10.7569 24.7053 11.2877C25.0915 12.0294 25.3815 12.8291 25.5579 13.6706C25.6743 14.226 26.1422 14.6582 26.7096 14.6582V14.6582C27.3193 14.6582 27.8135 15.1524 27.8135 15.7621V16.2285C27.8135 16.9108 27.2604 17.4639 26.5781 17.4639V17.4639C25.9906 17.4639 25.4928 17.8809 25.3139 18.4405C25.127 19.0253 24.884 19.585 24.5913 20.1135C24.252 20.726 24.3041 21.5082 24.7992 22.0033V22.0033C25.3469 22.551 25.3519 23.444 24.8042 23.9917V23.9917C24.2565 24.5394 23.3632 24.5341 22.8155 23.9864V23.9864C22.3201 23.491 21.5374 23.4386 20.9244 23.7778C20.231 24.1615 19.484 24.4596 18.697 24.6579C18.1409 24.798 17.7158 25.2763 17.7158 25.8498V25.8498C17.7158 26.485 17.2009 27 16.5656 27H16.0861C15.4366 27 14.9102 26.4735 14.9102 25.8241V25.8241C14.9102 25.2468 14.4883 24.7627 13.9315 24.6101C13.2168 24.4143 12.5364 24.1356 11.901 23.7852C11.2937 23.4503 10.523 23.4997 10.0327 23.9902V23.9902C9.48504 24.5382 8.59381 24.5372 8.04601 23.9894V23.9894C7.50069 23.4441 7.49851 22.5579 8.04368 22.0124V22.0124C8.53308 21.5228 8.57924 20.7534 8.24133 20.1492C7.93996 19.6103 7.69042 19.0385 7.49943 18.4405C7.32068 17.8809 6.82291 17.4639 6.23539 17.4639V17.4639C5.5531 17.4639 5 16.9108 5 16.2285V15.7621C5 15.1524 5.49422 14.6582 6.10386 14.6582V14.6582C6.67126 14.6582 7.13917 14.226 7.25515 13.6706C7.43399 12.8142 7.72981 12.0007 8.12543 11.2479C8.39966 10.7261 8.34468 10.0761 7.92785 9.6593V9.6593C7.4467 9.17814 7.4467 8.39803 7.92785 7.91687L8.24672 7.598C8.68486 7.15987 9.39522 7.15987 9.83336 7.598V7.598C10.2386 8.00329 10.8807 8.03129 11.3629 7.72156C12.1234 7.2332 12.959 6.85201 13.8488 6.59938C14.4518 6.4282 14.9102 5.90339 14.9102 5.27661V5.27661C14.9102 4.57156 15.4817 4 16.1868 4H16.4664C17.1564 4 17.7158 4.55939 17.7158 5.24943V5.24943ZM16.4062 8.30078C12.3787 8.30093 9.11328 11.5662 9.11328 15.5938C9.11342 19.6212 12.3788 22.8866 16.4062 22.8867C20.4338 22.8867 23.6991 19.6213 23.6992 15.5938C23.6992 11.5661 20.4339 8.30079 16.4062 8.30078Z" fill="black"/>
</svg>
