<svg width="169" height="63" viewBox="0 0 169 63" fill="none" xmlns="http://www.w3.org/2000/svg">
<g clip-path="url(#clip0_663_487)">
<path d="M7.66205 17.1202H4.55486V30.3258H0V0.277832H4.55486V12.3182H7.66205V0.277832H12.2169V30.3611H7.66205V17.1202Z" fill="black"/>
<path d="M20.0553 30.6786H19.1726C15.5357 30.6786 13.5938 28.7013 13.5938 24.9939V18.956H18.1133V24.2171C18.1133 25.5941 18.5723 26.3356 19.5963 26.3356C20.6909 26.3356 21.0793 25.5941 21.0793 23.7581V23.0872C21.0793 20.9333 20.8674 20.1918 19.2079 18.038L16.3478 14.2599C14.4059 11.753 13.8409 9.81101 13.8409 6.80975V5.85641C13.8409 1.86649 15.8535 -0.00488281 19.455 -0.00488281H20.3025C24.0452 -0.00488281 25.5282 1.65464 25.5282 5.22084V10.1641H21.1146V5.8211C21.1146 4.79714 20.9027 4.05565 19.8081 4.05565C18.7136 4.05565 18.4664 4.72652 18.4664 6.17419V6.73913C18.4664 8.43396 18.7842 9.35199 20.3378 11.3646L23.2331 15.1074C25.281 17.7908 25.9519 19.3091 25.9519 22.6988V23.6521C25.9519 28.0657 24.0452 30.6786 20.0553 30.6786Z" fill="black"/>
<path d="M37.6391 0.277832V4.65614H31.8132V12.53H36.368V17.0849H31.8132V25.7709H37.8863V30.3258H27.2583V0.277832H37.6391Z" fill="black"/>
<path d="M50.2095 24.6765H46.8904L46.2902 30.3259H42.1943L45.8665 0.242676H51.2687L55.188 30.3259H50.7744L50.2095 24.6765ZM49.7151 20.1922L48.5146 9.06992L47.3494 20.1922H49.7151Z" fill="black"/>
<path d="M60.5195 30.3611H55.9646V0.277832H63.3795C66.4161 0.277832 67.9343 1.58426 67.9343 4.93862V10.2703C67.9343 12.7772 66.7691 13.7306 65.957 14.1189C66.981 14.578 67.9343 15.3901 67.9343 17.4027V27.9601C67.9343 29.1606 68.1815 29.7255 68.3934 30.1845V30.3964H63.8738C63.662 30.0786 63.4148 29.549 63.4148 27.9248V18.815C63.4148 17.4733 63.1676 16.9084 61.72 16.9084H60.5548L60.5195 30.3611ZM60.5195 12.636H61.72C62.9911 12.636 63.3795 11.8239 63.3795 10.4821V6.28036C63.3795 4.97393 63.097 4.33836 61.72 4.33836H60.5195V12.636Z" fill="black"/>
<path d="M77.15 4.62084V30.3258H72.6304V4.62084H68.7817V0.277832H80.9986V4.65614L77.15 4.62084Z" fill="black"/>
<path d="M93.2156 24.6765H89.8965L89.2963 30.3259H85.2004L88.8726 0.242676H94.2748L98.1941 30.3259H93.7805L93.2156 24.6765ZM92.7213 20.1922L91.5207 9.06992L90.3555 20.1922H92.7213Z" fill="black"/>
<path d="M103.067 0.277832L106.986 16.414V0.277832H111.153V30.3611H107.445L103.067 13.0597V30.3611H98.936V0.277832H103.067Z" fill="black"/>
<path d="M112.848 0.277832H119.874C123.793 0.277832 124.994 2.5023 124.994 6.0685V24.3939C124.994 28.066 123.617 30.3611 119.874 30.3611H112.883V0.277832H112.848ZM117.438 25.9828H118.532C119.909 25.9828 120.298 25.2413 120.298 23.6524V6.70407C120.298 4.97393 119.839 4.37367 118.709 4.37367H117.403V25.9828H117.438Z" fill="black"/>
<path d="M0 31.9155H6.99118C10.9105 31.9155 12.111 34.14 12.111 37.7062V56.0316C12.111 59.7037 10.7339 61.9988 6.99118 61.9988H0V31.9155ZM4.55486 57.6558H5.64944C7.02649 57.6558 7.41488 56.9143 7.41488 55.3254V38.3771C7.41488 36.6469 6.95587 36.0467 5.82598 36.0467H4.51955V57.6558H4.55486Z" fill="black"/>
<path d="M24.1517 31.9155V36.2938H18.3258V44.1677H22.8806V48.7226H18.3258V57.4086H24.3989V61.9635H13.7356V31.9155H24.1517Z" fill="black"/>
<path d="M31.6725 62.3165H30.7898C27.1529 62.3165 25.2109 60.3392 25.2109 56.6317V50.5939H29.7305V55.8549C29.7305 57.232 30.1895 57.9735 31.2135 57.9735C32.308 57.9735 32.6964 57.232 32.6964 55.3959V54.7251C32.6964 52.5712 32.4846 51.8297 30.8251 49.6759L27.9297 45.9684C25.9877 43.4615 25.4228 41.5195 25.4228 38.5182V37.5649C25.4228 33.575 27.4354 31.7036 31.0369 31.7036H31.8843C35.6624 31.7036 37.1101 33.3631 37.1101 36.9293V41.8726H32.6964V37.5296C32.6964 36.5056 32.4846 35.7641 31.39 35.7641C30.2954 35.7641 30.0483 36.435 30.0483 37.8827V38.4476C30.0483 40.1425 30.366 41.0605 31.9196 43.0731L34.815 46.8159C36.8629 49.4993 37.5338 51.0176 37.5338 54.4073V55.3606C37.5691 59.7036 35.6624 62.3165 31.6725 62.3165Z" fill="black"/>
<path d="M43.4299 61.9988H38.875V31.9155H43.4299V61.9988Z" fill="black"/>
<path d="M49.3622 62.4222C46.6787 62.4222 44.9839 60.0212 44.9839 56.914V38.0944C44.9839 34.74 46.2903 31.6328 50.598 31.6328H51.4807C56.3887 31.6328 56.9536 34.8106 56.9536 38.3768V41.4487H52.5047V38.059C52.5047 36.7173 52.1869 36.0111 51.057 36.0111C50.1037 36.0111 49.6447 36.7526 49.6447 38.059V55.6429C49.6447 57.0553 50.2096 57.7968 51.1276 57.7968C52.2928 57.7968 52.8225 56.9847 52.8225 55.8548V48.334H50.7746V43.7085H57.1655V61.9985H54.5879C54.5526 61.822 54.1995 60.339 53.8111 59.0326C53.4933 60.0565 51.9398 62.3869 49.6447 62.3869H49.3622V62.4222Z" fill="black"/>
<path d="M62.8858 31.9155L66.8051 48.0517V31.9155H70.9715V61.9988H67.2641L62.8858 44.6974V61.9988H58.7546V31.9155H62.8858Z" fill="black"/>
<path d="M82.9051 62.3165H82.0224C78.3856 62.3165 76.4436 60.3392 76.4436 56.6317V50.5939H80.9632V55.8549C80.9632 57.232 81.4222 57.9735 82.4461 57.9735C83.5407 57.9735 83.9291 57.232 83.9291 55.3959V54.7251C83.9291 52.5712 83.7172 51.8297 82.0577 49.6759L79.1624 45.9684C77.2204 43.4615 76.6555 41.5195 76.6555 38.5182V37.5649C76.6555 33.575 78.6681 31.7036 82.2696 31.7036H83.117C86.8597 31.7036 88.3427 33.3631 88.3427 36.9293V41.8726H83.9291V37.5296C83.9291 36.5056 83.7173 35.7641 82.6227 35.7641C81.5281 35.7641 81.2809 36.435 81.2809 37.8827V38.4476C81.2809 40.1425 81.5987 41.0605 83.1523 43.0731L86.0476 46.8159C88.0956 49.4993 88.7664 51.0176 88.7664 54.4073V55.3606C88.8017 59.7036 86.8951 62.3165 82.9051 62.3165Z" fill="black"/>
<path d="M97.5586 55.8893V48.8981H102.043V55.8539C102.043 59.1024 100.984 62.3508 96.57 62.3508H95.546C90.9205 62.3508 89.9319 59.0318 89.9319 55.9952V37.6345C89.9319 34.5626 91.2736 31.5967 95.4048 31.5967H96.4641C101.478 31.5967 102.043 34.9157 102.043 37.8464V43.2133H97.5586V37.917C97.5586 36.6106 97.1702 35.9397 96.005 35.9397C94.8751 35.9397 94.5927 36.5752 94.5927 37.917V55.7833C94.5927 57.1251 95.0517 57.8312 96.0403 57.8312C97.1702 57.9372 97.5586 57.1251 97.5586 55.8893Z" fill="black"/>
<path d="M111.188 48.7932H108.081V61.9988H103.526V31.9155H108.081V43.9559H111.188V31.9155H115.743V61.9988H111.188V48.7932Z" fill="black"/>
<path d="M129.831 55.2898C129.831 59.4916 128.419 62.3516 124.005 62.3516H123.228C118.85 62.3516 117.332 59.4916 117.332 55.2898V38.5534C117.332 34.3869 118.92 31.6328 123.193 31.6328H123.97C128.419 31.6328 129.831 34.3869 129.831 38.5181V55.2898ZM125.17 38.3062C125.17 36.7173 124.641 36.0111 123.581 36.0111C122.416 36.0111 121.957 36.7879 121.957 38.3062V55.6076C121.957 56.914 122.31 57.9027 123.617 57.9027C124.817 57.9027 125.17 56.8787 125.17 55.6076V38.3062Z" fill="black"/>
<path d="M143.778 55.2898C143.778 59.4916 142.366 62.3516 137.952 62.3516H137.175C132.797 62.3516 131.279 59.4916 131.279 55.2898V38.5534C131.279 34.3869 132.867 31.6328 137.14 31.6328H137.917C142.366 31.6328 143.778 34.3869 143.778 38.5181V55.2898ZM139.117 38.3062C139.117 36.7173 138.588 36.0111 137.528 36.0111C136.363 36.0111 135.904 36.7879 135.904 38.3062V55.6076C135.904 56.914 136.257 57.9027 137.564 57.9027C138.764 57.9027 139.117 56.8787 139.117 55.6076V38.3062Z" fill="black"/>
<path d="M149.922 31.9155V57.338H155.501V61.9988H145.367V31.9155H149.922Z" fill="black"/>
<path fill-rule="evenodd" clip-rule="evenodd" d="M161.891 31.5972C158.502 31.5972 155.712 34.3513 155.712 37.7762C155.712 41.1659 158.467 43.9553 161.891 43.9553C165.316 43.9553 168.071 41.2012 168.071 37.7762C168.035 34.3513 165.281 31.5972 161.891 31.5972Z" fill="white"/>
<path fill-rule="evenodd" clip-rule="evenodd" d="M162.916 37.2118C163.304 37.0353 163.551 36.7881 163.728 36.6116C164.046 36.2585 164.151 35.8348 164.151 35.4111C164.151 35.0933 164.046 34.4224 163.481 33.9634C163.092 33.6456 162.739 33.5044 161.892 33.5044H161.468H161.433H159.667V41.7667H164.646V40.1778C164.681 38.6595 164.187 37.6355 162.916 37.2118ZM163.551 41.3077H162.633V38.5536H161.609V41.3077H160.832V33.8928H161.645C161.962 33.8928 162.421 33.9634 162.739 34.3518C162.916 34.5637 163.022 34.8461 163.057 35.0933H161.609V35.517H163.057C163.057 35.7642 162.986 36.0819 162.739 36.3997C162.527 36.6822 162.139 36.9294 161.609 36.9294V37.3531C163.022 37.3531 163.551 38.2711 163.551 40.0012V41.3077Z" fill="black"/>
</g>
<defs>
<clipPath id="clip0_663_487">
<rect width="168.85" height="62.7157" fill="white" transform="translate(0 -0.00390625)"/>
</clipPath>
</defs>
</svg>
