<svg width="229" height="322" viewBox="0 0 229 322" fill="none" xmlns="http://www.w3.org/2000/svg">
<rect x="0.619141" width="227.619" height="321.237" rx="10" fill="#242424"/>
<rect x="12.5508" y="218.992" width="3.85484" height="5.50692" fill="#535353"/>
<rect x="55.3213" y="218.992" width="3.85484" height="5.50692" fill="#535353"/>
<rect x="32.0088" y="224.683" width="7.52612" height="80.5846" fill="#595959"/>
<ellipse cx="35.8634" cy="224.04" rx="23.3126" ry="6.33296" fill="#535353"/>
<ellipse cx="35.8634" cy="218.349" rx="23.3126" ry="6.33296" fill="url(#paint0_linear_631_108750)"/>
<rect x="58.2583" y="279.017" width="3.85484" height="5.50692" fill="#535353"/>
<rect x="101.029" y="279.017" width="3.85484" height="5.50692" fill="#535353"/>
<rect x="77.7163" y="284.708" width="7.52612" height="20.5592" fill="#595959"/>
<ellipse cx="81.5709" cy="284.066" rx="23.3126" ry="6.33296" fill="#535353"/>
<ellipse cx="81.5709" cy="278.376" rx="23.3126" ry="6.33296" fill="url(#paint1_linear_631_108750)"/>
<rect x="12.0918" y="16.062" width="204.674" height="289.113" rx="2.66168" stroke="white" stroke-width="0.183564"/>
<path d="M72.7511 253.101C72.823 253.394 73.1166 253.571 73.4166 253.541C73.5618 253.527 73.7091 253.519 73.8582 253.519C73.893 253.519 73.9276 253.52 73.9621 253.52C74.2373 253.527 74.4953 253.361 74.5694 253.096L76.5025 246.178C76.5894 245.867 76.9234 245.696 77.2263 245.808L79.1514 246.52C79.4644 246.635 79.6042 247 79.4488 247.295L76.1628 253.542C76.0213 253.811 76.1262 254.141 76.3735 254.317C76.5414 254.437 76.6997 254.569 76.8473 254.711C77.0524 254.908 77.368 254.959 77.6048 254.801L83.5457 250.834C83.8123 250.656 84.1739 250.741 84.3326 251.02L85.3144 252.742C85.4799 253.032 85.3521 253.401 85.0427 253.527L78.3849 256.237C78.1191 256.345 77.9847 256.639 78.0343 256.921C78.0732 257.143 78.0936 257.37 78.0936 257.602C78.0936 257.858 78.2748 258.086 78.5292 258.11L85.7699 258.783C86.0985 258.814 86.3273 259.124 86.2596 259.447L85.8576 261.366C85.7912 261.683 85.4677 261.876 85.1576 261.782L78.0306 259.639C77.7809 259.564 77.5158 259.676 77.3659 259.89C77.2643 260.034 77.1533 260.172 77.0337 260.303C76.8117 260.546 76.79 260.927 77.0239 261.158L82.1447 266.221C82.3834 266.457 82.3583 266.849 82.0915 267.053L80.483 268.281C80.2285 268.475 79.8628 268.413 79.6865 268.146L75.5036 261.809C75.365 261.599 75.103 261.513 74.8582 261.57C74.5376 261.646 74.2028 261.686 73.8582 261.686C73.8403 261.686 73.8262 261.7 73.8275 261.718L74.4155 269.674C74.4397 270.001 74.1751 270.277 73.8472 270.267L71.7829 270.202C71.4541 270.192 71.2069 269.899 71.2529 269.573L72.3371 261.885C72.3738 261.624 72.2201 261.378 71.9829 261.264C71.8907 261.22 71.8004 261.173 71.7122 261.123C71.4473 260.972 71.1028 261.017 70.9189 261.26L66.1829 267.513C65.9898 267.768 65.6212 267.806 65.3798 267.596L63.8575 266.273C63.6041 266.053 63.6041 265.659 63.8574 265.439L69.939 260.151C70.1499 259.968 70.1867 259.657 70.0593 259.409C70.0472 259.385 70.0355 259.362 70.0239 259.338C69.8958 259.075 69.6068 258.916 69.3246 258.992L61.4693 261.102C61.1561 261.186 60.8381 260.984 60.7817 260.664L60.4411 258.733C60.3839 258.409 60.6216 258.106 60.9505 258.086L69.1144 257.57C69.4021 257.552 69.6232 257.314 69.6648 257.029C69.6754 256.957 69.6879 256.885 69.7024 256.814C69.7595 256.533 69.6338 256.237 69.3719 256.121L62.0821 252.897C61.7764 252.761 61.6598 252.388 61.8344 252.103L62.8711 250.409C63.0384 250.136 63.4022 250.062 63.6631 250.248L70.0704 254.813C70.3096 254.983 70.6378 254.934 70.8483 254.729C70.9358 254.644 71.0271 254.563 71.122 254.485C71.3393 254.308 71.4278 254.007 71.305 253.754L68.023 247.01C67.8771 246.711 68.0279 246.351 68.3439 246.245L70.2907 245.59C70.5972 245.487 70.9263 245.668 71.0034 245.982L72.7511 253.101Z" fill="#EC1168"/>
<path d="M73.4692 244.015C81.1278 244.015 87.3364 250.224 87.3364 257.883C87.3362 265.541 81.1277 271.749 73.4692 271.749C65.8108 271.749 59.6022 265.541 59.6021 257.883C59.6021 250.224 65.8107 244.015 73.4692 244.015Z" stroke="#4F4F4F" stroke-width="0.851957"/>
<circle cx="73.861" cy="257.54" r="2.20277" fill="#D9D9D9"/>
<g filter="url(#filter0_f_631_108750)">
<ellipse cx="12.9413" cy="6.05761" rx="12.9413" ry="6.05761" transform="matrix(0 1 1 0 181.43 22.5782)" fill="#ECEAEA"/>
</g>
<g opacity="0.5" filter="url(#filter1_f_631_108750)">
<path d="M184.183 23.7715L177.024 31.573L171.15 50.0212H201.897L197.4 31.573L189.415 23.7715H184.183Z" fill="#EDEDED"/>
</g>
<circle cx="3.39593" cy="3.39593" r="3.39593" transform="matrix(0 1 1 0 184 20.3757)" fill="#F8F6F6"/>
<circle cx="2.5699" cy="2.5699" r="2.5699" transform="matrix(0 1 1 0 184.734 20.1917)" fill="#393939"/>
<rect width="1.10138" height="2.20277" transform="matrix(0 1 1 0 186.203 19.4573)" fill="#393939"/>
<g filter="url(#filter2_f_631_108750)">
<ellipse cx="12.9413" cy="6.05761" rx="12.9413" ry="6.05761" transform="matrix(0 1 1 0 131.868 22.5782)" fill="#ECEAEA"/>
</g>
<g opacity="0.5" filter="url(#filter3_f_631_108750)">
<path d="M134.621 23.7715L127.462 31.573L121.588 50.0212H152.335L147.838 31.573L139.853 23.7715H134.621Z" fill="#EDEDED"/>
</g>
<circle cx="3.39593" cy="3.39593" r="3.39593" transform="matrix(0 1 1 0 134.438 20.3757)" fill="#F8F6F6"/>
<circle cx="2.5699" cy="2.5699" r="2.5699" transform="matrix(0 1 1 0 135.171 20.1917)" fill="#393939"/>
<rect width="1.10138" height="2.20277" transform="matrix(0 1 1 0 136.64 19.4573)" fill="#393939"/>
<g filter="url(#filter4_f_631_108750)">
<ellipse cx="12.9413" cy="6.05761" rx="12.9413" ry="6.05761" transform="matrix(0 1 1 0 82.3052 22.5782)" fill="#ECEAEA"/>
</g>
<g opacity="0.5" filter="url(#filter5_f_631_108750)">
<path d="M85.0584 23.7715L77.8994 31.573L72.0254 50.0212H102.772L98.275 31.573L90.29 23.7715H85.0584Z" fill="#EDEDED"/>
</g>
<circle cx="3.39593" cy="3.39593" r="3.39593" transform="matrix(0 1 1 0 84.875 20.3757)" fill="#F8F6F6"/>
<circle cx="2.5699" cy="2.5699" r="2.5699" transform="matrix(0 1 1 0 85.6094 20.1917)" fill="#393939"/>
<rect width="1.10138" height="2.20277" transform="matrix(0 1 1 0 87.0776 19.4573)" fill="#393939"/>
<g filter="url(#filter6_f_631_108750)">
<ellipse cx="12.9413" cy="6.05761" rx="12.9413" ry="6.05761" transform="matrix(0 1 1 0 32.7432 22.5782)" fill="#ECEAEA"/>
</g>
<g opacity="0.5" filter="url(#filter7_f_631_108750)">
<path d="M35.4964 23.7715L28.3374 31.573L22.4634 50.0212H53.2104L48.713 31.573L40.728 23.7715H35.4964Z" fill="#EDEDED"/>
</g>
<circle cx="3.39593" cy="3.39593" r="3.39593" transform="matrix(0 1 1 0 35.313 20.3757)" fill="#F8F6F6"/>
<circle cx="2.5699" cy="2.5699" r="2.5699" transform="matrix(0 1 1 0 36.0474 20.1917)" fill="#393939"/>
<rect width="1.10138" height="2.20277" transform="matrix(0 1 1 0 37.5161 19.4573)" fill="#393939"/>
<path d="M129.462 273.832C129.692 274.053 130.055 274.046 130.298 273.84C130.532 273.643 130.782 273.458 131.048 273.29C131.157 273.22 131.267 273.155 131.379 273.093C131.633 272.951 131.769 272.656 131.685 272.377L128.411 261.44C128.313 261.113 128.514 260.772 128.848 260.7L132.47 259.919C132.816 259.844 133.149 260.092 133.177 260.445L134.058 271.685C134.084 272.007 134.365 272.245 134.688 272.249C135.168 272.256 135.643 272.316 136.104 272.427C136.396 272.497 136.706 272.363 136.828 272.088L141.477 261.67C141.615 261.361 141.985 261.233 142.285 261.39L145.452 263.061C145.766 263.227 145.861 263.631 145.655 263.919L138.963 273.269C138.785 273.516 138.83 273.857 139.044 274.074C139.336 274.371 139.602 274.702 139.833 275.067C139.853 275.098 139.871 275.128 139.89 275.159C140.06 275.44 140.416 275.564 140.709 275.414L150.953 270.176C151.265 270.017 151.646 270.165 151.768 270.493L153.007 273.812C153.127 274.133 152.947 274.488 152.617 274.58L141.205 277.791C140.94 277.865 140.766 278.115 140.761 278.39C140.754 278.822 140.701 279.253 140.605 279.677C140.527 280.018 140.726 280.372 141.068 280.446L152.352 282.877C152.701 282.952 152.902 283.319 152.777 283.653L151.501 287.08C151.383 287.397 151.023 287.548 150.714 287.41L139.73 282.502C139.488 282.394 139.205 282.464 139.024 282.659C138.639 283.075 138.193 283.451 137.688 283.77C137.666 283.784 137.659 283.813 137.675 283.835L145.072 293.792C145.279 294.071 145.199 294.468 144.9 294.644L141.688 296.543C141.388 296.721 141 296.598 140.857 296.28L135.803 285.081C135.688 284.827 135.41 284.692 135.134 284.734C134.824 284.782 134.513 284.807 134.203 284.81C133.881 284.813 133.6 285.049 133.573 285.369L132.501 297.799C132.472 298.136 132.165 298.378 131.831 298.328L128.227 297.789C127.874 297.736 127.65 297.383 127.753 297.041L131.449 284.789C131.535 284.505 131.392 284.204 131.131 284.063C130.959 283.971 130.791 283.87 130.629 283.761C130.372 283.589 130.024 283.612 129.815 283.839L121.037 293.357C120.805 293.609 120.406 293.608 120.175 293.355L117.786 290.741C117.551 290.483 117.592 290.078 117.875 289.873L128.415 282.227C128.662 282.048 128.727 281.71 128.592 281.436C128.472 281.195 128.371 280.948 128.286 280.698C128.189 280.41 127.907 280.216 127.606 280.262L115.06 282.161C114.709 282.214 114.392 281.945 114.387 281.59L114.341 278.004C114.336 277.666 114.619 277.395 114.956 277.412L127.461 278.06C127.77 278.076 128.036 277.847 128.097 277.543C128.164 277.208 128.258 276.877 128.379 276.554C128.484 276.274 128.39 275.953 128.136 275.797L117.982 269.558C117.68 269.372 117.611 268.964 117.834 268.689L120.176 265.812C120.392 265.547 120.788 265.523 121.035 265.759L129.462 273.832Z" fill="#F7CCDD"/>
<path d="M192.851 241.306C193.005 241.453 193.247 241.448 193.409 241.311C193.565 241.179 193.732 241.056 193.91 240.943C193.983 240.897 194.057 240.853 194.131 240.812C194.301 240.718 194.392 240.521 194.336 240.335L192.149 233.032C192.084 232.813 192.219 232.586 192.441 232.538L194.86 232.016C195.091 231.966 195.314 232.132 195.332 232.368L195.921 239.872C195.938 240.087 196.125 240.246 196.341 240.249C196.661 240.253 196.978 240.293 197.285 240.367C197.48 240.414 197.687 240.324 197.769 240.141L200.874 233.184C200.966 232.978 201.213 232.892 201.413 232.998L203.528 234.114C203.737 234.224 203.801 234.494 203.663 234.687L199.194 240.93C199.076 241.095 199.106 241.322 199.249 241.467C199.444 241.665 199.622 241.887 199.776 242.13C199.789 242.151 199.802 242.171 199.814 242.192C199.928 242.38 200.165 242.462 200.361 242.362L207.201 238.864C207.409 238.758 207.664 238.857 207.745 239.076L208.573 241.292C208.653 241.506 208.533 241.743 208.313 241.805L200.691 243.949C200.514 243.999 200.398 244.165 200.395 244.349C200.39 244.638 200.355 244.926 200.291 245.209C200.239 245.436 200.372 245.673 200.6 245.722L208.135 247.345C208.368 247.395 208.502 247.64 208.419 247.863L207.568 250.151C207.489 250.362 207.248 250.463 207.042 250.371L199.706 247.094C199.545 247.022 199.356 247.069 199.235 247.199C198.978 247.477 198.681 247.728 198.345 247.942C198.33 247.951 198.325 247.971 198.336 247.985L203.273 254.632C203.412 254.819 203.358 255.084 203.159 255.202L201.015 256.469C200.814 256.588 200.556 256.506 200.46 256.294L197.085 248.816C197.008 248.646 196.823 248.556 196.639 248.585C196.431 248.617 196.224 248.634 196.017 248.636C195.802 248.638 195.615 248.795 195.596 249.009L194.881 257.308C194.861 257.533 194.656 257.694 194.434 257.661L192.028 257.301C191.792 257.266 191.642 257.03 191.711 256.802L194.179 248.621C194.237 248.432 194.141 248.231 193.967 248.137C193.852 248.075 193.74 248.008 193.631 247.935C193.459 247.821 193.227 247.836 193.087 247.987L187.227 254.342C187.071 254.51 186.805 254.51 186.651 254.341L185.056 252.595C184.899 252.423 184.927 252.152 185.115 252.015L192.152 246.91C192.317 246.791 192.361 246.565 192.27 246.382C192.191 246.221 192.122 246.057 192.066 245.89C192.001 245.697 191.812 245.568 191.612 245.598L183.236 246.866C183.001 246.902 182.79 246.722 182.787 246.485L182.756 244.091C182.753 243.865 182.941 243.684 183.167 243.696L191.515 244.128C191.721 244.139 191.898 243.986 191.939 243.783C191.984 243.559 192.048 243.338 192.128 243.123C192.198 242.937 192.136 242.722 191.967 242.618L185.186 238.451C184.985 238.328 184.939 238.055 185.088 237.872L186.652 235.951C186.796 235.774 187.06 235.758 187.225 235.915L192.851 241.306Z" fill="#F7CCDD"/>
<circle cx="133.979" cy="279.298" r="21.317" transform="rotate(-32.3599 133.979 279.298)" stroke="black" stroke-width="8.3596"/>
<path d="M125.796 247.172L131.524 246.216L136.601 246.265L142.12 247.32L147.295 250.177L150.939 252.871L155.673 250.905L161.124 246.857L162.201 244.652L152.912 229.992C167.288 222.055 175.715 218.643 191.488 214.653C193.524 219.701 195.186 222.202 198.826 226.234C189.526 230.108 182.903 233.155 175.38 237.364L174.8 240.171L174.474 243.248L174.244 246.165L176.001 252.374L177.561 258.115L160.684 268.809L147.055 254.485L147.635 254.243L140.595 250.067L129.497 249.578L119.025 254.136L114.35 257.691L110.538 263.075L112.309 255.718L120.521 249.624L125.796 247.172Z" fill="url(#paint2_linear_631_108750)"/>
<path d="M106.946 273.962C106.946 273.962 108.253 269.911 109.324 267.408C109.844 266.192 110.098 265.488 110.741 264.333C111.452 263.056 111.937 262.384 112.831 261.228C113.355 260.55 113.637 260.155 114.238 259.544C114.885 258.886 115.308 258.577 116.036 258.009C117.657 256.743 118.67 256.158 120.485 255.19C122.616 254.054 123.869 253.485 126.177 252.771C127.863 252.249 128.824 251.914 130.583 251.76C132.515 251.592 133.614 251.847 135.539 252.084C137.808 252.364 139.121 252.461 141.288 253.191C143.426 253.912 144.549 254.563 146.47 255.747C147.966 256.669 148.763 257.264 150.119 258.383C152.031 259.96 152.943 261.032 154.631 262.848C155.957 264.275 157.906 266.611 157.906 266.611L159.897 268.87C160.169 269.178 160.625 269.243 160.972 269.023L177.351 258.645C177.665 258.446 177.81 258.062 177.706 257.705L176.958 255.133L175.869 251.072C175.869 251.072 175.285 248.434 175.089 246.717C174.88 244.887 174.715 243.84 174.874 242.004C174.997 240.578 175.132 239.769 175.56 238.403C176.048 236.847 175.888 237.81 177.318 234.617C178.215 232.615 181.461 229.767 184.336 227.254C185.061 226.621 184.503 225.908 183.69 226.423L178.546 229.682C178.546 229.682 177.173 230.775 176.369 231.557C175.295 232.601 174.627 233.167 173.843 234.443C172.918 235.951 172.734 236.986 172.284 238.698C172.008 239.747 171.839 240.341 171.733 241.421C171.61 242.675 171.704 243.39 171.798 244.646C171.937 246.527 172.545 249.418 172.545 249.418C172.545 249.418 173.351 251.786 173.986 253.255C174.587 254.643 175.583 256.498 176.129 257.489C176.344 257.88 176.22 258.372 175.843 258.61L161.423 267.747C161.054 267.981 160.567 267.892 160.306 267.542L158.16 264.669L154.776 260.578C154.776 260.578 152.139 257.039 150.055 255.158C147.818 253.138 146.481 251.95 143.71 250.766C141.607 249.868 140.29 249.708 138.038 249.313C136.461 249.036 135.569 248.851 133.968 248.824C132.42 248.798 131.532 248.831 130.018 249.15C128 249.573 126.846 250.026 124.949 250.833C122.888 251.71 121.854 252.393 119.898 253.483C118.444 254.294 117.596 254.724 116.297 255.765C115.178 256.662 114.605 257.243 113.663 258.325C112.357 259.825 110.783 262.525 110.783 262.525C108.633 265.609 107.798 269.802 106.946 273.962Z" fill="#4C4C4C" stroke="black" stroke-width="0.501576"/>
<circle cx="195.866" cy="244.834" r="15.2981" transform="rotate(-32.3599 195.866 244.834)" stroke="black" stroke-width="8.3596"/>
<path d="M100.032 235.634C114.734 225.086 123.487 219.399 139.218 210.798C139.566 210.608 140.007 210.719 140.219 211.053L142.574 214.77C142.796 215.121 142.692 215.585 142.341 215.808L139.796 217.421C139.597 217.546 139.352 217.573 139.131 217.491L137.567 216.911C137.482 216.879 137.392 216.86 137.302 216.855L135.021 216.72C134.901 216.713 134.78 216.729 134.667 216.769L131.804 217.756C131.755 217.773 131.708 217.794 131.663 217.819L120.249 224.072C120.206 224.095 120.166 224.121 120.128 224.151L113.19 229.523C113.155 229.55 113.121 229.579 113.09 229.611L108.475 234.399L108.47 234.406L107.107 236.116C107.056 236.18 107.013 236.252 106.98 236.328L106.48 237.499C106.413 237.655 106.391 237.828 106.416 237.995L106.423 238.039C106.466 238.333 106.332 238.624 106.081 238.784L103.221 240.596C102.87 240.818 102.406 240.714 102.183 240.363L99.8311 236.651C99.6183 236.315 99.7079 235.867 100.032 235.634Z" fill="#F7CCDD" stroke="black" stroke-width="0.167192"/>
<path d="M115.396 252.313C115.157 251.936 115.279 251.435 115.666 251.211L120.6 248.344L125.974 244.642L132.758 241.019C132.868 240.961 132.989 240.927 133.114 240.922L137.547 240.719C137.607 240.716 137.668 240.72 137.727 240.73L142.008 241.468C142.199 241.501 142.373 241.599 142.499 241.746L147.479 247.526C147.521 247.576 147.57 247.62 147.623 247.659L152.585 251.243C153.104 251.617 153.026 252.413 152.444 252.68L151.394 253.162C151.099 253.298 150.752 253.25 150.505 253.04L145.695 248.963C145.61 248.891 145.511 248.837 145.404 248.803L139.485 246.953C139.425 246.934 139.364 246.922 139.301 246.917L134.46 246.535C134.417 246.532 134.373 246.532 134.329 246.535L129.676 246.899C129.616 246.903 129.556 246.914 129.499 246.932L122.211 249.137C122.145 249.157 122.082 249.185 122.022 249.221L116.468 252.566C116.101 252.787 115.625 252.675 115.396 252.313Z" fill="#5F5F5F"/>
<rect x="138.314" y="233.38" width="6.48619" height="1.32829" transform="rotate(8.85989 138.314 233.38)" fill="#6A6A6A"/>
<ellipse cx="137.404" cy="233.963" rx="4.68513" ry="1.17034" transform="rotate(-72.504 137.404 233.963)" fill="#808080"/>
<path d="M144.067 238.367C143.855 234.252 144.783 231.747 148.25 227.007L152.357 231.926L155.145 235.702L157.337 239.162L161.228 246.395L159.147 248.109L153.957 239.918L148.86 239.684L144.067 238.367Z" fill="#5F5F5F"/>
<path d="M133.817 218.73C135.165 218.3 136.133 218.129 137.004 218.185C137.868 218.241 138.677 218.524 139.704 219.073C144.977 223.181 148.793 226.744 152.11 230.929C155.389 235.065 158.191 239.823 161.431 246.341C157.772 249.726 155.393 251.294 150.733 253.111C148.067 250.709 146.319 249.39 142.474 247.528L142.44 247.511L142.403 247.501L141.364 247.224C139 246.62 137.043 246.319 135.052 246.262C132.782 246.196 130.484 246.449 127.513 246.917L127.481 246.923L127.449 246.934L126.54 247.234C122.253 248.69 119.657 250.077 115.721 253.295L111.101 246.004L107.251 238.87C109.313 235.761 110.7 234.117 113.597 231.542L113.599 231.539C116.864 228.579 118.87 227.089 122.665 224.614L133.817 218.73Z" stroke="black" stroke-width="0.83596"/>
<path d="M29.8989 205.56L26.3304 204.026L25.3781 198.561L29.1388 190.343L32.837 189.172L41.5785 189.853L44.93 191.573L49.0076 195.417L49.9108 200.472L48.2044 205.729L43.7565 206.639L29.8989 205.56Z" fill="#474747" stroke="black" stroke-width="0.0808113"/>
<path d="M111.123 212.251L104.379 209.861L104.918 202.932L109.615 194.666L114.647 192.504L124.073 193.239L128.427 196.131L131.519 200.668L131.931 206.82L131.127 211.945L124.98 213.33L111.123 212.251Z" fill="#474747" stroke="black" stroke-width="0.0808113"/>
<path d="M16.1495 182.28L15.8942 196.486L16.5451 199.576L21.1276 203.702L26.3242 204.107L26.8513 197.339L32.0581 190.328L43.9821 191.257L48.7656 199.046L48.2385 205.813L105.32 210.259L105.848 203.492L111.81 194.067L126.352 195.2L131.009 202.533L130.981 212.258L138.397 206.027L138.234 195.112L131.806 192.301C114.64 184.779 104.558 180.892 85.4715 174.751C58.32 176.78 43.1405 178.395 16.1495 182.28Z" fill="#EFFB03" stroke="black" stroke-width="0.0808113"/>
<path d="M76.7259 177.762L76.0876 185.958L79.9512 186.305L80.1099 177.503L76.7259 177.762Z" fill="#B0B0B0"/>
<path d="M58.1341 179.187L57.0106 184.247L76.0876 185.958L76.7259 177.762L58.1341 179.187Z" fill="#434343"/>
<path d="M118.669 189.779L85.4102 177.097L80.1099 177.503L79.9512 186.305L118.669 189.779Z" fill="#434343"/>
<path d="M76.7259 177.762L58.1341 179.187L57.0106 184.247L76.0876 185.958M76.7259 177.762L76.0876 185.958M76.7259 177.762L80.1099 177.503M76.0876 185.958L79.9512 186.305M80.1099 177.503L85.4102 177.097L118.669 189.779L79.9512 186.305M80.1099 177.503L79.9512 186.305" stroke="black" stroke-width="0.0808113"/>
<circle cx="118.786" cy="207.012" r="10.7479" transform="rotate(4.45362 118.786 207.012)" fill="#D9D9D9"/>
<circle cx="37.2564" cy="201.634" r="9.77817" transform="rotate(4.45362 37.2564 201.634)" fill="#D9D9D9"/>
<path d="M138.311 195.158L21.7301 186.078M21.7301 186.078L16.1494 182.279M21.7301 186.078L16.5884 199.538" stroke="black" stroke-width="0.0808113"/>
<path d="M131.035 208.453L135.103 208.77L131.934 211.481L130.981 212.258L131.035 208.453Z" fill="#919191" stroke="black" stroke-width="0.0808113"/>
<path d="M48.5737 202.03L105.615 206.473L105.324 210.219L48.2819 205.776L48.5737 202.03Z" fill="#919191" stroke="black" stroke-width="0.0808113"/>
<path d="M110.177 176.403C110.154 176.406 110.132 176.398 110.117 176.381L108.142 174.185C108.136 174.179 108.132 174.172 108.129 174.164L106.703 170.527C106.699 170.516 106.698 170.503 106.7 170.491L107.205 167.354C107.206 167.348 107.207 167.342 107.21 167.336L108.762 163.975C108.764 163.97 108.767 163.966 108.77 163.961L110.694 161.554C110.696 161.55 110.7 161.547 110.703 161.544L113.275 159.364C113.283 159.357 113.292 159.352 113.302 159.35L116.647 158.48L120.067 157.635C120.075 157.633 120.084 157.632 120.093 157.634L122.877 158.05C122.882 158.05 122.887 158.052 122.892 158.054L125.092 158.934L127.301 160.158C127.308 160.161 127.313 160.166 127.318 160.171L129.227 162.234L131.393 165.165C131.398 165.171 131.401 165.177 131.403 165.184L132.572 168.693C132.574 168.698 132.575 168.704 132.575 168.71L132.714 171.008C132.714 171.011 132.714 171.015 132.714 171.018L132.517 173.316C132.515 173.348 132.49 173.374 132.458 173.378L110.177 176.403Z" fill="#1F1F1F" stroke="black" stroke-width="0.0689373"/>
<path d="M186.141 165.534C186.114 165.538 186.087 165.525 186.072 165.503L184.562 163.154C184.556 163.145 184.553 163.136 184.551 163.126L184.017 159.189C184.016 159.182 184.016 159.175 184.017 159.169L184.524 156.023C184.525 156.017 184.526 156.011 184.529 156.005L186.081 152.644C186.083 152.639 186.086 152.634 186.089 152.63L188.013 150.223C188.015 150.219 188.018 150.216 188.022 150.213L190.594 148.033C190.602 148.026 190.611 148.021 190.621 148.019L193.966 147.149L197.385 146.304C197.394 146.301 197.403 146.301 197.412 146.302L200.196 146.718C200.201 146.719 200.206 146.721 200.211 146.723L202.41 147.603L204.62 148.827C204.626 148.83 204.632 148.835 204.637 148.84L206.546 150.902L208.712 153.834C208.717 153.839 208.72 153.846 208.722 153.853L209.89 157.362C209.892 157.367 209.894 157.373 209.894 157.379L210.033 159.677C210.033 159.68 210.033 159.683 210.033 159.687L209.836 161.985C209.833 162.017 209.809 162.043 209.778 162.048L186.141 165.534Z" fill="#1F1F1F" stroke="black" stroke-width="0.0689373"/>
<path d="M93.8593 174.827C93.8398 174.85 93.8367 174.883 93.8531 174.908C94.0055 175.142 94.7761 176.3 95.4891 176.866C97.1671 178.199 98.7051 177.883 100.838 178.088C104.362 178.427 109.678 177.009 110.445 176.798C110.491 176.785 110.507 176.731 110.478 176.692C110.238 176.37 109.329 175.143 108.805 174.259C108.411 173.592 108.105 173.246 107.872 172.507C107.658 171.826 107.663 171.409 107.626 170.697C107.565 169.497 107.593 168.793 107.906 167.633C108.223 166.457 108.605 165.856 109.227 164.81C109.777 163.885 110.121 163.377 110.837 162.573C111.473 161.86 111.855 161.467 112.628 160.904C113.499 160.27 114.062 160.009 115.06 159.6C115.744 159.32 116.144 159.2 116.858 159.008C118.47 158.576 119.434 158.251 121.093 158.433C122.326 158.568 122.997 158.853 124.138 159.342C125.415 159.889 126.138 160.258 127.201 161.152C128.053 161.868 128.447 162.372 129.122 163.257C129.889 164.263 130.318 164.855 130.819 166.018C131.273 167.072 131.4 167.723 131.619 168.844L131.623 168.865C131.962 170.603 131.902 173.292 131.888 173.792C131.886 173.835 131.924 173.868 131.966 173.863L186.825 166.415C186.868 166.409 186.895 166.365 186.88 166.324C186.753 165.968 186.237 164.51 185.994 163.502C185.58 161.788 185.298 160.789 185.386 159.028C185.462 157.514 185.62 156.634 186.193 155.231C186.742 153.886 187.252 153.207 188.165 152.076C189.04 150.991 189.594 150.408 190.712 149.574C191.9 148.687 192.649 148.252 194.049 147.764C195.778 147.162 196.869 146.988 198.694 147.133C200.657 147.29 201.796 147.678 203.495 148.673C204.604 149.323 205.183 149.793 206.069 150.724C206.961 151.662 207.422 152.26 208 153.418C208.543 154.508 208.676 155.2 208.959 156.384C209.319 157.89 209.766 158.788 209.493 160.312C209.329 161.223 208.672 162.419 208.424 162.848C208.391 162.903 208.444 162.971 208.505 162.95C209.24 162.7 212.053 161.715 212.89 160.999C213.856 160.172 216.033 152.119 215.43 151.262C214.881 150.482 213.604 149.858 213.378 149.752C213.357 149.742 213.342 149.722 213.339 149.698L213.215 148.782C213.208 148.733 213.254 148.693 213.303 148.705C213.734 148.814 213.991 148.762 214.39 148.534C214.414 148.52 214.428 148.493 214.424 148.465L213.858 144.3C213.854 144.266 213.825 144.241 213.791 144.24C213.619 144.235 213.114 144.213 212.789 144.107C211.08 143.549 211.896 139.884 212.072 139.172C212.085 139.119 212.034 139.073 211.982 139.088C206.824 140.645 203.785 140.714 198.406 140.911C198.406 140.911 182.543 139.765 172.361 139.438C170.016 139.363 168.702 139.278 166.356 139.279C159.396 139.283 148.618 140.713 148.467 140.734C148.463 140.734 148.464 140.735 148.459 140.736C138.876 144.106 133.788 146.996 124.949 152.929C124.942 152.934 124.934 152.938 124.925 152.94C112.911 155.515 106.888 158.535 96.4319 164.525C96.4262 164.528 96.4209 164.533 96.4164 164.537L92.9621 168.125C92.9369 168.151 92.9368 168.193 92.9613 168.22C94.4707 169.874 95.3395 170.515 96.8339 171.208C96.8755 171.227 96.8874 171.281 96.8575 171.316C95.8291 172.511 95.1276 173.334 93.8593 174.827Z" fill="#EC1168"/>
<path d="M131.623 168.865C131.962 170.603 131.902 173.292 131.888 173.792C131.886 173.835 131.924 173.868 131.966 173.863L186.825 166.415C186.868 166.409 186.895 166.365 186.88 166.324C186.753 165.968 186.237 164.51 185.994 163.502C185.58 161.788 185.298 160.789 185.386 159.028C185.462 157.514 185.62 156.634 186.193 155.231C186.742 153.886 187.252 153.207 188.165 152.076C189.04 150.991 189.594 150.408 190.712 149.574C191.9 148.687 192.649 148.252 194.049 147.764C195.778 147.162 196.869 146.988 198.694 147.133C200.657 147.29 201.796 147.678 203.495 148.673C204.604 149.323 205.183 149.793 206.069 150.724C206.961 151.662 207.422 152.26 208 153.418C208.543 154.508 208.676 155.2 208.959 156.384C209.319 157.89 209.766 158.788 209.493 160.312C209.329 161.223 208.672 162.419 208.424 162.848C208.391 162.903 208.444 162.971 208.505 162.95C209.24 162.7 212.053 161.715 212.89 160.999C213.856 160.172 216.033 152.119 215.43 151.262C214.881 150.482 213.604 149.858 213.378 149.752C213.357 149.742 213.342 149.722 213.339 149.698L213.215 148.782C213.208 148.733 213.254 148.693 213.303 148.705C213.734 148.814 213.991 148.762 214.39 148.534C214.414 148.52 214.428 148.493 214.424 148.465L213.858 144.3C213.854 144.266 213.825 144.241 213.791 144.24C213.619 144.235 213.114 144.213 212.789 144.107C211.08 143.549 211.896 139.884 212.072 139.172C212.085 139.119 212.034 139.073 211.982 139.088C206.824 140.645 203.785 140.714 198.406 140.911C198.406 140.911 182.543 139.765 172.361 139.438C170.016 139.363 168.702 139.278 166.356 139.279C159.396 139.283 148.618 140.713 148.467 140.734C148.463 140.734 148.464 140.735 148.459 140.736C138.876 144.106 133.788 146.996 124.949 152.929C124.942 152.934 124.934 152.938 124.925 152.94C112.911 155.515 106.888 158.535 96.4319 164.525C96.4262 164.528 96.4209 164.533 96.4164 164.537L92.9621 168.125C92.9369 168.151 92.9368 168.193 92.9613 168.22C94.4707 169.874 95.3395 170.515 96.8339 171.208C96.8755 171.227 96.8874 171.281 96.8575 171.316C95.8291 172.511 95.1276 173.334 93.8593 174.827C93.8398 174.85 93.8367 174.883 93.8531 174.908C94.0055 175.142 94.7761 176.3 95.4891 176.866C97.1671 178.199 98.7051 177.883 100.838 178.088C104.362 178.427 109.678 177.009 110.445 176.798C110.491 176.785 110.507 176.731 110.478 176.692C110.238 176.37 109.329 175.143 108.805 174.259C108.411 173.592 108.105 173.246 107.872 172.507C107.658 171.826 107.663 171.409 107.626 170.697C107.565 169.497 107.593 168.793 107.906 167.633C108.223 166.457 108.605 165.856 109.227 164.81C109.777 163.885 110.121 163.377 110.837 162.573C111.473 161.86 111.855 161.467 112.628 160.904C113.499 160.27 114.062 160.009 115.06 159.6C115.744 159.32 116.144 159.2 116.858 159.008C118.47 158.576 119.434 158.251 121.093 158.433C122.326 158.568 122.997 158.853 124.138 159.342C125.415 159.889 126.138 160.258 127.201 161.152C128.053 161.868 128.447 162.372 129.122 163.257C129.889 164.263 130.318 164.855 130.819 166.018C131.273 167.072 131.4 167.723 131.619 168.844M131.623 168.865L131.619 168.844M131.623 168.865C131.621 168.858 131.62 168.851 131.619 168.844" stroke="black" stroke-width="0.0689373"/>
<circle cx="119.689" cy="169.616" r="9.2376" transform="rotate(-7.73077 119.689 169.616)" fill="#686868"/>
<circle cx="196.675" cy="159.165" r="9.2376" transform="rotate(-7.73077 196.675 159.165)" fill="#686868"/>
<path d="M95.1652 176.389C95.0968 176.388 95.0689 176.478 95.1239 176.519C95.7474 176.98 96.0633 177.365 96.9554 177.708C96.9586 177.71 96.9619 177.711 96.9653 177.711C98.3106 178.008 99.8505 178.094 101.262 178.135C104.963 178.036 106.9 177.836 110.445 176.799C110.49 176.786 110.51 176.732 110.483 176.693L109.441 175.204C109.426 175.182 109.402 175.17 109.375 175.175C108.882 175.267 103.98 176.169 100.74 176.346C98.9078 176.445 95.9966 176.404 95.1652 176.389Z" fill="#777777"/>
<path d="M131.975 171.79C131.942 171.796 131.917 171.825 131.917 171.858L131.924 173.825C131.924 173.866 131.961 173.898 132.002 173.893L178.606 167.566C178.669 167.557 178.687 167.476 178.634 167.441C176.588 166.096 174.818 165.724 170.376 165.502C170.371 165.502 170.366 165.502 170.361 165.503C155.288 167.834 146.858 169.191 131.975 171.79Z" fill="#777777"/>
<path d="M170.871 150.236C170.822 150.288 170.874 150.371 170.942 150.349C177.591 148.163 184.086 145.089 184.005 144.241C183.925 143.397 180.867 143.047 177.76 142.893C177.699 142.89 177.665 142.962 177.707 143.007C178.035 143.353 178.313 143.56 178.85 143.818C178.903 143.843 178.902 143.918 178.85 143.944C175.163 145.77 173.54 147.38 170.871 150.236Z" fill="#505050"/>
<path d="M173.303 139.463C173.352 139.466 173.384 139.519 173.362 139.563L173.168 139.943C173.164 139.951 173.158 139.959 173.151 139.964C167.675 144.687 163.911 146.307 157.384 149.972C157.377 149.976 157.369 149.979 157.361 149.98L140.483 152.654L140.486 152.641C140.591 152.125 140.651 151.83 140.116 151.154C140.108 151.145 140.098 151.137 140.087 151.133C138.114 150.363 136.853 150.566 134.236 151.934C134.232 151.936 134.227 151.939 134.223 151.942C133.322 152.697 133.218 153.135 133.617 153.868C133.641 153.912 133.613 153.967 133.563 153.972L122.626 155.075C122.554 155.083 122.525 154.986 122.585 154.947C134.535 147.124 139.129 144.327 148.631 140.713C148.635 140.711 148.639 140.71 148.643 140.71C154.968 139.504 154.702 139.505 161.252 139.551C161.269 139.551 161.286 139.546 161.298 139.534C161.527 139.323 163.812 137.226 164.499 136.871C165.187 136.516 165.611 136.481 166.331 136.589C166.383 136.596 166.407 136.657 166.377 136.7C165.707 137.644 166.01 138.559 166.444 139.267C166.456 139.287 166.479 139.3 166.502 139.3C170.045 139.329 170.325 139.265 173.303 139.463Z" fill="#5F5F5F"/>
<path d="M140.483 152.654L157.361 149.98C157.369 149.979 157.377 149.976 157.384 149.972C163.911 146.307 167.675 144.687 173.151 139.964C173.158 139.959 173.164 139.951 173.168 139.943L173.362 139.563C173.384 139.519 173.352 139.466 173.303 139.463C170.325 139.265 170.045 139.329 166.502 139.3C166.479 139.3 166.456 139.287 166.444 139.267C166.01 138.559 165.707 137.644 166.377 136.7C166.407 136.657 166.383 136.596 166.331 136.589C165.611 136.481 165.187 136.516 164.499 136.871C163.812 137.226 161.527 139.323 161.298 139.534C161.286 139.546 161.269 139.551 161.252 139.551C154.702 139.505 154.968 139.504 148.643 140.71C148.639 140.71 148.635 140.711 148.631 140.713C139.129 144.327 134.535 147.124 122.585 154.947C122.525 154.986 122.554 155.083 122.626 155.075L133.563 153.972C133.613 153.967 133.641 153.912 133.617 153.868C133.218 153.135 133.322 152.697 134.223 151.942C134.227 151.939 134.232 151.936 134.236 151.934C136.853 150.566 138.114 150.363 140.087 151.133C140.098 151.137 140.108 151.145 140.116 151.154C140.651 151.83 140.591 152.125 140.486 152.641M140.483 152.654L140.486 152.641M140.483 152.654C140.484 152.649 140.485 152.645 140.486 152.641M101.262 178.135C99.8505 178.094 98.3106 178.008 96.9653 177.711C96.9619 177.711 96.9586 177.71 96.9554 177.708C96.0633 177.365 95.7474 176.98 95.1239 176.519C95.0689 176.478 95.0968 176.388 95.1652 176.389C95.9966 176.404 98.9078 176.445 100.74 176.346C103.98 176.169 108.882 175.267 109.375 175.175C109.402 175.17 109.426 175.182 109.441 175.204L110.483 176.693C110.51 176.732 110.49 176.786 110.445 176.799C106.9 177.836 104.963 178.036 101.262 178.135ZM184.005 144.241C184.086 145.089 177.591 148.163 170.942 150.349C170.874 150.371 170.822 150.288 170.871 150.236C173.54 147.38 175.163 145.77 178.85 143.944C178.902 143.918 178.903 143.843 178.85 143.818C178.313 143.56 178.035 143.353 177.707 143.007C177.665 142.962 177.699 142.89 177.76 142.893C180.867 143.047 183.925 143.397 184.005 144.241ZM170.376 165.502C174.818 165.724 176.588 166.096 178.634 167.441C178.687 167.476 178.669 167.557 178.606 167.566L132.002 173.893C131.961 173.898 131.924 173.866 131.924 173.825L131.917 171.858C131.917 171.825 131.942 171.796 131.975 171.79C146.858 169.191 155.288 167.834 170.361 165.503C170.366 165.502 170.371 165.502 170.376 165.502Z" stroke="black" stroke-width="0.0689373"/>
<path d="M165.396 145.531C165.396 145.531 169.324 151.398 169.911 152.397C170.46 153.329 167.953 160.557 167.617 161.514C167.6 161.563 167.641 161.61 167.692 161.603L185.307 159.212" stroke="black" stroke-width="0.0689373"/>
<path d="M131.864 154.188C131.864 154.188 129.765 158.96 130.471 161.091C131.177 163.221 132.972 165.934 133.185 167.505C133.399 169.076 133.728 171.501 133.728 171.501" stroke="black" stroke-width="0.0689373"/>
<path d="M183.903 144.515C183.903 144.515 189.253 142.771 193.17 142.061C199.817 140.856 212.793 144.141 212.793 144.141" stroke="black" stroke-width="0.0689373"/>
<rect x="22.3844" y="53.3055" width="187.209" height="52.9421" rx="3.27741" transform="rotate(10.4232 22.3844 53.3055)" stroke="white" stroke-width="0.438232"/>
<g filter="url(#filter8_d_631_108750)">
<path d="M94.6841 92.1445C94.6841 92.1445 94.9166 90.93 95.1114 89.7223C95.2799 88.5326 95.4211 87.3425 95.4211 87.3425C95.4211 87.3425 96.1248 86.9965 96.8261 86.6637C97.5354 86.337 98.2475 86.02 98.2475 86.02C98.5298 84.6592 98.8003 83.9592 99.6403 82.8473C99.6403 82.8473 99.2288 82.127 98.7999 81.4263C98.3424 80.757 97.8636 80.0792 97.8636 80.0792C97.8636 80.0792 98.2934 79.3582 98.7099 78.6347C99.1027 77.916 99.4826 77.2179 99.4826 77.2179C99.4826 77.2179 100.194 77.527 100.891 77.861C101.575 78.197 102.246 78.5491 102.246 78.5491C102.77 77.4157 103.189 76.9991 104.151 76.6914C104.151 76.6914 104.166 75.8163 104.161 74.9468C104.149 74.0713 104.119 73.2154 104.119 73.2154C104.119 73.2154 104.873 73.1164 105.619 73.0343C106.36 72.9603 107.099 72.895 107.099 72.895C107.099 72.895 107.409 73.7201 107.713 74.5532C107.989 75.3903 108.268 76.2326 108.268 76.2326C109.242 76.2061 109.705 76.4238 110.375 77.0546C110.375 77.0546 110.729 76.4979 111.088 75.9376C111.445 75.3906 111.784 74.8403 111.784 74.8403C111.784 74.8403 112.425 75.5068 113.044 76.1922C113.643 76.8876 114.222 77.593 114.222 77.593C114.222 77.593 113.986 78.4 113.736 79.2135C113.474 80.043 113.195 80.8605 113.195 80.8605C113.669 81.8162 113.821 82.4797 113.893 83.9011C113.893 83.9011 114.419 84.1258 114.944 84.3549C115.468 84.584 115.992 84.8175 115.992 84.8175C115.992 84.8175 115.958 85.9222 115.915 87.0253C115.847 88.142 115.762 89.2739 115.762 89.2739C115.762 89.2739 115.184 89.5104 114.606 89.7469C114.023 89.9825 113.425 90.2246 113.425 90.2246C113.279 91.0206 113.138 91.6348 112.934 92.1733C112.733 92.7215 112.471 93.1991 112.082 93.7951C112.082 93.7951 112.242 94.6428 112.395 95.4985C112.542 96.3667 112.676 97.228 112.676 97.228C112.676 97.228 112.023 98.0724 111.342 98.9164C110.642 99.7615 109.926 100.622 109.926 100.622C109.926 100.622 109.528 100.05 109.118 99.4994C108.702 98.9475 108.28 98.4082 108.28 98.4082C107.34 99.2729 106.805 99.6454 105.829 99.9551C105.829 99.9551 105.382 100.993 104.902 102.038C104.413 103.078 103.906 104.123 103.906 104.123C103.906 104.123 103.164 104.151 102.409 104.209C101.636 104.258 100.858 104.312 100.858 104.312C100.858 104.312 101.08 103.306 101.283 102.301C101.456 101.309 101.624 100.297 101.624 100.297C100.685 100.207 100.267 99.9697 99.7522 99.139C99.7522 99.139 98.9901 99.7531 98.209 100.345C97.4228 100.941 96.612 101.547 96.612 101.547C96.612 101.547 96.2479 100.817 95.8786 100.091C95.4972 99.3803 95.0993 98.6854 95.0993 98.6854C95.0993 98.6854 95.7748 97.7718 96.4343 96.8462C97.0559 95.9273 97.6607 95.0008 97.6607 95.0008C97.2657 94.0412 97.2035 93.3851 97.3435 92.0028C97.3435 92.0028 96.6887 92.0332 96.0259 92.0575C95.3606 92.0952 94.6841 92.1445 94.6841 92.1445Z" fill="#E6E6E6" stroke="#E6E6E6" stroke-width="1.79854"/>
<path d="M28.6178 65.8779C28.7205 65.8804 28.9187 65.9543 29.2335 66.1689L29.237 66.1716L29.2378 66.1727C29.2385 66.1731 29.2402 66.1735 29.2415 66.1744C29.2441 66.1761 29.2482 66.1783 29.2531 66.1815C29.2633 66.1881 29.2782 66.1987 29.2982 66.2116C29.3384 66.2376 29.3981 66.2759 29.4758 66.3257C29.6311 66.4253 29.8587 66.5706 30.1488 66.7533C30.7291 67.1189 31.5592 67.6347 32.5591 68.2353L32.5628 68.237C33.5575 68.8096 34.7429 69.4628 35.9837 70.1303L35.9882 70.1331C37.261 70.7793 38.6011 71.438 39.947 72.0658L39.9499 72.0664C41.2945 72.6708 42.6218 73.2454 43.8773 73.7649L43.8811 73.7656C44.5083 74.0137 45.1136 74.2494 45.6891 74.4685L47.317 75.0758L47.3207 75.0775C48.3205 75.4238 49.1584 75.708 49.746 75.9059C50.0396 76.0048 50.2709 76.0822 50.4287 76.1348C50.5077 76.161 50.5684 76.1813 50.6093 76.1948C50.6295 76.2015 50.6448 76.2067 50.6552 76.2102C50.6604 76.2119 50.6648 76.2126 50.6675 76.2134C50.6687 76.2138 50.6695 76.2147 50.6702 76.2149L50.675 76.2158C51.2579 76.3973 51.7688 76.6747 52.197 77.0588L52.2038 77.065L52.2057 77.0654C52.2067 77.0661 52.2081 77.0676 52.21 77.0691C52.2139 77.0724 52.2202 77.0779 52.228 77.0844C52.2436 77.0973 52.2669 77.1168 52.2969 77.1417C52.3573 77.192 52.4455 77.2662 52.5575 77.3604C52.7821 77.5494 53.1021 77.8205 53.4821 78.1481L53.4863 78.1519C54.2532 78.7774 55.2536 79.5935 56.2568 80.3694L56.257 80.3684C57.2392 81.1334 58.2076 81.8814 58.921 82.4363L58.9227 82.4376C59.2796 82.7089 59.5774 82.9355 59.786 83.0939C59.8901 83.1729 59.9724 83.235 60.0283 83.2775C60.0563 83.2987 60.0784 83.3151 60.0928 83.3261C60.0998 83.3314 60.1047 83.3361 60.1084 83.3388C60.1101 83.3401 60.1119 83.341 60.1128 83.3417L60.1136 83.3428L60.1146 83.343L60.118 83.3456C60.5261 83.641 60.6587 83.9024 60.6414 84.128L60.6403 84.1338L60.6407 84.1368C60.6406 84.139 60.6402 84.1423 60.6399 84.1466C60.6395 84.1552 60.6388 84.168 60.6379 84.1849C60.636 84.2189 60.6336 84.2695 60.63 84.3354C60.6229 84.4672 60.6126 84.661 60.5992 84.9076L60.5989 84.9096C60.5767 85.4005 60.5335 86.102 60.4554 86.9475C60.3937 87.3565 60.3263 87.7931 60.2234 88.2572C60.1381 88.611 60.0305 88.9751 59.909 89.3453L59.7828 89.7182C59.6095 90.2229 59.3955 90.7318 59.1678 91.2534C58.9154 91.7846 58.6538 92.3176 58.3744 92.8511C58.0881 93.3766 57.7694 93.9056 57.4522 94.4369C57.1238 94.9594 56.7873 95.4756 56.4451 95.9764C56.1041 96.4756 55.7479 96.9551 55.4035 97.4123L55.4034 97.4132C55.0595 97.8731 54.7279 98.294 54.4175 98.7024C54.0867 99.0999 53.7779 99.4637 53.5011 99.787L52.7765 100.628C52.569 100.857 52.4062 101.036 52.2949 101.157C52.239 101.218 52.196 101.264 52.1672 101.295C52.1528 101.311 52.1413 101.322 52.134 101.33C52.1304 101.334 52.1281 101.337 52.1263 101.339C52.1255 101.34 52.1245 101.34 52.124 101.341L52.1239 101.342L52.1203 101.345C51.8914 101.602 51.5089 101.696 50.8877 101.53L50.881 101.529C50.8759 101.528 50.8682 101.526 50.8583 101.523C50.8384 101.518 50.809 101.509 50.7705 101.498C50.6932 101.476 50.579 101.445 50.4343 101.404C50.1448 101.323 49.7309 101.204 49.2331 101.057C48.2332 100.764 46.9017 100.359 45.5489 99.9417L45.5499 99.9418C44.1899 99.4995 42.8237 99.0613 41.8003 98.7179L41.8012 98.718C41.2855 98.5409 40.8553 98.3926 40.5547 98.2882C40.4048 98.2361 40.2871 98.1946 40.2067 98.1666C40.1665 98.1525 40.1351 98.1419 40.1143 98.1347C40.104 98.1311 40.0962 98.1282 40.091 98.1264C40.0886 98.1256 40.0867 98.1248 40.0854 98.1244L40.0837 98.1231L40.0827 98.1229C39.7472 98.0004 39.5896 97.8867 39.5366 97.8099C39.5168 97.7813 39.5192 97.7696 39.52 97.7652C39.522 97.754 39.5332 97.7204 39.5878 97.6665L39.5925 97.6624L39.5927 97.6614C39.5931 97.6609 39.5942 97.6606 39.595 97.6598C39.5966 97.6581 39.5991 97.6556 39.6023 97.6522C39.609 97.6453 39.6189 97.6346 39.6319 97.6209C39.658 97.5936 39.6966 97.5529 39.7465 97.5C39.8464 97.3941 39.9923 97.2386 40.1757 97.0398C40.5423 96.6423 41.0597 96.0716 41.6639 95.3783L41.6666 95.3748C42.2543 94.6785 42.9007 93.8608 43.5667 92.9799L43.572 92.9729L44.5137 91.6051L44.5191 91.5971C44.8171 91.1244 45.1127 90.6417 45.3932 90.1652L45.3965 90.1579C45.6597 89.6745 45.9163 89.1838 46.1671 88.7109L46.1735 88.6982C46.3893 88.2184 46.6057 87.7416 46.7979 87.274L46.7995 87.2703C47.074 86.5674 47.304 85.8954 47.4947 85.2783L47.6722 84.6804L47.6756 84.6671C47.8493 83.885 47.98 83.2289 48.0676 82.7682C48.1114 82.538 48.1441 82.3565 48.1662 82.2323C48.1772 82.1702 48.1858 82.1223 48.1914 82.09C48.1941 82.0739 48.1967 82.0618 48.1981 82.0535C48.1988 82.0493 48.1985 82.0458 48.1989 82.0437C48.1991 82.0426 48.1993 82.0414 48.1994 82.0408L48.2004 82.041L48.201 82.0322C48.2572 81.6014 48.0872 81.2233 47.7417 80.9071C47.4043 80.5984 46.892 80.3402 46.2292 80.1205C46.2264 80.1195 46.2223 80.1181 46.217 80.1162C46.2063 80.1124 46.1903 80.1068 46.1695 80.0995C46.1277 80.0849 46.0666 80.0629 45.9886 80.0355C45.8326 79.9805 45.6094 79.9022 45.3425 79.8074C44.809 79.618 44.0996 79.3639 43.3942 79.1064L43.3951 79.1066C42.6896 78.8377 41.9819 78.5591 41.4505 78.3477C41.1851 78.2422 40.9635 78.154 40.8085 78.0916C40.731 78.0604 40.6698 78.0355 40.6283 78.0188C40.6076 78.0104 40.592 78.0035 40.5813 77.9992C40.5761 77.9971 40.5718 77.9961 40.5691 77.995C40.5678 77.9944 40.5661 77.9936 40.5655 77.9933L40.5645 77.9931L40.3012 77.8861L40.2584 78.1672L40.256 78.1806C40.2546 78.1894 40.2524 78.2029 40.2497 78.2202C40.2443 78.255 40.236 78.3071 40.2253 78.3746L40.1298 78.9637C40.03 79.4557 39.8656 80.1534 39.6553 80.9765C39.548 81.3874 39.4197 81.8353 39.2714 82.297C39.1237 82.7567 38.9467 83.2311 38.7554 83.7253L38.7545 83.7251L38.7541 83.727C38.5679 84.2247 38.3458 84.7204 38.122 85.2362C37.882 85.7322 37.6212 86.2285 37.3625 86.7418C37.0801 87.2395 36.7857 87.7314 36.4824 88.2173L36.4812 88.218C36.1856 88.6962 35.8641 89.1622 35.5453 89.6088C35.2139 90.0552 34.8962 90.4817 34.5855 90.8909C34.2635 91.2853 33.9438 91.6534 33.6489 92.0044C33.0446 92.6867 32.5246 93.2454 32.1439 93.6221L32.1295 93.6354L32.1185 93.6522C31.9404 93.9041 31.8094 94.1217 31.7225 94.2774C31.679 94.3553 31.6459 94.4182 31.624 94.4618C31.6132 94.4833 31.6046 94.5 31.5989 94.5118C31.5961 94.5178 31.5938 94.5232 31.5923 94.5265C31.5006 94.7076 31.3787 94.8284 31.2238 94.8996C31.0648 94.9726 30.8516 95.0021 30.567 94.9664L30.563 94.9667L30.5563 94.9655C30.5518 94.965 30.5448 94.9647 30.5358 94.9637C30.5175 94.9616 30.4897 94.9586 30.454 94.9546C30.3827 94.9465 30.2778 94.9342 30.1439 94.9184C29.8763 94.8868 29.4927 94.8401 29.0295 94.7799C28.093 94.6579 26.8409 94.4866 25.5828 94.3008C24.948 94.2023 24.3159 94.1029 23.7245 94.0066L22.1082 93.7351L22.1063 93.7348C21.6318 93.6566 21.2357 93.5909 20.9587 93.5445C20.8206 93.5214 20.7121 93.503 20.638 93.4905C20.6011 93.4843 20.5725 93.4791 20.5533 93.4759C20.5437 93.4743 20.5359 93.4736 20.531 93.4728L20.5176 93.4703C20.2247 93.4292 20.141 93.3532 20.1103 93.304C20.0731 93.2445 20.0591 93.1458 20.0778 92.9406C20.0829 92.9288 20.0902 92.9143 20.0979 92.8966C20.1203 92.8446 20.1532 92.7668 20.1969 92.6656C20.2845 92.463 20.4146 92.1648 20.5809 91.782L20.5801 91.7809C20.9174 91.0182 21.3759 89.9445 21.9258 88.6435C22.2043 88.0022 22.4955 87.2952 22.79 86.5634L22.7917 86.5597C23.0752 85.8129 23.3776 85.0378 23.6908 84.2308L23.6916 84.226C23.9856 83.4242 24.2805 82.595 24.581 81.7553L24.5827 81.7516C24.8704 80.9085 25.1605 80.0497 25.4337 79.1875L25.4347 79.1877C25.7008 78.3388 25.9601 77.4748 26.2058 76.6367L26.2061 76.6347C26.3242 76.2171 26.4396 75.8017 26.5504 75.3894L26.8677 74.1609C27.0643 73.3656 27.2499 72.5815 27.4125 71.8472C27.5727 71.1999 27.7228 70.5809 27.8512 70.0076L27.8521 70.0028C28.0857 68.8325 28.2653 67.8327 28.3733 67.1208L28.3737 67.1189L28.4951 66.2913C28.5094 66.1949 28.5204 66.1201 28.5279 66.0699C28.5316 66.0453 28.5343 66.0265 28.5362 66.0138L28.5398 65.9946L28.5393 65.9916C28.5502 65.914 28.5707 65.8891 28.5748 65.8849C28.5763 65.8834 28.5781 65.8824 28.5815 65.8812C28.586 65.8796 28.5972 65.8775 28.6178 65.8779Z" fill="#E6E6E6" stroke="#E6E6E6" stroke-width="0.449636"/>
<path d="M85.4538 78.6871C85.7721 78.6128 86.0658 78.6522 86.3573 78.8225L86.3609 78.8242L86.3619 78.8244C86.3626 78.8248 86.3639 78.8262 86.3654 78.827C86.3682 78.8286 86.3727 78.8303 86.3781 78.8333C86.3895 78.8397 86.4064 78.8501 86.4284 78.8624C86.4723 78.887 86.5369 78.9231 86.6183 78.9688C86.7806 79.0601 87.0116 79.189 87.2851 79.3437L87.2849 79.3447C87.828 79.662 88.5322 80.0578 89.2258 80.4692L89.226 80.4683C89.9056 80.88 90.5667 81.2931 91.06 81.607L91.0598 81.6079C91.3049 81.7674 91.5078 81.8982 91.649 81.9894C91.7194 82.0348 91.7747 82.0706 91.8123 82.0949C91.8311 82.107 91.8461 82.1165 91.8558 82.1227C91.8605 82.1257 91.864 82.1281 91.8664 82.1297C91.8677 82.1304 91.8683 82.1317 91.869 82.1321L91.8699 82.1323L91.8753 82.1353C92.0961 82.2692 92.2249 82.4831 92.2423 82.8015L92.2424 82.8065L92.2432 82.8076C92.2432 82.8087 92.2431 82.8105 92.2432 82.8126C92.2436 82.8173 92.2446 82.8246 92.2453 82.8338C92.2466 82.8525 92.2483 82.8808 92.2508 82.9173C92.2559 82.9901 92.263 83.0971 92.272 83.2339C92.2899 83.507 92.3151 83.8989 92.3413 84.3737L92.3412 84.3747C92.3497 84.6128 92.3565 84.8744 92.3609 85.1528L92.363 86.0319C92.3366 86.6407 92.2901 87.3091 92.2299 87.9804L92.2298 87.9814C92.1898 88.3222 92.1465 88.6638 92.1001 88.9992L91.9529 89.9829C91.8434 90.6274 91.7279 91.2307 91.6264 91.7578C91.5031 92.2792 91.3995 92.7166 91.3271 93.0234C91.2934 93.1661 91.2662 93.2805 91.2469 93.3621L91.2467 93.3631C91.1517 93.3804 91.0115 93.4066 90.8336 93.439L89.3535 93.7069C88.7275 93.8193 87.9901 93.9385 87.1874 94.0601L87.1863 94.0609C86.3804 94.1857 85.5026 94.3024 84.6037 94.406L84.6018 94.4056C83.6975 94.5172 82.7682 94.6148 81.9018 94.6924C81.0182 94.7623 80.1689 94.8255 79.4415 94.8693C78.6936 94.9007 78.0646 94.9223 77.6229 94.9369C77.4022 94.9443 77.2282 94.9502 77.1095 94.9537C77.0501 94.9555 77.0044 94.9567 76.9737 94.9575C76.9584 94.958 76.9467 94.9578 76.9389 94.9581C76.935 94.9582 76.9318 94.9583 76.9299 94.9584L76.9278 94.959L76.7932 94.962L76.7322 95.0829L76.7309 95.0846C76.7302 95.0861 76.7291 95.089 76.7276 95.092C76.7246 95.0979 76.7205 95.1071 76.7148 95.1184C76.7031 95.1415 76.6854 95.1752 76.6636 95.2182C76.6199 95.3046 76.5575 95.4286 76.4815 95.5769C76.3301 95.8724 76.1264 96.2663 75.9154 96.6624C75.6901 97.055 75.4613 97.4521 75.2892 97.7506C75.2033 97.8997 75.1313 98.0241 75.0809 98.1115C75.0557 98.1551 75.036 98.1895 75.0225 98.2129C75.0158 98.2245 75.0111 98.2339 75.0076 98.24C75.0058 98.243 75.0042 98.2456 75.0033 98.2471L75.002 98.2489L74.8589 98.4976L75.1341 98.578L75.1369 98.5785C75.1387 98.579 75.1412 98.5799 75.1445 98.5809C75.1516 98.583 75.1627 98.5858 75.1766 98.5898C75.2044 98.5979 75.2454 98.6098 75.2972 98.6249C75.4009 98.655 75.5489 98.6977 75.7261 98.7495C76.0805 98.8529 76.5516 98.9918 77.0194 99.1303L77.0203 99.1305C77.4813 99.2657 77.943 99.3961 78.2891 99.493C78.4622 99.5414 78.6065 99.5818 78.7076 99.6097C78.7579 99.6236 78.7978 99.6338 78.8249 99.6412C78.8383 99.6449 78.849 99.648 78.856 99.6499C78.8596 99.6509 78.8627 99.652 78.8645 99.6525L78.8674 99.653L78.892 99.6595L78.9175 99.6612L78.9185 99.6614C78.9194 99.6614 78.9208 99.6611 78.9225 99.6611C78.926 99.6613 78.9315 99.6618 78.9382 99.6621C78.9517 99.6626 78.9716 99.663 78.9974 99.664C79.0499 99.666 79.1272 99.6687 79.2253 99.6722L80.0417 99.6982L80.0467 99.6981C80.7269 99.7044 81.6084 99.7116 82.4866 99.7131L82.4887 99.7124C83.3431 99.7054 84.1961 99.6968 84.8319 99.6808L84.8327 99.6819C85.1447 99.6775 85.4042 99.6723 85.5858 99.6685C85.6767 99.6666 85.7485 99.6649 85.7972 99.6637C85.8214 99.6632 85.8404 99.6634 85.8529 99.6631L85.855 99.6625C85.8789 99.665 85.8933 99.67 85.9017 99.673C85.9025 99.6827 85.9037 99.7001 85.8986 99.7281C85.8903 99.7724 85.8715 99.8327 85.8363 99.9102L85.8361 99.9112C85.8358 99.9118 85.835 99.9129 85.8346 99.9139C85.8335 99.9162 85.8318 99.9195 85.8298 99.9239C85.8254 99.9332 85.8187 99.947 85.8103 99.965C85.7934 100.001 85.7692 100.055 85.7375 100.123C85.6739 100.26 85.5823 100.455 85.4717 100.688C85.3611 100.922 85.2313 101.194 85.0906 101.486L84.6434 102.401C84.314 103.017 83.9757 103.636 83.719 104.1C83.5903 104.333 83.4817 104.528 83.4058 104.664C83.368 104.732 83.3386 104.785 83.3182 104.822C83.308 104.84 83.2998 104.855 83.2945 104.864C83.2921 104.868 83.29 104.872 83.2888 104.874L83.2874 104.876C83.0679 105.256 82.7647 105.437 82.3846 105.449C82.3839 105.449 82.3828 105.45 82.3815 105.45C82.3785 105.45 82.3735 105.45 82.3675 105.45C82.3556 105.451 82.3378 105.451 82.3147 105.451C82.2683 105.453 82.2001 105.454 82.1133 105.456C81.9395 105.46 81.6905 105.467 81.3912 105.473C80.7931 105.486 79.993 105.502 79.1835 105.513C78.359 105.514 77.5215 105.511 76.8899 105.507C76.5741 105.505 76.3095 105.504 76.1242 105.502C76.0317 105.502 75.9588 105.501 75.9091 105.5C75.8844 105.5 75.8654 105.5 75.8526 105.5C75.8483 105.5 75.8446 105.5 75.8417 105.5C75.6587 105.491 75.4717 105.457 75.2634 105.41L75.2643 105.411C75.0803 105.364 74.8804 105.308 74.6945 105.264L74.684 105.262C74.6749 105.26 74.661 105.255 74.6434 105.251C74.6082 105.242 74.5563 105.229 74.4907 105.212C74.3589 105.177 74.1704 105.128 73.9431 105.068C73.4884 104.95 72.8787 104.791 72.2594 104.629L72.2604 104.63C71.6341 104.462 71.0032 104.288 70.5286 104.155C70.2914 104.089 70.0932 104.033 69.9545 103.994C69.8851 103.974 69.8303 103.959 69.7931 103.948C69.7745 103.943 69.7602 103.939 69.7506 103.937C69.7488 103.936 69.7474 103.935 69.7459 103.935C69.7436 103.934 69.7401 103.933 69.7365 103.932C69.726 103.928 69.7104 103.922 69.6901 103.915C69.6487 103.899 69.5874 103.876 69.5099 103.847C69.3551 103.788 69.1339 103.703 68.8683 103.6C68.3371 103.392 67.6294 103.108 66.9217 102.803L66.9227 102.803C66.2031 102.481 65.473 102.15 64.9232 101.9C64.6484 101.775 64.4182 101.67 64.2571 101.596C64.1767 101.56 64.1136 101.53 64.0704 101.511C64.0488 101.501 64.032 101.494 64.0208 101.488C64.0152 101.486 64.0109 101.483 64.0081 101.482C64.0069 101.482 64.006 101.481 64.0054 101.481L64.0044 101.481L64.0027 101.479L63.9179 101.438C63.7385 101.337 63.6748 101.22 63.6656 101.098C63.6531 100.933 63.7335 100.687 63.9823 100.348L63.9849 100.345L63.9851 100.344L63.993 100.334C63.998 100.326 64.0051 100.315 64.0147 100.302C64.0342 100.274 64.0636 100.232 64.1009 100.179C64.1757 100.071 64.2847 99.9127 64.4222 99.7115C64.6974 99.3084 65.0862 98.7316 65.5415 98.0367L65.5454 98.0315C65.9697 97.3411 66.4633 96.5313 66.9497 95.6605L66.9514 95.6568C67.4139 94.7879 67.8831 93.8588 68.3086 92.9207L68.3103 92.917C68.7114 91.985 69.0779 91.0488 69.3686 90.1706L69.3715 90.1602C69.618 89.2737 69.7646 88.4488 69.865 87.7527L69.8659 87.7529L69.8663 87.7401C69.9276 87.0451 69.9677 86.4674 69.9921 86.0633C70.0043 85.8613 70.0124 85.7027 70.0177 85.5944C70.0204 85.5402 70.0224 85.4985 70.0237 85.4703C70.0243 85.4563 70.0254 85.4452 70.0257 85.4379C70.0258 85.4345 70.0251 85.4317 70.0252 85.4299L70.0262 85.4241L70.0342 85.3323C70.0682 85.1205 70.2047 84.9352 70.4966 84.7779L70.4989 84.7763C70.4998 84.7758 70.5016 84.7751 70.5033 84.7741C70.5067 84.7722 70.5122 84.7696 70.5186 84.766C70.5321 84.7586 70.5519 84.7473 70.5773 84.7331C70.6286 84.7046 70.7036 84.6624 70.7978 84.6089L71.5685 84.1598L71.573 84.1567C72.0371 83.863 72.598 83.4941 73.1689 83.0979L73.7405 82.6946L73.7488 82.6872C74.4658 82.1154 75.1361 81.5297 75.6074 81.08L75.6161 81.0706C75.8394 80.833 76.0204 80.6323 76.1457 80.4909C76.2083 80.4202 76.257 80.3642 76.2902 80.3258C76.3067 80.3068 76.3194 80.2922 76.3281 80.2821C76.3322 80.2773 76.335 80.2726 76.3373 80.2699L76.3381 80.2711C76.546 80.0389 76.8219 79.9059 77.2082 79.8751L77.2092 79.8753C77.2103 79.8752 77.212 79.8753 77.2142 79.8752C77.2184 79.8749 77.225 79.8743 77.2333 79.8737C77.2499 79.8727 77.2747 79.8715 77.3066 79.8694C77.3706 79.8651 77.4647 79.8586 77.5842 79.8499C77.8237 79.8326 78.1665 79.8062 78.5809 79.7701L78.583 79.7695C79.3865 79.6925 80.4448 79.5713 81.4772 79.4361L81.4824 79.435C82.502 79.2786 83.4935 79.0987 84.2309 78.9546L84.2318 78.9548L84.236 78.9536C84.6052 78.8729 84.9092 78.8061 85.1206 78.7599C85.2261 78.7368 85.3086 78.7188 85.3648 78.7065C85.3928 78.7003 85.4145 78.6956 85.4289 78.6925C85.4362 78.6909 85.4419 78.6894 85.4455 78.6886C85.4472 78.6882 85.4487 78.6885 85.4496 78.6883L85.4507 78.6875L85.4538 78.6871ZM85.1137 84.611C84.604 84.1377 83.9615 83.958 83.2202 84.0224L82.8956 84.065L82.3844 84.1507C81.5999 84.2571 80.9336 84.575 80.404 85.103L80.1902 85.3367C79.6105 85.9921 79.2879 86.8157 79.2012 87.804L79.1469 88.2448L79.1467 88.2458C78.9998 89.188 79.0775 89.9689 79.4535 90.5671L79.5323 90.6839L79.5364 90.6886C80.0082 91.3022 80.7539 91.5422 81.7212 91.437L81.722 91.4382L82.2436 91.3882L82.2457 91.3876C83.1976 91.2856 84.0133 90.8652 84.693 90.1527L84.6944 90.151C85.3686 89.429 85.7578 88.5276 85.8892 87.4773L85.8901 87.4775L85.8903 87.4656L85.9246 86.9824L85.9245 86.9774C85.9748 85.9515 85.714 85.1481 85.1137 84.611Z" fill="#E6E6E6" stroke="#E6E6E6" stroke-width="0.449636"/>
<path d="M179.223 92.4718L179.239 92.4746C179.248 92.4765 179.261 92.4794 179.279 92.483C179.315 92.4903 179.367 92.5016 179.433 92.5153C179.566 92.5427 179.756 92.5814 179.984 92.6286C180.44 92.7228 181.05 92.8477 181.664 92.9743L181.664 92.9753C182.291 93.1066 182.924 93.2423 183.4 93.3453C183.638 93.3968 183.837 93.4408 183.977 93.4712C184.046 93.4864 184.101 93.4977 184.138 93.5059C184.157 93.51 184.171 93.5137 184.181 93.5158L184.196 93.5186C184.568 93.599 184.828 93.7832 184.995 94.0667L184.996 94.0688L184.997 94.069L184.997 94.0711C184.998 94.0728 185 94.0756 185.002 94.0788C185.006 94.0856 185.012 94.096 185.02 94.109C185.036 94.1356 185.06 94.1756 185.09 94.2252C185.15 94.3242 185.236 94.4653 185.339 94.6345C185.547 94.9731 185.826 95.4244 186.112 95.8738L186.115 95.8784C186.419 96.3323 186.727 96.7893 186.959 97.1328C187.075 97.3045 187.173 97.4485 187.241 97.549C187.275 97.5989 187.302 97.638 187.32 97.6648C187.329 97.6783 187.336 97.6895 187.341 97.6965C187.343 97.6999 187.345 97.7027 187.346 97.7045L187.348 97.7058L187.348 97.7067L187.452 97.8589L187.622 97.787L187.623 97.7862C187.624 97.7859 187.625 97.7862 187.626 97.7858C187.629 97.7847 187.633 97.7828 187.637 97.7808C187.647 97.7768 187.66 97.7702 187.678 97.7625C187.715 97.7469 187.769 97.7247 187.838 97.6955C187.975 97.637 188.172 97.5528 188.409 97.452C188.882 97.2506 189.517 96.9811 190.161 96.7089L190.16 96.7078C190.819 96.4481 191.484 96.1861 191.984 95.9877C192.233 95.8885 192.442 95.8058 192.589 95.7475C192.662 95.7184 192.72 95.6952 192.759 95.6796C192.779 95.6718 192.794 95.6651 192.804 95.6611C192.809 95.6591 192.813 95.6583 192.816 95.6573C192.817 95.6568 192.817 95.6559 192.818 95.6557L192.819 95.6559L192.819 95.6549L192.82 95.6551C193.085 95.5484 193.386 95.514 193.724 95.5702L193.872 95.6003L193.876 95.601L198.131 96.5159L198.131 96.5168C198.461 96.5908 198.631 96.6834 198.706 96.7686C198.76 96.8297 198.787 96.9108 198.726 97.0751L198.726 97.078C198.725 97.0787 198.725 97.0795 198.724 97.0807C198.723 97.0834 198.722 97.0876 198.72 97.0929C198.716 97.1034 198.711 97.1192 198.703 97.1395C198.689 97.1801 198.667 97.2396 198.639 97.3153C198.584 97.4671 198.506 97.6845 198.413 97.945C198.228 98.4658 197.982 99.1612 197.746 99.8598L197.744 99.8673C197.533 100.567 197.337 101.271 197.194 101.799C197.122 102.063 197.064 102.284 197.024 102.439C197.003 102.516 196.987 102.576 196.977 102.618C196.971 102.638 196.968 102.654 196.965 102.665C196.964 102.671 196.963 102.675 196.962 102.677L196.961 102.681L196.96 102.681L196.959 102.686C196.928 102.822 196.897 102.929 196.867 103.011C196.839 103.085 196.815 103.126 196.799 103.147C196.793 103.152 196.77 103.17 196.706 103.192C196.635 103.218 196.537 103.243 196.405 103.27L196.399 103.271L196.398 103.272C196.396 103.272 196.394 103.273 196.391 103.274C196.386 103.275 196.377 103.276 196.367 103.279C196.345 103.284 196.314 103.291 196.273 103.301C196.191 103.32 196.07 103.347 195.918 103.383L194.667 103.68C193.634 103.931 192.326 104.287 191.063 104.64L191.062 104.64C189.835 104.991 188.633 105.366 187.759 105.629L187.753 105.631C187.331 105.773 186.98 105.892 186.735 105.974C186.612 106.016 186.516 106.049 186.45 106.071C186.417 106.082 186.392 106.09 186.375 106.096C186.367 106.099 186.36 106.101 186.356 106.102C186.354 106.103 186.351 106.104 186.35 106.104L186.349 106.105L186.348 106.105L186.187 106.16L186.197 106.33L186.196 106.333C186.196 106.335 186.197 106.338 186.197 106.342C186.198 106.35 186.198 106.363 186.198 106.379C186.2 106.411 186.203 106.459 186.207 106.521C186.215 106.644 186.226 106.825 186.241 107.055C186.271 107.516 186.317 108.174 186.381 108.962L186.381 108.969C186.472 109.773 186.585 110.702 186.726 111.708L186.725 111.709C186.873 112.726 187.046 113.802 187.229 114.897L187.23 114.9C187.427 115.988 187.633 117.083 187.83 118.125L187.83 118.126C188.028 119.165 188.234 120.139 188.403 120.981L188.403 120.984C188.582 121.823 188.732 122.529 188.836 123.026C188.888 123.274 188.928 123.469 188.956 123.603C188.97 123.669 188.98 123.721 188.988 123.755C188.991 123.773 188.994 123.786 188.996 123.795C188.997 123.799 188.998 123.802 188.998 123.804L188.999 123.807L188.999 123.808C189.046 124.03 188.99 124.067 188.987 124.069C188.977 124.077 188.945 124.094 188.87 124.095C188.796 124.097 188.694 124.083 188.561 124.048L188.558 124.048C188.557 124.048 188.556 124.047 188.554 124.046C188.549 124.045 188.542 124.043 188.533 124.041C188.515 124.037 188.489 124.03 188.455 124.021C188.387 124.003 188.286 123.978 188.159 123.946C187.904 123.88 187.54 123.786 187.105 123.671C186.244 123.445 185.124 123.141 183.999 122.848C182.906 122.542 181.841 122.201 181.042 121.935L181.039 121.934L180.085 121.628C179.97 121.591 179.88 121.562 179.819 121.542C179.788 121.532 179.765 121.523 179.75 121.518C179.742 121.515 179.736 121.514 179.732 121.513C179.73 121.512 179.728 121.511 179.727 121.511L179.724 121.51C179.335 121.384 179.096 121.153 178.979 120.825L178.936 120.676C178.936 120.673 178.935 120.667 178.933 120.66C178.93 120.645 178.926 120.623 178.92 120.595C178.907 120.538 178.889 120.453 178.866 120.344C178.819 120.123 178.75 119.801 178.663 119.392L178.663 119.39L178.351 117.92C178.234 117.355 178.105 116.718 177.961 116.028L177.961 116.028C177.833 115.339 177.681 114.604 177.548 113.837L177.548 113.834L177.334 112.641L177.128 111.402C177 110.569 176.874 109.714 176.752 108.845L176.753 108.845C176.658 107.969 176.573 107.09 176.492 106.212C176.447 105.35 176.417 104.478 176.41 103.628C176.42 102.781 176.445 101.955 176.483 101.154C176.511 100.755 176.544 100.361 176.581 99.9769L176.702 98.8562C176.775 98.312 176.857 97.7976 176.947 97.3086L177.039 96.8281C177.369 95.6043 177.708 94.5908 177.977 93.8878C178.116 93.5371 178.23 93.2622 178.308 93.0749C178.347 92.9811 178.378 92.9094 178.398 92.8611C178.408 92.8371 178.417 92.8191 178.422 92.8069C178.425 92.8009 178.426 92.7961 178.428 92.7931C178.428 92.7916 178.429 92.7901 178.429 92.7894L178.43 92.7865C178.501 92.6195 178.594 92.5296 178.704 92.4835C178.82 92.4346 178.987 92.4221 179.223 92.4718Z" fill="#E6E6E6" stroke="#E6E6E6" stroke-width="0.449636"/>
<path d="M155.256 84.6408C155.46 84.5871 155.675 84.6228 155.896 84.7713L155.991 84.8424L155.992 84.8426L155.992 84.8437C155.994 84.8448 155.996 84.8467 155.998 84.8488C156.004 84.853 156.012 84.8588 156.022 84.867C156.042 84.8835 156.072 84.9081 156.111 84.94C156.189 85.0039 156.305 85.098 156.452 85.2182C156.746 85.4584 157.167 85.8028 157.674 86.2205C158.171 86.6321 158.782 87.1704 159.468 87.6228L159.499 87.6425L159.534 87.6519C160.293 87.8555 161.109 88.0703 161.934 88.2859C162.766 88.5028 163.612 88.7366 164.42 88.9311L164.421 88.9301C165.238 89.1401 166.003 89.3318 166.657 89.5023L166.659 89.5026C167.336 89.6707 167.904 89.8122 168.303 89.9124C168.502 89.9624 168.659 90.0023 168.766 90.0293C168.82 90.0428 168.861 90.0538 168.888 90.0608C168.902 90.0642 168.913 90.0667 168.92 90.0685C168.923 90.0694 168.927 90.0697 168.928 90.0701L168.93 90.0714L168.93 90.0705C169.134 90.1246 169.207 90.1935 169.232 90.2382C169.252 90.2748 169.269 90.3525 169.194 90.5182L169.192 90.5238L169.192 90.5248C169.192 90.5255 169.191 90.5269 169.191 90.5284C169.189 90.5315 169.188 90.5363 169.185 90.5423C169.18 90.5543 169.172 90.5721 169.162 90.5957C169.143 90.643 169.113 90.7129 169.075 90.8041C168.999 90.9869 168.888 91.2549 168.748 91.5949L168.746 91.6005C168.481 92.2878 168.149 93.287 167.83 94.4972L167.826 94.5164C167.719 95.1514 167.63 95.8346 167.544 96.5467L167.544 96.5536C167.479 97.2827 167.437 98.0607 167.401 98.8547L167.4 98.8586C167.375 99.6683 167.382 100.506 167.39 101.357L167.391 101.361C167.413 102.214 167.452 103.092 167.506 103.973L167.506 103.975C167.567 104.843 167.644 105.719 167.721 106.592L167.721 106.593L167.721 106.601C167.832 107.458 167.933 108.315 168.044 109.149L168.045 109.151C168.163 109.979 168.286 110.78 168.41 111.549L168.409 111.551C168.54 112.308 168.673 113.033 168.793 113.699L168.793 113.702C169.051 115.033 169.271 116.148 169.437 116.939L169.437 116.939C169.516 117.332 169.58 117.642 169.625 117.854C169.648 117.96 169.665 118.041 169.677 118.096C169.683 118.123 169.687 118.145 169.69 118.159C169.692 118.166 169.694 118.171 169.694 118.174C169.695 118.176 169.694 118.178 169.695 118.178L169.695 118.18C169.717 118.278 169.719 118.346 169.714 118.388C169.711 118.409 169.706 118.422 169.703 118.428C169.701 118.434 169.698 118.436 169.698 118.437C169.692 118.442 169.632 118.481 169.411 118.432L169.391 118.428C169.38 118.426 169.364 118.422 169.343 118.418C169.3 118.408 169.237 118.395 169.157 118.378C168.998 118.345 168.77 118.297 168.498 118.239C167.952 118.124 167.225 117.971 166.503 117.82L166.501 117.819C165.78 117.675 165.065 117.531 164.53 117.423C164.263 117.369 164.04 117.324 163.885 117.292C163.807 117.277 163.746 117.264 163.704 117.255C163.684 117.251 163.668 117.248 163.657 117.246L163.65 117.244C163.492 117.206 163.363 117.152 163.267 117.089L163.182 117.024C163.117 116.962 163.042 116.897 162.972 116.835C162.899 116.769 162.824 116.7 162.749 116.623L161.161 114.916L160.996 114.738L160.831 114.916L159.781 116.054L159.774 116.061C159.62 116.242 159.401 116.319 159.043 116.25C159.042 116.25 159.039 116.249 159.037 116.249C159.029 116.247 159.018 116.245 159.004 116.242C158.976 116.235 158.934 116.225 158.882 116.212C158.776 116.187 158.624 116.152 158.442 116.109C158.078 116.024 157.592 115.91 157.105 115.798L157.104 115.798C156.629 115.69 156.154 115.58 155.799 115.497C155.622 115.456 155.474 115.421 155.371 115.397C155.319 115.384 155.278 115.374 155.25 115.367C155.236 115.364 155.225 115.362 155.218 115.361C155.215 115.36 155.213 115.359 155.211 115.358L155.204 115.357C154.902 115.29 154.598 115.084 154.291 114.712L154.288 114.708C154.285 114.705 154.281 114.699 154.276 114.693C154.265 114.68 154.249 114.661 154.229 114.636C154.188 114.586 154.128 114.513 154.051 114.419C153.898 114.231 153.68 113.961 153.418 113.634C152.903 112.988 152.227 112.119 151.559 111.256L151.558 111.256C150.908 110.402 150.279 109.551 149.811 108.929L149.812 108.929C149.592 108.623 149.435 108.336 149.334 108.126C149.283 108.021 149.246 107.936 149.222 107.878C149.21 107.849 149.201 107.826 149.196 107.811C149.194 107.806 149.192 107.802 149.191 107.799C149.05 107.295 148.997 106.783 149.038 106.253L149.039 106.251C149.039 106.251 149.038 106.249 149.038 106.248C149.039 106.246 149.039 106.242 149.039 106.238C149.04 106.228 149.041 106.213 149.043 106.194C149.045 106.155 149.05 106.098 149.056 106.024C149.067 105.875 149.082 105.657 149.102 105.38C149.141 104.827 149.194 104.038 149.253 103.097C149.317 102.175 149.377 101.097 149.44 99.9625L149.441 99.9626C149.473 99.4033 149.503 98.8265 149.532 98.2427L149.615 96.4806C149.679 95.338 149.73 94.1859 149.785 93.1409L149.786 93.1399C149.839 92.1025 149.889 91.1387 149.936 90.3347C149.99 89.5342 150.035 88.8723 150.067 88.4106C150.083 88.1797 150.095 87.9984 150.104 87.8752C150.108 87.8139 150.111 87.7667 150.114 87.7351C150.115 87.7193 150.116 87.7068 150.116 87.6988C150.116 87.6978 150.117 87.6968 150.117 87.6959C150.163 87.2787 150.284 87.0464 150.438 86.9269C150.44 86.9255 150.443 86.9234 150.447 86.9206C150.455 86.9149 150.466 86.906 150.481 86.895C150.51 86.8727 150.555 86.8405 150.61 86.7988C150.721 86.7166 150.879 86.5991 151.069 86.4582C151.372 86.2609 151.77 86.0218 152.201 85.7877L152.642 85.557C153.257 85.293 153.902 85.0448 154.397 84.8809C154.653 84.8036 154.868 84.7439 155.018 84.7033C155.093 84.683 155.153 84.6673 155.193 84.6569L155.25 84.6426L155.253 84.6412L155.256 84.6408ZM156.325 91.6878C156.164 91.6177 155.981 91.5839 155.813 91.6551L155.749 91.6881C155.585 91.7834 155.485 91.9746 155.418 92.1722C155.346 92.3816 155.292 92.654 155.254 92.9791L155.253 92.9829C155.253 92.9848 155.253 92.9881 155.252 92.9917C155.251 92.999 155.25 93.0097 155.248 93.0238C155.245 93.0525 155.241 93.0957 155.235 93.1514C155.223 93.2626 155.206 93.4259 155.185 93.6346L155.018 95.3833C154.948 96.1131 154.877 96.9975 154.803 97.9433L154.803 97.9502C154.77 98.6362 154.768 99.2959 154.782 99.9512L154.802 100.606C154.831 101.469 154.876 102.344 154.926 103.168L154.926 103.169C154.98 103.994 155.041 104.766 155.092 105.429L155.093 105.433C155.157 106.098 155.212 106.655 155.25 107.044C155.269 107.239 155.283 107.393 155.294 107.497C155.299 107.55 155.303 107.59 155.305 107.617C155.307 107.63 155.308 107.641 155.309 107.648C155.309 107.651 155.309 107.654 155.309 107.655L155.309 107.657L155.31 107.658L155.309 107.661C155.379 108.295 155.524 108.782 155.782 109.127L155.782 109.128C156.046 109.492 156.495 109.713 157.046 109.857L157.05 109.858L158.791 110.283C159.067 110.351 159.317 110.382 159.529 110.367C159.74 110.351 159.939 110.286 160.077 110.134L160.08 110.131C160.207 109.987 160.27 109.786 160.295 109.565C160.321 109.341 160.311 109.068 160.272 108.755L160.272 108.754L160.272 108.752C160.272 108.75 160.272 108.746 160.272 108.743C160.271 108.735 160.269 108.724 160.267 108.709C160.263 108.679 160.258 108.635 160.251 108.578C160.237 108.463 160.216 108.293 160.191 108.079C160.141 107.649 160.071 107.036 159.994 106.303C159.955 105.931 159.918 105.531 159.881 105.111L159.77 103.798C159.742 103.346 159.712 102.878 159.685 102.402L159.613 100.961C159.586 100.017 159.565 99.0676 159.567 98.1912C159.575 97.7528 159.586 97.3287 159.599 96.9281L159.646 95.8047C159.701 95.1225 159.757 94.5548 159.799 94.1578C159.82 93.9588 159.838 93.8027 159.85 93.6965C159.856 93.6437 159.86 93.6031 159.863 93.5758C159.865 93.5623 159.866 93.5516 159.867 93.5447L159.869 93.5342L159.893 93.3409L159.705 93.2906L159.704 93.2904L159.704 93.2894L159.696 93.2878C159.69 93.2862 159.681 93.2832 159.67 93.2802C159.648 93.274 159.615 93.2657 159.573 93.2543C159.489 93.2314 159.37 93.1981 159.227 93.1589C158.942 93.0808 158.562 92.9763 158.182 92.8724C157.848 92.7506 157.537 92.5627 157.305 92.4003C157.189 92.3187 157.095 92.2446 157.03 92.1917C156.997 92.1653 156.972 92.1437 156.956 92.1295C156.948 92.1226 156.942 92.1177 156.938 92.1142C156.936 92.1127 156.934 92.1112 156.934 92.1105L156.933 92.1093L156.931 92.108L156.771 91.9724C156.614 91.8457 156.465 91.7482 156.325 91.6878Z" fill="#E6E6E6" stroke="#E6E6E6" stroke-width="0.449636"/>
<path d="M144.541 77.6903C144.545 77.6922 144.549 77.6943 144.554 77.6968C144.574 77.7062 144.603 77.7208 144.64 77.7384C144.714 77.7736 144.819 77.8241 144.946 77.885C145.198 78.0064 145.535 78.168 145.875 78.3349L145.875 78.3359C146.218 78.5132 146.566 78.6947 146.828 78.8319C146.959 78.9005 147.068 78.9581 147.145 78.9985C147.183 79.0186 147.214 79.0349 147.234 79.0457C147.244 79.0509 147.252 79.0551 147.257 79.0578C147.26 79.0592 147.262 79.0603 147.263 79.061L147.265 79.0623L147.267 79.0627C147.356 79.1086 147.405 79.1695 147.431 79.2467C147.458 79.331 147.464 79.4559 147.421 79.6332L147.42 79.6389C147.42 79.6412 147.418 79.6449 147.417 79.6493C147.415 79.6581 147.413 79.6717 147.409 79.6885C147.401 79.7225 147.39 79.7722 147.376 79.8354C147.348 79.9623 147.308 80.1441 147.26 80.3622C147.166 80.7982 147.042 81.3813 146.927 81.97L146.926 81.9748C146.821 82.5808 146.732 83.1962 146.668 83.659C146.636 83.8904 146.61 84.0841 146.592 84.22C146.584 84.2879 146.577 84.3416 146.572 84.3782C146.57 84.3963 146.569 84.4105 146.568 84.42C146.567 84.4245 146.566 84.4281 146.566 84.4306C146.565 84.4316 146.566 84.433 146.566 84.4336L146.566 84.4346C146.548 84.5774 146.525 84.7262 146.495 84.8674L146.492 84.8769L146.492 84.8866C146.479 84.9823 146.451 85.0173 146.437 85.0306C146.426 85.0345 146.411 85.04 146.395 85.0456C146.344 85.0629 146.27 85.087 146.183 85.1169C146.009 85.1765 145.777 85.2565 145.548 85.3385L145.541 85.3413C145.318 85.4292 145.095 85.5208 144.928 85.59C144.845 85.6246 144.776 85.6537 144.727 85.6742C144.703 85.6844 144.683 85.6929 144.67 85.6984C144.664 85.7011 144.658 85.7032 144.655 85.7046C144.654 85.7052 144.653 85.7057 144.652 85.706L144.651 85.7068L144.58 85.7374L144.543 85.804L144.541 85.8058L144.526 85.8328C144.516 85.8518 144.5 85.8802 144.48 85.9157C144.441 85.9868 144.384 86.0886 144.316 86.2111C144.18 86.456 143.998 86.7845 143.815 87.117L143.814 87.1207C143.637 87.4586 143.46 87.7975 143.328 88.052C143.261 88.1793 143.206 88.2858 143.168 88.3602C143.148 88.3972 143.133 88.4264 143.123 88.4463C143.118 88.4561 143.114 88.4638 143.111 88.4689C143.11 88.4715 143.109 88.474 143.108 88.4753L143.107 88.4761L143.107 88.477L143.083 88.5214L143.081 88.5707L143.081 88.5716C143.081 88.5726 143.081 88.5747 143.081 88.5766C143.081 88.5804 143.08 88.5861 143.08 88.5933C143.079 88.6081 143.079 88.63 143.078 88.6585C143.076 88.7157 143.071 88.7998 143.066 88.9065C143.057 89.1197 143.043 89.4239 143.026 89.7878L143.026 89.7888C142.989 90.5348 142.939 91.5315 142.903 92.5493L142.902 92.5503C142.85 93.5599 142.805 94.5923 142.762 95.3762L142.762 95.3771C142.743 95.7661 142.725 96.0931 142.712 96.3222C142.705 96.4367 142.7 96.527 142.697 96.5885C142.695 96.6192 142.693 96.6432 142.692 96.659C142.691 96.6668 142.692 96.6729 142.691 96.6769L142.69 96.6826L142.688 96.7219L142.7 96.7618C142.7 96.7637 142.702 96.7675 142.703 96.7713C142.705 96.779 142.708 96.7903 142.712 96.8049C142.721 96.8348 142.733 96.8789 142.749 96.9347C142.781 97.0467 142.828 97.2074 142.882 97.4C142.991 97.7852 143.134 98.2996 143.274 98.8175L143.274 98.8196C143.421 99.351 143.565 99.8844 143.672 100.285C143.726 100.485 143.77 100.652 143.801 100.769C143.817 100.828 143.829 100.874 143.837 100.905C143.841 100.921 143.845 100.933 143.847 100.941C143.848 100.945 143.849 100.948 143.849 100.95L143.85 100.952L143.85 100.953L143.855 100.97L143.862 100.987L143.863 100.988C143.864 100.99 143.865 100.993 143.866 100.996C143.869 101.002 143.873 101.011 143.878 101.023C143.888 101.047 143.904 101.081 143.923 101.126C143.963 101.214 144.019 101.342 144.086 101.495C144.22 101.802 144.399 102.213 144.578 102.629L144.579 102.631C144.764 103.051 144.948 103.476 145.087 103.795C145.156 103.955 145.214 104.088 145.254 104.181C145.274 104.228 145.29 104.265 145.3 104.29C145.306 104.303 145.309 104.313 145.312 104.319C145.313 104.32 145.314 104.321 145.314 104.322C145.385 104.516 145.416 104.687 145.407 104.856L145.407 104.86C145.4 105.046 145.392 105.235 145.374 105.401L145.374 105.406L145.373 105.411C145.373 105.414 145.373 105.418 145.373 105.424C145.372 105.437 145.37 105.455 145.368 105.479C145.364 105.527 145.359 105.597 145.351 105.686C145.337 105.864 145.316 106.118 145.29 106.424C145.239 107.036 145.17 107.854 145.096 108.676C145.014 109.506 144.929 110.345 144.864 110.977C144.831 111.293 144.803 111.557 144.783 111.742C144.774 111.835 144.766 111.908 144.761 111.958C144.758 111.982 144.757 112.001 144.755 112.014C144.755 112.021 144.754 112.026 144.754 112.029C144.753 112.03 144.753 112.031 144.753 112.032C144.722 112.299 144.673 112.443 144.636 112.509C144.634 112.508 144.633 112.506 144.63 112.505C144.625 112.501 144.618 112.495 144.609 112.488C144.59 112.473 144.562 112.452 144.527 112.425C144.457 112.371 144.357 112.294 144.237 112.203L143.363 111.551L143.357 111.546L142.498 110.961C142.381 110.881 142.285 110.815 142.217 110.769C142.183 110.746 142.157 110.727 142.139 110.715C142.13 110.709 142.123 110.703 142.118 110.7C142.116 110.699 142.114 110.698 142.113 110.697L142.111 110.696L142.102 110.689L142.052 110.653C141.934 110.553 141.803 110.341 141.678 109.973L141.677 109.97L141.677 109.969L141.676 109.965C141.675 109.963 141.674 109.959 141.672 109.954C141.668 109.944 141.663 109.929 141.656 109.91C141.642 109.871 141.622 109.814 141.596 109.742C141.544 109.598 141.47 109.392 141.382 109.146C141.205 108.654 140.969 108 140.735 107.357L140.734 107.355C140.494 106.719 140.256 106.094 140.078 105.628C139.988 105.396 139.914 105.203 139.862 105.068C139.836 105.001 139.815 104.947 139.801 104.911C139.796 104.898 139.792 104.886 139.789 104.878C139.787 104.866 139.785 104.849 139.782 104.829C139.775 104.779 139.764 104.706 139.751 104.613C139.724 104.427 139.686 104.162 139.639 103.845C139.545 103.211 139.418 102.365 139.284 101.525C139.156 100.706 139.022 99.8932 138.92 99.2856C138.869 98.9818 138.826 98.7286 138.796 98.5518C138.781 98.4635 138.768 98.394 138.76 98.3467C138.756 98.323 138.753 98.3046 138.751 98.2924C138.75 98.2866 138.749 98.2821 138.749 98.279C138.748 98.2775 138.747 98.2756 138.747 98.2748L138.748 98.2739C138.697 97.9844 138.654 97.7676 138.612 97.6424L138.61 97.6349L138.592 97.5632C138.587 97.5316 138.584 97.4914 138.582 97.4411C138.578 97.343 138.58 97.2203 138.588 97.0669L138.589 97.0662L138.589 97.0641C138.589 97.0625 138.59 97.0603 138.59 97.0573C138.59 97.051 138.591 97.0412 138.591 97.0288C138.593 97.0039 138.596 96.9668 138.599 96.9189C138.605 96.8229 138.613 96.6822 138.624 96.5036C138.647 96.1455 138.679 95.6343 138.718 95.0244L138.718 95.0225L138.826 92.9413L138.937 90.6253C138.97 89.8496 139.002 89.0738 139.034 88.3573L139.118 86.4078C139.143 85.8478 139.164 85.3825 139.178 85.0575C139.185 84.895 139.191 84.7672 139.195 84.6803C139.197 84.6371 139.197 84.604 139.198 84.5816C139.198 84.5705 139.199 84.5618 139.2 84.5561C139.2 84.5532 139.2 84.5506 139.2 84.5492C139.207 84.4158 139.217 84.3101 139.23 84.2309C139.236 84.1915 139.242 84.1605 139.248 84.138C139.253 84.1179 139.258 84.1083 139.259 84.1062L139.265 84.0954L139.27 84.0834C139.302 84.0036 139.368 83.8679 139.466 83.6498L139.469 83.6415L139.469 83.6405L139.471 83.6388C139.471 83.6368 139.473 83.6335 139.474 83.6295C139.478 83.6217 139.482 83.6095 139.488 83.5943C139.5 83.5639 139.519 83.5197 139.542 83.4632C139.588 83.3496 139.653 83.187 139.732 82.9929C139.891 82.6042 140.104 82.0863 140.319 81.5737C140.54 81.0775 140.765 80.5847 140.934 80.2151C141.018 80.0298 141.088 79.875 141.138 79.7672C141.161 79.7181 141.178 79.6783 141.191 79.6499C141.211 79.6353 141.237 79.6165 141.268 79.5936C141.345 79.5362 141.456 79.4542 141.588 79.3565C141.851 79.162 142.203 78.9047 142.557 78.651C142.926 78.4099 143.303 78.174 143.587 77.9985C143.729 77.9109 143.849 77.8384 143.932 77.7878C143.974 77.7626 144.007 77.7427 144.029 77.7293C144.04 77.7227 144.048 77.7174 144.054 77.7139C144.056 77.7123 144.059 77.7111 144.06 77.7102L144.063 77.7086C144.134 77.6676 144.204 77.6493 144.276 77.6427C144.336 77.6399 144.42 77.65 144.541 77.6903Z" fill="#E6E6E6" stroke="#E6E6E6" stroke-width="0.449636"/>
<path d="M101.912 88.2394C102.057 87.3747 102.324 86.546 102.673 85.7645C102.991 85.0046 103.393 84.2876 103.839 83.6748C104.262 83.0668 104.734 82.5409 105.243 82.1591C105.741 81.789 106.282 81.5319 106.851 81.4446C107.41 81.3645 107.952 81.4734 108.435 81.7085C108.922 81.9672 109.337 82.3683 109.668 82.8817C109.982 83.4104 110.212 84.0515 110.339 84.7789C110.453 85.5224 110.46 86.3557 110.344 87.235C110.215 88.1347 109.975 88.9913 109.642 89.7849C109.317 90.5801 108.906 91.2999 108.436 91.9175C107.967 92.5535 107.437 93.0688 106.879 93.4461C106.32 93.8234 105.734 94.0538 105.147 94.115C104.558 94.1849 104.027 94.06 103.579 93.79C103.114 93.5308 102.735 93.109 102.444 92.5755C102.149 92.0457 101.944 91.3953 101.846 90.6596C101.742 89.9318 101.751 89.1106 101.912 88.2394Z" fill="#303030" stroke="#E6E6E6" stroke-width="1.79854"/>
<path d="M131.594 80.3889C131.838 80.4376 132.161 80.5013 132.485 80.5676L132.485 80.5686C132.809 80.6442 133.13 80.7208 133.371 80.7782C133.47 80.8019 133.556 80.8215 133.622 80.8374C133.622 80.8388 133.623 80.8401 133.623 80.8416C133.637 80.9407 133.657 81.0831 133.68 81.2533L133.857 82.503C133.922 82.9671 133.986 83.4299 134.033 83.7766C134.056 83.9498 134.075 84.094 134.089 84.195C134.095 84.2455 134.101 84.2851 134.105 84.3121C134.106 84.3205 134.107 84.3276 134.108 84.3335C134.108 84.3371 134.108 84.3416 134.107 84.3464C134.107 84.3644 134.107 84.3909 134.106 84.4255C134.104 84.4951 134.101 84.5972 134.098 84.7269L134.068 85.8008C134.04 86.6997 133.993 87.8964 133.947 89.1177C133.92 89.7316 133.892 90.3477 133.865 90.9277C133.838 91.5047 133.812 92.0466 133.792 92.515L133.792 92.516C133.76 92.9886 133.737 93.3844 133.721 93.6617C133.714 93.8002 133.708 93.9096 133.704 93.9842C133.702 94.0214 133.7 94.0503 133.699 94.0697C133.699 94.0745 133.698 94.0787 133.698 94.0823C133.696 94.0899 133.695 94.1 133.692 94.1121C133.686 94.1432 133.676 94.1889 133.664 94.247C133.64 94.3632 133.606 94.5294 133.565 94.7291C133.482 95.1283 133.372 95.6618 133.26 96.1982C133.146 96.7319 133.027 97.2723 132.937 97.6788C132.897 97.8568 132.862 98.0089 132.836 98.124C132.787 98.1097 132.731 98.0939 132.67 98.0766C132.432 98.0086 132.113 97.9198 131.794 97.838L131.791 97.8373C131.469 97.7599 131.148 97.6821 130.906 97.624C130.824 97.6041 130.75 97.5859 130.69 97.5713C130.691 97.5603 130.692 97.5489 130.693 97.5371C130.704 97.3927 130.721 97.1859 130.741 96.9382C130.779 96.4428 130.83 95.7819 130.878 95.1206L130.878 95.1195L130.996 93.3342C131.012 93.0918 131.026 92.8899 131.035 92.7485C131.039 92.6777 131.043 92.6215 131.045 92.5836C131.046 92.5647 131.048 92.5502 131.048 92.5404C131.048 92.5357 131.048 92.532 131.048 92.5295L131.049 92.5257L131.061 92.3293L130.869 92.2909L129.304 91.9754L129.051 91.9249L129.035 92.181L128.999 92.7374L128.902 92.7205L128.938 92.1176L128.95 91.9142L128.749 91.8832L127.518 91.6885L127.276 91.6499L127.259 91.895L127.219 92.4537L127.069 92.431L127.109 91.8477L127.123 91.6377L126.915 91.6093L125.786 91.4563L125.55 91.4247L125.532 91.6627L125.489 92.2307L125.33 92.2144L125.374 91.6347L125.391 91.4124L125.169 91.3944L123.94 91.2914L123.715 91.2729L123.697 91.498L123.65 92.077L123.48 92.0678L123.53 91.5039L123.549 91.2691L122.107 91.2114L121.894 91.203L121.874 91.4157L121.82 92.0006L121.579 91.9921L121.63 91.4394L121.652 91.1983L121.41 91.1944L120.298 91.1725C120.301 91.1405 120.304 91.1056 120.307 91.068C120.327 90.8492 120.356 90.5378 120.392 90.1701L120.391 90.168L120.495 88.8913C120.53 88.4267 120.565 87.9328 120.596 87.4394L120.596 87.4373L120.67 85.9942C120.691 85.5354 120.709 85.1084 120.721 84.7436L120.72 84.7415L120.739 83.8622C120.74 83.8266 120.74 83.7935 120.74 83.7632L121.828 83.8321L122.065 83.8469L122.066 83.6099L122.071 83.0894L122.264 83.1012L122.264 83.6442L122.263 83.8526L122.471 83.8689L123.652 83.9631L123.893 83.9816L123.894 83.7396L123.897 83.2347L124.069 83.2504L124.057 83.7863L124.051 83.9939L124.259 84.0152L125.479 84.1394L125.724 84.1645L125.727 83.9189L125.733 83.4175L125.894 83.4352L125.888 83.9704L125.887 84.1746L126.089 84.197L127.182 84.3157L127.427 84.3417L127.432 84.0965L127.44 83.5995L127.585 83.6181L127.571 84.1667L127.566 84.3643L127.76 84.3952L129.004 84.5922L129.261 84.6325L129.264 84.3729L129.27 83.8834L129.376 83.9009L129.363 84.4656L129.359 84.6574L131.363 85.0261L131.369 84.7621L131.37 84.7582C131.37 84.756 131.369 84.7526 131.369 84.7483C131.37 84.7394 131.37 84.7261 131.371 84.7088C131.371 84.6741 131.372 84.6231 131.374 84.5584C131.376 84.429 131.381 84.244 131.386 84.0225C131.396 83.5793 131.409 82.989 131.424 82.4001L131.425 82.3972L131.447 80.8076C131.449 80.6307 131.45 80.4781 131.452 80.3597C131.495 80.3684 131.543 80.3786 131.594 80.3889Z" fill="#EC1168" stroke="#EC1168" stroke-width="0.449636"/>
<path d="M131.144 84.7569C131.144 84.7569 131.17 83.573 131.2 82.3943C131.217 81.2317 131.231 80.0867 131.231 80.0867C131.231 80.0867 131.884 80.216 132.536 80.3496C133.185 80.501 133.824 80.6551 133.824 80.6551C133.824 80.6551 133.95 81.5606 134.079 82.4714C134.21 83.4007 134.333 84.3239 134.333 84.3239C134.333 84.3239 134.319 84.9203 134.293 85.807C134.265 86.707 134.218 87.9054 134.172 89.1267C134.119 90.356 134.056 91.5925 134.016 92.5315C133.952 93.4753 133.923 94.1098 133.923 94.1098C133.923 94.1098 133.704 95.1715 133.479 96.2456C133.251 97.3145 133.004 98.4075 133.004 98.4075C133.004 98.4075 132.371 98.218 131.738 98.0558C131.095 97.9008 130.451 97.7459 130.451 97.7459C130.451 97.7459 130.557 96.4258 130.654 95.1041C130.742 93.8036 130.824 92.5112 130.824 92.5112M131.144 84.7569C131.144 84.7569 131.131 85.2298 131.114 85.94C131.093 86.6538 131.054 87.6113 131.018 88.574C130.972 89.544 130.928 90.5324 130.884 91.265C130.852 92.0134 130.824 92.5112 130.824 92.5112M131.144 84.7569L129.588 84.4706L131.144 84.7569ZM130.824 92.5112L129.259 92.1959L130.824 92.5112ZM126.885 91.8323L126.831 92.6224L127.427 92.7138L127.483 91.9103M126.885 91.8323L127.483 91.9103L126.885 91.8323ZM126.885 91.8323L125.756 91.6795L126.885 91.8323ZM127.483 91.9103L128.714 92.1047L127.483 91.9103ZM128.714 92.1047L128.666 92.9098L129.207 93.0002L129.259 92.1959M128.714 92.1047L129.259 92.1959L128.714 92.1047ZM125.756 91.6795L125.696 92.4777L125.09 92.4166L125.15 91.6184M125.756 91.6795L125.15 91.6184L125.756 91.6795ZM125.15 91.6184L123.921 91.5157L125.15 91.6184ZM123.921 91.5157L123.857 92.3131L123.236 92.2812L123.305 91.4847M123.921 91.5157L123.305 91.4847L123.921 91.5157ZM123.305 91.4847L122.098 91.4363L123.305 91.4847ZM122.098 91.4363L122.025 92.2321L121.334 92.2101L121.406 91.4188M122.098 91.4363L121.406 91.4188L122.098 91.4363ZM121.406 91.4188L120.053 91.3939C120.053 91.3939 120.096 90.8852 120.168 90.1486C120.233 89.3971 120.309 88.4099 120.372 87.4247C120.425 86.4379 120.472 85.4636 120.496 84.7365C120.511 84.0078 120.522 83.5252 120.522 83.5252L121.842 83.608M121.842 83.608L121.849 82.8503L122.49 82.8907L122.489 83.6447M121.842 83.608L122.489 83.6447L121.842 83.608ZM122.489 83.6447L123.669 83.7385L122.489 83.6447ZM123.669 83.7385L123.675 82.9896L124.3 83.0452L124.281 83.7916M123.669 83.7385L124.281 83.7916L123.669 83.7385ZM124.281 83.7916L125.502 83.9156L124.281 83.7916ZM125.502 83.9156L125.512 83.1676L126.121 83.234L126.113 83.9731M125.502 83.9156L126.113 83.9731L125.502 83.9156ZM126.113 83.9731L127.207 84.092L126.113 83.9731ZM127.207 84.092L127.221 83.3448L127.815 83.4221L127.796 84.1729M127.207 84.092L127.796 84.1729L127.207 84.092ZM127.796 84.1729L129.039 84.3697L127.796 84.1729ZM129.039 84.3697L129.049 83.6217L129.604 83.7101L129.588 84.4706M129.039 84.3697L129.588 84.4706L129.039 84.3697Z" fill="#EC1168"/>
<path d="M131.144 84.7569C131.144 84.7569 131.17 83.573 131.2 82.3943C131.217 81.2317 131.231 80.0867 131.231 80.0867C131.231 80.0867 131.884 80.216 132.536 80.3496C133.185 80.501 133.824 80.6551 133.824 80.6551C133.824 80.6551 133.95 81.5606 134.079 82.4714C134.21 83.4007 134.333 84.3239 134.333 84.3239C134.333 84.3239 134.319 84.9203 134.293 85.807C134.265 86.707 134.218 87.9054 134.172 89.1267C134.119 90.356 134.056 91.5925 134.016 92.5315C133.952 93.4753 133.923 94.1098 133.923 94.1098C133.923 94.1098 133.704 95.1715 133.479 96.2456C133.251 97.3145 133.004 98.4075 133.004 98.4075C133.004 98.4075 132.371 98.218 131.738 98.0558C131.095 97.9008 130.451 97.7459 130.451 97.7459C130.451 97.7459 130.557 96.4258 130.654 95.1041C130.742 93.8036 130.824 92.5112 130.824 92.5112M131.144 84.7569C131.144 84.7569 131.131 85.2298 131.114 85.94C131.093 86.6538 131.054 87.6113 131.018 88.574C130.972 89.544 130.928 90.5324 130.884 91.265C130.852 92.0134 130.824 92.5112 130.824 92.5112M131.144 84.7569L129.588 84.4706M130.824 92.5112L129.259 92.1959M129.588 84.4706L129.604 83.7101L129.049 83.6217L129.039 84.3697M129.588 84.4706L129.039 84.3697M129.259 92.1959L129.207 93.0002L128.666 92.9098L128.714 92.1047M129.259 92.1959L128.714 92.1047M126.885 91.8323L126.831 92.6224L127.427 92.7138L127.483 91.9103M126.885 91.8323L127.483 91.9103M126.885 91.8323L125.756 91.6795M127.483 91.9103L128.714 92.1047M125.756 91.6795L125.696 92.4777L125.09 92.4166L125.15 91.6184M125.756 91.6795L125.15 91.6184M125.15 91.6184L123.921 91.5157M123.921 91.5157L123.857 92.3131L123.236 92.2812L123.305 91.4847M123.921 91.5157L123.305 91.4847M123.305 91.4847L122.098 91.4363M122.098 91.4363L122.025 92.2321L121.334 92.2101L121.406 91.4188M122.098 91.4363L121.406 91.4188M121.406 91.4188L120.053 91.3939C120.053 91.3939 120.096 90.8852 120.168 90.1486C120.233 89.3971 120.309 88.4099 120.372 87.4247C120.425 86.4379 120.472 85.4636 120.496 84.7365C120.511 84.0078 120.522 83.5252 120.522 83.5252L121.842 83.608M121.842 83.608L121.849 82.8503L122.49 82.8907L122.489 83.6447M121.842 83.608L122.489 83.6447M122.489 83.6447L123.669 83.7385M123.669 83.7385L123.675 82.9896L124.3 83.0452L124.281 83.7916M123.669 83.7385L124.281 83.7916M124.281 83.7916L125.502 83.9156M125.502 83.9156L125.512 83.1676L126.121 83.234L126.113 83.9731M125.502 83.9156L126.113 83.9731M126.113 83.9731L127.207 84.092M127.207 84.092L127.221 83.3448L127.815 83.4221L127.796 84.1729M127.207 84.092L127.796 84.1729M127.796 84.1729L129.039 84.3697" stroke="#EC1168" stroke-width="0.19927"/>
<line x1="17.7653" y1="104.26" x2="192.687" y2="136.438" stroke="#E6E6E6" stroke-width="1.35079"/>
<line x1="61.6158" y1="107.291" x2="166.576" y2="126.598" stroke="#E6E6E6" stroke-width="1.35079"/>
<line x1="94.839" y1="108.367" x2="144.438" y2="117.491" stroke="#E6E6E6" stroke-width="1.35079"/>
<line x1="112.726" y1="105.705" x2="134.867" y2="109.778" stroke="#E6E6E6" stroke-width="1.35079"/>
</g>
<defs>
<filter id="filter0_f_631_108750" x="172.251" y="13.4" width="30.4716" height="44.2389" filterUnits="userSpaceOnUse" color-interpolation-filters="sRGB">
<feFlood flood-opacity="0" result="BackgroundImageFix"/>
<feBlend mode="normal" in="SourceGraphic" in2="BackgroundImageFix" result="shape"/>
<feGaussianBlur stdDeviation="4.5891" result="effect1_foregroundBlur_631_108750"/>
</filter>
<filter id="filter1_f_631_108750" x="156.465" y="9.08643" width="60.1173" height="55.6199" filterUnits="userSpaceOnUse" color-interpolation-filters="sRGB">
<feFlood flood-opacity="0" result="BackgroundImageFix"/>
<feBlend mode="normal" in="SourceGraphic" in2="BackgroundImageFix" result="shape"/>
<feGaussianBlur stdDeviation="7.34256" result="effect1_foregroundBlur_631_108750"/>
</filter>
<filter id="filter2_f_631_108750" x="122.689" y="13.4" width="30.4716" height="44.2389" filterUnits="userSpaceOnUse" color-interpolation-filters="sRGB">
<feFlood flood-opacity="0" result="BackgroundImageFix"/>
<feBlend mode="normal" in="SourceGraphic" in2="BackgroundImageFix" result="shape"/>
<feGaussianBlur stdDeviation="4.5891" result="effect1_foregroundBlur_631_108750"/>
</filter>
<filter id="filter3_f_631_108750" x="106.903" y="9.08643" width="60.1173" height="55.6199" filterUnits="userSpaceOnUse" color-interpolation-filters="sRGB">
<feFlood flood-opacity="0" result="BackgroundImageFix"/>
<feBlend mode="normal" in="SourceGraphic" in2="BackgroundImageFix" result="shape"/>
<feGaussianBlur stdDeviation="7.34256" result="effect1_foregroundBlur_631_108750"/>
</filter>
<filter id="filter4_f_631_108750" x="73.127" y="13.4" width="30.4716" height="44.2389" filterUnits="userSpaceOnUse" color-interpolation-filters="sRGB">
<feFlood flood-opacity="0" result="BackgroundImageFix"/>
<feBlend mode="normal" in="SourceGraphic" in2="BackgroundImageFix" result="shape"/>
<feGaussianBlur stdDeviation="4.5891" result="effect1_foregroundBlur_631_108750"/>
</filter>
<filter id="filter5_f_631_108750" x="57.3403" y="9.08643" width="60.1173" height="55.6199" filterUnits="userSpaceOnUse" color-interpolation-filters="sRGB">
<feFlood flood-opacity="0" result="BackgroundImageFix"/>
<feBlend mode="normal" in="SourceGraphic" in2="BackgroundImageFix" result="shape"/>
<feGaussianBlur stdDeviation="7.34256" result="effect1_foregroundBlur_631_108750"/>
</filter>
<filter id="filter6_f_631_108750" x="23.565" y="13.4" width="30.4716" height="44.2389" filterUnits="userSpaceOnUse" color-interpolation-filters="sRGB">
<feFlood flood-opacity="0" result="BackgroundImageFix"/>
<feBlend mode="normal" in="SourceGraphic" in2="BackgroundImageFix" result="shape"/>
<feGaussianBlur stdDeviation="4.5891" result="effect1_foregroundBlur_631_108750"/>
</filter>
<filter id="filter7_f_631_108750" x="7.77826" y="9.08643" width="60.1173" height="55.6199" filterUnits="userSpaceOnUse" color-interpolation-filters="sRGB">
<feFlood flood-opacity="0" result="BackgroundImageFix"/>
<feBlend mode="normal" in="SourceGraphic" in2="BackgroundImageFix" result="shape"/>
<feGaussianBlur stdDeviation="7.34256" result="effect1_foregroundBlur_631_108750"/>
</filter>
<filter id="filter8_d_631_108750" x="16.6865" y="65.6527" width="183.256" height="73.3623" filterUnits="userSpaceOnUse" color-interpolation-filters="sRGB">
<feFlood flood-opacity="0" result="BackgroundImageFix"/>
<feColorMatrix in="SourceAlpha" type="matrix" values="0 0 0 0 0 0 0 0 0 0 0 0 0 0 0 0 0 0 127 0" result="hardAlpha"/>
<feOffset dy="0.956543"/>
<feGaussianBlur stdDeviation="0.478272"/>
<feComposite in2="hardAlpha" operator="out"/>
<feColorMatrix type="matrix" values="0 0 0 0 1 0 0 0 0 1 0 0 0 0 1 0 0 0 0.25 0"/>
<feBlend mode="normal" in2="BackgroundImageFix" result="effect1_dropShadow_631_108750"/>
<feBlend mode="normal" in="SourceGraphic" in2="effect1_dropShadow_631_108750" result="shape"/>
</filter>
<linearGradient id="paint0_linear_631_108750" x1="35.8634" y1="224.682" x2="35.8634" y2="212.016" gradientUnits="userSpaceOnUse">
<stop stop-color="#535353"/>
<stop offset="1" stop-color="#B9B9B9"/>
</linearGradient>
<linearGradient id="paint1_linear_631_108750" x1="81.5709" y1="284.709" x2="81.5709" y2="272.043" gradientUnits="userSpaceOnUse">
<stop stop-color="#535353"/>
<stop offset="1" stop-color="#B9B9B9"/>
</linearGradient>
<linearGradient id="paint2_linear_631_108750" x1="167.322" y1="264.603" x2="147.142" y2="232.756" gradientUnits="userSpaceOnUse">
<stop stop-color="#EC1168"/>
<stop offset="1" stop-color="#F7CCDD"/>
</linearGradient>
</defs>
</svg>
