<svg width="169" height="239" viewBox="0 0 169 239" fill="none" xmlns="http://www.w3.org/2000/svg">
<rect width="169" height="238.508" rx="9.26027" fill="#242424"/>
<rect x="8.85889" y="162.595" width="2.8621" height="4.08871" fill="#535353"/>
<rect x="40.614" y="162.595" width="2.8621" height="4.08871" fill="#535353"/>
<rect x="23.3057" y="166.819" width="5.5879" height="59.8315" fill="#595959"/>
<ellipse cx="26.1678" cy="166.342" rx="17.3089" ry="4.70202" fill="#535353"/>
<ellipse cx="26.1678" cy="162.118" rx="17.3089" ry="4.70202" fill="url(#paint0_linear_616_9489)"/>
<rect x="42.7947" y="207.161" width="2.8621" height="4.08871" fill="#535353"/>
<rect x="74.55" y="207.161" width="2.8621" height="4.08871" fill="#535353"/>
<rect x="57.2415" y="211.386" width="5.5879" height="15.2645" fill="#595959"/>
<ellipse cx="60.1035" cy="210.909" rx="17.3089" ry="4.70202" fill="#535353"/>
<ellipse cx="60.1033" cy="206.684" rx="17.3089" ry="4.70202" fill="url(#paint1_linear_616_9489)"/>
<rect x="8.51785" y="11.9256" width="151.964" height="214.657" rx="1.97621" stroke="white" stroke-width="0.13629"/>
<path d="M53.5563 187.921C53.6097 188.138 53.8275 188.27 54.0502 188.246C54.1579 188.235 54.2673 188.229 54.3781 188.229C54.4034 188.229 54.4287 188.229 54.4539 188.23C54.6581 188.234 54.8496 188.111 54.9046 187.914L56.3403 182.778C56.4048 182.547 56.6528 182.42 56.8777 182.503L58.3067 183.032C58.5391 183.117 58.6429 183.388 58.5276 183.607L56.0876 188.245C55.9825 188.444 56.0605 188.689 56.244 188.821C56.3687 188.91 56.4861 189.008 56.5957 189.114C56.7477 189.261 56.9819 189.298 57.1577 189.181L61.5705 186.235C61.7684 186.103 62.0369 186.166 62.1548 186.373L62.8835 187.651C63.0063 187.867 62.9115 188.141 62.6818 188.234L57.7387 190.247C57.5414 190.327 57.4417 190.545 57.4785 190.755C57.5074 190.919 57.5226 191.088 57.5226 191.26V191.26C57.5226 191.45 57.658 191.62 57.8471 191.638L63.2212 192.137C63.4651 192.16 63.6349 192.39 63.5848 192.63L63.287 194.055C63.2378 194.29 62.9976 194.433 62.7672 194.364L57.4742 192.773C57.2889 192.717 57.0922 192.8 56.9809 192.959C56.9057 193.066 56.8235 193.168 56.735 193.265C56.5703 193.445 56.5542 193.728 56.7279 193.9L60.5299 197.659C60.7071 197.834 60.6885 198.126 60.4904 198.277L59.2958 199.189C59.1069 199.333 58.8353 199.287 58.7044 199.089L55.5976 194.381C55.4947 194.225 55.3003 194.161 55.1187 194.204C54.8813 194.261 54.6336 194.292 54.3781 194.292V194.292C54.3644 194.292 54.3536 194.303 54.3546 194.317L54.7908 200.223C54.8088 200.465 54.6123 200.67 54.3689 200.663L52.8365 200.615C52.5923 200.608 52.4089 200.39 52.443 200.148L53.2483 194.436C53.2755 194.243 53.1615 194.06 52.9853 193.976C52.9173 193.943 52.8508 193.909 52.7857 193.872C52.5888 193.761 52.3329 193.794 52.1963 193.974L48.6792 198.618C48.5359 198.807 48.2622 198.836 48.083 198.68L46.953 197.698C46.7648 197.534 46.7648 197.242 46.953 197.078L51.4691 193.152C51.6256 193.016 51.6529 192.786 51.5576 192.601C51.5486 192.584 51.5397 192.566 51.531 192.549C51.4351 192.354 51.2205 192.236 51.0109 192.292L45.179 193.859C44.9464 193.921 44.7103 193.771 44.6685 193.534L44.4158 192.101C44.3733 191.86 44.5497 191.635 44.7939 191.62L50.8563 191.236C51.0699 191.223 51.234 191.047 51.2644 190.835C51.2722 190.781 51.2814 190.727 51.292 190.674C51.3339 190.466 51.2406 190.246 51.0461 190.16L45.6349 187.766C45.4079 187.666 45.3214 187.388 45.451 187.177L46.2206 185.919C46.3448 185.717 46.6149 185.662 46.8087 185.8L51.5683 189.191C51.7459 189.317 51.9895 189.28 52.1453 189.128C52.2096 189.065 52.2767 189.005 52.3465 188.947C52.5074 188.815 52.573 188.592 52.4819 188.404L50.0443 183.397C49.936 183.174 50.0478 182.907 50.2824 182.828L51.7287 182.342C51.9563 182.265 52.2006 182.4 52.2579 182.633L53.5563 187.921Z" fill="#EC1168"/>
<path d="M54.0889 181.173C59.7748 181.173 64.3845 185.782 64.3848 191.468C64.3848 197.154 59.775 201.764 54.0889 201.764C48.4026 201.764 43.793 197.154 43.793 191.468C43.7932 185.782 48.4028 181.173 54.0889 181.173Z" stroke="#4F4F4F" stroke-width="0.63255"/>
<circle cx="54.3801" cy="191.215" r="1.63548" fill="#D9D9D9"/>
<g filter="url(#filter0_f_616_9489)">
<ellipse cx="9.60847" cy="4.49758" rx="9.60847" ry="4.49758" transform="matrix(0 1 1 0 134.247 16.7643)" fill="#ECEAEA"/>
</g>
<g opacity="0.5" filter="url(#filter1_f_616_9489)">
<path d="M136.292 17.6497L130.977 23.442L126.615 37.1392H149.444L146.105 23.442L140.176 17.6497H136.292Z" fill="#EDEDED"/>
</g>
<circle cx="2.52137" cy="2.52137" r="2.52137" transform="matrix(0 1 1 0 136.156 15.1282)" fill="#F8F6F6"/>
<circle cx="1.90806" cy="1.90806" r="1.90806" transform="matrix(0 1 1 0 136.699 14.9921)" fill="#393939"/>
<rect width="0.817742" height="1.63548" transform="matrix(0 1 1 0 137.79 14.4467)" fill="#393939"/>
<g filter="url(#filter2_f_616_9489)">
<ellipse cx="9.60847" cy="4.49758" rx="9.60847" ry="4.49758" transform="matrix(0 1 1 0 97.447 16.7643)" fill="#ECEAEA"/>
</g>
<g opacity="0.5" filter="url(#filter3_f_616_9489)">
<path d="M99.4916 17.6497L94.1762 23.442L89.8149 37.1392H112.644L109.304 23.442L103.376 17.6497H99.4916Z" fill="#EDEDED"/>
</g>
<circle cx="2.52137" cy="2.52137" r="2.52137" transform="matrix(0 1 1 0 99.3555 15.1282)" fill="#F8F6F6"/>
<circle cx="1.90806" cy="1.90806" r="1.90806" transform="matrix(0 1 1 0 99.8997 14.9921)" fill="#393939"/>
<rect width="0.817742" height="1.63548" transform="matrix(0 1 1 0 100.99 14.4467)" fill="#393939"/>
<g filter="url(#filter4_f_616_9489)">
<ellipse cx="9.60847" cy="4.49758" rx="9.60847" ry="4.49758" transform="matrix(0 1 1 0 60.6475 16.7643)" fill="#ECEAEA"/>
</g>
<g opacity="0.5" filter="url(#filter5_f_616_9489)">
<path d="M62.6915 17.6497L57.3762 23.442L53.0149 37.1392H75.8435L72.5044 23.442L66.5758 17.6497H62.6915Z" fill="#EDEDED"/>
</g>
<circle cx="2.52137" cy="2.52137" r="2.52137" transform="matrix(0 1 1 0 62.5552 15.1282)" fill="#F8F6F6"/>
<circle cx="1.90806" cy="1.90806" r="1.90806" transform="matrix(0 1 1 0 63.1011 14.9921)" fill="#393939"/>
<rect width="0.817742" height="1.63548" transform="matrix(0 1 1 0 64.1912 14.4467)" fill="#393939"/>
<g filter="url(#filter6_f_616_9489)">
<ellipse cx="9.60847" cy="4.49758" rx="9.60847" ry="4.49758" transform="matrix(0 1 1 0 23.8499 16.7643)" fill="#ECEAEA"/>
</g>
<g opacity="0.5" filter="url(#filter7_f_616_9489)">
<path d="M25.8939 17.6497L20.5786 23.442L16.2173 37.1392H39.0459L35.7068 23.442L29.7782 17.6497H25.8939Z" fill="#EDEDED"/>
</g>
<circle cx="2.52137" cy="2.52137" r="2.52137" transform="matrix(0 1 1 0 25.7578 15.1282)" fill="#F8F6F6"/>
<circle cx="1.90806" cy="1.90806" r="1.90806" transform="matrix(0 1 1 0 26.3035 14.9921)" fill="#393939"/>
<rect width="0.817742" height="1.63548" transform="matrix(0 1 1 0 27.3933 14.4467)" fill="#393939"/>
<path d="M95.6622 203.311C95.8331 203.475 96.1025 203.47 96.2831 203.317C96.4562 203.17 96.6416 203.034 96.839 202.909C96.9199 202.857 97.0018 202.809 97.0845 202.763C97.2735 202.658 97.3741 202.439 97.3121 202.232L94.8803 194.111C94.8076 193.868 94.9573 193.615 95.2051 193.561L97.8951 192.982C98.1523 192.926 98.3993 193.11 98.4199 193.372L99.0743 201.717C99.0931 201.956 99.3021 202.132 99.5418 202.136C99.8979 202.14 100.25 202.185 100.592 202.267C100.809 202.319 101.039 202.219 101.13 202.016L104.582 194.281C104.684 194.051 104.959 193.956 105.181 194.074L107.533 195.314C107.766 195.437 107.837 195.738 107.684 195.952L102.715 202.893C102.583 203.077 102.617 203.33 102.775 203.491C102.993 203.711 103.19 203.957 103.362 204.229C103.377 204.251 103.391 204.274 103.404 204.296C103.531 204.505 103.795 204.597 104.013 204.486L111.618 200.597C111.85 200.479 112.132 200.589 112.223 200.832L113.144 203.296C113.233 203.535 113.099 203.798 112.854 203.867L104.38 206.25C104.184 206.306 104.054 206.491 104.051 206.695C104.045 207.016 104.006 207.337 103.934 207.651C103.876 207.905 104.024 208.168 104.278 208.223L112.657 210.028C112.916 210.083 113.065 210.356 112.973 210.604L112.025 213.148C111.938 213.383 111.67 213.495 111.441 213.393L103.284 209.749C103.105 209.668 102.895 209.72 102.761 209.865C102.475 210.174 102.144 210.454 101.77 210.691V210.691C101.753 210.701 101.748 210.723 101.76 210.739L107.251 218.13C107.405 218.337 107.346 218.632 107.123 218.764L104.739 220.174C104.516 220.306 104.228 220.215 104.122 219.979L100.369 211.663C100.283 211.474 100.077 211.374 99.8724 211.406C99.6422 211.441 99.4114 211.459 99.1817 211.462C98.9429 211.464 98.7341 211.639 98.7136 211.876L97.9177 221.107C97.8961 221.356 97.6683 221.536 97.4204 221.499L94.7451 221.099C94.4831 221.06 94.3168 220.797 94.3933 220.544L97.1369 211.446C97.2006 211.235 97.0948 211.012 96.9006 210.907C96.7731 210.839 96.6488 210.764 96.5281 210.683C96.3375 210.555 96.0789 210.572 95.9235 210.741L89.4067 217.808C89.2341 217.995 88.9382 217.994 88.7665 217.806L86.9928 215.865C86.8178 215.674 86.8485 215.373 87.0584 215.22L94.8842 209.544C95.0677 209.41 95.1159 209.16 95.0156 208.956C94.9272 208.777 94.8521 208.594 94.7897 208.409C94.7177 208.195 94.5079 208.051 94.2846 208.085L84.9688 209.495C84.7082 209.535 84.4727 209.335 84.4693 209.071L84.4348 206.409C84.4315 206.158 84.641 205.956 84.8917 205.969L94.176 206.45C94.4057 206.462 94.6028 206.292 94.648 206.066C94.6979 205.817 94.7679 205.571 94.8577 205.332C94.9353 205.124 94.8661 204.886 94.6775 204.77L87.1379 200.138C86.914 200 86.8625 199.697 87.0284 199.493L88.7677 197.357C88.928 197.16 89.2221 197.142 89.4054 197.317L95.6622 203.311Z" fill="#F7CCDD"/>
<path d="M142.727 179.16C142.841 179.27 143.021 179.267 143.142 179.165C143.258 179.067 143.382 178.976 143.513 178.892C143.568 178.858 143.622 178.825 143.678 178.795C143.804 178.725 143.871 178.578 143.83 178.44L142.206 173.018C142.158 172.856 142.258 172.687 142.423 172.651L144.219 172.264C144.391 172.227 144.556 172.35 144.569 172.525L145.006 178.098C145.019 178.257 145.158 178.375 145.318 178.378C145.555 178.381 145.79 178.411 146.018 178.466C146.163 178.501 146.316 178.434 146.377 178.298L148.683 173.132C148.751 172.979 148.935 172.915 149.083 172.993L150.654 173.822C150.809 173.904 150.857 174.104 150.754 174.247L147.437 178.882C147.349 179.005 147.371 179.173 147.477 179.281C147.622 179.428 147.754 179.592 147.868 179.773C147.878 179.788 147.887 179.803 147.896 179.818C147.981 179.958 148.157 180.019 148.302 179.945L153.381 177.349C153.535 177.27 153.724 177.343 153.785 177.506L154.4 179.152C154.459 179.311 154.37 179.487 154.207 179.532L148.548 181.124C148.417 181.161 148.331 181.284 148.328 181.421C148.324 181.635 148.298 181.848 148.25 182.058C148.211 182.227 148.31 182.403 148.479 182.439L154.075 183.645C154.248 183.682 154.348 183.864 154.286 184.029L153.653 185.728C153.595 185.885 153.416 185.96 153.263 185.892L147.815 183.458C147.695 183.404 147.554 183.439 147.465 183.536C147.275 183.742 147.055 183.929 146.805 184.088V184.088C146.794 184.095 146.791 184.109 146.799 184.119L150.466 189.056C150.569 189.194 150.529 189.391 150.381 189.479L148.788 190.42C148.639 190.508 148.447 190.447 148.376 190.29L145.869 184.734C145.812 184.608 145.674 184.541 145.538 184.562C145.384 184.586 145.231 184.599 145.078 184.601C144.918 184.603 144.779 184.719 144.765 184.878L144.234 191.042C144.22 191.209 144.068 191.329 143.902 191.304L142.116 191.037C141.941 191.011 141.83 190.836 141.881 190.666L143.713 184.592C143.755 184.451 143.685 184.301 143.555 184.232C143.47 184.186 143.387 184.137 143.307 184.083C143.179 183.998 143.007 184.01 142.903 184.122L138.552 188.841C138.436 188.966 138.239 188.965 138.124 188.839L136.94 187.543C136.824 187.416 136.844 187.215 136.984 187.113L142.208 183.323C142.331 183.234 142.363 183.067 142.296 182.931C142.237 182.811 142.186 182.689 142.144 182.565C142.096 182.422 141.956 182.326 141.807 182.348L135.588 183.29C135.414 183.317 135.257 183.183 135.254 183.007L135.231 181.229C135.229 181.061 135.369 180.927 135.537 180.935L141.738 181.257C141.891 181.265 142.023 181.151 142.053 181.001C142.086 180.834 142.132 180.67 142.191 180.51C142.243 180.372 142.197 180.212 142.071 180.135L137.035 177.042C136.886 176.95 136.852 176.747 136.962 176.611L138.124 175.185C138.231 175.053 138.427 175.041 138.55 175.158L142.727 179.16Z" fill="#F7CCDD"/>
<circle cx="99.0158" cy="207.369" r="15.8272" transform="rotate(-32.3599 99.0158 207.369)" stroke="black" stroke-width="6.20673"/>
<path d="M92.94 183.517L97.1918 182.807L100.963 182.843L105.059 183.627L108.902 185.748L111.607 187.749L115.123 186.288L119.17 183.282L119.969 181.644L113.073 170.76C123.747 164.868 130.004 162.334 141.714 159.372C143.226 163.12 144.46 164.977 147.163 167.971C140.257 170.847 135.34 173.112 129.754 176.237L129.323 178.318L129.082 180.603L128.91 182.768L130.215 187.379L131.373 191.642L118.843 199.581L108.724 188.947L109.154 188.768L103.927 185.666L95.6879 185.303L87.9125 188.687L84.4421 191.327L81.6108 195.325L82.9257 189.863L89.023 185.338L92.94 183.517Z" fill="url(#paint2_linear_616_9489)"/>
<path d="M78.945 203.408C78.945 203.408 79.9155 200.4 80.711 198.541C81.0972 197.639 81.2853 197.116 81.7627 196.258C82.2906 195.31 82.6507 194.811 83.3143 193.952C83.7033 193.449 83.9131 193.156 84.3593 192.703C84.84 192.214 85.1539 191.984 85.6944 191.563C86.8981 190.623 87.6499 190.188 88.9974 189.47C90.5797 188.626 91.5102 188.204 93.2233 187.674C94.4757 187.286 95.1892 187.037 96.4951 186.923C97.9296 186.798 98.7453 186.987 100.174 187.164C101.859 187.371 102.834 187.444 104.443 187.986C106.03 188.521 106.864 189.004 108.29 189.883C109.402 190.568 109.993 191.01 111 191.84C112.42 193.011 113.096 193.807 114.35 195.155C115.334 196.215 116.781 197.949 116.781 197.949L118.26 199.626C118.462 199.855 118.8 199.904 119.058 199.74L131.218 192.035C131.452 191.887 131.559 191.602 131.482 191.337L130.927 189.427L130.118 186.412C130.118 186.412 129.685 184.454 129.539 183.179C129.384 181.82 129.262 181.043 129.379 179.68C129.471 178.621 129.571 178.02 129.889 177.006C130.251 175.851 130.132 176.565 131.194 174.195C131.86 172.708 134.27 170.594 136.405 168.728C136.943 168.258 136.529 167.728 135.925 168.111L132.106 170.531C132.106 170.531 131.087 171.342 130.489 171.923C129.692 172.698 129.196 173.118 128.614 174.066C127.927 175.186 127.79 175.954 127.456 177.225C127.251 178.004 127.126 178.445 127.048 179.247C126.956 180.178 127.026 180.709 127.095 181.641C127.199 183.038 127.65 185.184 127.65 185.184C127.65 185.184 128.249 186.942 128.721 188.033C129.166 189.063 129.906 190.441 130.311 191.177C130.471 191.467 130.379 191.832 130.099 192.009L119.393 198.793C119.119 198.967 118.757 198.9 118.563 198.64L116.97 196.507L114.458 193.47C114.458 193.47 112.499 190.842 110.952 189.446C109.291 187.947 108.299 187.064 106.241 186.185C104.68 185.519 103.702 185.399 102.03 185.106C100.859 184.901 100.197 184.763 99.0081 184.743C97.859 184.724 97.1999 184.749 96.0752 184.985C94.5772 185.3 93.7203 185.636 92.3117 186.235C90.7818 186.886 90.014 187.393 88.5619 188.203C87.4822 188.805 86.8526 189.124 85.888 189.897C85.0571 190.563 84.632 190.994 83.9326 191.797C82.9627 192.911 81.7939 194.916 81.7939 194.916C80.198 197.206 79.5781 200.318 78.945 203.408Z" fill="#4C4C4C" stroke="black" stroke-width="0.372404"/>
<circle cx="144.965" cy="181.781" r="11.3583" transform="rotate(-32.3599 144.965 181.781)" stroke="black" stroke-width="6.20673"/>
<path d="M80.0786 174.033L80.0755 174.037L79.0631 175.308C79.025 175.356 78.9938 175.409 78.9698 175.465L78.5979 176.334C78.5484 176.45 78.5322 176.578 78.5506 176.703L78.5548 176.735C78.587 176.953 78.4882 177.17 78.3019 177.288L76.1786 178.634C75.918 178.799 75.5729 178.721 75.4078 178.461L73.6614 175.705C73.5034 175.455 73.5701 175.123 73.8109 174.95C84.7264 167.119 91.2256 162.897 102.905 156.51C103.163 156.369 103.491 156.452 103.648 156.7L105.396 159.459C105.561 159.72 105.484 160.065 105.223 160.23L103.334 161.427C103.186 161.521 103.004 161.54 102.841 161.48L101.679 161.049C101.616 161.026 101.55 161.011 101.482 161.007L99.7888 160.907C99.6995 160.902 99.6096 160.914 99.5251 160.943L97.3998 161.676C97.3636 161.689 97.3287 161.704 97.2952 161.723L88.8205 166.365C88.789 166.383 88.7592 166.403 88.7308 166.425L83.5798 170.412C83.5537 170.432 83.5291 170.455 83.5062 170.478L80.0786 174.033Z" fill="#F7CCDD" stroke="black" stroke-width="0.124135"/>
<path d="M85.2188 187.334C85.0412 187.053 85.1321 186.682 85.419 186.515L89.0826 184.387L93.0724 181.638L98.1094 178.948C98.1909 178.905 98.2811 178.88 98.3734 178.876L101.665 178.726C101.71 178.723 101.755 178.726 101.799 178.734L104.977 179.282C105.119 179.306 105.248 179.379 105.342 179.488L109.039 183.78C109.071 183.816 109.107 183.849 109.146 183.878L112.83 186.539C113.216 186.817 113.158 187.408 112.726 187.606L111.946 187.964C111.727 188.065 111.47 188.029 111.286 187.874L107.715 184.847C107.651 184.793 107.578 184.752 107.499 184.728L103.104 183.354C103.06 183.34 103.014 183.331 102.968 183.328L99.3733 183.044C99.341 183.041 99.3085 183.041 99.2762 183.044L95.821 183.314C95.7765 183.317 95.7324 183.325 95.6896 183.338L90.279 184.976C90.2298 184.99 90.1826 185.011 90.1386 185.038L86.0144 187.522C85.7422 187.686 85.3889 187.602 85.2188 187.334V187.334Z" fill="#5F5F5F"/>
<rect x="102.235" y="173.277" width="4.81579" height="0.986212" transform="rotate(8.85989 102.235 173.277)" fill="#6A6A6A"/>
<ellipse cx="101.559" cy="173.709" rx="3.47855" ry="0.868943" transform="rotate(-72.504 101.559 173.709)" fill="#808080"/>
<path d="M106.506 176.979C106.349 173.924 107.037 172.064 109.612 168.545L112.661 172.197L114.731 175.001L116.359 177.57L119.247 182.94L117.703 184.213L113.849 178.131L110.065 177.957L106.506 176.979Z" fill="#5F5F5F"/>
<path d="M98.8911 162.4C99.8941 162.08 100.613 161.953 101.261 161.995C101.903 162.036 102.503 162.247 103.266 162.655C107.181 165.705 110.014 168.35 112.477 171.457C114.911 174.527 116.991 178.06 119.396 182.9C116.68 185.413 114.914 186.577 111.455 187.926C109.475 186.143 108.178 185.163 105.322 183.78L105.297 183.769L105.27 183.761L104.499 183.555C102.743 183.107 101.29 182.883 99.8123 182.84C98.1264 182.792 96.421 182.981 94.2148 183.328L94.1906 183.332L94.1672 183.339L93.492 183.563C90.3087 184.644 88.3809 185.673 85.4592 188.062L82.0293 182.649L79.17 177.352C80.7008 175.044 81.7307 173.824 83.8812 171.911L83.8836 171.91C86.3078 169.712 87.7983 168.605 90.6171 166.767L98.8911 162.4Z" stroke="black" stroke-width="0.620673"/>
<path d="M21.7401 152.622L19.0906 151.483L18.3835 147.426L21.1757 141.325L23.9215 140.455L30.4118 140.961L32.9001 142.238L35.9277 145.091L36.5982 148.845L35.3313 152.748L32.0289 153.424L21.7401 152.622Z" fill="#474747" stroke="black" stroke-width="0.0599998"/>
<path d="M82.0465 157.59L77.0391 155.816L77.4398 150.671L80.9269 144.534L84.6628 142.929L91.6616 143.474L94.8946 145.622L97.1899 148.99L97.4962 153.558L96.8989 157.363L92.3353 158.391L82.0465 157.59Z" fill="#474747" stroke="black" stroke-width="0.0599998"/>
<path d="M11.532 135.337L11.3424 145.884L11.8257 148.179L15.2281 151.242L19.0864 151.543L19.4778 146.518L23.3437 141.312L32.1968 142.002L35.7484 147.785L35.3571 152.81L77.7386 156.111L78.1299 151.086L82.5566 144.089L93.3539 144.93L96.8115 150.375L96.7908 157.595L102.297 152.968L102.176 144.865L97.4032 142.778C84.6581 137.192 77.1724 134.307 63.0013 129.747C42.8422 131.253 31.5719 132.453 11.532 135.337Z" fill="#EFFB03" stroke="black" stroke-width="0.0599998"/>
<path d="M56.5076 131.983L56.0336 138.069L58.9023 138.326L59.0201 131.791L56.5076 131.983Z" fill="#B0B0B0"/>
<path d="M42.7038 133.041L41.8696 136.798L56.0336 138.069L56.5076 131.983L42.7038 133.041Z" fill="#434343"/>
<path d="M87.6487 140.905L62.9554 131.489L59.0201 131.791L58.9023 138.326L87.6487 140.905Z" fill="#434343"/>
<path d="M56.5076 131.983L42.7038 133.041L41.8696 136.798L56.0336 138.069M56.5076 131.983L56.0336 138.069M56.5076 131.983L59.0201 131.791M56.0336 138.069L58.9023 138.326M59.0201 131.791L62.9554 131.489L87.6487 140.905L58.9023 138.326M59.0201 131.791L58.9023 138.326" stroke="black" stroke-width="0.0599998"/>
<circle cx="87.7356" cy="153.7" r="7.97997" transform="rotate(4.45362 87.7356 153.7)" fill="#D9D9D9"/>
<circle cx="27.2034" cy="149.707" r="7.25998" transform="rotate(4.45362 27.2034 149.707)" fill="#D9D9D9"/>
<path d="M102.233 144.899L15.675 138.157M15.675 138.157L11.5315 135.337M15.675 138.157L11.8574 148.151" stroke="black" stroke-width="0.0599998"/>
<path d="M96.8301 154.77L99.8509 155.005L97.4975 157.018L96.7906 157.595L96.8301 154.77Z" fill="#919191" stroke="black" stroke-width="0.0599998"/>
<path d="M35.6057 150.001L77.9573 153.3L77.7406 156.081L35.3891 152.782L35.6057 150.001Z" fill="#919191" stroke="black" stroke-width="0.0599998"/>
<path d="M81.3429 130.974C81.3261 130.976 81.3093 130.97 81.298 130.957L79.8318 129.327C79.8277 129.322 79.8245 129.317 79.8222 129.311L78.7639 126.611C78.7606 126.603 78.7596 126.593 78.761 126.584L79.136 124.255C79.1367 124.25 79.1381 124.246 79.1401 124.242L80.2921 121.746C80.2938 121.743 80.296 121.739 80.2986 121.736L81.7265 119.949C81.7285 119.946 81.7309 119.944 81.7334 119.942L83.643 118.323C83.6489 118.318 83.6558 118.314 83.6633 118.312L86.1466 117.666L88.6855 117.039C88.692 117.037 88.6987 117.037 88.7054 117.038L90.772 117.347C90.7759 117.347 90.7798 117.348 90.7834 117.35L92.4165 118.003L94.057 118.912C94.0617 118.915 94.066 118.918 94.0697 118.922L95.4867 120.453L97.0953 122.63C97.0986 122.634 97.1011 122.639 97.1028 122.644L97.9702 125.249C97.9716 125.253 97.9724 125.258 97.9727 125.262L98.0759 126.968C98.0761 126.97 98.076 126.973 98.0758 126.975L97.9299 128.681C97.9279 128.705 97.9095 128.725 97.8858 128.728L81.3429 130.974Z" fill="#1F1F1F" stroke="black" stroke-width="0.0511837"/>
<path d="M137.743 122.903C137.723 122.906 137.703 122.897 137.692 122.88L136.571 121.136C136.566 121.13 136.564 121.123 136.563 121.115L136.166 118.192C136.165 118.188 136.165 118.182 136.166 118.177L136.542 115.842C136.543 115.837 136.544 115.833 136.546 115.829L137.698 113.333C137.7 113.33 137.702 113.326 137.705 113.323L139.133 111.536C139.135 111.533 139.137 111.531 139.14 111.528L141.049 109.909C141.055 109.904 141.062 109.901 141.07 109.899L143.553 109.253L146.092 108.626C146.098 108.624 146.105 108.624 146.112 108.625L148.178 108.934C148.182 108.934 148.186 108.935 148.19 108.937L149.823 109.59L151.463 110.499C151.468 110.502 151.472 110.505 151.476 110.509L152.893 112.04L154.502 114.216C154.505 114.221 154.507 114.226 154.509 114.231L155.376 116.836C155.378 116.84 155.379 116.844 155.379 116.849L155.482 118.555C155.482 118.557 155.482 118.56 155.482 118.562L155.336 120.269C155.334 120.292 155.316 120.312 155.293 120.315L137.743 122.903Z" fill="#1F1F1F" stroke="black" stroke-width="0.0511837"/>
<path d="M69.2269 129.803C69.2124 129.82 69.2101 129.844 69.2223 129.863C69.3354 130.037 69.9076 130.897 70.4369 131.317C71.6828 132.306 72.8247 132.072 74.4083 132.224C77.0248 132.476 80.9719 131.423 81.541 131.266C81.5756 131.256 81.5874 131.216 81.5659 131.188C81.3873 130.949 80.7127 130.038 80.3239 129.381C80.0308 128.886 79.8036 128.629 79.6309 128.08C79.4719 127.575 79.4753 127.265 79.4484 126.736C79.403 125.845 79.4239 125.323 79.6561 124.461C79.8913 123.589 80.1751 123.142 80.6371 122.365C81.0454 121.679 81.3006 121.301 81.8321 120.705C82.3045 120.175 82.5878 119.883 83.1618 119.466C83.8088 118.995 84.227 118.801 84.9674 118.497C85.4753 118.289 85.7722 118.2 86.3024 118.058C87.4994 117.737 88.215 117.496 89.4469 117.631C90.3628 117.731 90.861 117.943 91.7079 118.306C92.6562 118.712 93.1925 118.986 93.9823 119.65C94.6147 120.181 94.9074 120.555 95.4083 121.212C95.9781 121.96 96.2962 122.399 96.668 123.262C97.0053 124.045 97.0996 124.529 97.2619 125.361L97.2649 125.377C97.5166 126.667 97.4725 128.664 97.4617 129.035C97.4608 129.066 97.4886 129.091 97.5201 129.087L138.251 123.558C138.283 123.553 138.303 123.52 138.292 123.489C138.197 123.226 137.814 122.143 137.634 121.394C137.326 120.122 137.117 119.38 137.183 118.072C137.239 116.948 137.356 116.295 137.781 115.253C138.189 114.255 138.568 113.751 139.245 112.911C139.896 112.105 140.307 111.672 141.137 111.053C142.019 110.395 142.575 110.072 143.615 109.709C144.898 109.262 145.709 109.133 147.063 109.241C148.521 109.357 149.367 109.646 150.628 110.385C151.451 110.867 151.881 111.216 152.539 111.907C153.202 112.604 153.544 113.047 153.973 113.908C154.376 114.717 154.475 115.231 154.685 116.11C154.952 117.227 155.284 117.895 155.081 119.026C154.959 119.702 154.471 120.591 154.287 120.909C154.263 120.95 154.302 121 154.348 120.985C154.893 120.799 156.982 120.068 157.604 119.536C158.321 118.922 159.937 112.943 159.489 112.307C159.081 111.727 158.133 111.264 157.966 111.186C157.95 111.178 157.939 111.163 157.937 111.146L157.844 110.466C157.839 110.429 157.874 110.399 157.91 110.408C158.23 110.489 158.421 110.451 158.717 110.281C158.735 110.271 158.745 110.25 158.742 110.23L158.322 107.138C158.319 107.113 158.298 107.094 158.272 107.093C158.145 107.09 157.77 107.073 157.528 106.994C156.26 106.58 156.865 103.859 156.996 103.33C157.006 103.291 156.968 103.257 156.929 103.268C153.1 104.424 150.843 104.475 146.85 104.622C146.85 104.622 135.072 103.77 127.512 103.528C125.771 103.472 124.795 103.409 123.054 103.41C117.886 103.412 109.884 104.475 109.772 104.49C109.768 104.49 109.769 104.49 109.765 104.492C102.651 106.994 98.8729 109.139 92.3103 113.545C92.3049 113.548 92.2986 113.551 92.2923 113.552C83.372 115.465 78.9003 117.707 71.137 122.154C71.1328 122.157 71.1288 122.16 71.1255 122.163L68.5607 124.827C68.542 124.846 68.542 124.877 68.5601 124.897C69.6809 126.125 70.3259 126.601 71.4354 127.116C71.4663 127.13 71.4752 127.17 71.453 127.196C70.6894 128.083 70.1686 128.695 69.2269 129.803Z" fill="#EC1168"/>
<path d="M97.2649 125.377C97.5166 126.667 97.4725 128.664 97.4617 129.035C97.4608 129.066 97.4886 129.091 97.5201 129.087L138.251 123.558C138.283 123.553 138.303 123.52 138.292 123.489C138.197 123.226 137.814 122.143 137.634 121.394C137.326 120.122 137.117 119.38 137.183 118.072C137.239 116.948 137.356 116.295 137.781 115.253C138.189 114.255 138.568 113.751 139.245 112.911C139.896 112.105 140.307 111.672 141.137 111.053C142.019 110.395 142.575 110.072 143.615 109.709C144.898 109.262 145.709 109.133 147.063 109.241C148.521 109.357 149.367 109.646 150.628 110.385C151.451 110.867 151.881 111.216 152.539 111.907C153.202 112.604 153.544 113.047 153.973 113.908C154.376 114.717 154.475 115.231 154.685 116.11C154.952 117.227 155.284 117.895 155.081 119.026C154.959 119.702 154.471 120.591 154.287 120.909C154.263 120.95 154.302 121 154.348 120.985C154.893 120.799 156.982 120.068 157.604 119.536C158.321 118.922 159.937 112.943 159.489 112.307C159.081 111.727 158.133 111.264 157.966 111.186C157.95 111.178 157.939 111.163 157.937 111.146L157.844 110.466C157.839 110.429 157.874 110.399 157.91 110.408C158.23 110.489 158.421 110.451 158.717 110.281C158.735 110.271 158.745 110.25 158.742 110.23L158.322 107.138C158.319 107.113 158.298 107.094 158.272 107.093C158.145 107.09 157.77 107.073 157.528 106.994C156.26 106.58 156.865 103.859 156.996 103.33C157.006 103.291 156.968 103.257 156.929 103.268C153.1 104.424 150.843 104.475 146.85 104.622C146.85 104.622 135.072 103.77 127.512 103.528C125.771 103.472 124.795 103.409 123.054 103.41C117.886 103.412 109.884 104.475 109.772 104.49C109.768 104.49 109.769 104.49 109.765 104.492C102.651 106.994 98.8729 109.139 92.3103 113.545C92.3049 113.548 92.2986 113.551 92.2923 113.552C83.372 115.465 78.9003 117.707 71.137 122.154C71.1328 122.157 71.1288 122.16 71.1255 122.163L68.5607 124.827C68.542 124.846 68.542 124.877 68.5601 124.897C69.6809 126.125 70.3259 126.601 71.4354 127.116C71.4663 127.13 71.4752 127.17 71.453 127.196C70.6894 128.083 70.1686 128.695 69.2269 129.803C69.2124 129.82 69.2101 129.844 69.2223 129.863C69.3354 130.037 69.9076 130.897 70.4369 131.317C71.6828 132.306 72.8247 132.072 74.4083 132.224C77.0248 132.476 80.9719 131.423 81.541 131.266C81.5756 131.256 81.5874 131.216 81.5659 131.188C81.3873 130.949 80.7127 130.038 80.3239 129.381C80.0308 128.886 79.8036 128.629 79.6309 128.08C79.4719 127.575 79.4753 127.265 79.4484 126.736C79.403 125.845 79.4239 125.323 79.6561 124.461C79.8913 123.589 80.1751 123.142 80.6371 122.365C81.0454 121.679 81.3006 121.301 81.8321 120.705C82.3045 120.175 82.5878 119.883 83.1618 119.466C83.8088 118.995 84.227 118.801 84.9674 118.497C85.4753 118.289 85.7722 118.2 86.3024 118.058C87.4994 117.737 88.215 117.496 89.4469 117.631C90.3628 117.731 90.861 117.943 91.7079 118.306C92.6562 118.712 93.1925 118.986 93.9823 119.65C94.6147 120.181 94.9074 120.555 95.4083 121.212C95.9781 121.96 96.2962 122.399 96.668 123.262C97.0053 124.045 97.0996 124.529 97.2619 125.361M97.2649 125.377L97.2619 125.361M97.2649 125.377C97.2639 125.371 97.2629 125.366 97.2619 125.361" stroke="black" stroke-width="0.0511837"/>
<circle cx="88.4052" cy="125.934" r="6.85861" transform="rotate(-7.73077 88.4052 125.934)" fill="#686868"/>
<circle cx="145.565" cy="118.174" r="6.85861" transform="rotate(-7.73077 145.565 118.174)" fill="#686868"/>
<path d="M70.1967 130.963C70.1459 130.962 70.1252 131.029 70.166 131.059C70.629 131.402 70.8635 131.687 71.5258 131.942C71.5282 131.943 71.5307 131.944 71.5331 131.945C72.532 132.165 73.6754 132.229 74.7231 132.259C77.471 132.185 78.9094 132.037 81.5414 131.267C81.575 131.257 81.5897 131.217 81.5696 131.188L80.7963 130.083C80.7847 130.067 80.7671 130.058 80.7473 130.062C80.3809 130.13 76.7411 130.799 74.3361 130.93C72.9754 131.004 70.8139 130.974 70.1967 130.963Z" fill="#777777"/>
<path d="M97.5265 127.548C97.502 127.552 97.4835 127.574 97.4836 127.599L97.4886 129.059C97.4887 129.09 97.516 129.113 97.5467 129.109L132.149 124.412C132.195 124.405 132.209 124.345 132.17 124.319C130.65 123.32 129.336 123.044 126.038 122.88C126.035 122.879 126.031 122.88 126.027 122.88C114.836 124.611 108.577 125.618 97.5265 127.548Z" fill="#777777"/>
<path d="M126.406 111.545C126.37 111.583 126.408 111.645 126.458 111.629C131.395 110.006 136.217 107.723 136.157 107.094C136.098 106.467 133.827 106.207 131.521 106.093C131.475 106.091 131.45 106.144 131.481 106.177C131.725 106.435 131.931 106.588 132.33 106.779C132.369 106.798 132.369 106.854 132.33 106.873C129.593 108.229 128.387 109.425 126.406 111.545Z" fill="#505050"/>
<path d="M128.211 103.546C128.248 103.548 128.272 103.588 128.255 103.62L128.111 103.903C128.108 103.909 128.104 103.914 128.099 103.919C124.033 107.425 121.238 108.628 116.392 111.349C116.387 111.352 116.381 111.354 116.375 111.355L103.844 113.34L103.846 113.33C103.924 112.947 103.968 112.728 103.571 112.227C103.565 112.22 103.558 112.214 103.549 112.211C102.085 111.639 101.149 111.79 99.2054 112.805C99.2022 112.807 99.1989 112.809 99.1961 112.812C98.5269 113.372 98.4497 113.697 98.7456 114.241C98.7633 114.274 98.7427 114.315 98.7056 114.319L90.5854 115.138C90.5321 115.143 90.5101 115.072 90.555 115.042C99.4275 109.234 102.839 107.157 109.893 104.474C109.896 104.473 109.899 104.472 109.902 104.472C114.598 103.577 114.401 103.577 119.264 103.611C119.277 103.611 119.289 103.608 119.298 103.599C119.468 103.443 121.165 101.885 121.675 101.622C122.185 101.358 122.5 101.332 123.035 101.412C123.073 101.418 123.091 101.463 123.069 101.495C122.572 102.196 122.796 102.875 123.119 103.401C123.128 103.416 123.145 103.425 123.162 103.425C125.793 103.447 126 103.399 128.211 103.546Z" fill="#5F5F5F"/>
<path d="M103.844 113.34L116.375 111.355C116.381 111.354 116.387 111.352 116.392 111.349C121.238 108.628 124.033 107.425 128.099 103.919C128.104 103.914 128.108 103.909 128.111 103.903L128.255 103.62C128.272 103.588 128.248 103.548 128.211 103.546C126 103.399 125.793 103.447 123.162 103.425C123.145 103.425 123.128 103.416 123.119 103.401C122.796 102.875 122.572 102.196 123.069 101.495C123.091 101.463 123.073 101.418 123.035 101.412C122.5 101.332 122.185 101.358 121.675 101.622C121.165 101.885 119.468 103.443 119.298 103.599C119.289 103.608 119.277 103.611 119.264 103.611C114.401 103.577 114.598 103.577 109.902 104.472C109.899 104.472 109.896 104.473 109.893 104.474C102.839 107.157 99.4275 109.234 90.555 115.042C90.5101 115.072 90.5321 115.143 90.5854 115.138L98.7056 114.319C98.7427 114.315 98.7633 114.274 98.7456 114.241C98.4497 113.697 98.5269 113.372 99.1961 112.812C99.1989 112.809 99.2022 112.807 99.2054 112.805C101.149 111.79 102.085 111.639 103.549 112.211C103.558 112.214 103.565 112.22 103.571 112.227C103.968 112.728 103.924 112.947 103.846 113.33M103.844 113.34L103.846 113.33M103.844 113.34C103.845 113.337 103.845 113.334 103.846 113.33M74.7231 132.259C73.6754 132.229 72.532 132.165 71.5331 131.945C71.5307 131.944 71.5282 131.943 71.5258 131.942C70.8635 131.687 70.629 131.402 70.166 131.059C70.1252 131.029 70.1459 130.962 70.1967 130.963C70.8139 130.974 72.9754 131.004 74.3361 130.93C76.7411 130.799 80.3809 130.13 80.7473 130.062C80.7671 130.058 80.7847 130.067 80.7963 130.083L81.5696 131.188C81.5897 131.217 81.575 131.257 81.5414 131.267C78.9094 132.037 77.471 132.185 74.7231 132.259ZM136.157 107.094C136.217 107.723 131.395 110.006 126.458 111.629C126.408 111.645 126.37 111.583 126.406 111.545C128.387 109.425 129.593 108.229 132.33 106.873C132.369 106.854 132.369 106.798 132.33 106.779C131.931 106.588 131.725 106.435 131.481 106.177C131.45 106.144 131.475 106.091 131.521 106.093C133.827 106.207 136.098 106.467 136.157 107.094ZM126.038 122.88C129.336 123.044 130.65 123.32 132.17 124.319C132.209 124.345 132.195 124.405 132.149 124.412L97.5467 129.109C97.516 129.113 97.4887 129.09 97.4886 129.059L97.4836 127.599C97.4835 127.574 97.502 127.552 97.5265 127.548C108.577 125.618 114.836 124.611 126.027 122.88C126.031 122.88 126.035 122.879 126.038 122.88Z" stroke="black" stroke-width="0.0511837"/>
<path d="M122.342 108.052C122.342 108.052 125.257 112.408 125.694 113.15C126.101 113.842 124.24 119.208 123.99 119.919C123.978 119.955 124.008 119.99 124.046 119.985L137.124 118.209" stroke="black" stroke-width="0.0511837"/>
<path d="M97.4449 114.48C97.4449 114.48 95.8857 118.023 96.4102 119.605C96.9347 121.186 98.2672 123.201 98.4255 124.367C98.5839 125.534 98.8283 127.334 98.8283 127.334" stroke="black" stroke-width="0.0511837"/>
<path d="M136.082 107.297C136.082 107.297 140.054 106.003 142.963 105.475C147.897 104.581 157.532 107.02 157.532 107.02" stroke="black" stroke-width="0.0511837"/>
<rect x="16.1601" y="39.5774" width="138.997" height="39.3078" rx="2.43337" transform="rotate(10.4232 16.1601 39.5774)" stroke="white" stroke-width="0.325373"/>
<g filter="url(#filter8_d_616_9489)">
<path d="M69.8411 68.4144C69.8411 68.4144 70.0138 67.5127 70.1584 66.616C70.2835 65.7327 70.3884 64.8491 70.3884 64.8491C70.3884 64.8491 70.9109 64.5922 71.4315 64.3451C71.9581 64.1026 72.4868 63.8672 72.4868 63.8672C72.6965 62.8568 72.8973 62.3371 73.521 61.5116C73.521 61.5116 73.2154 60.9768 72.897 60.4565C72.5573 59.9596 72.2018 59.4563 72.2018 59.4563C72.2018 59.4563 72.521 58.921 72.8302 58.3838C73.1219 57.8503 73.4039 57.3319 73.4039 57.3319C73.4039 57.3319 73.9319 57.5614 74.4498 57.8094C74.9572 58.0589 75.4556 58.3203 75.4556 58.3203C75.8446 57.4788 76.1561 57.1695 76.8702 56.941C76.8702 56.941 76.8811 56.2913 76.8777 55.6457C76.8683 54.9957 76.846 54.3602 76.846 54.3602C76.846 54.3602 77.406 54.2867 77.9603 54.2257C78.5102 54.1707 79.0588 54.1223 79.0588 54.1223C79.0588 54.1223 79.2889 54.7349 79.5146 55.3535C79.7193 55.975 79.9268 56.6004 79.9268 56.6004C80.65 56.5807 80.9936 56.7423 81.4913 57.2106C81.4913 57.2106 81.7541 56.7973 82.0207 56.3813C82.2855 55.9752 82.5371 55.5666 82.5371 55.5666C82.5371 55.5666 83.013 56.0615 83.4727 56.5704C83.9174 57.0867 84.3472 57.6104 84.3472 57.6104C84.3472 57.6104 84.1725 58.2096 83.9867 58.8136C83.7919 59.4295 83.5852 60.0364 83.5852 60.0364C83.9367 60.746 84.0498 61.2386 84.1034 62.294C84.1034 62.294 84.4936 62.4608 84.8832 62.6309C85.2729 62.801 85.6619 62.9744 85.6619 62.9744C85.6619 62.9744 85.6366 63.7946 85.6047 64.6136C85.5541 65.4427 85.4911 66.2831 85.4911 66.2831C85.4911 66.2831 85.0617 66.4587 84.6322 66.6343C84.1995 66.8092 83.7557 66.989 83.7557 66.989C83.647 67.58 83.5427 68.036 83.3911 68.4358C83.2416 68.8428 83.0473 69.1974 82.7589 69.6399C82.7589 69.6399 82.8773 70.2693 82.9913 70.9047C83.1001 71.5493 83.1997 72.1888 83.1997 72.1888C83.1997 72.1888 82.7144 72.8157 82.2088 73.4423C81.6894 74.0698 81.1578 74.7086 81.1578 74.7086C81.1578 74.7086 80.8625 74.2843 80.5575 73.8752C80.2493 73.4654 79.936 73.065 79.936 73.065C79.2375 73.707 78.8404 73.9836 78.1158 74.2135C78.1158 74.2135 77.784 74.9841 77.4273 75.7603C77.0647 76.532 76.6878 77.3079 76.6878 77.3079C76.6878 77.3079 76.1374 77.3289 75.5763 77.3716C75.0026 77.4086 74.4251 77.4483 74.4251 77.4483C74.4251 77.4483 74.5896 76.7013 74.7405 75.9551C74.8692 75.2184 74.9938 74.4674 74.9938 74.4674C74.2967 74.4003 73.9862 74.2244 73.6041 73.6076C73.6041 73.6076 73.0382 74.0636 72.4583 74.5034C71.8745 74.9459 71.2725 75.3952 71.2725 75.3952C71.2725 75.3952 71.0022 74.8533 70.728 74.3141C70.4449 73.7868 70.1494 73.2708 70.1494 73.2708C70.1494 73.2708 70.651 72.5925 71.1406 71.9053C71.6021 71.223 72.0512 70.5351 72.0512 70.5351C71.7579 69.8226 71.7117 69.3355 71.8157 68.3092C71.8157 68.3092 71.3295 68.3318 70.8374 68.3499C70.3435 68.3778 69.8411 68.4144 69.8411 68.4144Z" fill="#E6E6E6" stroke="#E6E6E6" stroke-width="1.33536"/>
<path d="M20.789 48.9112C20.8652 48.9129 21.0127 48.969 21.2465 49.1284L21.2492 49.1299L21.25 49.131L21.2517 49.1323C21.2537 49.1336 21.2568 49.1355 21.2606 49.1379C21.2682 49.1429 21.2798 49.1495 21.2945 49.1591C21.3243 49.1784 21.3691 49.207 21.4268 49.244C21.5421 49.318 21.711 49.4266 21.9263 49.5623C22.3572 49.8337 22.9736 50.2161 23.7158 50.662L23.7185 50.6635C24.4571 51.0886 25.337 51.5734 26.2581 52.069L26.2616 52.0716C27.2066 52.5513 28.2018 53.0399 29.201 53.506L29.2028 53.5073C29.7021 53.7317 30.1982 53.9505 30.686 54.1614L32.1195 54.7677L32.1213 54.769C33.0528 55.1375 33.9209 55.4664 34.6731 55.7408L34.6758 55.7423C35.4181 55.9994 36.0399 56.2106 36.4761 56.3575C36.6941 56.4309 36.8658 56.4882 36.983 56.5272C37.0414 56.5466 37.0865 56.5616 37.1168 56.5717C37.1319 56.5767 37.1438 56.5804 37.1515 56.583C37.1554 56.5843 37.159 56.5851 37.1609 56.5857L37.1627 56.587L37.1655 56.5876C37.5983 56.7224 37.9786 56.9285 38.2965 57.2137L38.3018 57.2176L38.3025 57.2187C38.3033 57.2193 38.3046 57.2202 38.306 57.2214C38.309 57.2238 38.3132 57.2279 38.3188 57.2327C38.3304 57.2422 38.3475 57.2563 38.3697 57.2748C38.4145 57.3121 38.4808 57.3675 38.5641 57.4376C38.7308 57.5779 38.9682 57.7785 39.2501 58.0216L39.2534 58.0252C39.8228 58.4895 40.5659 59.0955 41.3108 59.6716L41.3109 59.6707C42.0401 60.2386 42.7588 60.7941 43.2884 61.2061L43.2902 61.2074C43.5551 61.4088 43.7765 61.5772 43.9313 61.6947C44.0086 61.7534 44.0694 61.7996 44.1108 61.831L44.1736 61.8783L44.1746 61.8785L44.1744 61.8794L44.1771 61.8809C44.4799 62.1002 44.5785 62.2944 44.5657 62.4618L44.5648 62.4666L44.5655 62.4687C44.5654 62.4703 44.5653 62.4726 44.5652 62.4756C44.5648 62.482 44.5636 62.4915 44.5629 62.504C44.5616 62.5292 44.5598 62.5672 44.5572 62.6161C44.5519 62.714 44.5446 62.8578 44.5347 63.0409L44.5345 63.0419C44.518 63.4064 44.4859 63.9276 44.4279 64.5554C44.4051 64.7063 44.3813 64.8623 44.3537 65.0233L44.2543 65.5313C44.17 65.8806 44.0567 66.243 43.9283 66.6123L43.9282 66.6132C43.7995 66.9879 43.6404 67.3652 43.4714 67.7525C43.2839 68.147 43.0902 68.5429 42.8827 68.939C42.67 69.3293 42.433 69.722 42.1974 70.1167C41.9537 70.5045 41.7041 70.8874 41.4501 71.2591C41.3235 71.4444 41.1945 71.6262 41.0649 71.8039L40.677 72.3253C40.4217 72.6668 40.1753 72.9796 39.9448 73.2829C39.4551 73.8714 39.0307 74.3613 38.7292 74.7095C38.574 74.8809 38.4516 75.0144 38.3685 75.1049C38.3271 75.15 38.2955 75.1845 38.2741 75.2077C38.2634 75.2193 38.2548 75.2281 38.2494 75.2339C38.2467 75.2369 38.2446 75.2393 38.2432 75.2407L38.2393 75.246C38.0693 75.4368 37.7847 75.5067 37.3233 75.3833L37.3187 75.3815C37.3151 75.3805 37.3096 75.3794 37.3026 75.3775C37.2878 75.3734 37.2653 75.3664 37.2366 75.3584C37.1792 75.3425 37.0945 75.319 36.9872 75.2887C36.7724 75.228 36.4648 75.1399 36.0953 75.0313C35.3529 74.8134 34.3643 74.5137 33.3601 74.2035L33.361 74.2036C32.3511 73.8751 31.3362 73.5492 30.5763 73.2942L30.5772 73.2944C30.1945 73.1629 29.8751 73.0527 29.6519 72.9752C29.5406 72.9365 29.4532 72.9058 29.3935 72.885C29.3637 72.8746 29.3407 72.8669 29.3253 72.8615C29.3176 72.8588 29.3115 72.8566 29.3076 72.8553C29.306 72.8547 29.3049 72.8539 29.3039 72.8536C29.0534 72.7624 28.9356 72.6778 28.896 72.6207C28.8819 72.6003 28.8835 72.5913 28.8842 72.5877C28.8857 72.5794 28.894 72.5537 28.9346 72.5136L28.9381 72.5103L28.9395 72.5085C28.9407 72.5072 28.9423 72.5049 28.9445 72.5025C28.9495 72.4973 28.957 72.4898 28.9666 72.4798C28.9859 72.4595 29.0146 72.4294 29.0516 72.3902C29.1258 72.3115 29.2345 72.1962 29.3706 72.0487C29.6428 71.7536 30.0267 71.3297 30.4753 70.8151L30.4777 70.8126C30.9141 70.2956 31.3936 69.6885 31.8881 69.0345L31.8921 69.0292C32.1217 68.6997 32.358 68.3506 32.5912 68.014L32.5953 68.0078C32.8165 67.6568 33.0364 67.2984 33.2446 66.9446L33.2476 66.9392C33.443 66.5804 33.6324 66.2156 33.8187 65.8646L33.8196 65.8648L33.8235 65.8546C33.9837 65.4985 34.1453 65.1452 34.2879 64.7981L34.2884 64.7953C34.5601 64.0994 34.7728 63.4439 34.9361 62.8719L34.9371 62.8721L34.9389 62.8625C35.0678 62.2817 35.165 61.7945 35.23 61.4525C35.2625 61.2817 35.2868 61.147 35.3032 61.0548C35.3113 61.0088 35.3175 60.973 35.3216 60.949L35.3294 60.9067L35.3374 60.7881C35.3377 60.5168 35.2132 60.276 34.9887 60.0706C34.7383 59.8414 34.358 59.6498 33.8659 59.4867C33.8639 59.486 33.8606 59.4844 33.8566 59.483C33.8486 59.4802 33.8367 59.476 33.8212 59.4705C33.7902 59.4597 33.7445 59.4443 33.6868 59.424C33.5709 59.3831 33.4048 59.3246 33.2066 59.2542C32.8106 59.1136 32.2839 58.9251 31.7603 58.734L31.7613 58.7341C31.2373 58.5344 30.7115 58.3275 30.3169 58.1706C30.1199 58.0922 29.9557 58.026 29.8407 57.9797C29.7831 57.9565 29.7373 57.9387 29.7065 57.9262C29.6912 57.92 29.6794 57.915 29.6714 57.9118C29.6675 57.9102 29.6642 57.9089 29.6622 57.9081L29.6604 57.9068L29.6595 57.9066L29.4636 57.8269L29.432 58.0366L29.4303 58.0462C29.4293 58.0527 29.4279 58.0624 29.4259 58.0752C29.4219 58.101 29.4158 58.1397 29.4078 58.19L29.3362 58.6276C29.2621 58.993 29.14 59.5113 28.9837 60.1227C28.9041 60.4277 28.8092 60.7603 28.6991 61.103C28.5896 61.4441 28.4576 61.7957 28.3156 62.1624L28.3152 62.1644C28.1777 62.532 28.0143 62.8983 27.849 63.2791C27.67 63.6494 27.475 64.0198 27.2819 64.403C27.0723 64.7725 26.8537 65.1376 26.6286 65.4982L26.6276 65.498C26.4082 65.8531 26.1699 66.1995 25.9332 66.5311C25.6871 66.8627 25.4506 67.1792 25.2199 67.4831C24.9806 67.7761 24.7436 68.0497 24.5245 68.3104C24.0759 68.817 23.6897 69.2312 23.4071 69.5109L23.3963 69.5208L23.3881 69.5332C23.2559 69.7202 23.1587 69.8819 23.0942 69.9975C23.062 70.0552 23.0376 70.1017 23.0214 70.134C23.0133 70.1502 23.0067 70.1634 23.0024 70.1722C23.0009 70.1755 23 70.1784 22.9989 70.1805C22.9307 70.316 22.8397 70.4066 22.7242 70.4596C22.6061 70.5139 22.4477 70.5364 22.2363 70.5099L22.2286 70.5085C22.2252 70.5081 22.2199 70.5074 22.2131 70.5066C22.1995 70.5051 22.1791 70.5035 22.1527 70.5005C22.0997 70.4945 22.0216 70.4857 21.9222 70.474C21.7235 70.4505 21.439 70.4151 21.0953 70.3705C20.7477 70.3252 20.3412 70.2715 19.9052 70.2112L18.5363 70.015C17.5933 69.8686 16.6586 69.7174 15.9564 69.595L15.9545 69.5946C15.6023 69.5366 15.3084 69.4873 15.1028 69.4529C15.0001 69.4357 14.919 69.4222 14.8639 69.4129C14.8366 69.4083 14.8155 69.4048 14.8013 69.4024C14.7943 69.4012 14.7884 69.4009 14.7848 69.4003L14.7752 69.3986C14.5578 69.3681 14.495 69.3118 14.4722 69.2753C14.4446 69.2311 14.4345 69.1574 14.4485 69.0048C14.4522 68.9962 14.4577 68.9857 14.4633 68.9728C14.4799 68.9342 14.505 68.8768 14.5375 68.8018C14.6024 68.6513 14.6977 68.4284 14.8213 68.144C15.0716 67.578 15.4123 66.782 15.8204 65.8166C16.0273 65.34 16.2433 64.8146 16.4622 64.2705L16.4637 64.2678C16.6742 63.7133 16.898 63.1369 17.1305 62.5376L17.1315 62.5378L17.132 62.5349C17.3503 61.9396 17.569 61.3238 17.7922 60.7003L17.7928 60.6974C17.8995 60.3845 18.0077 60.0691 18.1137 59.7516L18.4258 58.7942C18.6234 58.1639 18.8163 57.5221 18.9987 56.8998L18.9989 56.8988C19.0866 56.5886 19.1722 56.2799 19.2545 55.9737L19.4897 55.0618C19.6357 54.4713 19.7734 53.8891 19.8941 53.3439C19.9536 53.1037 20.0115 52.8688 20.0662 52.6408L20.2199 51.978L20.2215 51.9743C20.395 51.1052 20.5281 50.3627 20.6083 49.8341L20.6085 49.8332L20.6986 49.2192C20.7092 49.1477 20.7172 49.0921 20.7228 49.0549C20.7256 49.0363 20.7273 49.0218 20.7287 49.0123L20.7315 48.9969L20.7467 48.9362C20.7518 48.9242 20.7565 48.9189 20.758 48.9174C20.7591 48.9164 20.7602 48.9151 20.7626 48.9143C20.7661 48.9131 20.7742 48.9109 20.789 48.9112Z" fill="#E6E6E6" stroke="#E6E6E6" stroke-width="0.33384"/>
<path d="M62.9875 58.4225C63.2238 58.3674 63.4418 58.3966 63.6581 58.523L63.6608 58.5245L63.6618 58.5247L63.6635 58.526C63.6657 58.5272 63.6692 58.5294 63.6734 58.5318C63.6818 58.5365 63.6942 58.5434 63.7103 58.5524C63.7429 58.5707 63.7912 58.5971 63.8517 58.6311C63.9728 58.6991 64.1448 58.7966 64.3491 58.9122L64.3493 58.9113C64.7521 59.1466 65.2737 59.4399 65.7877 59.7448C66.293 60.051 66.7846 60.3582 67.1511 60.5914C67.3327 60.7095 67.4819 60.8075 67.5865 60.8751C67.6389 60.9089 67.6802 60.935 67.7082 60.953C67.7221 60.962 67.7329 60.9692 67.7401 60.9738L67.7509 60.9798L67.7507 60.9807L67.7544 60.9824C67.9184 61.0819 68.0148 61.241 68.0277 61.4775L68.0282 61.4806L68.0278 61.4825C68.0279 61.4833 68.0282 61.4843 68.0283 61.4856C68.0285 61.489 68.0288 61.4947 68.0293 61.5016C68.0303 61.5155 68.032 61.5361 68.0339 61.563C68.0376 61.617 68.0425 61.6967 68.0492 61.7982C68.0625 62.0015 68.0809 62.2939 68.1004 62.6477C68.113 62.9995 68.1227 63.4197 68.1169 63.87L68.1167 63.871C68.1069 64.0984 68.094 64.3371 68.0773 64.5817L68.0174 65.3283C67.9582 65.8329 67.889 66.3385 67.8126 66.8088C67.7312 67.2877 67.6454 67.7359 67.57 68.1275C67.4785 68.5145 67.4023 68.8391 67.3486 69.0668C67.3236 69.1726 67.3028 69.2573 67.2885 69.3179L67.2883 69.3188C67.2178 69.3317 67.114 69.3507 66.9821 69.3747L65.8829 69.5747C65.4182 69.6581 64.8707 69.7466 64.2747 69.8369L64.2738 69.8367C63.6754 69.9294 63.0235 70.0156 62.356 70.0926L62.3549 70.0934C62.0188 70.1348 61.6777 70.1739 61.3405 70.2096L60.3487 70.3062C60.0203 70.3322 59.6984 70.3571 59.391 70.3792L58.5234 70.4371C57.9684 70.4604 57.5015 70.4768 57.1736 70.4877C57.0099 70.4931 56.8802 70.4973 56.7921 70.4999C56.748 70.5012 56.714 70.5026 56.6912 70.5032C56.6798 70.5035 56.6711 70.5033 56.6653 70.5034C56.6624 70.5035 56.6597 70.5041 56.6582 70.5041L56.6563 70.5037L56.5566 70.5062L56.5112 70.5962L56.511 70.5972C56.5105 70.5983 56.5092 70.6004 56.5081 70.6026C56.5059 70.6069 56.5028 70.6134 56.4986 70.6217C56.49 70.6388 56.4773 70.6642 56.461 70.6962C56.4286 70.7603 56.3821 70.8521 56.3257 70.9622C56.2133 71.1817 56.062 71.4745 55.9053 71.7686C55.738 72.0602 55.5686 72.3552 55.4409 72.5769C55.3772 72.6873 55.3238 72.7795 55.2864 72.8443C55.2679 72.8765 55.2528 72.9023 55.2428 72.9197C55.2377 72.9284 55.2336 72.9359 55.231 72.9404C55.2299 72.9423 55.2288 72.9438 55.2282 72.9448L55.2269 72.9466L55.1204 73.1315L55.3249 73.191L55.3336 73.1926C55.3389 73.1941 55.3469 73.197 55.3571 73.1999C55.3776 73.2059 55.4077 73.2141 55.4457 73.2251C55.5226 73.2475 55.6327 73.2801 55.7642 73.3185C56.0274 73.3953 56.3778 73.4976 56.7251 73.6005L56.7261 73.6007C57.0682 73.701 57.4106 73.7983 57.6675 73.8702C57.7959 73.9061 57.9031 73.9364 57.9782 73.9571C58.0154 73.9674 58.045 73.9755 58.0651 73.981C58.0752 73.9838 58.0835 73.9859 58.0888 73.9874L58.0964 73.9888L58.1153 73.9942L58.1341 73.9947L58.1379 73.9954C58.1404 73.9955 58.1441 73.9953 58.1488 73.9955C58.1589 73.9958 58.1748 73.9961 58.1943 73.9969C58.2332 73.9983 58.2903 74.0005 58.3629 74.0031C58.5086 74.0082 58.7172 74.015 58.9691 74.0222L58.9719 74.0227C59.477 74.0274 60.132 74.0323 60.7841 74.0334L60.786 74.0337C61.4212 74.0285 62.0549 74.0214 62.5271 74.0095C62.7584 74.0062 62.9511 74.0038 63.0857 74.001C63.153 73.9996 63.2063 73.9979 63.2424 73.9971C63.2602 73.9966 63.2739 73.9969 63.2832 73.9966L63.2853 73.996C63.3026 73.9979 63.3134 74.0011 63.3197 74.0033C63.3203 74.0104 63.3219 74.0235 63.318 74.0447C63.3119 74.0777 63.2974 74.1225 63.2712 74.1801L63.2698 74.1828C63.269 74.1845 63.2679 74.187 63.2664 74.1901C63.2632 74.1971 63.2581 74.2077 63.2518 74.2212C63.2392 74.2482 63.221 74.2879 63.1975 74.3383C63.1502 74.4394 63.0822 74.5844 63.0002 74.7578C62.8365 75.1035 62.6159 75.5637 62.3879 76.0244C62.1425 76.4837 61.8904 76.9446 61.6991 77.2908C61.6035 77.4638 61.5235 77.6088 61.4671 77.7098C61.439 77.7603 61.4161 77.7997 61.401 77.8267C61.3936 77.8399 61.3883 77.8505 61.3844 77.8574C61.3825 77.8607 61.3809 77.8638 61.3799 77.8656L61.3788 77.8663C61.2362 78.1136 61.046 78.2475 60.8116 78.2833L60.7096 78.2923L60.7085 78.2931L60.7056 78.2926C60.7033 78.2927 60.7 78.2926 60.6956 78.2927C60.6868 78.293 60.6737 78.2941 60.6566 78.2945C60.6222 78.2954 60.5714 78.2962 60.507 78.2978C60.378 78.301 60.1928 78.3054 59.9705 78.3103L58.3297 78.3401C57.7181 78.3411 57.0969 78.3387 56.6285 78.336C56.3941 78.3346 56.1979 78.3328 56.0603 78.3317C55.9917 78.3312 55.9376 78.3305 55.9008 78.3302C55.8823 78.33 55.8676 78.3304 55.858 78.3303L55.8511 78.33C55.715 78.3233 55.5755 78.2987 55.4205 78.2637L55.4214 78.2639C55.2855 78.2291 55.1379 78.1878 55.0005 78.1556L54.9986 78.1553C54.9969 78.1548 54.9944 78.1538 54.9911 78.1529C54.9843 78.1512 54.9737 78.1487 54.9607 78.1453C54.9346 78.1386 54.8965 78.1283 54.848 78.1157C54.7501 78.0902 54.6093 78.0539 54.4405 78.0099C54.1029 77.9219 53.6504 77.8039 53.1908 77.6837L53.1917 77.6839C52.7266 77.5594 52.2575 77.4304 51.905 77.332C51.7291 77.2829 51.5823 77.2411 51.4793 77.212C51.4278 77.1975 51.3871 77.1859 51.3595 77.178C51.3459 77.1742 51.3354 77.1713 51.3283 77.1693C51.3247 77.1683 51.3216 77.1673 51.3198 77.1668L51.3179 77.1664C51.31 77.1635 51.298 77.1587 51.2826 77.153C51.252 77.1415 51.2071 77.1245 51.1499 77.1028C51.0349 77.0592 50.8697 76.9957 50.6724 76.9186C50.2776 76.7643 49.7511 76.5535 49.2253 76.3267C48.6919 76.0881 48.1514 75.8425 47.7439 75.657C47.5399 75.5642 47.3687 75.4867 47.2491 75.432C47.1897 75.4048 47.1428 75.3835 47.1108 75.3688C47.095 75.3616 47.0824 75.3559 47.0742 75.3521C47.07 75.3502 47.0662 75.3483 47.0641 75.3473L47.0624 75.346L47.0605 75.3456C46.8792 75.2643 46.8176 75.1656 46.8097 75.0622C46.8005 74.9397 46.8606 74.7568 47.0452 74.5058L47.0466 74.5031L47.0468 74.5021L47.0478 74.5023L47.0491 74.5005C47.05 74.4992 47.0515 74.4968 47.0532 74.4943C47.0569 74.4891 47.0623 74.4815 47.0693 74.4715C47.0838 74.4508 47.1052 74.4198 47.1329 74.3799C47.1884 74.2999 47.2694 74.1821 47.3715 74.0326C47.5758 73.7333 47.865 73.3045 48.2031 72.7885L48.2057 72.785C48.5207 72.2724 48.8873 71.6712 49.2484 71.0247L49.2499 71.022C49.5933 70.3769 49.9421 69.6875 50.258 68.9911L50.2587 68.9873C50.5565 68.2953 50.8281 67.6002 51.0439 66.9482L51.0462 66.9407C51.2293 66.2826 51.3382 65.6701 51.4128 65.1533L51.4137 65.1535L51.4144 65.1447L51.4713 64.4412C51.4866 64.232 51.4983 64.0498 51.5073 63.8997C51.5164 63.7497 51.5229 63.6313 51.5268 63.5508C51.5288 63.5109 51.5299 63.4801 51.5308 63.4592C51.5312 63.4491 51.5319 63.441 51.5321 63.4356C51.5323 63.433 51.5324 63.4301 51.5324 63.4287L51.5328 63.4268L51.5318 63.4266L51.5322 63.4247C51.5373 63.2387 51.634 63.0783 51.8816 62.9449L51.8827 62.9441L51.8837 62.9443C51.8843 62.9439 51.8858 62.9426 51.8871 62.9419C51.8896 62.9405 51.8934 62.9386 51.8981 62.936C51.9081 62.9305 51.9224 62.9218 51.9414 62.9112C51.9795 62.89 52.0352 62.859 52.1053 62.8192C52.2454 62.7395 52.4443 62.6252 52.678 62.4857L52.6814 62.4833C53.1408 62.1926 53.7276 61.803 54.29 61.398L54.297 61.3924C54.8292 60.9679 55.3256 60.5321 55.6755 60.1982L55.6763 60.1994L55.6825 60.1926C55.8483 60.0161 55.9835 59.8667 56.0765 59.7616C56.1229 59.7093 56.1588 59.6678 56.1834 59.6393C56.1957 59.625 56.2058 59.6144 56.2122 59.6069L56.2188 59.5981C56.3731 59.426 56.5781 59.3278 56.8645 59.3049L56.8655 59.305C56.8663 59.305 56.8679 59.3049 56.8695 59.3048C56.8727 59.3046 56.8775 59.3038 56.8837 59.3034C56.896 59.3026 56.9142 59.302 56.9378 59.3005C56.9854 59.2973 57.0551 59.2922 57.1441 59.2858C57.3219 59.2729 57.5769 59.2532 57.8848 59.2264L57.8858 59.2266C58.4824 59.1694 59.2688 59.0791 60.0355 58.9786L60.0385 58.9782C60.7956 58.862 61.5318 58.7278 62.0792 58.6208L62.0832 58.6205C62.3573 58.5606 62.5832 58.5116 62.7401 58.4772C62.8185 58.4601 62.8796 58.4462 62.9213 58.4371C62.9421 58.4325 62.9581 58.4293 62.9688 58.427C62.9742 58.4258 62.9785 58.4249 62.9812 58.4243C62.9825 58.424 62.9838 58.423 62.9845 58.4229L62.9854 58.4231L62.9875 58.4225ZM62.7344 62.8213C62.3016 62.4195 61.7401 62.3018 61.0873 62.4151L60.7081 62.4794C60.1258 62.5584 59.6308 62.794 59.2377 63.1859L59.0759 63.3637C58.6487 63.8483 58.4106 64.4563 58.3456 65.1855L58.3454 65.1864L58.3041 65.5244C58.1889 66.2682 58.2621 66.8762 58.5906 67.3296L58.5939 67.3332C58.9442 67.7887 59.4975 67.9667 60.2155 67.8887L60.2163 67.8898L60.6034 67.8528L60.6055 67.8522C61.3121 67.7765 61.9178 67.4642 62.4224 66.9353L62.4236 66.9345C62.9242 66.3985 63.2135 65.7289 63.3111 64.9491L63.3117 64.9402L63.337 64.5815L63.3366 64.5784L63.3401 64.3C63.322 63.6704 63.1251 63.1704 62.7353 62.8215L62.7344 62.8213Z" fill="#E6E6E6" stroke="#E6E6E6" stroke-width="0.33384"/>
<path d="M132.608 68.6563L132.612 68.6571C132.614 68.6574 132.616 68.6588 132.62 68.6594C132.626 68.6608 132.636 68.6622 132.649 68.6649C132.676 68.6704 132.715 68.6788 132.764 68.689C132.863 68.7093 133.003 68.7381 133.173 68.7731C133.511 68.843 133.964 68.9363 134.42 69.0304C134.885 69.1278 135.355 69.2287 135.709 69.3052C135.886 69.3434 136.033 69.3762 136.137 69.3987C136.188 69.41 136.229 69.4188 136.257 69.4249C136.271 69.4278 136.281 69.4301 136.289 69.4316L136.3 69.4338C136.576 69.4934 136.77 69.6304 136.893 69.8408L136.894 69.8429L136.895 69.844C136.896 69.8453 136.897 69.8481 136.899 69.8507C136.902 69.8558 136.906 69.8634 136.912 69.8731C136.924 69.8928 136.942 69.9214 136.964 69.9581C137.009 70.0316 137.073 70.1365 137.15 70.2623C137.303 70.5137 137.51 70.8492 137.723 71.1829L137.725 71.1863C137.95 71.5233 138.179 71.8627 138.351 72.1177C138.438 72.2452 138.51 72.3517 138.561 72.4263C138.586 72.4636 138.607 72.4927 138.62 72.5127C138.627 72.5224 138.631 72.5301 138.635 72.5353L138.64 72.5432L138.718 72.6568L138.845 72.6027L138.847 72.6021C138.849 72.6014 138.851 72.6 138.855 72.5985C138.862 72.5955 138.872 72.5912 138.886 72.5854C138.913 72.5738 138.953 72.5565 139.004 72.5347C139.106 72.4913 139.252 72.4291 139.428 72.3545C139.778 72.2053 140.248 72.0052 140.725 71.8036L140.725 71.8048C141.216 71.6115 141.71 71.4155 142.082 71.2679C142.268 71.1942 142.423 71.1317 142.531 71.0884C142.586 71.0668 142.628 71.0498 142.658 71.0382C142.672 71.0325 142.683 71.0284 142.691 71.0254C142.694 71.024 142.697 71.0228 142.699 71.022L142.702 71.0204L142.704 71.0208C142.928 70.9303 143.188 70.9098 143.484 70.9796L143.487 70.9803L146.646 71.6587L146.646 71.6597C146.891 71.7145 147.017 71.7833 147.074 71.8465C147.114 71.8919 147.134 71.9525 147.088 72.0746L147.088 72.0765L147.086 72.0792C147.086 72.0812 147.085 72.0841 147.084 72.0877C147.081 72.0955 147.077 72.1072 147.071 72.1222C147.06 72.1524 147.044 72.197 147.024 72.2534C146.983 72.366 146.925 72.5269 146.856 72.7201C146.718 73.1067 146.537 73.6235 146.361 74.1423L146.359 74.1479C146.202 74.6676 146.057 75.1899 145.95 75.5819C145.897 75.7778 145.855 75.9415 145.825 76.0562C145.81 76.1135 145.798 76.1591 145.79 76.1899C145.786 76.2051 145.783 76.2169 145.781 76.2249C145.78 76.2289 145.778 76.2323 145.778 76.2343L145.777 76.241C145.753 76.3418 145.73 76.4211 145.708 76.4815C145.687 76.5376 145.669 76.5681 145.657 76.5835C145.652 76.5875 145.634 76.6003 145.588 76.6165C145.536 76.6352 145.463 76.6538 145.365 76.6738L145.36 76.6748L145.359 76.6756C145.358 76.6758 145.357 76.6764 145.355 76.6768C145.351 76.6778 145.344 76.6785 145.336 76.6804C145.32 76.684 145.297 76.6903 145.267 76.6973C145.206 76.7115 145.116 76.7316 145.003 76.7581C144.777 76.8112 144.455 76.8872 144.075 76.9786L144.074 76.9784C143.307 77.1645 142.337 77.4287 141.399 77.6908L141.398 77.6916C140.487 77.9523 139.594 78.2306 138.945 78.426L138.941 78.4272C138.628 78.5325 138.368 78.6208 138.185 78.6823C138.094 78.713 138.022 78.7371 137.974 78.7536C137.949 78.7618 137.93 78.7678 137.918 78.7721C137.911 78.7742 137.907 78.7764 137.904 78.7775C137.902 78.778 137.9 78.7784 137.899 78.7787L137.898 78.7785L137.778 78.8198L137.785 78.9463L137.785 78.9483C137.785 78.9498 137.785 78.9523 137.786 78.9553C137.786 78.9614 137.787 78.9706 137.787 78.9825C137.789 79.0063 137.79 79.0419 137.793 79.0878C137.798 79.1796 137.807 79.3139 137.818 79.4846C137.841 79.8267 137.875 80.3151 137.922 80.8999L137.923 80.906C137.99 81.5031 138.074 82.1919 138.178 82.9387L138.179 82.9399C138.288 83.6948 138.416 84.4941 138.551 85.3071L138.552 85.3092C138.699 86.1175 138.852 86.9301 138.998 87.7039C139.145 88.4749 139.298 89.1989 139.423 89.8236L139.424 89.8257C139.557 90.4491 139.668 90.974 139.745 91.3423C139.783 91.5263 139.814 91.6719 139.835 91.771C139.845 91.82 139.852 91.8579 139.858 91.8834C139.86 91.896 139.863 91.9059 139.864 91.9124C139.865 91.9157 139.865 91.919 139.866 91.9206L139.866 91.9216L139.866 91.9227L139.866 91.9237C139.901 92.0881 139.859 92.1162 139.857 92.1177C139.849 92.1235 139.825 92.1353 139.77 92.1365C139.716 92.1376 139.64 92.1272 139.542 92.1013L139.535 92.1001C139.532 92.0992 139.527 92.098 139.521 92.0965C139.508 92.0931 139.488 92.0883 139.463 92.0818C139.412 92.0689 139.338 92.0489 139.243 92.0245C139.054 91.9757 138.783 91.9057 138.459 91.8208C137.821 91.6527 136.991 91.4284 136.157 91.2105L136.158 91.2107C135.344 90.9834 134.552 90.7293 133.958 90.532L133.956 90.5317C133.662 90.4385 133.417 90.3594 133.247 90.304C133.162 90.2763 133.096 90.2549 133.051 90.24C133.028 90.2326 133.011 90.2265 132.999 90.2226C132.994 90.2207 132.989 90.2192 132.986 90.2182L132.98 90.2171C132.691 90.123 132.513 89.9517 132.427 89.7082L132.396 89.5993L132.395 89.5972C132.395 89.5945 132.394 89.5908 132.392 89.5857C132.39 89.575 132.387 89.5584 132.383 89.5372C132.373 89.495 132.36 89.4325 132.342 89.3511C132.307 89.1877 132.257 88.9481 132.192 88.6443L132.192 88.6422L131.671 86.1464C131.576 85.6353 131.463 85.0902 131.364 84.5202L131.364 84.5171L131.206 83.6322L131.052 82.7123L130.773 80.8081C130.703 80.162 130.641 79.5136 130.581 78.8653C130.564 78.5442 130.55 78.2212 130.54 77.8995L130.519 76.9405C130.527 76.3117 130.546 75.6984 130.574 75.1037C130.616 74.5106 130.67 73.9364 130.735 73.3986L130.736 73.3988C130.808 72.8633 130.892 72.3667 130.984 71.9013C131.229 70.9895 131.482 70.2351 131.682 69.7113C131.786 69.4499 131.871 69.2448 131.929 69.1053C131.958 69.0356 131.981 68.9817 131.996 68.9459C132.004 68.928 132.01 68.9144 132.013 68.9054C132.015 68.901 132.016 68.8973 132.017 68.8952L132.019 68.8925L132.019 68.8905C132.072 68.7666 132.141 68.7 132.222 68.6658C132.309 68.6294 132.433 68.6195 132.608 68.6563Z" fill="#E6E6E6" stroke="#E6E6E6" stroke-width="0.33384"/>
<path d="M114.814 62.843C114.988 62.7974 115.17 62.8391 115.36 62.9929L115.361 62.9941C115.361 62.9948 115.363 62.9955 115.365 62.9969C115.369 63 115.375 63.0049 115.382 63.011C115.397 63.0232 115.42 63.0412 115.449 63.0649C115.507 63.1124 115.593 63.1822 115.702 63.2713L116.609 64.0162C116.978 64.3217 117.432 64.7206 117.941 65.0565L117.964 65.0717L117.99 65.0784C118.553 65.2296 119.16 65.3891 119.772 65.5492C120.39 65.71 121.017 65.8822 121.616 66.0265L121.616 66.0274C122.224 66.1836 122.793 66.3257 123.279 66.4524L123.281 66.4528C123.783 66.5775 124.205 66.6832 124.5 66.7576C124.648 66.7948 124.765 66.8237 124.845 66.8438C124.885 66.8539 124.916 66.8613 124.936 66.8665C124.946 66.8691 124.954 66.8714 124.959 66.8727C124.961 66.8733 124.963 66.8734 124.965 66.8738L124.966 66.8751L124.966 66.8741C125.118 66.9144 125.173 66.9656 125.191 66.9988C125.206 67.026 125.219 67.0836 125.164 67.2063L125.163 67.2061L125.161 67.2107L125.16 67.2146C125.159 67.2168 125.157 67.2202 125.155 67.2246C125.151 67.2335 125.146 67.2469 125.139 67.2643C125.124 67.2994 125.103 67.3515 125.075 67.4193C125.018 67.555 124.936 67.7537 124.832 68.0061L124.83 68.0098C124.633 68.5201 124.387 69.262 124.15 70.1606L124.148 70.1681L124.147 70.1758C124.067 70.6471 124.001 71.154 123.938 71.6824L123.937 71.6882C123.889 72.2295 123.858 72.807 123.831 73.3965L123.831 73.3994C123.812 74.0006 123.817 74.6229 123.823 75.2548L123.824 75.2569C123.84 75.89 123.87 76.5432 123.91 77.197L123.909 77.198C123.954 77.8427 124.011 78.4932 124.068 79.1416L124.069 79.1477C124.151 79.7838 124.226 80.4208 124.309 81.0397L124.309 81.0406C124.396 81.6552 124.488 82.2502 124.58 82.8212L124.58 82.8233L124.864 84.4176L124.865 84.4197C125.056 85.4076 125.22 86.2358 125.343 86.8232L125.343 86.8242C125.401 87.1152 125.449 87.345 125.482 87.5022C125.499 87.5806 125.512 87.6412 125.521 87.682C125.525 87.7024 125.529 87.7182 125.531 87.7286C125.532 87.7336 125.533 87.7374 125.534 87.74C125.534 87.7411 125.534 87.7424 125.534 87.7431L125.534 87.7441L125.535 87.7442C125.551 87.8173 125.552 87.8677 125.548 87.8996C125.546 87.9148 125.543 87.9242 125.541 87.929C125.539 87.9329 125.537 87.9344 125.537 87.9352C125.534 87.9376 125.49 87.9688 125.324 87.9318L125.309 87.9291C125.301 87.9274 125.289 87.9248 125.273 87.9214C125.241 87.9147 125.195 87.9047 125.135 87.8922C125.017 87.8671 124.848 87.8309 124.645 87.7881C124.24 87.7025 123.701 87.5892 123.164 87.4769L123.163 87.4768C122.628 87.3698 122.097 87.2629 121.699 87.1826C121.501 87.1425 121.336 87.109 121.221 87.0856C121.163 87.0739 121.118 87.0643 121.087 87.058C121.071 87.0549 121.059 87.0531 121.051 87.0515C121.047 87.0507 121.045 87.0493 121.043 87.0489L121.039 87.0482C120.925 87.02 120.832 86.9814 120.762 86.9357L120.698 86.8863C120.65 86.8404 120.595 86.7921 120.544 86.7456L120.378 86.589L119.198 85.3214L119.075 85.1896L118.954 85.3221L118.174 86.1657L118.173 86.1655L118.169 86.1707C118.054 86.306 117.89 86.3636 117.623 86.3116L117.621 86.3112C117.615 86.3099 117.607 86.3083 117.597 86.3058C117.576 86.3009 117.545 86.2933 117.506 86.2841C117.427 86.2655 117.314 86.2388 117.179 86.2071C116.909 86.1439 116.549 86.0595 116.187 85.976L116.186 85.9758C115.833 85.8956 115.481 85.8146 115.217 85.7529C115.085 85.7221 114.975 85.6955 114.899 85.6774C114.86 85.6684 114.83 85.662 114.81 85.6571C114.8 85.6547 114.792 85.652 114.786 85.6508L114.776 85.6488C114.551 85.5991 114.326 85.4455 114.098 85.1697L114.097 85.1696C114.097 85.169 114.096 85.1673 114.095 85.1661C114.093 85.1637 114.09 85.1602 114.086 85.1556C114.078 85.146 114.066 85.1318 114.051 85.1134C114.021 85.0763 113.976 85.0217 113.92 84.9522C113.806 84.8128 113.643 84.6126 113.449 84.3701L113.45 84.3703L112.069 82.604C111.586 81.9703 111.119 81.338 110.771 80.8759L110.772 80.8761C110.609 80.6488 110.492 80.4352 110.416 80.2794C110.379 80.2018 110.352 80.1386 110.334 80.0954C110.325 80.0738 110.318 80.057 110.314 80.0461C110.313 80.043 110.312 80.0406 110.311 80.0385C110.206 79.6643 110.167 79.2836 110.197 78.8897L110.198 78.8858C110.198 78.884 110.198 78.8813 110.199 78.878C110.199 78.8707 110.199 78.8598 110.201 78.8456C110.203 78.8169 110.206 78.7744 110.21 78.7192C110.218 78.6088 110.23 78.4471 110.244 78.2419L110.356 76.5467C110.404 75.862 110.45 75.062 110.497 74.2192C110.52 73.8038 110.543 73.3755 110.565 72.9419L110.626 71.6335L110.752 69.1536L110.864 67.0711C110.904 66.4766 110.938 65.9851 110.961 65.6422C110.973 65.471 110.982 65.3366 110.989 65.2451C110.992 65.1994 110.994 65.1638 110.996 65.1403C110.997 65.1286 110.997 65.1197 110.998 65.1138L110.998 65.1119C111.033 64.8038 111.121 64.6309 111.234 64.5416L111.235 64.5418L111.236 64.5401C111.238 64.539 111.24 64.5375 111.243 64.5354C111.249 64.5311 111.258 64.5253 111.268 64.5172C111.291 64.5006 111.323 64.4757 111.365 64.4446C111.447 64.3836 111.564 64.2969 111.705 64.1924C111.93 64.046 112.225 63.8684 112.546 63.6946L112.873 63.5225C113.33 63.3266 113.809 63.1431 114.176 63.0214C114.366 62.964 114.526 62.9192 114.638 62.889C114.694 62.874 114.738 62.8629 114.767 62.8552C114.782 62.8514 114.793 62.8483 114.801 62.8464L114.811 62.8434L114.812 62.8436L114.814 62.843ZM115.608 68.0748C115.472 68.0161 115.316 67.9921 115.179 68.0754C115.058 68.1463 114.984 68.2878 114.934 68.4344C114.881 68.5898 114.841 68.7923 114.813 69.0337L114.811 69.0433C114.81 69.0487 114.809 69.0571 114.808 69.0676C114.806 69.0889 114.802 69.1202 114.798 69.1611C114.789 69.2437 114.776 69.3655 114.761 69.5206L114.637 70.8185C114.585 71.3603 114.532 72.017 114.477 72.7193L114.477 72.7243C114.453 73.2339 114.451 73.7241 114.462 74.2109L114.477 74.6972C114.498 75.3377 114.532 75.987 114.569 76.5988L114.57 76.5999C114.61 77.2123 114.654 77.7844 114.692 78.2767L114.692 78.2807C114.74 78.7746 114.781 79.1874 114.809 79.4768C114.823 79.6215 114.835 79.7359 114.842 79.8136C114.846 79.852 114.849 79.8816 114.851 79.9016C114.852 79.9116 114.852 79.9196 114.853 79.9247C114.853 79.9273 114.853 79.9296 114.853 79.9308L114.853 79.9328L114.854 79.9349C114.906 80.405 115.013 80.7672 115.205 81.0231L115.204 81.0241C115.401 81.2939 115.735 81.4584 116.143 81.5652L116.145 81.5656L117.439 81.8819C117.644 81.9321 117.829 81.9556 117.986 81.9439C118.104 81.9352 118.216 81.9052 118.309 81.8434L118.393 81.7706L118.395 81.7689C118.49 81.662 118.537 81.5125 118.555 81.3486C118.575 81.1818 118.568 80.9797 118.539 80.7469L118.538 80.7467L118.538 80.7448C118.538 80.7434 118.538 80.7405 118.538 80.7377C118.537 80.7321 118.536 80.724 118.534 80.7132C118.532 80.6912 118.528 80.6584 118.522 80.6157C118.512 80.5302 118.497 80.4046 118.478 80.2452C118.441 79.9261 118.388 79.4707 118.331 78.9262L118.332 78.9264C118.303 78.6507 118.275 78.354 118.248 78.0422L118.166 77.0658C118.123 76.394 118.08 75.6723 118.049 74.9601C118.039 74.6097 118.03 74.2582 118.024 73.9129L118.015 72.9015C118.021 72.5766 118.029 72.2624 118.038 71.9655L118.074 71.1319C118.115 70.6255 118.155 70.2042 118.186 69.9095C118.202 69.7619 118.215 69.6459 118.224 69.567C118.229 69.5275 118.233 69.4969 118.235 69.4766C118.236 69.4665 118.237 69.4583 118.237 69.4532L118.239 69.4465L118.256 69.3027L118.117 69.2643L118.111 69.263C118.106 69.2619 118.1 69.2598 118.092 69.2576C118.075 69.253 118.05 69.2467 118.019 69.2382C117.957 69.2212 117.868 69.1962 117.762 69.1671C117.55 69.1093 117.269 69.0323 116.989 68.9554C116.74 68.8649 116.508 68.7248 116.335 68.6038C116.249 68.5434 116.18 68.4884 116.131 68.4492L116.063 68.3918C116.061 68.3905 116.06 68.3888 116.059 68.3882L116.058 68.388L116.058 68.3869C115.897 68.2435 115.745 68.1346 115.608 68.0748Z" fill="#E6E6E6" stroke="#E6E6E6" stroke-width="0.33384"/>
<path d="M106.856 57.6812C106.859 57.6828 106.863 57.6851 106.868 57.6875C106.883 57.6945 106.904 57.705 106.931 57.7179C106.986 57.7441 107.065 57.7811 107.159 57.8263L107.85 58.163C108.105 58.2942 108.361 58.4285 108.555 58.53C108.652 58.5809 108.734 58.6238 108.791 58.6538C108.819 58.6687 108.841 58.6807 108.857 58.6887C108.864 58.6928 108.871 58.696 108.875 58.698C108.877 58.699 108.879 58.6994 108.879 58.6999L108.88 58.701L108.882 58.7014C108.948 58.7355 108.985 58.7806 109.004 58.838C109.024 58.9006 109.028 58.9931 108.996 59.1245L108.994 59.1369C108.992 59.1435 108.99 59.1532 108.987 59.1656C108.982 59.1908 108.973 59.2281 108.962 59.2751C108.941 59.3693 108.912 59.5038 108.877 59.6655C108.806 59.9893 108.715 60.4229 108.629 60.8602L108.628 60.864C108.551 61.3138 108.484 61.77 108.436 62.1135C108.413 62.2854 108.394 62.4295 108.381 62.5304C108.375 62.5808 108.369 62.6205 108.366 62.6477C108.364 62.6612 108.363 62.6717 108.362 62.6788C108.362 62.682 108.362 62.6848 108.362 62.6866L108.361 62.6895C108.348 62.7956 108.33 62.9065 108.308 63.0114L108.307 63.0181L108.306 63.025C108.297 63.0966 108.275 63.1218 108.265 63.1315C108.256 63.1344 108.246 63.1387 108.234 63.1427C108.196 63.1556 108.142 63.1742 108.077 63.1963C107.948 63.2406 107.775 63.2998 107.605 63.3607L107.601 63.3629C107.435 63.4281 107.269 63.4959 107.146 63.5473C107.084 63.573 107.032 63.5949 106.996 63.6101C106.978 63.6177 106.964 63.6241 106.954 63.6282C106.949 63.6303 106.945 63.6309 106.943 63.632L106.939 63.6344L106.886 63.6564L106.858 63.7059L106.858 63.7078C106.858 63.7087 106.856 63.7097 106.855 63.7113C106.853 63.7149 106.85 63.7206 106.847 63.7276C106.839 63.7416 106.827 63.7625 106.812 63.7888C106.783 63.8416 106.741 63.9177 106.691 64.0087C106.59 64.1905 106.455 64.4343 106.32 64.6812L106.318 64.6839C106.187 64.9348 106.055 65.187 105.956 65.376C105.907 65.4702 105.867 65.5493 105.838 65.6044C105.824 65.6317 105.812 65.653 105.804 65.6677C105.801 65.675 105.798 65.6813 105.796 65.6851C105.795 65.687 105.794 65.6886 105.794 65.6895L105.793 65.6905L105.775 65.7239L105.775 65.7605L105.774 65.7644C105.774 65.7671 105.774 65.7717 105.773 65.7772C105.773 65.7881 105.772 65.8044 105.771 65.8255C105.77 65.868 105.767 65.9305 105.763 66.0097L105.733 66.6654C105.706 67.2191 105.668 67.9585 105.641 68.7139L105.641 68.7148C105.602 69.4645 105.569 70.2316 105.537 70.8136L105.537 70.8146C105.523 71.1033 105.51 71.3457 105.5 71.5158C105.495 71.6007 105.491 71.6676 105.489 71.7133C105.487 71.7359 105.486 71.7535 105.485 71.7653C105.485 71.7711 105.485 71.7761 105.485 71.7791L105.484 71.7829L105.482 71.8124L105.49 71.8406L105.528 71.9707C105.552 72.0538 105.586 72.1726 105.626 72.3155C105.707 72.6015 105.813 72.9841 105.917 73.3689L105.917 73.3698C106.026 73.7644 106.132 74.1604 106.212 74.4578C106.252 74.6065 106.286 74.7303 106.309 74.8172C106.32 74.8606 106.329 74.895 106.335 74.9183C106.338 74.9297 106.34 74.9384 106.342 74.9444C106.343 74.9474 106.343 74.9502 106.344 74.9517L106.344 74.9528L106.344 74.9538L106.348 74.9664L106.354 74.9783L106.354 74.9793L106.354 74.9804C106.355 74.9816 106.355 74.9836 106.356 74.9858C106.358 74.9903 106.362 74.9967 106.366 75.0054C106.373 75.023 106.385 75.049 106.399 75.082C106.428 75.148 106.47 75.2426 106.519 75.3564C106.619 75.584 106.752 75.8891 106.885 76.1981L106.886 76.2002C107.023 76.5118 107.16 76.8268 107.263 77.064C107.314 77.1825 107.357 77.2815 107.387 77.3509L107.43 77.4512L107.43 77.4521C107.483 77.5973 107.508 77.7261 107.501 77.8525L107.501 77.8544L107.476 78.2561L107.476 78.2609L107.476 78.2639C107.476 78.2662 107.476 78.2694 107.475 78.2737C107.474 78.2828 107.473 78.2971 107.472 78.3148C107.469 78.35 107.465 78.4017 107.459 78.4674C107.449 78.5996 107.433 78.789 107.414 79.0161L107.27 80.6886C107.21 81.3044 107.146 81.9273 107.097 82.3964C107.073 82.6311 107.053 82.8279 107.038 82.9654C107.031 83.034 107.025 83.0882 107.021 83.1251C107.019 83.1433 107.018 83.1576 107.017 83.1671C107.016 83.1718 107.016 83.1754 107.016 83.1778L107.016 83.1797L106.994 83.3266C106.973 83.4335 106.949 83.4982 106.929 83.5331L106.927 83.5328L106.908 83.5183C106.894 83.5075 106.873 83.4914 106.847 83.4714C106.795 83.4313 106.72 83.3742 106.632 83.3067C106.454 83.1715 106.218 82.9931 105.983 82.822L105.979 82.8192L105.341 82.3841C105.255 82.3251 105.183 82.276 105.133 82.2416C105.108 82.2245 105.088 82.2113 105.075 82.2021C105.068 82.1975 105.062 82.1936 105.059 82.1912C105.057 82.1901 105.056 82.1892 105.055 82.1886L105.054 82.1874L105.053 82.1873L105.046 82.183L104.972 82.1186C104.895 82.034 104.811 81.8851 104.732 81.6505L104.732 81.6484L104.731 81.6473L104.728 81.6368C104.725 81.6294 104.721 81.6183 104.716 81.6039C104.706 81.5751 104.69 81.533 104.671 81.4795C104.633 81.3722 104.578 81.2189 104.512 81.0362C104.381 80.6708 104.205 80.1864 104.032 79.7096L104.031 79.7075C103.853 79.2349 103.677 78.771 103.544 78.4254C103.478 78.2525 103.422 78.1087 103.383 78.0086C103.364 77.9589 103.349 77.9198 103.339 77.8932C103.336 77.8842 103.332 77.8766 103.329 77.8705C103.328 77.8611 103.327 77.8481 103.325 77.8319C103.319 77.7949 103.311 77.7407 103.301 77.6717C103.282 77.5339 103.253 77.3371 103.219 77.1015C103.149 76.6301 103.054 76.0022 102.955 75.3788C102.859 74.7701 102.759 74.1665 102.684 73.7154C102.646 73.49 102.615 73.3025 102.592 73.1713C102.581 73.1057 102.572 73.0536 102.566 73.0185C102.563 73.0011 102.561 72.9876 102.559 72.9786C102.558 72.9741 102.557 72.9706 102.557 72.9683L102.556 72.9662L102.557 72.9652C102.519 72.7503 102.487 72.5889 102.456 72.4959L102.454 72.4906L102.441 72.4376C102.438 72.414 102.435 72.3842 102.433 72.3467L102.439 72.0668L102.439 72.0618C102.439 72.0571 102.44 72.0495 102.441 72.0403C102.442 72.0219 102.444 71.9943 102.446 71.9588C102.45 71.8875 102.457 71.7831 102.465 71.6505C102.481 71.3847 102.505 71.0049 102.534 70.5521L102.534 70.5512L102.615 69.0061L102.615 69.0051L102.697 67.2865L102.769 65.6019L102.832 64.1548C102.851 63.7389 102.866 63.3934 102.876 63.1521C102.882 63.0315 102.885 62.9368 102.888 62.8723C102.889 62.84 102.89 62.815 102.891 62.7983C102.891 62.7901 102.892 62.7839 102.892 62.7797C102.892 62.7776 102.892 62.7758 102.892 62.7747C102.897 62.6758 102.904 62.5972 102.914 62.5384C102.918 62.5092 102.924 62.4863 102.928 62.4696C102.933 62.4524 102.936 62.4452 102.936 62.4452L102.94 62.4371L102.944 62.4288C102.968 62.3695 103.017 62.2689 103.089 62.107L103.093 62.1007L103.093 62.0987C103.093 62.0973 103.094 62.0948 103.095 62.0922C103.097 62.0864 103.101 62.0775 103.106 62.0664C103.115 62.0438 103.129 62.0104 103.146 61.9684C103.18 61.8841 103.229 61.7633 103.287 61.6192C103.405 61.3307 103.564 60.9469 103.723 60.5664L103.723 60.5653C103.887 60.197 104.054 59.8314 104.179 59.557C104.242 59.4194 104.295 59.3047 104.332 59.2246C104.349 59.1871 104.362 59.1569 104.372 59.1357C104.386 59.125 104.406 59.1119 104.428 59.0954C104.485 59.0528 104.567 58.992 104.665 58.9195C104.86 58.7751 105.122 58.5841 105.385 58.3956C105.659 58.2167 105.938 58.0409 106.149 57.9107C106.255 57.8456 106.343 57.7918 106.405 57.7542C106.436 57.7355 106.461 57.721 106.478 57.711C106.486 57.7061 106.493 57.7021 106.497 57.6996C106.499 57.6985 106.5 57.698 106.501 57.6974C106.555 57.6658 106.608 57.6516 106.663 57.6468C106.707 57.6451 106.768 57.6522 106.856 57.6812Z" fill="#E6E6E6" stroke="#E6E6E6" stroke-width="0.33384"/>
<path d="M75.2076 65.5145C75.3156 64.8725 75.5136 64.2572 75.7731 63.6769C76.0093 63.1128 76.3075 62.5804 76.6389 62.1254C76.9528 61.674 77.303 61.2836 77.681 61.0001C78.0506 60.7252 78.4523 60.5344 78.875 60.4695C79.2898 60.4101 79.6925 60.4909 80.0507 60.6655C80.4125 60.8576 80.721 61.1554 80.9665 61.5366C81.1998 61.9291 81.3702 62.4051 81.4644 62.9452C81.5495 63.4972 81.5545 64.1159 81.4684 64.7687C81.3726 65.4368 81.1945 66.0727 80.947 66.6619C80.706 67.2524 80.4006 67.7868 80.0515 68.2453C79.7033 68.7176 79.3104 69.1002 78.8957 69.3803C78.4809 69.6604 78.0455 69.8315 77.6095 69.8769C77.1722 69.9288 76.7786 69.8361 76.4455 69.6356C76.1007 69.4432 75.8189 69.13 75.6032 68.7339C75.3836 68.3405 75.2315 67.8577 75.1588 67.3114C75.0817 66.7711 75.0887 66.1613 75.2076 65.5145Z" fill="#303030" stroke="#E6E6E6" stroke-width="1.33536"/>
<path d="M97.2453 59.6862C97.4257 59.7223 97.6659 59.7695 97.906 59.8187L97.9059 59.8197C98.1463 59.8758 98.3858 59.9319 98.5645 59.9746C98.6378 59.9921 98.701 60.0069 98.75 60.0186C98.7502 60.0199 98.751 60.0215 98.7512 60.0228C98.7615 60.0964 98.7758 60.2014 98.7935 60.3275L98.9245 61.2562C98.973 61.6006 99.0205 61.9444 99.0554 62.2017C99.0728 62.3302 99.0875 62.4374 99.0976 62.5123C99.1025 62.5494 99.1058 62.5787 99.1085 62.5987C99.1091 62.6036 99.1105 62.6083 99.111 62.6121L99.1098 62.6834C99.1085 62.735 99.1069 62.8106 99.1044 62.9068L99.0819 63.7039L98.9921 66.1678C98.9727 66.6233 98.9509 67.0805 98.9307 67.5109C98.9105 67.9393 98.8916 68.3417 98.8767 68.6895L98.8766 68.6905C98.8528 69.0414 98.8359 69.3349 98.8244 69.5408C98.8186 69.6437 98.8139 69.7252 98.8111 69.7806C98.8097 69.8081 98.8091 69.8293 98.8084 69.8437C98.8083 69.8454 98.8086 69.8471 98.8085 69.8486L98.8026 69.8754C98.7978 69.8985 98.791 69.9328 98.7821 69.9759C98.7643 70.0622 98.739 70.1856 98.7083 70.3336C98.647 70.63 98.5654 71.0259 98.482 71.424C98.3972 71.8202 98.3089 72.2218 98.2419 72.5237C98.2127 72.6555 98.1864 72.7682 98.1673 72.8535C98.1307 72.8429 98.089 72.8318 98.0436 72.8189C97.8667 72.7684 97.6301 72.7023 97.3931 72.6416L97.3912 72.6412C97.1524 72.5837 96.9134 72.5258 96.7342 72.4827C96.673 72.4679 96.6184 72.455 96.5735 72.4442C96.5742 72.4357 96.5756 72.427 96.5764 72.4179C96.5848 72.3106 96.5962 72.1573 96.6105 71.9733C96.6391 71.6055 96.6768 71.1149 96.7127 70.6239L96.7129 70.6229C96.7457 70.14 96.7773 69.6583 96.8008 69.2976C96.8126 69.1174 96.8226 68.967 96.8293 68.862C96.8327 68.8096 96.835 68.7683 96.8368 68.7402C96.8377 68.7262 96.8393 68.7153 96.8398 68.708C96.84 68.7046 96.8401 68.702 96.8402 68.7002L96.8396 68.6981L96.8398 68.6971L96.8496 68.552L96.7061 68.5226L95.5446 68.2891L95.3569 68.2515L95.3447 68.4419L95.3175 68.854L95.2463 68.8419L95.2729 68.395L95.2819 68.2437L95.1323 68.2202L94.2185 68.0759L94.0391 68.0469L94.0265 68.2292L93.9969 68.6438L93.8857 68.6273L93.9148 68.1938L93.9256 68.0379L93.7705 68.0173L92.9325 67.9039L92.7572 67.8796L92.7445 68.057L92.7117 68.4779L92.5947 68.4663L92.6271 68.0364L92.6397 67.8709L92.4744 67.8573L91.562 67.7809L91.3948 67.767L91.3819 67.9344L91.3466 68.3638L91.2206 68.3575L91.2569 67.9392L91.2722 67.7643L91.0976 67.758L90.2006 67.7221L90.0428 67.7159L90.0278 67.873L89.9878 68.3065L89.809 68.3014L89.8469 67.8903L89.8629 67.7116L89.6838 67.7084L88.8574 67.6934C88.8596 67.6694 88.8625 67.6427 88.865 67.6144C88.8797 67.452 88.9004 67.2213 88.9269 66.9486L88.9273 66.9467C88.9757 66.3876 89.0332 65.6531 89.0796 64.9203L89.0788 64.9191L89.1339 63.8479C89.1498 63.5073 89.1627 63.1904 89.1716 62.9195L89.172 62.9176L89.1858 62.2648C89.1864 62.2385 89.1868 62.214 89.1873 62.1916L89.9941 62.2427L90.1698 62.2542L90.1715 62.0777L90.1741 61.691L90.3183 61.7006L90.3176 62.1036L90.3171 62.2575L90.4717 62.27L91.3476 62.3398L91.5267 62.3538L91.5279 62.1744L91.5305 61.7985L91.6585 61.8101L91.6487 62.2085L91.6452 62.3627L91.7981 62.379L92.7047 62.4703L92.886 62.4887L92.8888 62.3065L92.8926 61.9349L93.0123 61.948L93.0087 62.3455L93.0066 62.497L93.1576 62.5129L93.9694 62.6016L94.1515 62.6212L94.1542 62.439L94.1606 62.0698L94.2683 62.0837L94.2577 62.4918L94.2537 62.638L94.3984 62.6607L95.3218 62.8067L95.5129 62.8369L95.5147 62.6436L95.5188 62.281L95.597 62.2933L95.5883 62.7128L95.585 62.8551L97.0737 63.129L97.0781 62.9322L97.0775 62.9301C97.0775 62.9285 97.0777 62.9262 97.0778 62.9232C97.0779 62.9166 97.078 62.9063 97.0783 62.8935C97.0788 62.8678 97.0799 62.8298 97.0809 62.7818C97.0831 62.6858 97.0868 62.5487 97.0905 62.3844C97.098 62.0553 97.1077 61.6166 97.1186 61.1791L97.1189 61.1772L97.1355 59.9967C97.1373 59.8656 97.1379 59.7525 97.139 59.6647C97.1714 59.6711 97.207 59.6785 97.2453 59.6862Z" fill="#EC1168" stroke="#EC1168" stroke-width="0.33384"/>
<path d="M96.911 62.9292C96.911 62.9292 96.9301 62.0502 96.9519 61.1751C96.9648 60.3119 96.9752 59.4618 96.9752 59.4618C96.9752 59.4618 97.4599 59.5577 97.944 59.657C98.4257 59.7693 98.9003 59.8838 98.9003 59.8838C98.9003 59.8838 98.9938 60.5561 99.0901 61.2323C99.1872 61.9223 99.2783 62.6078 99.2783 62.6078C99.2783 62.6078 99.2682 63.0506 99.2489 63.7089C99.2278 64.3771 99.1931 65.2669 99.1587 66.1737C99.1198 67.0864 99.0731 68.0045 99.0433 68.7016C98.9959 69.4023 98.9737 69.8735 98.9737 69.8735C98.9737 69.8735 98.8117 70.6617 98.6446 71.4592C98.4749 72.2529 98.2917 73.0644 98.2917 73.0644C98.2917 73.0644 97.822 72.9237 97.3519 72.8032C96.8741 72.6882 96.3963 72.5731 96.3963 72.5731C96.3963 72.5731 96.4748 71.593 96.5467 70.6117C96.6123 69.6461 96.6734 68.6866 96.6734 68.6866M96.911 62.9292C96.911 62.9292 96.9007 63.2804 96.8886 63.8077C96.8726 64.3376 96.8436 65.0485 96.8174 65.7633C96.7833 66.4835 96.7501 67.2174 96.718 67.7613C96.6938 68.317 96.6734 68.6866 96.6734 68.6866M96.911 62.9292L95.7553 62.7166ZM96.6734 68.6866L95.5114 68.4525ZM93.7485 68.1825L93.7084 68.7691L94.1508 68.8369L94.1927 68.2404M93.7485 68.1825L94.1927 68.2404ZM93.7485 68.1825L92.9105 68.0691ZM94.1927 68.2404L95.1064 68.3848ZM95.1064 68.3848L95.0711 68.9825L95.4729 69.0496L95.5114 68.4525M95.1064 68.3848L95.5114 68.4525ZM92.9105 68.0691L92.866 68.6617L92.4161 68.6163L92.4606 68.0237M92.9105 68.0691L92.4606 68.0237ZM92.4606 68.0237L91.548 67.9474ZM91.548 67.9474L91.5002 68.5394L91.0395 68.5158L91.0906 67.9244M91.548 67.9474L91.0906 67.9244ZM91.0906 67.9244L90.1943 67.8885ZM90.1943 67.8885L90.1399 68.4793L89.627 68.463L89.6807 67.8755M90.1943 67.8885L89.6807 67.8755ZM89.6807 67.8755L88.676 67.857C88.676 67.857 88.7081 67.4793 88.7612 66.9324C88.8095 66.3744 88.8663 65.6415 88.9126 64.91C88.9523 64.1774 88.987 63.4539 89.0048 62.9141C89.0161 62.3731 89.0243 62.0148 89.0243 62.0148L90.0041 62.0762M90.0041 62.0762L90.0092 61.5137L90.4857 61.5436L90.4845 62.1035M90.0041 62.0762L90.4845 62.1035ZM90.4845 62.1035L91.3611 62.1731ZM91.3611 62.1731L91.3649 61.6171L91.8291 61.6584L91.8154 62.2125M91.3611 62.1731L91.8154 62.2125ZM91.8154 62.2125L92.7218 62.3046ZM92.7218 62.3046L92.7289 61.7492L93.1815 61.7985L93.1756 62.3473M92.7218 62.3046L93.1756 62.3473ZM93.1756 62.3473L93.9876 62.4356ZM93.9876 62.4356L93.998 61.8808L94.4389 61.9382L94.4246 62.4956M93.9876 62.4356L94.4246 62.4956ZM94.4246 62.4956L95.3481 62.6418ZM95.3481 62.6418L95.3553 62.0864L95.7675 62.152L95.7553 62.7166M95.3481 62.6418L95.7553 62.7166Z" fill="#EC1168"/>
<path d="M96.911 62.9292C96.911 62.9292 96.9301 62.0502 96.9519 61.1751C96.9648 60.3119 96.9752 59.4618 96.9752 59.4618C96.9752 59.4618 97.4599 59.5577 97.944 59.657C98.4257 59.7693 98.9003 59.8838 98.9003 59.8838C98.9003 59.8838 98.9938 60.5561 99.0901 61.2323C99.1872 61.9223 99.2783 62.6078 99.2783 62.6078C99.2783 62.6078 99.2682 63.0506 99.2489 63.7089C99.2278 64.3771 99.1931 65.2669 99.1587 66.1737C99.1198 67.0864 99.0731 68.0045 99.0433 68.7016C98.9959 69.4023 98.9737 69.8735 98.9737 69.8735C98.9737 69.8735 98.8117 70.6617 98.6446 71.4592C98.4749 72.2529 98.2917 73.0644 98.2917 73.0644C98.2917 73.0644 97.822 72.9237 97.3519 72.8032C96.8741 72.6882 96.3963 72.5731 96.3963 72.5731C96.3963 72.5731 96.4748 71.593 96.5467 70.6117C96.6123 69.6461 96.6734 68.6866 96.6734 68.6866M96.911 62.9292C96.911 62.9292 96.9007 63.2804 96.8886 63.8077C96.8726 64.3376 96.8436 65.0485 96.8174 65.7633C96.7833 66.4835 96.7501 67.2174 96.718 67.7613C96.6938 68.317 96.6734 68.6866 96.6734 68.6866M96.911 62.9292L95.7553 62.7166M96.6734 68.6866L95.5114 68.4525M95.7553 62.7166L95.7675 62.152L95.3553 62.0864L95.3481 62.6418M95.7553 62.7166L95.3481 62.6418M95.5114 68.4525L95.4729 69.0496L95.0711 68.9825L95.1064 68.3848M95.5114 68.4525L95.1064 68.3848M93.7485 68.1825L93.7084 68.7691L94.1508 68.8369L94.1927 68.2404M93.7485 68.1825L94.1927 68.2404M93.7485 68.1825L92.9105 68.0691M94.1927 68.2404L95.1064 68.3848M92.9105 68.0691L92.866 68.6617L92.4161 68.6163L92.4606 68.0237M92.9105 68.0691L92.4606 68.0237M92.4606 68.0237L91.548 67.9474M91.548 67.9474L91.5002 68.5394L91.0395 68.5158L91.0906 67.9244M91.548 67.9474L91.0906 67.9244M91.0906 67.9244L90.1943 67.8885M90.1943 67.8885L90.1399 68.4793L89.627 68.463L89.6807 67.8755M90.1943 67.8885L89.6807 67.8755M89.6807 67.8755L88.676 67.857C88.676 67.857 88.7081 67.4793 88.7612 66.9324C88.8095 66.3744 88.8663 65.6415 88.9126 64.91C88.9523 64.1774 88.987 63.4539 89.0048 62.9141C89.0161 62.3731 89.0243 62.0148 89.0243 62.0148L90.0041 62.0762M90.0041 62.0762L90.0092 61.5137L90.4857 61.5436L90.4845 62.1035M90.0041 62.0762L90.4845 62.1035M90.4845 62.1035L91.3611 62.1731M91.3611 62.1731L91.3649 61.6171L91.8291 61.6584L91.8154 62.2125M91.3611 62.1731L91.8154 62.2125M91.8154 62.2125L92.7218 62.3046M92.7218 62.3046L92.7289 61.7492L93.1815 61.7985L93.1756 62.3473M92.7218 62.3046L93.1756 62.3473M93.1756 62.3473L93.9876 62.4356M93.9876 62.4356L93.998 61.8808L94.4389 61.9382L94.4246 62.4956M93.9876 62.4356L94.4246 62.4956M94.4246 62.4956L95.3481 62.6418" stroke="#EC1168" stroke-width="0.147952"/>
<line x1="12.7313" y1="77.4096" x2="142.605" y2="101.3" stroke="#E6E6E6" stroke-width="1.00292"/>
<line x1="45.289" y1="79.6598" x2="123.219" y2="93.9952" stroke="#E6E6E6" stroke-width="1.00292"/>
<line x1="69.9552" y1="80.4584" x2="106.781" y2="87.2326" stroke="#E6E6E6" stroke-width="1.00292"/>
<line x1="83.2357" y1="78.4829" x2="99.6753" y2="81.507" stroke="#E6E6E6" stroke-width="1.00292"/>
</g>
<defs>
<filter id="filter0_f_616_9489" x="127.433" y="9.94977" width="22.6241" height="32.8459" filterUnits="userSpaceOnUse" color-interpolation-filters="sRGB">
<feFlood flood-opacity="0" result="BackgroundImageFix"/>
<feBlend mode="normal" in="SourceGraphic" in2="BackgroundImageFix" result="shape"/>
<feGaussianBlur stdDeviation="3.40726" result="effect1_foregroundBlur_616_9489"/>
</filter>
<filter id="filter1_f_616_9489" x="115.712" y="6.74643" width="44.6351" height="41.2959" filterUnits="userSpaceOnUse" color-interpolation-filters="sRGB">
<feFlood flood-opacity="0" result="BackgroundImageFix"/>
<feBlend mode="normal" in="SourceGraphic" in2="BackgroundImageFix" result="shape"/>
<feGaussianBlur stdDeviation="5.45161" result="effect1_foregroundBlur_616_9489"/>
</filter>
<filter id="filter2_f_616_9489" x="90.6325" y="9.94977" width="22.6241" height="32.8459" filterUnits="userSpaceOnUse" color-interpolation-filters="sRGB">
<feFlood flood-opacity="0" result="BackgroundImageFix"/>
<feBlend mode="normal" in="SourceGraphic" in2="BackgroundImageFix" result="shape"/>
<feGaussianBlur stdDeviation="3.40726" result="effect1_foregroundBlur_616_9489"/>
</filter>
<filter id="filter3_f_616_9489" x="78.9117" y="6.74643" width="44.6351" height="41.2959" filterUnits="userSpaceOnUse" color-interpolation-filters="sRGB">
<feFlood flood-opacity="0" result="BackgroundImageFix"/>
<feBlend mode="normal" in="SourceGraphic" in2="BackgroundImageFix" result="shape"/>
<feGaussianBlur stdDeviation="5.45161" result="effect1_foregroundBlur_616_9489"/>
</filter>
<filter id="filter4_f_616_9489" x="53.8329" y="9.94977" width="22.6241" height="32.8459" filterUnits="userSpaceOnUse" color-interpolation-filters="sRGB">
<feFlood flood-opacity="0" result="BackgroundImageFix"/>
<feBlend mode="normal" in="SourceGraphic" in2="BackgroundImageFix" result="shape"/>
<feGaussianBlur stdDeviation="3.40726" result="effect1_foregroundBlur_616_9489"/>
</filter>
<filter id="filter5_f_616_9489" x="42.1117" y="6.74643" width="44.6351" height="41.2959" filterUnits="userSpaceOnUse" color-interpolation-filters="sRGB">
<feFlood flood-opacity="0" result="BackgroundImageFix"/>
<feBlend mode="normal" in="SourceGraphic" in2="BackgroundImageFix" result="shape"/>
<feGaussianBlur stdDeviation="5.45161" result="effect1_foregroundBlur_616_9489"/>
</filter>
<filter id="filter6_f_616_9489" x="17.0353" y="9.94977" width="22.6241" height="32.8459" filterUnits="userSpaceOnUse" color-interpolation-filters="sRGB">
<feFlood flood-opacity="0" result="BackgroundImageFix"/>
<feBlend mode="normal" in="SourceGraphic" in2="BackgroundImageFix" result="shape"/>
<feGaussianBlur stdDeviation="3.40726" result="effect1_foregroundBlur_616_9489"/>
</filter>
<filter id="filter7_f_616_9489" x="5.31406" y="6.74643" width="44.6351" height="41.2959" filterUnits="userSpaceOnUse" color-interpolation-filters="sRGB">
<feFlood flood-opacity="0" result="BackgroundImageFix"/>
<feBlend mode="normal" in="SourceGraphic" in2="BackgroundImageFix" result="shape"/>
<feGaussianBlur stdDeviation="5.45161" result="effect1_foregroundBlur_616_9489"/>
</filter>
<filter id="filter8_d_616_9489" x="11.9304" y="48.7448" width="136.061" height="54.4692" filterUnits="userSpaceOnUse" color-interpolation-filters="sRGB">
<feFlood flood-opacity="0" result="BackgroundImageFix"/>
<feColorMatrix in="SourceAlpha" type="matrix" values="0 0 0 0 0 0 0 0 0 0 0 0 0 0 0 0 0 0 127 0" result="hardAlpha"/>
<feOffset dy="0.710202"/>
<feGaussianBlur stdDeviation="0.355101"/>
<feComposite in2="hardAlpha" operator="out"/>
<feColorMatrix type="matrix" values="0 0 0 0 1 0 0 0 0 1 0 0 0 0 1 0 0 0 0.25 0"/>
<feBlend mode="normal" in2="BackgroundImageFix" result="effect1_dropShadow_616_9489"/>
<feBlend mode="normal" in="SourceGraphic" in2="effect1_dropShadow_616_9489" result="shape"/>
</filter>
<linearGradient id="paint0_linear_616_9489" x1="26.1678" y1="166.82" x2="26.1678" y2="157.416" gradientUnits="userSpaceOnUse">
<stop stop-color="#535353"/>
<stop offset="1" stop-color="#B9B9B9"/>
</linearGradient>
<linearGradient id="paint1_linear_616_9489" x1="60.1033" y1="211.386" x2="60.1033" y2="201.982" gradientUnits="userSpaceOnUse">
<stop stop-color="#535353"/>
<stop offset="1" stop-color="#B9B9B9"/>
</linearGradient>
<linearGradient id="paint2_linear_616_9489" x1="123.771" y1="196.459" x2="108.789" y2="172.814" gradientUnits="userSpaceOnUse">
<stop stop-color="#EC1168"/>
<stop offset="1" stop-color="#F7CCDD"/>
</linearGradient>
</defs>
</svg>
