<svg width="365" height="516" viewBox="0 0 365 516" fill="none" xmlns="http://www.w3.org/2000/svg">
<rect width="365" height="515.121" rx="20" fill="#242424"/>
<rect x="19.1328" y="351.166" width="6.18145" height="8.83064" fill="#535353"/>
<rect x="87.7168" y="351.166" width="6.18145" height="8.83064" fill="#535353"/>
<rect x="50.3347" y="360.291" width="12.0685" height="129.222" fill="#595959"/>
<ellipse cx="56.5159" cy="359.26" rx="37.3831" ry="10.1552" fill="#535353"/>
<ellipse cx="56.5159" cy="350.135" rx="37.3831" ry="10.1552" fill="url(#paint0_linear_616_9489)"/>
<rect x="92.4265" y="447.419" width="6.18145" height="8.83064" fill="#535353"/>
<rect x="161.01" y="447.419" width="6.18145" height="8.83064" fill="#535353"/>
<rect x="123.628" y="456.544" width="12.0685" height="32.9677" fill="#595959"/>
<ellipse cx="129.81" cy="455.514" rx="37.3831" ry="10.1552" fill="#535353"/>
<ellipse cx="129.81" cy="446.389" rx="37.3831" ry="10.1552" fill="url(#paint1_linear_616_9489)"/>
<rect x="18.3964" y="25.7563" width="328.206" height="463.609" rx="4.26815" stroke="white" stroke-width="0.294355"/>
<path d="M115.669 405.86C115.784 406.33 116.254 406.614 116.736 406.565C116.968 406.541 117.205 406.529 117.444 406.529C117.499 406.529 117.554 406.53 117.609 406.531C118.05 406.542 118.464 406.276 118.582 405.851L121.683 394.757C121.822 394.258 122.358 393.984 122.844 394.164L125.929 395.305C126.431 395.49 126.655 396.075 126.406 396.548L121.136 406.564C120.909 406.996 121.078 407.525 121.475 407.808C121.744 408.001 121.999 408.212 122.236 408.44C122.565 408.757 123.071 408.838 123.451 408.585L132.977 402.223C133.405 401.938 133.984 402.074 134.239 402.521L135.814 405.282C136.079 405.747 135.874 406.34 135.378 406.542L124.702 410.888C124.276 411.062 124.061 411.532 124.14 411.985C124.203 412.34 124.236 412.705 124.236 413.078C124.236 413.487 124.526 413.854 124.934 413.892L136.544 414.971C137.071 415.02 137.438 415.517 137.329 416.035L136.685 419.113C136.578 419.621 136.059 419.93 135.562 419.78L124.134 416.345C123.734 416.224 123.309 416.404 123.068 416.746C122.905 416.978 122.727 417.199 122.535 417.408C122.179 417.797 122.144 418.409 122.52 418.78L130.731 426.897C131.114 427.276 131.073 427.905 130.646 428.232L128.066 430.201C127.658 430.512 127.072 430.413 126.789 429.985L120.083 419.823C119.86 419.486 119.44 419.348 119.048 419.44C118.533 419.561 117.996 419.625 117.444 419.626C117.415 419.626 117.392 419.648 117.394 419.677L118.336 432.433C118.375 432.958 117.951 433.4 117.425 433.384L114.114 433.282C113.586 433.266 113.19 432.795 113.263 432.272L115.003 419.944C115.062 419.526 114.815 419.131 114.435 418.948C114.288 418.878 114.144 418.803 114.003 418.722C113.579 418.481 113.026 418.552 112.731 418.942L105.135 428.969C104.826 429.378 104.235 429.44 103.847 429.103L101.407 426.981C101.001 426.627 101.001 425.997 101.407 425.643L111.16 417.164C111.498 416.87 111.557 416.373 111.353 415.974C111.333 415.936 111.314 415.898 111.296 415.86C111.09 415.439 110.627 415.183 110.174 415.305L97.5763 418.688C97.0741 418.823 96.5642 418.498 96.4738 417.986L95.9275 414.891C95.8356 414.371 96.2168 413.886 96.7443 413.853L109.837 413.026C110.298 412.997 110.653 412.616 110.719 412.159C110.736 412.042 110.756 411.927 110.779 411.813C110.871 411.363 110.669 410.887 110.249 410.701L98.5601 405.53C98.0699 405.313 97.883 404.714 98.1629 404.257L99.8255 401.542C100.094 401.104 100.677 400.985 101.095 401.283L111.371 408.605C111.755 408.878 112.281 408.799 112.618 408.47C112.758 408.334 112.904 408.204 113.055 408.08C113.404 407.796 113.545 407.313 113.349 406.908L108.085 396.093C107.851 395.613 108.093 395.036 108.599 394.866L111.722 393.815C112.213 393.65 112.741 393.94 112.865 394.444L115.669 405.86Z" fill="#EC1168"/>
<path d="M116.819 391.291C129.1 391.291 139.056 401.247 139.056 413.527C139.056 425.808 129.1 435.763 116.819 435.763C104.538 435.763 94.582 425.808 94.582 413.527C94.5821 401.247 104.538 391.291 116.819 391.291Z" stroke="#4F4F4F" stroke-width="1.36616"/>
<circle cx="117.449" cy="412.979" r="3.53226" fill="#D9D9D9"/>
<g filter="url(#filter0_f_616_9489)">
<ellipse cx="20.752" cy="9.71371" rx="20.752" ry="9.71371" transform="matrix(0 1 1 0 289.943 36.2069)" fill="#ECEAEA"/>
</g>
<g opacity="0.5" filter="url(#filter1_f_616_9489)">
<path d="M294.358 38.1191L282.878 50.6292L273.459 80.2119H322.763L315.551 50.6292L302.747 38.1191H294.358Z" fill="#EDEDED"/>
</g>
<circle cx="5.44556" cy="5.44556" r="5.44556" transform="matrix(0 1 1 0 294.064 32.6732)" fill="#F8F6F6"/>
<circle cx="4.12097" cy="4.12097" r="4.12097" transform="matrix(0 1 1 0 295.239 32.3794)" fill="#393939"/>
<rect width="1.76613" height="3.53226" transform="matrix(0 1 1 0 297.593 31.2015)" fill="#393939"/>
<g filter="url(#filter2_f_616_9489)">
<ellipse cx="20.752" cy="9.71371" rx="20.752" ry="9.71371" transform="matrix(0 1 1 0 210.463 36.2069)" fill="#ECEAEA"/>
</g>
<g opacity="0.5" filter="url(#filter3_f_616_9489)">
<path d="M214.878 38.1191L203.399 50.6292L193.979 80.2119H243.284L236.072 50.6292L223.268 38.1191H214.878Z" fill="#EDEDED"/>
</g>
<circle cx="5.44556" cy="5.44556" r="5.44556" transform="matrix(0 1 1 0 214.585 32.6732)" fill="#F8F6F6"/>
<circle cx="4.12097" cy="4.12097" r="4.12097" transform="matrix(0 1 1 0 215.76 32.3794)" fill="#393939"/>
<rect width="1.76613" height="3.53226" transform="matrix(0 1 1 0 218.114 31.2015)" fill="#393939"/>
<g filter="url(#filter4_f_616_9489)">
<ellipse cx="20.752" cy="9.71371" rx="20.752" ry="9.71371" transform="matrix(0 1 1 0 130.985 36.2069)" fill="#ECEAEA"/>
</g>
<g opacity="0.5" filter="url(#filter5_f_616_9489)">
<path d="M135.399 38.1191L123.919 50.6292L114.5 80.2119H163.804L156.592 50.6292L143.788 38.1191H135.399Z" fill="#EDEDED"/>
</g>
<circle cx="5.44556" cy="5.44556" r="5.44556" transform="matrix(0 1 1 0 135.105 32.6732)" fill="#F8F6F6"/>
<circle cx="4.12097" cy="4.12097" r="4.12097" transform="matrix(0 1 1 0 136.284 32.3794)" fill="#393939"/>
<rect width="1.76613" height="3.53226" transform="matrix(0 1 1 0 138.638 31.2015)" fill="#393939"/>
<g filter="url(#filter6_f_616_9489)">
<ellipse cx="20.752" cy="9.71371" rx="20.752" ry="9.71371" transform="matrix(0 1 1 0 51.5107 36.2069)" fill="#ECEAEA"/>
</g>
<g opacity="0.5" filter="url(#filter7_f_616_9489)">
<path d="M55.9248 38.1191L44.445 50.6292L35.0256 80.2119H84.3301L77.1184 50.6292L64.3139 38.1191H55.9248Z" fill="#EDEDED"/>
</g>
<circle cx="5.44556" cy="5.44556" r="5.44556" transform="matrix(0 1 1 0 55.6309 32.6732)" fill="#F8F6F6"/>
<circle cx="4.12097" cy="4.12097" r="4.12097" transform="matrix(0 1 1 0 56.8093 32.3794)" fill="#393939"/>
<rect width="1.76613" height="3.53226" transform="matrix(0 1 1 0 59.1633 31.2015)" fill="#393939"/>
<path d="M206.607 439.104C206.977 439.458 207.558 439.447 207.949 439.117C208.323 438.8 208.724 438.504 209.151 438.234C209.325 438.123 209.502 438.018 209.68 437.919C210.088 437.693 210.306 437.219 210.172 436.772L204.92 419.233C204.763 418.708 205.086 418.161 205.622 418.046L211.431 416.794C211.986 416.674 212.52 417.071 212.564 417.638L213.979 435.662C214.019 436.178 214.471 436.56 214.988 436.566C215.758 436.577 216.519 436.672 217.258 436.849C217.727 436.962 218.223 436.747 218.42 436.307L225.874 419.601C226.095 419.106 226.689 418.9 227.169 419.154L232.248 421.833C232.751 422.098 232.904 422.747 232.573 423.209L221.842 438.201C221.558 438.598 221.63 439.144 221.973 439.492C222.442 439.968 222.867 440.499 223.238 441.084C223.27 441.134 223.3 441.183 223.33 441.233C223.604 441.684 224.174 441.882 224.644 441.642L241.07 433.243C241.57 432.988 242.18 433.225 242.377 433.75L244.364 439.073C244.557 439.587 244.268 440.156 243.739 440.305L225.438 445.452C225.013 445.572 224.734 445.972 224.727 446.413C224.715 447.107 224.63 447.799 224.476 448.478C224.351 449.024 224.67 449.593 225.219 449.712L243.313 453.609C243.872 453.73 244.194 454.318 243.994 454.855L241.949 460.348C241.76 460.856 241.181 461.099 240.686 460.878L223.072 453.007C222.684 452.834 222.23 452.946 221.941 453.259C221.323 453.926 220.608 454.528 219.8 455.04C219.764 455.063 219.753 455.111 219.779 455.146L231.637 471.111C231.97 471.558 231.841 472.195 231.362 472.478L226.212 475.523C225.731 475.807 225.109 475.61 224.879 475.101L216.775 457.142C216.591 456.734 216.145 456.518 215.703 456.586C215.206 456.663 214.707 456.703 214.211 456.708C213.695 456.713 213.244 457.09 213.2 457.604L211.479 477.537C211.433 478.076 210.941 478.464 210.405 478.384L204.627 477.521C204.061 477.436 203.702 476.869 203.867 476.321L209.795 456.674C209.933 456.218 209.704 455.735 209.285 455.51C209.009 455.362 208.74 455.201 208.479 455.026C208.068 454.751 207.509 454.787 207.174 455.151L193.098 470.414C192.725 470.818 192.086 470.817 191.715 470.411L187.884 466.219C187.506 465.805 187.573 465.155 188.026 464.826L204.929 452.565C205.326 452.278 205.43 451.736 205.213 451.297C205.022 450.91 204.859 450.515 204.724 450.114C204.569 449.652 204.116 449.342 203.633 449.415L183.513 452.46C182.95 452.546 182.441 452.114 182.434 451.545L182.36 445.794C182.353 445.252 182.805 444.817 183.347 444.845L203.398 445.883C203.895 445.909 204.32 445.542 204.418 445.055C204.526 444.517 204.678 443.986 204.872 443.468C205.04 443.02 204.89 442.505 204.483 442.255L188.198 432.249C187.714 431.952 187.603 431.297 187.961 430.857L191.717 426.243C192.063 425.818 192.698 425.779 193.094 426.158L206.607 439.104Z" fill="#F7CCDD"/>
<path d="M308.257 386.946C308.503 387.182 308.892 387.175 309.152 386.954C309.403 386.743 309.67 386.545 309.955 386.364C310.072 386.29 310.19 386.22 310.31 386.154C310.582 386.003 310.727 385.687 310.638 385.388L307.132 373.678C307.027 373.328 307.243 372.963 307.601 372.886L311.48 372.05C311.851 371.97 312.207 372.235 312.236 372.613L313.18 384.647C313.207 384.991 313.508 385.246 313.854 385.251C314.368 385.258 314.876 385.321 315.369 385.44C315.682 385.515 316.014 385.371 316.145 385.077L321.122 373.924C321.269 373.593 321.666 373.456 321.986 373.625L325.377 375.414C325.713 375.591 325.815 376.024 325.594 376.332L318.429 386.342C318.239 386.607 318.287 386.972 318.516 387.204C318.83 387.522 319.114 387.877 319.362 388.268C319.383 388.301 319.403 388.333 319.423 388.366C319.605 388.668 319.986 388.8 320.3 388.64L331.268 383.031C331.602 382.86 332.009 383.019 332.14 383.37L333.467 386.924C333.596 387.267 333.403 387.647 333.05 387.746L320.831 391.184C320.547 391.264 320.36 391.53 320.355 391.825C320.348 392.288 320.291 392.75 320.188 393.204C320.105 393.569 320.318 393.949 320.684 394.027L332.766 396.63C333.139 396.71 333.354 397.103 333.221 397.461L331.855 401.129C331.729 401.468 331.343 401.63 331.013 401.483L319.251 396.228C318.992 396.112 318.689 396.187 318.496 396.396C318.083 396.842 317.606 397.244 317.066 397.586C317.043 397.601 317.036 397.632 317.052 397.654L324.972 408.316C325.194 408.615 325.108 409.04 324.788 409.229L321.349 411.263C321.028 411.453 320.613 411.321 320.459 410.981L315.048 398.989C314.925 398.717 314.627 398.572 314.332 398.618C313.999 398.669 313.666 398.696 313.335 398.699C312.99 398.702 312.689 398.954 312.66 399.297L311.512 412.606C311.481 412.966 311.153 413.225 310.795 413.172L306.937 412.595C306.559 412.539 306.319 412.16 306.429 411.794L310.387 398.677C310.479 398.373 310.326 398.051 310.046 397.9C309.862 397.801 309.683 397.694 309.509 397.577C309.234 397.393 308.861 397.418 308.637 397.661L299.24 407.85C298.991 408.12 298.564 408.119 298.317 407.848L295.759 405.05C295.507 404.773 295.551 404.339 295.854 404.12L307.137 395.934C307.402 395.742 307.471 395.381 307.326 395.087C307.199 394.829 307.09 394.564 307 394.296C306.896 393.988 306.593 393.78 306.271 393.829L292.838 395.863C292.462 395.92 292.123 395.632 292.118 395.252L292.068 391.413C292.064 391.051 292.366 390.76 292.727 390.779L306.115 391.472C306.446 391.489 306.73 391.244 306.796 390.919C306.868 390.56 306.969 390.205 307.099 389.859C307.211 389.56 307.111 389.217 306.839 389.049L295.966 382.368C295.643 382.17 295.569 381.732 295.808 381.439L298.315 378.359C298.546 378.075 298.97 378.049 299.235 378.302L308.257 386.946Z" fill="#F7CCDD"/>
<circle cx="213.851" cy="447.868" r="34.1829" transform="rotate(-32.3599 213.851 447.868)" stroke="black" stroke-width="13.4051"/>
<path d="M200.729 396.355L209.913 394.82L218.056 394.898L226.904 396.59L235.203 401.172L241.047 405.492L248.637 402.339L257.379 395.847L259.106 392.31L244.211 368.803C267.264 356.075 280.778 350.604 306.07 344.206C309.334 352.301 312 356.312 317.836 362.776C302.923 368.988 292.302 373.876 280.238 380.625L279.31 385.126L278.786 390.06L278.417 394.737L281.235 404.695L283.736 413.901L256.673 431.049L234.819 408.08L235.749 407.693L224.459 400.996L206.664 400.212L189.871 407.519L182.375 413.222L176.261 421.856L179.101 410.059L192.27 400.286L200.729 396.355Z" fill="url(#paint2_linear_616_9489)"/>
<path d="M170.503 439.312C170.503 439.312 172.599 432.816 174.317 428.802C175.151 426.853 175.558 425.724 176.589 423.871C177.729 421.823 178.507 420.746 179.94 418.891C180.78 417.804 181.233 417.171 182.197 416.192C183.235 415.136 183.913 414.641 185.08 413.73C187.68 411.701 189.304 410.761 192.214 409.21C195.631 407.387 197.641 406.475 201.341 405.331C204.046 404.494 205.587 403.956 208.407 403.71C211.505 403.44 213.267 403.849 216.354 404.229C219.992 404.677 222.098 404.834 225.572 406.005C229.001 407.161 230.802 408.205 233.882 410.103C236.282 411.582 237.559 412.536 239.734 414.329C242.801 416.859 244.262 418.578 246.968 421.489C249.096 423.777 252.221 427.524 252.221 427.524L255.414 431.146C255.85 431.64 256.58 431.744 257.137 431.392L283.401 414.749C283.905 414.43 284.137 413.816 283.971 413.243L282.771 409.118L281.026 402.607C281.026 402.607 280.089 398.376 279.775 395.623C279.44 392.688 279.176 391.009 279.43 388.066C279.627 385.778 279.844 384.481 280.531 382.29C281.312 379.796 281.056 381.34 283.349 376.219C284.787 373.009 289.992 368.443 294.603 364.413C295.766 363.397 294.871 362.254 293.566 363.08L285.318 368.307C285.318 368.307 283.117 370.058 281.827 371.312C280.105 372.986 279.034 373.894 277.777 375.941C276.293 378.359 275.998 380.019 275.276 382.763C274.833 384.446 274.564 385.399 274.394 387.131C274.196 389.141 274.347 390.288 274.497 392.303C274.721 395.319 275.695 399.954 275.695 399.954C275.695 399.954 276.988 403.751 278.007 406.107C278.969 408.332 280.567 411.307 281.442 412.897C281.787 413.523 281.588 414.311 280.984 414.694L257.86 429.346C257.269 429.721 256.488 429.577 256.069 429.016L252.628 424.41L247.202 417.85C247.202 417.85 242.973 412.174 239.631 409.158C236.044 405.92 233.9 404.014 229.456 402.116C226.084 400.676 223.973 400.418 220.362 399.785C217.833 399.342 216.402 399.045 213.835 399.001C211.353 398.959 209.929 399.013 207.5 399.524C204.265 400.203 202.414 400.93 199.372 402.224C196.068 403.629 194.41 404.724 191.273 406.473C188.942 407.773 187.582 408.462 185.498 410.132C183.704 411.571 182.786 412.502 181.275 414.236C179.18 416.642 176.656 420.972 176.656 420.972C173.209 425.917 171.871 432.64 170.503 439.312Z" fill="#4C4C4C" stroke="black" stroke-width="0.804305"/>
<circle cx="313.09" cy="392.603" r="24.5313" transform="rotate(-32.3599 313.09 392.603)" stroke="black" stroke-width="13.4051"/>
<path d="M172.952 375.87L172.945 375.881L170.759 378.623C170.677 378.727 170.609 378.841 170.557 378.963L169.754 380.841C169.647 381.092 169.612 381.366 169.652 381.636L169.662 381.706C169.731 382.177 169.517 382.646 169.114 382.901L164.528 385.807C163.965 386.164 163.219 385.996 162.863 385.434L159.091 379.482C158.75 378.943 158.894 378.224 159.414 377.851C182.99 360.936 197.027 351.818 222.252 338.025C222.81 337.72 223.516 337.897 223.856 338.433L227.632 344.393C227.989 344.956 227.822 345.702 227.259 346.058L223.177 348.645C222.859 348.846 222.465 348.888 222.112 348.757L219.604 347.827C219.467 347.776 219.324 347.747 219.178 347.738L215.52 347.521C215.328 347.509 215.135 347.536 214.952 347.598L210.362 349.182C210.284 349.209 210.208 349.243 210.135 349.283L191.832 359.309C191.764 359.347 191.699 359.39 191.638 359.437L180.513 368.05C180.457 368.094 180.404 368.142 180.354 368.193L172.952 375.87Z" fill="#F7CCDD" stroke="black" stroke-width="0.268102"/>
<path d="M184.053 404.597C183.67 403.992 183.866 403.189 184.485 402.829L192.398 398.231L201.015 392.295L211.894 386.486C212.07 386.392 212.265 386.339 212.464 386.33L219.573 386.005C219.67 386.001 219.767 386.007 219.862 386.023L226.727 387.206C227.033 387.259 227.312 387.417 227.515 387.652L235.499 396.921C235.568 397 235.645 397.071 235.73 397.133L243.687 402.88C244.52 403.481 244.395 404.757 243.462 405.185L241.778 405.958C241.305 406.176 240.749 406.099 240.351 405.763L232.639 399.225C232.502 399.109 232.343 399.022 232.172 398.968L222.681 396.001C222.585 395.971 222.486 395.952 222.386 395.944L214.623 395.332C214.554 395.326 214.484 395.326 214.414 395.332L206.951 395.914C206.855 395.922 206.76 395.94 206.667 395.968L194.982 399.504C194.876 399.536 194.774 399.581 194.679 399.638L185.771 405.003C185.183 405.357 184.42 405.176 184.053 404.597Z" fill="#5F5F5F"/>
<rect x="220.803" y="374.237" width="10.401" height="2.12998" transform="rotate(8.85989 220.803 374.237)" fill="#6A6A6A"/>
<ellipse cx="219.343" cy="375.171" rx="7.51286" ry="1.87671" transform="rotate(-72.504 219.343 375.171)" fill="#808080"/>
<path d="M230.028 382.233C229.689 375.635 231.176 371.618 236.736 364.018L243.321 371.906L247.792 377.96L251.308 383.508L257.546 395.107L254.21 397.856L245.887 384.721L237.714 384.345L230.028 382.233Z" fill="#5F5F5F"/>
<path d="M213.587 350.745C215.75 350.055 217.302 349.78 218.7 349.871C220.086 349.961 221.382 350.415 223.029 351.295C231.485 357.882 237.604 363.595 242.924 370.306C248.182 376.938 252.675 384.568 257.87 395.02C252.004 400.448 248.189 402.961 240.718 405.875C236.443 402.023 233.639 399.909 227.472 396.923L227.417 396.897L227.36 396.88L226.514 396.651C222.349 395.539 218.99 394.99 215.571 394.892C211.93 394.787 208.246 395.194 203.481 395.944L203.429 395.953L203.379 395.969L201.921 396.453C195.046 398.787 190.883 401.012 184.573 406.172L177.174 394.495L170.99 383.037C174.295 378.053 176.521 375.418 181.165 371.289L181.169 371.283C186.405 366.536 189.624 364.147 195.711 360.176L213.587 350.745Z" stroke="black" stroke-width="1.34051"/>
<path d="M46.9537 329.628L41.2313 327.168L39.7042 318.406L45.7347 305.228L51.665 303.35L65.6826 304.442L71.0568 307.2L77.5955 313.363L79.0438 321.47L76.3075 329.9L69.1751 331.359L46.9537 329.628Z" fill="#474747" stroke="black" stroke-width="0.129585"/>
<path d="M177.201 340.357L166.386 336.525L167.252 325.415L174.783 312.159L182.852 308.693L197.967 309.87L204.95 314.508L209.907 321.783L210.569 331.648L209.279 339.866L199.422 342.088L177.201 340.357Z" fill="#474747" stroke="black" stroke-width="0.129585"/>
<path d="M24.9062 292.296L24.4968 315.075L25.5406 320.031L32.8889 326.647L41.2219 327.296L42.0672 316.444L50.4166 305.201L69.5373 306.69L77.208 319.181L76.3627 330.033L167.897 337.162L168.742 326.31L178.303 311.197L201.622 313.014L209.09 324.773L209.045 340.367L220.936 330.375L220.675 312.873L210.368 308.366C182.841 296.303 166.674 290.07 136.068 280.223C92.5289 283.476 68.1877 286.066 24.9062 292.296Z" fill="#EFFB03" stroke="black" stroke-width="0.129585"/>
<path d="M122.043 285.052L121.019 298.195L127.215 298.751L127.469 284.637L122.043 285.052Z" fill="#B0B0B0"/>
<path d="M92.2301 287.337L90.4283 295.451L121.019 298.195L122.043 285.052L92.2301 287.337Z" fill="#434343"/>
<path d="M189.3 304.321L135.969 283.985L127.469 284.637L127.215 298.751L189.3 304.321Z" fill="#434343"/>
<path d="M122.043 285.052L92.2301 287.337L90.4283 295.451L121.019 298.195M122.043 285.052L121.019 298.195M122.043 285.052L127.469 284.637M121.019 298.195L127.215 298.751M127.469 284.637L135.969 283.985L189.3 304.321L127.215 298.751M127.469 284.637L127.215 298.751" stroke="black" stroke-width="0.129585"/>
<circle cx="189.488" cy="331.956" r="17.2349" transform="rotate(4.45362 189.488 331.956)" fill="#D9D9D9"/>
<circle cx="58.7526" cy="323.332" r="15.6798" transform="rotate(4.45362 58.7526 323.332)" fill="#D9D9D9"/>
<path d="M220.798 312.948L33.8545 298.387M33.8545 298.387L24.9055 292.296M33.8545 298.387L25.6095 319.971" stroke="black" stroke-width="0.129585"/>
<path d="M209.13 334.266L215.655 334.774L210.572 339.123L209.045 340.369L209.13 334.266Z" fill="#919191" stroke="black" stroke-width="0.129585"/>
<path d="M76.9001 323.967L168.37 331.091L167.902 337.098L76.4322 329.974L76.9001 323.967Z" fill="#919191" stroke="black" stroke-width="0.129585"/>
<path d="M175.682 282.872C175.645 282.877 175.609 282.864 175.585 282.836L172.418 279.316C172.409 279.306 172.402 279.294 172.397 279.282L170.111 273.45C170.104 273.432 170.102 273.412 170.105 273.392L170.915 268.362C170.917 268.352 170.92 268.342 170.924 268.333L173.412 262.944C173.416 262.936 173.42 262.928 173.426 262.921L176.51 259.061C176.514 259.055 176.519 259.05 176.525 259.046L180.649 255.549C180.662 255.538 180.677 255.53 180.693 255.526L186.056 254.132L191.54 252.776C191.554 252.773 191.568 252.772 191.583 252.774L196.046 253.441C196.055 253.443 196.063 253.445 196.071 253.448L199.598 254.859L203.141 256.822C203.151 256.828 203.16 256.835 203.168 256.844L206.229 260.151L209.703 264.851C209.71 264.86 209.715 264.871 209.719 264.882L211.592 270.508C211.595 270.517 211.597 270.527 211.598 270.537L211.821 274.221C211.821 274.226 211.821 274.231 211.821 274.237L211.505 277.922C211.501 277.973 211.461 278.015 211.41 278.022L175.682 282.872Z" fill="#1F1F1F" stroke="black" stroke-width="0.110545"/>
<path d="M297.492 265.442C297.449 265.449 297.406 265.429 297.383 265.393L294.96 261.626C294.951 261.612 294.946 261.597 294.944 261.581L294.087 255.268C294.085 255.257 294.085 255.246 294.087 255.236L294.899 250.192C294.901 250.182 294.904 250.172 294.908 250.163L297.396 244.773C297.4 244.765 297.404 244.758 297.41 244.751L300.494 240.891C300.498 240.885 300.503 240.88 300.509 240.875L304.633 237.379C304.646 237.368 304.661 237.36 304.677 237.356L310.04 235.962L315.524 234.606C315.538 234.602 315.552 234.602 315.567 234.604L320.03 235.271C320.038 235.272 320.047 235.275 320.055 235.278L323.582 236.689L327.125 238.652C327.135 238.657 327.144 238.665 327.152 238.673L330.213 241.98L333.687 246.681C333.694 246.69 333.699 246.7 333.703 246.711L335.576 252.338C335.579 252.347 335.581 252.357 335.582 252.366L335.805 256.05C335.805 256.056 335.805 256.061 335.805 256.067L335.489 259.752C335.485 259.804 335.446 259.845 335.395 259.852L297.492 265.442Z" fill="#1F1F1F" stroke="black" stroke-width="0.110545"/>
<path d="M149.514 280.344C149.483 280.38 149.478 280.433 149.504 280.473C149.748 280.849 150.984 282.706 152.127 283.614C154.818 285.751 157.284 285.244 160.704 285.573C166.355 286.117 174.88 283.843 176.109 283.504C176.184 283.483 176.21 283.396 176.163 283.334C175.778 282.819 174.32 280.85 173.481 279.432C172.848 278.363 172.357 277.809 171.984 276.624C171.641 275.532 171.648 274.863 171.59 273.721C171.492 271.796 171.537 270.668 172.038 268.807C172.546 266.922 173.159 265.958 174.157 264.28C175.039 262.797 175.59 261.982 176.738 260.695C177.758 259.55 178.37 258.92 179.61 258.018C181.007 257.001 181.911 256.582 183.51 255.927C184.607 255.477 185.248 255.284 186.393 254.977C188.978 254.284 190.524 253.764 193.184 254.055C195.163 254.272 196.238 254.728 198.068 255.512C200.116 256.39 201.274 256.981 202.98 258.415C204.346 259.563 204.978 260.371 206.06 261.79C207.29 263.404 207.977 264.354 208.78 266.218C209.509 267.909 209.712 268.952 210.063 270.75L210.069 270.784C210.613 273.571 210.518 277.883 210.494 278.684C210.492 278.753 210.552 278.806 210.62 278.797L298.589 266.855C298.659 266.846 298.702 266.775 298.678 266.708C298.474 266.139 297.647 263.8 297.256 262.183C296.593 259.435 296.14 257.833 296.282 255.008C296.405 252.581 296.657 251.171 297.575 248.92C298.456 246.763 299.275 245.675 300.737 243.861C302.142 242.121 303.03 241.186 304.822 239.849C306.728 238.427 307.929 237.729 310.174 236.947C312.946 235.981 314.696 235.702 317.622 235.936C320.77 236.186 322.596 236.809 325.32 238.405C327.099 239.446 328.028 240.2 329.448 241.693C330.879 243.197 331.619 244.156 332.545 246.014C333.416 247.761 333.629 248.871 334.083 250.769C334.66 253.184 335.377 254.625 334.938 257.068C334.676 258.529 333.622 260.447 333.224 261.135C333.172 261.224 333.257 261.331 333.354 261.298C334.532 260.898 339.044 259.318 340.387 258.169C341.936 256.843 345.426 243.931 344.459 242.556C343.578 241.305 341.531 240.305 341.169 240.135C341.135 240.119 341.111 240.086 341.106 240.049L340.907 238.58C340.896 238.501 340.971 238.437 341.048 238.456C341.739 238.631 342.152 238.547 342.792 238.181C342.831 238.159 342.852 238.115 342.846 238.071L341.939 231.393C341.932 231.338 341.886 231.297 341.831 231.296C341.555 231.288 340.746 231.253 340.224 231.082C337.484 230.188 338.792 224.31 339.074 223.168C339.095 223.084 339.013 223.01 338.93 223.035C330.659 225.531 325.785 225.642 317.16 225.958C317.16 225.958 291.724 224.119 275.396 223.595C271.636 223.475 269.529 223.339 265.767 223.341C254.605 223.346 237.323 225.641 237.081 225.673C237.074 225.674 237.075 225.675 237.068 225.677C221.701 231.082 213.542 235.715 199.369 245.23C199.357 245.238 199.343 245.243 199.33 245.246C180.064 249.376 170.406 254.219 153.639 263.824C153.63 263.829 153.622 263.836 153.614 263.844L148.075 269.597C148.035 269.639 148.035 269.706 148.074 269.749C150.494 272.401 151.888 273.429 154.284 274.54C154.351 274.571 154.37 274.658 154.322 274.713C152.673 276.63 151.548 277.95 149.514 280.344Z" fill="#EC1168"/>
<path d="M210.069 270.784C210.613 273.571 210.518 277.883 210.494 278.684C210.492 278.753 210.552 278.806 210.62 278.797L298.589 266.855C298.659 266.846 298.702 266.775 298.678 266.708C298.474 266.139 297.647 263.8 297.256 262.183C296.593 259.435 296.14 257.833 296.282 255.008C296.405 252.581 296.657 251.171 297.575 248.92C298.456 246.763 299.275 245.675 300.737 243.861C302.142 242.121 303.03 241.186 304.822 239.849C306.728 238.427 307.929 237.729 310.174 236.947C312.946 235.981 314.696 235.702 317.622 235.936C320.77 236.186 322.596 236.809 325.321 238.405C327.099 239.446 328.028 240.2 329.448 241.693C330.879 243.197 331.619 244.156 332.545 246.014C333.416 247.761 333.629 248.871 334.083 250.769C334.66 253.184 335.377 254.625 334.938 257.068C334.676 258.529 333.622 260.447 333.224 261.135C333.172 261.224 333.257 261.331 333.354 261.298C334.532 260.898 339.044 259.318 340.387 258.169C341.936 256.843 345.426 243.931 344.459 242.556C343.578 241.305 341.531 240.305 341.169 240.135C341.135 240.119 341.111 240.086 341.106 240.049L340.907 238.58C340.896 238.501 340.971 238.437 341.048 238.456C341.739 238.631 342.152 238.547 342.792 238.181C342.831 238.159 342.852 238.115 342.846 238.071L341.939 231.393C341.932 231.338 341.886 231.297 341.831 231.296C341.555 231.288 340.746 231.253 340.224 231.082C337.484 230.188 338.792 224.31 339.074 223.168C339.095 223.084 339.013 223.01 338.93 223.035C330.659 225.531 325.785 225.642 317.16 225.958C317.16 225.958 291.724 224.119 275.396 223.595C271.636 223.475 269.529 223.339 265.767 223.341C254.605 223.346 237.323 225.641 237.081 225.673C237.074 225.674 237.075 225.675 237.068 225.677C221.701 231.082 213.542 235.715 199.369 245.23C199.357 245.238 199.343 245.243 199.33 245.246C180.064 249.376 170.406 254.219 153.639 263.824C153.63 263.829 153.622 263.836 153.614 263.844L148.075 269.597C148.035 269.639 148.035 269.706 148.074 269.749C150.494 272.401 151.888 273.429 154.284 274.54C154.351 274.571 154.37 274.658 154.322 274.713C152.673 276.63 151.548 277.95 149.514 280.344C149.483 280.38 149.478 280.433 149.504 280.473C149.748 280.849 150.984 282.706 152.127 283.614C154.818 285.751 157.284 285.244 160.704 285.573C166.355 286.117 174.88 283.843 176.109 283.504C176.184 283.483 176.21 283.396 176.163 283.334C175.778 282.819 174.32 280.85 173.481 279.432C172.848 278.363 172.357 277.809 171.984 276.624C171.641 275.532 171.648 274.863 171.59 273.721C171.492 271.796 171.537 270.668 172.038 268.807C172.546 266.922 173.159 265.958 174.157 264.28C175.039 262.797 175.59 261.982 176.738 260.695C177.758 259.55 178.37 258.92 179.61 258.018C181.007 257.001 181.911 256.582 183.51 255.927C184.607 255.477 185.248 255.284 186.393 254.977C188.978 254.284 190.524 253.764 193.184 254.055C195.163 254.272 196.238 254.728 198.068 255.512C200.116 256.39 201.274 256.981 202.98 258.415C204.346 259.563 204.978 260.371 206.06 261.79C207.29 263.404 207.977 264.354 208.78 266.218C209.509 267.909 209.712 268.952 210.063 270.75M210.069 270.784L210.063 270.75M210.069 270.784C210.067 270.773 210.065 270.761 210.063 270.75" stroke="black" stroke-width="0.110545"/>
<circle cx="190.935" cy="271.988" r="14.813" transform="rotate(-7.73077 190.935 271.988)" fill="#686868"/>
<circle cx="314.385" cy="255.229" r="14.813" transform="rotate(-7.73077 314.385 255.229)" fill="#686868"/>
<path d="M151.609 282.849C151.499 282.847 151.454 282.991 151.542 283.057C152.542 283.796 153.049 284.414 154.479 284.964C154.484 284.966 154.49 284.968 154.495 284.969C156.653 285.445 159.122 285.583 161.385 285.649C167.32 285.489 170.426 285.168 176.111 283.506C176.183 283.485 176.215 283.398 176.172 283.336L174.501 280.949C174.476 280.913 174.438 280.894 174.396 280.902C173.604 281.05 165.743 282.496 160.549 282.779C157.61 282.939 152.942 282.873 151.609 282.849Z" fill="#777777"/>
<path d="M210.635 275.474C210.582 275.483 210.542 275.53 210.542 275.583L210.553 278.736C210.553 278.803 210.612 278.854 210.678 278.845L285.411 268.7C285.511 268.687 285.541 268.556 285.456 268.5C282.174 266.343 279.336 265.747 272.213 265.391C272.205 265.391 272.197 265.391 272.19 265.392C248.019 269.13 234.501 271.306 210.635 275.474Z" fill="#777777"/>
<path d="M273.007 240.91C272.929 240.994 273.012 241.127 273.12 241.092C283.783 237.587 294.198 232.657 294.068 231.297C293.939 229.945 289.036 229.383 284.054 229.136C283.956 229.131 283.901 229.247 283.969 229.318C284.495 229.874 284.941 230.206 285.802 230.619C285.886 230.659 285.886 230.78 285.802 230.821C279.89 233.749 277.286 236.332 273.007 240.91Z" fill="#505050"/>
<path d="M276.907 223.635C276.986 223.64 277.037 223.725 277.001 223.796L276.69 224.406C276.684 224.419 276.675 224.43 276.664 224.44C267.882 232.013 261.846 234.611 251.38 240.487C251.369 240.494 251.356 240.498 251.343 240.5L224.279 244.787L224.283 244.767C224.451 243.939 224.547 243.466 223.689 242.384C223.677 242.368 223.661 242.356 223.642 242.349C220.479 241.115 218.458 241.44 214.261 243.633C214.254 243.637 214.247 243.642 214.241 243.647C212.795 244.857 212.628 245.56 213.268 246.735C213.306 246.805 213.261 246.894 213.181 246.902L195.644 248.671C195.528 248.682 195.481 248.528 195.578 248.465C214.74 235.92 222.108 231.435 237.344 225.64C237.35 225.638 237.357 225.636 237.363 225.635C247.506 223.701 247.08 223.703 257.582 223.776C257.61 223.777 257.636 223.768 257.657 223.749C258.023 223.412 261.688 220.048 262.789 219.479C263.892 218.91 264.572 218.854 265.727 219.027C265.81 219.039 265.848 219.136 265.8 219.205C264.726 220.719 265.212 222.187 265.908 223.322C265.927 223.354 265.964 223.374 266.002 223.374C271.683 223.42 272.131 223.318 276.907 223.635Z" fill="#5F5F5F"/>
<path d="M224.279 244.787L251.343 240.5C251.356 240.498 251.369 240.494 251.38 240.487C261.846 234.611 267.882 232.013 276.664 224.44C276.675 224.43 276.684 224.419 276.69 224.406L277.001 223.796C277.037 223.725 276.986 223.64 276.907 223.635C272.131 223.318 271.683 223.42 266.002 223.374C265.964 223.374 265.927 223.354 265.908 223.322C265.212 222.187 264.726 220.719 265.8 219.205C265.848 219.136 265.81 219.039 265.727 219.027C264.572 218.854 263.892 218.91 262.789 219.479C261.688 220.048 258.023 223.412 257.657 223.749C257.636 223.768 257.61 223.777 257.582 223.776C247.08 223.703 247.506 223.701 237.363 225.635C237.357 225.636 237.35 225.638 237.344 225.64C222.108 231.435 214.74 235.92 195.578 248.465C195.481 248.528 195.528 248.682 195.644 248.671L213.181 246.902C213.261 246.894 213.306 246.805 213.268 246.735C212.628 245.56 212.795 244.857 214.241 243.647C214.247 243.642 214.254 243.637 214.261 243.633C218.458 241.44 220.479 241.115 223.642 242.349C223.661 242.356 223.677 242.368 223.689 242.384C224.547 243.466 224.451 243.939 224.283 244.767M224.279 244.787L224.283 244.767M224.279 244.787C224.28 244.781 224.282 244.774 224.283 244.767M161.385 285.649C159.122 285.583 156.653 285.445 154.495 284.969C154.49 284.968 154.484 284.966 154.479 284.964C153.049 284.414 152.542 283.796 151.542 283.057C151.454 282.991 151.499 282.847 151.609 282.849C152.942 282.873 157.61 282.939 160.549 282.779C165.743 282.496 173.604 281.05 174.396 280.902C174.438 280.894 174.476 280.913 174.501 280.949L176.172 283.336C176.215 283.398 176.183 283.485 176.111 283.506C170.426 285.168 167.32 285.489 161.385 285.649ZM294.068 231.297C294.198 232.657 283.783 237.587 273.12 241.092C273.012 241.127 272.929 240.994 273.007 240.91C277.286 236.332 279.89 233.749 285.802 230.821C285.886 230.78 285.886 230.659 285.802 230.619C284.941 230.206 284.495 229.874 283.969 229.318C283.901 229.247 283.956 229.131 284.054 229.136C289.036 229.383 293.939 229.945 294.068 231.297ZM272.213 265.391C279.336 265.747 282.174 266.343 285.456 268.5C285.541 268.556 285.511 268.687 285.411 268.7L210.678 278.845C210.612 278.854 210.553 278.803 210.553 278.736L210.542 275.583C210.542 275.53 210.582 275.483 210.635 275.474C234.501 271.306 248.019 269.13 272.19 265.392C272.197 265.391 272.205 265.391 272.213 265.391Z" stroke="black" stroke-width="0.110545"/>
<path d="M264.229 233.367C264.229 233.367 270.526 242.775 271.469 244.376C272.348 245.871 268.328 257.462 267.79 258.996C267.762 259.074 267.828 259.15 267.91 259.139L296.156 255.304" stroke="black" stroke-width="0.110545"/>
<path d="M210.458 247.249C210.458 247.249 207.091 254.901 208.224 258.317C209.356 261.734 212.234 266.084 212.576 268.604C212.918 271.123 213.446 275.012 213.446 275.012" stroke="black" stroke-width="0.110545"/>
<path d="M293.905 231.737C293.905 231.737 302.485 228.941 308.766 227.802C319.424 225.871 340.232 231.138 340.232 231.138" stroke="black" stroke-width="0.110545"/>
<rect x="34.9019" y="85.4779" width="300.2" height="84.8956" rx="5.25551" transform="rotate(10.4232 34.9019 85.4779)" stroke="white" stroke-width="0.702728"/>
<g filter="url(#filter8_d_616_9489)">
<path d="M150.841 147.759C150.841 147.759 151.213 145.812 151.526 143.875C151.796 141.967 152.022 140.059 152.022 140.059C152.022 140.059 153.151 139.504 154.275 138.971C155.413 138.447 156.555 137.938 156.555 137.938C157.007 135.756 157.441 134.634 158.788 132.851C158.788 132.851 158.128 131.696 157.44 130.572C156.707 129.499 155.939 128.412 155.939 128.412C155.939 128.412 156.628 127.256 157.296 126.096C157.926 124.943 158.535 123.824 158.535 123.824C158.535 123.824 159.676 124.319 160.794 124.855C161.89 125.394 162.966 125.958 162.966 125.958C163.807 124.141 164.479 123.473 166.022 122.979C166.022 122.979 166.045 121.576 166.038 120.182C166.017 118.778 165.969 117.405 165.969 117.405C165.969 117.405 167.179 117.247 168.376 117.115C169.564 116.996 170.748 116.892 170.748 116.892C170.748 116.892 171.246 118.215 171.733 119.551C172.175 120.893 172.623 122.244 172.623 122.244C174.185 122.201 174.927 122.55 176.002 123.562C176.002 123.562 176.57 122.669 177.145 121.771C177.717 120.893 178.261 120.011 178.261 120.011C178.261 120.011 179.289 121.08 180.281 122.179C181.242 123.294 182.17 124.425 182.17 124.425C182.17 124.425 181.793 125.719 181.392 127.024C180.971 128.354 180.525 129.665 180.525 129.665C181.284 131.197 181.528 132.261 181.644 134.541C181.644 134.541 182.486 134.901 183.328 135.268C184.169 135.636 185.01 136.01 185.01 136.01C185.01 136.01 184.955 137.782 184.886 139.55C184.777 141.341 184.641 143.156 184.641 143.156C184.641 143.156 183.713 143.535 182.786 143.915C181.851 144.292 180.893 144.681 180.893 144.681C180.658 145.957 180.433 146.942 180.105 147.805C179.782 148.684 179.363 149.45 178.74 150.406C178.74 150.406 178.996 151.765 179.242 153.138C179.477 154.53 179.692 155.911 179.692 155.911C179.692 155.911 178.644 157.265 177.552 158.618C176.43 159.974 175.282 161.353 175.282 161.353C175.282 161.353 174.644 160.437 173.985 159.553C173.32 158.668 172.643 157.803 172.643 157.803C171.134 159.19 170.277 159.787 168.712 160.284C168.712 160.284 167.995 161.948 167.225 163.625C166.442 165.291 165.628 166.967 165.628 166.967C165.628 166.967 164.439 167.012 163.227 167.105C161.988 167.185 160.741 167.27 160.741 167.27C160.741 167.27 161.096 165.657 161.422 164.045C161.7 162.454 161.969 160.832 161.969 160.832C160.463 160.687 159.793 160.307 158.968 158.975C158.968 158.975 157.745 159.96 156.493 160.91C155.232 161.866 153.932 162.836 153.932 162.836C153.932 162.836 153.348 161.666 152.756 160.501C152.144 159.362 151.506 158.248 151.506 158.248C151.506 158.248 152.59 156.783 153.647 155.299C154.644 153.825 155.614 152.339 155.614 152.339C154.98 150.801 154.881 149.749 155.105 147.532C155.105 147.532 154.055 147.581 152.992 147.62C151.925 147.68 150.841 147.759 150.841 147.759Z" fill="#E6E6E6" stroke="#E6E6E6" stroke-width="2.88406"/>
<path d="M44.9002 105.638C45.0649 105.642 45.382 105.761 45.8866 106.105L45.8928 106.11L45.8948 106.11C45.8958 106.111 45.8979 106.113 45.9 106.114C45.9042 106.117 45.9108 106.12 45.9187 106.125C45.9352 106.136 45.9595 106.152 45.9915 106.172C46.0559 106.214 46.1512 106.276 46.2755 106.356C46.5246 106.516 46.8904 106.749 47.3557 107.042C48.2863 107.628 49.6178 108.455 51.221 109.418L51.2265 109.421C52.8215 110.339 54.7214 111.387 56.711 112.458L56.7193 112.461C58.7603 113.497 60.9089 114.553 63.0671 115.56L63.0717 115.562C65.2278 116.531 67.3562 117.452 69.3694 118.285L69.375 118.287C71.3869 119.083 73.2612 119.795 74.8858 120.387L74.8904 120.389C76.4939 120.945 77.8373 121.401 78.7796 121.718C79.2506 121.877 79.6215 122.001 79.8748 122.086C80.0014 122.128 80.0993 122.16 80.1649 122.182C80.1975 122.192 80.2222 122.201 80.2389 122.206C80.2471 122.209 80.2533 122.211 80.2575 122.213C80.2594 122.213 80.2613 122.213 80.2623 122.214L80.2641 122.215L80.2698 122.216C81.2046 122.507 82.0244 122.952 82.7111 123.568L82.7161 123.572L82.7223 123.577L82.7231 123.578L82.7318 123.584C82.7382 123.589 82.7477 123.598 82.7602 123.608C82.7852 123.629 82.8222 123.66 82.8704 123.7C82.9672 123.781 83.1096 123.899 83.2896 124.05C83.6497 124.353 84.1617 124.788 84.771 125.314L84.7787 125.32C86.0084 126.323 87.6118 127.632 89.2205 128.876L89.2206 128.875C90.7958 130.102 92.349 131.301 93.493 132.191L93.4955 132.193C94.068 132.628 94.5462 132.991 94.8808 133.245C95.0479 133.372 95.1797 133.472 95.2694 133.54C95.314 133.574 95.3482 133.6 95.3713 133.618L95.4062 133.644L95.4072 133.644L95.4132 133.649C96.0676 134.123 96.2787 134.542 96.2509 134.903L96.2502 134.912L96.25 134.913C96.25 134.914 96.2504 134.915 96.2503 134.917C96.2501 134.921 96.2498 134.926 96.2494 134.933C96.2486 134.947 96.2474 134.968 96.2459 134.995C96.243 135.049 96.2391 135.13 96.2334 135.236C96.222 135.447 96.2053 135.758 96.1838 136.153L96.1833 136.156C96.1479 136.939 96.0793 138.058 95.9551 139.405L95.956 139.405C95.881 139.902 95.8011 140.426 95.6951 140.974L95.5796 141.532C95.3975 142.287 95.1533 143.07 94.876 143.867L94.8758 143.868C94.5979 144.677 94.254 145.493 93.8888 146.33C93.4842 147.181 93.0643 148.035 92.6164 148.891C92.1571 149.734 91.6463 150.582 91.1376 151.435C90.611 152.273 90.0715 153.1 89.5228 153.903C88.9759 154.703 88.4053 155.472 87.8531 156.205L87.8529 156.206C87.3015 156.944 86.7689 157.619 86.2712 158.274C85.2131 159.545 84.2963 160.603 83.6449 161.355C83.3098 161.725 83.0467 162.014 82.8673 162.209C82.7776 162.307 82.7088 162.381 82.6625 162.432C82.6394 162.457 82.622 162.476 82.6103 162.488C82.6046 162.495 82.5998 162.499 82.5969 162.502C82.5955 162.503 82.5941 162.504 82.5934 162.505L82.593 162.507L82.5871 162.512C82.2201 162.924 81.6072 163.076 80.611 162.81L80.6091 162.809C80.6071 162.809 80.6037 162.808 80.5997 162.807C80.5916 162.804 80.5796 162.8 80.5639 162.796C80.532 162.787 80.4847 162.774 80.4231 162.757C80.2991 162.723 80.1167 162.672 79.8848 162.607C79.4207 162.476 78.7567 162.285 77.9585 162.051L77.9575 162.051C76.3532 161.58 74.2166 160.931 72.0462 160.26L72.0452 160.26C69.866 159.551 67.6771 158.848 66.0374 158.298C65.2117 158.014 64.5236 157.776 64.0421 157.609C63.8013 157.526 63.6121 157.46 63.4831 157.415C63.4186 157.392 63.369 157.375 63.3358 157.363C63.3194 157.357 63.3068 157.353 63.2984 157.35C63.2945 157.349 63.2913 157.347 63.2891 157.347L63.2901 157.347C62.7485 157.15 62.494 156.966 62.4087 156.843C62.3769 156.797 62.381 156.778 62.3823 156.771C62.3858 156.752 62.4049 156.699 62.4917 156.613L62.4979 156.606L62.4991 156.605C62.4998 156.605 62.5004 156.603 62.5017 156.602C62.5044 156.599 62.5086 156.595 62.5139 156.589C62.5247 156.578 62.5409 156.561 62.5618 156.54C62.6036 156.496 62.6654 156.431 62.7454 156.346C62.9056 156.176 63.1393 155.926 63.4333 155.608C64.0213 154.97 64.851 154.054 65.82 152.943L65.8238 152.938C66.7664 151.822 67.8024 150.511 68.8706 149.098L68.8716 149.098L68.8796 149.087C69.3757 148.375 69.8864 147.621 70.3903 146.893L70.3946 146.886L70.3987 146.88C70.8765 146.122 71.3502 145.348 71.8001 144.584L71.8061 144.573C72.228 143.798 72.6389 143.011 73.0412 142.252L73.046 142.242L73.051 142.231C73.3972 141.462 73.7448 140.698 74.0529 139.948L74.0551 139.942C74.6419 138.439 75.1018 137.024 75.4546 135.788L75.4604 135.768C75.7389 134.513 75.9485 133.461 76.089 132.723C76.1593 132.353 76.2118 132.062 76.2472 131.863C76.2648 131.764 76.2782 131.687 76.2871 131.635C76.2915 131.609 76.2956 131.59 76.2979 131.577C76.299 131.57 76.2992 131.564 76.2998 131.561L76.3008 131.555L76.3018 131.555L76.3031 131.543L76.3157 131.415C76.3584 130.777 76.0864 130.214 75.5667 129.738C75.0257 129.243 74.2044 128.829 73.1416 128.477L73.1219 128.47C73.1046 128.464 73.0789 128.455 73.0455 128.443C72.9784 128.42 72.8796 128.385 72.7545 128.341C72.5043 128.253 72.1474 128.127 71.7196 127.975L68.5923 126.85C67.4623 126.419 66.3296 125.973 65.4786 125.634C65.0526 125.465 64.6969 125.322 64.4482 125.222C64.324 125.172 64.2262 125.134 64.1597 125.107C64.1265 125.093 64.1011 125.083 64.0839 125.076C64.0754 125.073 64.069 125.069 64.0646 125.067C64.0627 125.067 64.0611 125.066 64.06 125.066L64.0581 125.065L63.635 124.893L63.5658 125.345L63.5649 125.35C63.5643 125.353 63.5639 125.359 63.5628 125.366C63.5607 125.38 63.5576 125.401 63.5533 125.429C63.5446 125.485 63.5309 125.568 63.5136 125.677L63.3607 126.622C63.2006 127.411 62.9364 128.53 62.5991 129.85C62.427 130.509 62.222 131.227 61.9842 131.967C61.7474 132.704 61.4626 133.465 61.1558 134.257L61.1541 134.261C60.8561 135.058 60.5011 135.85 60.143 136.675C59.7567 137.474 59.3371 138.273 58.9206 139.1C58.4686 139.896 57.9967 140.683 57.5113 141.46L57.51 141.462C57.0371 142.227 56.5235 142.972 56.0134 143.687C55.4806 144.405 54.969 145.09 54.4695 145.748C53.953 146.381 53.4412 146.971 52.9683 147.534C51.9993 148.628 51.1646 149.522 50.5542 150.127L50.5311 150.149L50.5135 150.175C50.2277 150.579 50.0174 150.929 49.878 151.179C49.8084 151.304 49.7566 151.404 49.7215 151.474C49.704 151.509 49.6898 151.536 49.6806 151.556C49.6772 151.563 49.6746 151.569 49.6723 151.574C49.5251 151.866 49.3285 152.061 49.079 152.176C48.824 152.293 48.482 152.341 48.0255 152.284L48.0195 152.284L48.008 152.282C48.0006 152.281 47.9893 152.28 47.9748 152.278C47.9454 152.275 47.9015 152.27 47.8445 152.263C47.7302 152.25 47.5622 152.231 47.3477 152.206C46.9184 152.155 46.3026 152.08 45.5595 151.984C44.8087 151.886 43.9315 151.769 42.9898 151.638L40.0329 151.217C37.9966 150.901 35.978 150.573 34.4617 150.309L34.4588 150.308C33.698 150.183 33.0637 150.077 32.6195 150.003C32.3973 149.966 32.2222 149.936 32.1032 149.916C32.0439 149.906 31.9981 149.898 31.9675 149.893C31.9522 149.89 31.9405 149.889 31.9327 149.887L31.9106 149.883C31.4419 149.818 31.3068 149.697 31.2574 149.618C31.1977 149.523 31.1768 149.364 31.2068 149.035C31.2149 149.016 31.2255 148.992 31.2377 148.964C31.2736 148.881 31.327 148.757 31.3971 148.594C31.5374 148.269 31.7446 147.79 32.0114 147.176C32.5524 145.953 33.2872 144.232 34.1692 142.145C34.6158 141.116 35.0819 139.983 35.5544 138.809L35.5575 138.803C36.0121 137.605 36.4971 136.361 36.9993 135.067L37.0015 135.061C37.4729 133.775 37.9454 132.445 38.4275 131.098L38.4295 131.093C38.8908 129.741 39.3563 128.364 39.7944 126.982L39.7956 126.981C40.2222 125.62 40.6384 124.235 41.0324 122.891L41.0331 122.887C41.4117 121.548 41.7727 120.224 42.0934 118.921C42.4094 117.642 42.7071 116.381 42.9683 115.201C43.2244 114.166 43.4658 113.177 43.6711 112.26L43.6727 112.252C44.0473 110.375 44.3349 108.772 44.508 107.63L44.5083 107.628C44.5907 107.061 44.657 106.61 44.7029 106.301C44.7258 106.146 44.744 106.028 44.756 105.947C44.762 105.907 44.7668 105.876 44.7699 105.855C44.7714 105.845 44.7724 105.837 44.7732 105.832L44.7753 105.821L44.7906 105.743C44.8072 105.68 44.8261 105.656 44.8315 105.65C44.8338 105.648 44.836 105.646 44.8415 105.644C44.8484 105.642 44.8663 105.637 44.9002 105.638Z" fill="#E6E6E6" stroke="#E6E6E6" stroke-width="0.721016"/>
<path d="M136.038 126.179C136.548 126.06 137.019 126.122 137.487 126.395L137.493 126.399L137.495 126.4C137.496 126.4 137.497 126.401 137.499 126.402C137.504 126.405 137.511 126.409 137.52 126.414C137.538 126.424 137.566 126.44 137.601 126.46C137.671 126.499 137.775 126.557 137.905 126.63C138.166 126.777 138.538 126.987 138.979 127.237L138.979 127.236C139.849 127.744 140.975 128.376 142.084 129.034L142.084 129.035C143.176 129.697 144.239 130.36 145.031 130.864C145.423 131.119 145.746 131.329 145.972 131.475C146.085 131.548 146.174 131.606 146.234 131.644C146.264 131.664 146.288 131.679 146.303 131.689L146.325 131.703L146.326 131.703L146.326 131.704L146.334 131.709C146.689 131.923 146.896 132.266 146.924 132.777L146.924 132.784L146.925 132.785L146.924 132.787C146.924 132.789 146.925 132.792 146.925 132.795C146.925 132.803 146.926 132.815 146.927 132.83C146.93 132.86 146.933 132.904 146.937 132.962C146.945 133.079 146.957 133.251 146.971 133.471L147.081 135.306C147.109 136.066 147.13 136.973 147.117 137.945L147.117 137.946C147.075 138.926 147 140.002 146.904 141.082L146.904 141.083C146.807 141.903 146.7 142.725 146.581 143.515L146.459 144.292C146.283 145.33 146.097 146.302 145.934 147.15C145.737 147.981 145.573 148.678 145.457 149.168C145.403 149.398 145.359 149.581 145.328 149.712L145.327 149.713C145.175 149.741 144.951 149.782 144.665 149.834C144.095 149.938 143.277 150.086 142.292 150.264C141.288 150.444 140.105 150.636 138.818 150.831L138.816 150.831C137.524 151.031 136.116 151.218 134.674 151.385L134.671 151.385C133.221 151.564 131.731 151.721 130.342 151.845C129.633 151.901 128.937 151.954 128.272 152.002L126.39 152.128C125.194 152.178 124.188 152.213 123.481 152.237C123.127 152.249 122.848 152.258 122.658 152.263C122.562 152.266 122.489 152.268 122.44 152.27L122.37 152.272C122.368 152.272 122.367 152.272 122.366 152.272L122.365 152.272L122.149 152.278L122.052 152.471L122.052 152.472C122.052 152.472 122.051 152.473 122.051 152.474C122.05 152.477 122.048 152.481 122.046 152.485C122.041 152.495 122.033 152.509 122.024 152.527C122.006 152.564 121.978 152.619 121.943 152.688C121.873 152.826 121.772 153.025 121.651 153.263C121.407 153.739 121.077 154.374 120.737 155.013C120.377 155.639 120.014 156.272 119.739 156.748C119.602 156.987 119.486 157.188 119.405 157.328C119.365 157.398 119.333 157.453 119.311 157.49C119.3 157.509 119.292 157.524 119.286 157.533L119.279 157.547L119.278 157.548L119.047 157.946L119.49 158.074L119.49 158.075C119.491 158.075 119.493 158.076 119.494 158.076C119.497 158.077 119.502 158.078 119.507 158.079C119.519 158.083 119.536 158.088 119.558 158.095C119.603 158.108 119.668 158.126 119.751 158.15C119.917 158.198 120.154 158.268 120.439 158.351C121.007 158.517 121.764 158.738 122.514 158.96L122.515 158.961C123.254 159.178 123.994 159.388 124.548 159.543C124.826 159.621 125.058 159.684 125.22 159.729C125.301 159.751 125.365 159.769 125.408 159.78C125.43 159.786 125.447 159.792 125.458 159.795C125.464 159.796 125.468 159.797 125.471 159.798L125.476 159.799L125.515 159.81L125.556 159.812L125.558 159.812C125.56 159.812 125.562 159.812 125.564 159.812C125.57 159.812 125.578 159.812 125.589 159.813C125.611 159.814 125.644 159.815 125.686 159.817C125.77 159.82 125.894 159.825 126.051 159.83C126.365 159.841 126.816 159.856 127.36 159.871L127.367 159.872C128.457 159.882 129.872 159.892 131.281 159.895L131.283 159.895C132.656 159.884 134.025 159.871 135.045 159.845L135.044 159.844C135.544 159.837 135.96 159.83 136.25 159.824C136.396 159.821 136.51 159.818 136.588 159.816C136.627 159.816 136.657 159.814 136.677 159.814L136.677 159.813C136.719 159.817 136.744 159.825 136.758 159.83C136.759 159.845 136.761 159.874 136.752 159.92C136.739 159.991 136.707 160.087 136.651 160.211L136.651 160.212C136.65 160.213 136.65 160.215 136.649 160.217C136.647 160.221 136.644 160.227 136.641 160.234C136.634 160.249 136.624 160.271 136.611 160.3C136.583 160.358 136.543 160.444 136.492 160.553C136.39 160.772 136.244 161.084 136.067 161.458C135.713 162.205 135.237 163.199 134.744 164.195C134.214 165.187 133.669 166.183 133.256 166.931C133.05 167.304 132.876 167.617 132.754 167.835C132.693 167.944 132.645 168.03 132.612 168.088C132.596 168.117 132.583 168.14 132.575 168.155C132.571 168.162 132.568 168.168 132.566 168.172L132.565 168.174C132.213 168.784 131.725 169.074 131.115 169.094C131.114 169.094 131.113 169.094 131.111 169.094C131.106 169.094 131.098 169.094 131.088 169.095C131.069 169.095 131.041 169.096 131.004 169.097C130.929 169.099 130.82 169.102 130.68 169.105C130.402 169.112 130.003 169.122 129.524 169.132C128.565 169.154 127.282 169.179 125.984 169.196C124.661 169.198 123.318 169.193 122.305 169.187C121.799 169.184 121.375 169.181 121.078 169.179C120.93 169.177 120.813 169.176 120.733 169.176C120.693 169.175 120.662 169.175 120.642 169.175L120.612 169.174L120.611 169.174C120.32 169.158 120.021 169.104 119.689 169.029L119.688 169.029C119.397 168.955 119.082 168.867 118.789 168.798L118.784 168.797C118.78 168.796 118.775 168.795 118.768 168.793C118.753 168.789 118.732 168.784 118.703 168.776C118.647 168.762 118.564 168.74 118.458 168.712C118.247 168.657 117.944 168.578 117.58 168.483C116.851 168.293 115.873 168.039 114.88 167.779L114.881 167.779C113.877 167.511 112.865 167.231 112.104 167.018C111.724 166.912 111.406 166.823 111.183 166.761C111.072 166.729 110.984 166.704 110.925 166.687C110.895 166.679 110.872 166.672 110.857 166.668C110.851 166.666 110.847 166.664 110.844 166.663C110.841 166.662 110.837 166.662 110.834 166.661C110.817 166.654 110.792 166.644 110.759 166.632C110.693 166.607 110.595 166.57 110.471 166.523C110.223 166.429 109.868 166.294 109.442 166.127C108.59 165.795 107.455 165.34 106.321 164.85L106.322 164.85C105.168 164.334 103.997 163.804 103.116 163.403C102.675 163.202 102.307 163.034 102.048 162.916C101.919 162.856 101.817 162.81 101.748 162.778C101.714 162.762 101.687 162.75 101.669 162.742C101.66 162.737 101.653 162.735 101.648 162.733C101.646 162.732 101.645 162.73 101.644 162.73L101.642 162.73L101.639 162.728C101.248 162.552 101.116 162.341 101.099 162.117C101.079 161.853 101.208 161.457 101.607 160.914L101.612 160.908L101.612 160.907L101.624 160.891C101.632 160.88 101.643 160.862 101.659 160.84C101.69 160.795 101.736 160.729 101.796 160.642C101.916 160.469 102.092 160.216 102.313 159.893C102.754 159.247 103.377 158.321 104.107 157.207L104.108 157.207L104.113 157.198C104.793 156.091 105.585 154.793 106.365 153.397L106.368 153.391C107.11 151.997 107.863 150.508 108.546 149.004L108.548 148.997C109.191 147.503 109.778 146.001 110.244 144.593L110.246 144.585L110.249 144.577C110.644 143.156 110.879 141.833 111.04 140.717L111.042 140.706L111.043 140.697C111.141 139.582 111.204 138.656 111.244 138.008C111.263 137.684 111.277 137.429 111.286 137.255C111.29 137.168 111.293 137.101 111.295 137.056L111.297 136.992L111.298 136.987L111.298 136.983L111.311 136.835C111.366 136.495 111.585 136.199 112.053 135.946L112.055 135.945L112.057 135.944C112.059 135.944 112.061 135.942 112.064 135.941C112.069 135.938 112.077 135.933 112.088 135.927C112.11 135.915 112.141 135.898 112.182 135.875C112.264 135.829 112.384 135.762 112.535 135.676C112.838 135.504 113.267 135.256 113.772 134.955L113.78 134.95C114.772 134.322 116.04 133.48 117.255 132.605L117.269 132.594C118.419 131.676 119.494 130.736 120.249 130.015L120.256 130.008L120.263 130.002C120.621 129.621 120.911 129.298 121.112 129.072C121.212 128.958 121.291 128.869 121.344 128.808C121.371 128.777 121.391 128.752 121.405 128.736C121.412 128.729 121.417 128.722 121.42 128.718L121.421 128.716C121.754 128.345 122.198 128.134 122.818 128.085C122.819 128.085 122.822 128.084 122.825 128.084C122.832 128.084 122.842 128.082 122.855 128.082C122.882 128.08 122.921 128.078 122.973 128.074C123.075 128.068 123.226 128.057 123.418 128.043L125.017 127.915L125.021 127.915C125.987 127.822 127.183 127.689 128.419 127.537L129.662 127.38L129.67 127.378C131.305 127.127 132.895 126.839 134.077 126.608L134.086 126.607C134.677 126.477 135.164 126.371 135.503 126.296C135.672 126.259 135.805 126.23 135.895 126.211C135.94 126.201 135.975 126.193 135.998 126.188C136.01 126.185 136.019 126.183 136.024 126.182C136.027 126.181 136.03 126.181 136.032 126.181L136.033 126.18L136.034 126.181L136.038 126.179ZM135.493 135.679C134.558 134.811 133.346 134.558 131.936 134.802L131.104 134.942C129.676 135.138 128.492 135.773 127.597 136.843C126.726 137.828 126.217 139.051 126.043 140.506L126.013 140.799L125.924 141.506L125.924 141.507C125.673 143.118 125.832 144.434 126.543 145.416L126.542 145.417L126.549 145.425C127.305 146.409 128.501 146.794 130.053 146.625L130.053 146.626L130.889 146.545L130.893 146.545C132.42 146.381 133.727 145.707 134.817 144.565L134.82 144.562C135.901 143.404 136.526 141.96 136.736 140.276L136.738 140.256L136.793 139.482L136.794 139.474L136.803 139.17C136.82 137.669 136.396 136.487 135.494 135.679L135.493 135.679Z" fill="#E6E6E6" stroke="#E6E6E6" stroke-width="0.721016"/>
<path d="M286.404 148.282L286.411 148.284C286.414 148.284 286.42 148.286 286.427 148.288C286.441 148.291 286.463 148.295 286.492 148.301C286.549 148.312 286.632 148.33 286.739 148.352C286.951 148.396 287.257 148.459 287.622 148.534C288.354 148.685 289.332 148.886 290.316 149.09L290.316 149.091C291.321 149.301 292.336 149.519 293.1 149.684C293.481 149.767 293.8 149.836 294.024 149.885C294.136 149.909 294.224 149.928 294.283 149.941C294.313 149.948 294.337 149.953 294.352 149.956C294.36 149.958 294.366 149.959 294.369 149.96L294.377 149.962C294.973 150.091 295.39 150.386 295.657 150.841L295.659 150.844L295.66 150.844C295.66 150.845 295.661 150.846 295.662 150.847C295.664 150.85 295.666 150.855 295.669 150.861C295.676 150.872 295.686 150.888 295.698 150.909C295.724 150.951 295.762 151.014 295.81 151.093C295.906 151.252 296.043 151.479 296.21 151.75C296.542 152.294 296.99 153.018 297.449 153.739L297.454 153.745C297.941 154.473 298.434 155.206 298.807 155.757C298.993 156.033 299.15 156.262 299.259 156.423C299.314 156.504 299.356 156.567 299.386 156.61C299.4 156.632 299.412 156.649 299.419 156.66C299.423 156.666 299.427 156.67 299.429 156.673C299.43 156.674 299.43 156.675 299.43 156.676L299.431 156.677L299.598 156.923L299.871 156.806L299.872 156.805C299.873 156.805 299.875 156.804 299.877 156.803C299.88 156.801 299.886 156.799 299.894 156.796C299.909 156.79 299.931 156.78 299.961 156.768C300.019 156.743 300.106 156.706 300.216 156.659C300.436 156.565 300.752 156.431 301.132 156.269C301.891 155.946 302.909 155.514 303.941 155.077L303.941 155.076C304.998 154.66 306.063 154.239 306.864 153.921C307.265 153.761 307.601 153.628 307.836 153.535C307.953 153.488 308.045 153.451 308.108 153.426C308.139 153.413 308.163 153.404 308.18 153.397C308.188 153.394 308.195 153.392 308.199 153.39C308.201 153.389 308.202 153.389 308.203 153.389L308.204 153.388L308.206 153.387C308.691 153.192 309.253 153.148 309.892 153.299L309.898 153.3L316.725 154.769C317.252 154.887 317.524 155.036 317.645 155.172C317.731 155.27 317.774 155.401 317.676 155.665L317.675 155.669L317.666 155.692C317.66 155.709 317.651 155.735 317.639 155.768C317.615 155.833 317.581 155.929 317.537 156.05C317.449 156.293 317.323 156.641 317.174 157.059C316.877 157.894 316.485 159.01 316.106 160.131L316.105 160.131L316.102 160.142C315.763 161.265 315.448 162.393 315.219 163.24C315.105 163.663 315.011 164.017 314.946 164.265C314.914 164.388 314.889 164.486 314.871 164.553C314.863 164.586 314.856 164.611 314.851 164.629C314.849 164.637 314.848 164.644 314.847 164.649C314.846 164.651 314.845 164.652 314.845 164.653L314.843 164.663C314.793 164.88 314.744 165.052 314.695 165.183C314.649 165.305 314.61 165.371 314.585 165.404C314.572 165.413 314.532 165.44 314.437 165.474C314.323 165.514 314.166 165.555 313.954 165.598L313.945 165.6L313.945 165.601C313.944 165.601 313.943 165.601 313.942 165.601C313.94 165.602 313.936 165.602 313.932 165.603C313.924 165.605 313.91 165.608 313.893 165.612C313.859 165.62 313.808 165.632 313.743 165.647C313.611 165.678 313.417 165.723 313.172 165.78C312.683 165.895 311.989 166.059 311.168 166.257L311.167 166.256C309.511 166.658 307.415 167.228 305.389 167.794L305.387 167.795C304.403 168.076 303.429 168.367 302.526 168.641L300.091 169.381L300.079 169.385C299.403 169.613 298.841 169.802 298.447 169.935C298.25 170.001 298.095 170.053 297.99 170.089C297.937 170.107 297.897 170.121 297.87 170.13C297.856 170.135 297.846 170.138 297.839 170.141L297.829 170.144L297.569 170.232L297.583 170.506L297.584 170.507C297.584 170.508 297.584 170.509 297.585 170.51C297.585 170.513 297.584 170.518 297.585 170.525C297.585 170.538 297.587 170.558 297.588 170.583C297.591 170.634 297.596 170.711 297.602 170.81C297.614 171.008 297.631 171.299 297.655 171.669C297.704 172.408 297.778 173.462 297.88 174.725L297.879 174.726L297.881 174.737C298.026 176.027 298.208 177.515 298.433 179.129L298.432 179.131C298.669 180.761 298.946 182.487 299.24 184.243L299.241 184.248C299.399 185.121 299.561 185.996 299.723 186.862L300.204 189.42C300.521 191.085 300.852 192.649 301.122 193.998L301.123 194.003C301.41 195.349 301.65 196.481 301.817 197.277C301.9 197.675 301.965 197.989 302.01 198.203C302.032 198.31 302.049 198.392 302.061 198.448C302.067 198.475 302.071 198.496 302.073 198.51C302.075 198.517 302.077 198.523 302.077 198.526C302.078 198.528 302.077 198.529 302.078 198.53L302.078 198.531L302.078 198.532C302.154 198.888 302.065 198.949 302.061 198.952C302.043 198.965 301.992 198.989 301.872 198.992C301.754 198.995 301.59 198.974 301.377 198.918L301.372 198.917C301.37 198.916 301.367 198.915 301.364 198.914C301.356 198.912 301.345 198.91 301.331 198.906C301.303 198.899 301.261 198.888 301.206 198.874C301.096 198.846 300.935 198.805 300.731 198.752C300.322 198.647 299.739 198.496 299.041 198.312C297.662 197.949 295.869 197.465 294.067 196.994L294.068 196.994C292.312 196.503 290.601 195.955 289.319 195.529L289.314 195.527C288.678 195.326 288.151 195.157 287.783 195.037C287.6 194.977 287.456 194.929 287.358 194.897C287.309 194.881 287.271 194.869 287.246 194.861C287.233 194.857 287.224 194.853 287.218 194.851C287.215 194.849 287.212 194.849 287.21 194.848L287.206 194.847C286.491 194.615 286.092 194.165 285.943 193.513C285.943 193.512 285.943 193.511 285.942 193.51C285.941 193.504 285.94 193.495 285.937 193.483C285.932 193.46 285.924 193.425 285.915 193.38C285.895 193.288 285.866 193.153 285.829 192.976C285.754 192.624 285.643 192.107 285.504 191.451L285.504 191.447L285.269 190.363C285.019 189.181 284.723 187.716 284.378 186.055C284.174 184.951 283.929 183.774 283.717 182.543L283.716 182.537L283.541 181.591C283.485 181.272 283.429 180.95 283.373 180.625L283.043 178.639C282.836 177.299 282.635 175.923 282.438 174.525C282.288 173.13 282.153 171.73 282.024 170.33C281.951 168.946 281.902 167.544 281.89 166.18L281.891 166.18C281.908 164.817 281.947 163.487 282.009 162.197C282.076 161.238 282.161 160.303 282.257 159.406L282.359 158.52C282.514 157.362 282.696 156.287 282.895 155.281C283.424 153.315 283.971 151.689 284.403 150.56C284.628 149.995 284.809 149.552 284.935 149.25C284.998 149.1 285.047 148.984 285.08 148.907C285.096 148.868 285.109 148.839 285.117 148.819C285.121 148.81 285.124 148.803 285.126 148.798C285.127 148.796 285.128 148.794 285.128 148.793L285.13 148.791L285.13 148.788C285.244 148.52 285.394 148.376 285.57 148.302C285.757 148.223 286.024 148.203 286.404 148.282Z" fill="#E6E6E6" stroke="#E6E6E6" stroke-width="0.721016"/>
<path d="M247.972 135.725C248.347 135.627 248.741 135.717 249.15 136.049L249.151 136.05C249.152 136.05 249.152 136.051 249.153 136.052C249.155 136.053 249.158 136.056 249.162 136.059C249.17 136.066 249.182 136.076 249.198 136.089C249.231 136.115 249.28 136.155 249.343 136.206C249.468 136.308 249.653 136.459 249.888 136.652C250.36 137.037 251.035 137.59 251.849 138.26C252.646 138.92 253.626 139.781 254.726 140.507L254.774 140.539L254.831 140.555C256.048 140.881 257.357 141.225 258.679 141.57L258.68 141.571C260.013 141.918 261.368 142.291 262.662 142.603L262.662 142.604C263.975 142.941 265.203 143.247 266.253 143.521L266.256 143.521C267.343 143.791 268.254 144.019 268.893 144.18C269.212 144.26 269.464 144.324 269.636 144.367C269.721 144.389 269.788 144.405 269.832 144.416C269.854 144.422 269.871 144.427 269.882 144.43C269.888 144.431 269.892 144.432 269.895 144.433L269.896 144.433L270.105 144.501C270.279 144.572 270.354 144.648 270.383 144.702C270.416 144.76 270.443 144.885 270.323 145.15L270.319 145.159L270.319 145.16L270.318 145.161C270.317 145.162 270.317 145.164 270.316 145.167C270.314 145.172 270.311 145.179 270.307 145.189C270.299 145.208 270.287 145.237 270.271 145.275C270.239 145.35 270.193 145.463 270.132 145.61C270.01 145.903 269.832 146.332 269.607 146.877L269.603 146.886C269.178 147.988 268.647 149.59 268.135 151.531L268.131 151.547L268.128 151.562C267.956 152.581 267.813 153.676 267.676 154.818L267.675 154.829C267.571 155.998 267.504 157.246 267.445 158.519L267.445 158.525C267.406 159.824 267.417 161.167 267.429 162.532L267.43 162.538C267.465 163.905 267.529 165.314 267.615 166.726L267.615 166.729C267.712 168.122 267.836 169.526 267.959 170.926L267.96 170.934L267.96 170.941C268.138 172.315 268.299 173.69 268.478 175.026L268.478 175.029C268.668 176.357 268.865 177.641 269.064 178.874L269.064 178.878C269.274 180.091 269.486 181.254 269.678 182.322L269.679 182.327C269.886 183.395 270.077 184.377 270.25 185.25L270.712 187.522C270.838 188.15 270.941 188.646 271.013 188.985C271.049 189.154 271.077 189.285 271.096 189.373C271.106 189.417 271.113 189.45 271.118 189.473C271.12 189.484 271.122 189.493 271.123 189.498L271.126 189.507L271.125 189.508C271.16 189.665 271.164 189.773 271.155 189.842C271.151 189.875 271.143 189.895 271.139 189.905C271.134 189.915 271.13 189.918 271.129 189.92C271.121 189.926 271.026 189.992 270.67 189.912L270.666 189.911L270.639 189.906C270.621 189.902 270.595 189.897 270.561 189.889C270.492 189.875 270.391 189.853 270.264 189.826C270.008 189.772 269.642 189.695 269.204 189.602C268.329 189.417 267.165 189.172 266.007 188.93L266.004 188.929C264.848 188.698 263.701 188.466 262.843 188.293C262.414 188.206 262.058 188.134 261.808 188.084C261.684 188.059 261.586 188.039 261.519 188.026C261.486 188.019 261.46 188.013 261.443 188.01L261.43 188.007C261.178 187.946 260.972 187.86 260.817 187.76L260.68 187.654C260.576 187.555 260.457 187.451 260.345 187.351C260.287 187.298 260.227 187.244 260.168 187.188L259.988 187.011L257.44 184.274L257.175 183.989L256.911 184.275L255.227 186.098L255.217 186.11C254.969 186.402 254.614 186.525 254.038 186.412L254.034 186.411C254.023 186.409 254.005 186.404 253.982 186.399C253.937 186.388 253.87 186.373 253.785 186.353C253.615 186.313 253.371 186.256 253.08 186.187C252.496 186.051 251.717 185.869 250.936 185.689L250.935 185.688C250.173 185.515 249.412 185.338 248.843 185.205C248.558 185.139 248.32 185.083 248.154 185.044C248.072 185.024 248.007 185.009 247.962 184.999C247.94 184.993 247.923 184.989 247.912 184.986C247.906 184.985 247.901 184.984 247.899 184.983L247.889 184.981C247.464 184.887 247.039 184.622 246.61 184.158L246.425 183.947L246.425 183.946L246.423 183.945C246.422 183.944 246.421 183.942 246.418 183.939C246.414 183.934 246.408 183.926 246.4 183.916C246.383 183.895 246.357 183.865 246.324 183.825C246.259 183.744 246.162 183.627 246.04 183.476C245.794 183.175 245.444 182.743 245.024 182.219C244.611 181.701 244.134 181.093 243.626 180.443L242.043 178.405C240.999 177.034 239.988 175.665 239.237 174.667C238.887 174.178 238.636 173.72 238.474 173.385C238.393 173.217 238.333 173.08 238.295 172.987C238.276 172.94 238.262 172.904 238.253 172.881L238.244 172.855C238.019 172.05 237.935 171.23 238.001 170.382L238.002 170.375C238.002 170.371 238.003 170.365 238.003 170.358C238.005 170.342 238.006 170.319 238.008 170.288C238.013 170.226 238.02 170.134 238.029 170.015C238.046 169.776 238.071 169.427 238.102 168.984L238.345 165.323C238.396 164.584 238.446 163.782 238.496 162.939L238.646 160.295C238.697 159.398 238.746 158.474 238.793 157.538L238.924 154.712C238.976 153.797 239.022 152.877 239.067 151.977L239.2 149.355C239.286 147.693 239.364 146.148 239.44 144.86L239.441 144.86C239.527 143.575 239.6 142.512 239.651 141.771C239.676 141.401 239.696 141.11 239.71 140.913C239.717 140.814 239.722 140.738 239.726 140.687C239.728 140.662 239.728 140.643 239.729 140.63C239.729 140.629 239.73 140.627 239.73 140.626C239.805 139.961 239.996 139.589 240.24 139.396L240.241 139.396L240.242 139.395C240.242 139.395 240.244 139.394 240.246 139.393C240.249 139.391 240.254 139.386 240.26 139.382C240.272 139.372 240.29 139.359 240.314 139.341C240.362 139.305 240.432 139.253 240.522 139.186C240.701 139.053 240.956 138.863 241.265 138.634C241.911 138.214 242.823 137.676 243.775 137.196C244.762 136.772 245.798 136.373 246.593 136.11L246.594 136.111C247.005 135.987 247.349 135.891 247.591 135.826C247.711 135.793 247.806 135.768 247.87 135.751C247.902 135.743 247.927 135.737 247.943 135.733C247.951 135.731 247.958 135.729 247.962 135.728C247.964 135.728 247.965 135.728 247.966 135.727L247.967 135.726L247.972 135.725ZM249.686 147.026C249.427 146.913 249.133 146.86 248.864 146.974L248.761 147.027C248.498 147.18 248.34 147.486 248.231 147.803C248.116 148.138 248.03 148.574 247.968 149.096L247.967 149.1C247.967 149.101 247.967 149.102 247.967 149.103C247.967 149.106 247.966 149.111 247.966 149.117C247.964 149.129 247.963 149.146 247.96 149.169C247.955 149.215 247.947 149.284 247.937 149.373C247.918 149.552 247.891 149.814 247.857 150.149C247.823 150.484 247.782 150.892 247.737 151.363L247.589 152.952C247.533 153.537 247.476 154.183 247.419 154.873L247.245 157.057L247.244 157.068C247.174 158.534 247.192 159.926 247.243 161.325L247.243 161.326C247.29 162.71 247.362 164.113 247.442 165.434L247.443 165.436C247.53 166.76 247.626 167.996 247.709 169.06L247.709 169.067C247.813 170.134 247.9 171.026 247.961 171.651C247.991 171.964 248.015 172.21 248.032 172.378L248.055 172.619L248.057 172.634L248.057 172.635L248.057 172.64C248.17 173.659 248.402 174.443 248.819 174.996C249.244 175.576 249.961 175.931 250.842 176.161L250.848 176.163L253.64 176.845C254.084 176.954 254.483 177.004 254.822 176.978C255.161 176.953 255.48 176.849 255.702 176.605L255.706 176.601C255.91 176.37 256.011 176.048 256.051 175.694C256.093 175.334 256.078 174.897 256.016 174.394L256.016 174.392C256.016 174.391 256.016 174.39 256.016 174.389C256.015 174.386 256.014 174.381 256.013 174.375C256.012 174.363 256.01 174.344 256.007 174.321C256.001 174.273 255.992 174.203 255.98 174.11C255.958 173.926 255.926 173.655 255.885 173.31C255.845 172.966 255.796 172.548 255.742 172.069L255.568 170.462C255.444 169.271 255.332 167.898 255.21 166.445L255.209 166.445C255.163 165.72 255.118 164.969 255.075 164.207L254.957 161.897C254.925 160.76 254.898 159.619 254.888 158.526L254.885 157.45C254.903 156.397 254.933 155.395 254.971 154.495L255.011 153.627C255.099 152.534 255.189 151.624 255.256 150.987C255.29 150.668 255.317 150.417 255.337 150.247C255.347 150.162 255.354 150.097 255.36 150.053C255.362 150.031 255.364 150.015 255.366 150.004C255.366 149.998 255.367 149.994 255.367 149.991C255.367 149.99 255.368 149.988 255.368 149.987L255.406 149.677L255.105 149.595L255.101 149.595C255.099 149.594 255.096 149.593 255.091 149.592C255.082 149.589 255.068 149.585 255.05 149.58C255.015 149.57 254.962 149.556 254.894 149.538C254.76 149.501 254.568 149.449 254.339 149.386C253.882 149.261 253.274 149.094 252.667 148.927C252.13 148.732 251.63 148.429 251.258 148.168C251.072 148.037 250.92 147.919 250.816 147.834C250.764 147.792 250.724 147.758 250.697 147.735C250.684 147.724 250.674 147.715 250.668 147.71C250.665 147.707 250.663 147.705 250.661 147.704L250.66 147.702L250.657 147.7C250.309 147.39 249.984 147.155 249.686 147.026Z" fill="#E6E6E6" stroke="#E6E6E6" stroke-width="0.721016"/>
<path d="M230.362 124.504C230.459 124.499 230.593 124.515 230.788 124.58C230.794 124.583 230.801 124.587 230.809 124.591C230.841 124.606 230.887 124.629 230.946 124.657C231.064 124.713 231.233 124.794 231.436 124.892L232.932 125.619C233.481 125.902 234.036 126.192 234.454 126.411C234.664 126.521 234.84 126.613 234.963 126.678C235.024 126.71 235.073 126.736 235.106 126.754C235.122 126.762 235.135 126.769 235.143 126.773C235.147 126.776 235.151 126.777 235.153 126.778L235.155 126.78L235.156 126.78L235.159 126.781C235.302 126.855 235.381 126.952 235.422 127.076C235.466 127.211 235.474 127.411 235.405 127.695L235.404 127.705C235.403 127.709 235.401 127.714 235.4 127.721C235.396 127.735 235.392 127.756 235.386 127.783C235.374 127.838 235.355 127.918 235.333 128.02C235.287 128.223 235.224 128.514 235.148 128.863C234.996 129.563 234.798 130.499 234.614 131.443L234.613 131.443L234.612 131.451C234.445 132.423 234.3 133.409 234.197 134.151C234.146 134.522 234.105 134.833 234.077 135.051C234.063 135.16 234.052 135.246 234.044 135.304C234.041 135.333 234.038 135.356 234.036 135.371C234.035 135.379 234.035 135.385 234.035 135.389L234.034 135.395L233.985 135.743C233.966 135.859 233.944 135.976 233.92 136.089L233.917 136.104L233.915 136.12C233.897 136.263 233.858 136.323 233.835 136.348C233.814 136.355 233.789 136.364 233.759 136.374C233.677 136.402 233.56 136.441 233.42 136.489L232.402 136.845L232.391 136.849C232.033 136.99 231.676 137.136 231.409 137.247C231.276 137.303 231.163 137.349 231.085 137.382C231.046 137.399 231.016 137.412 230.995 137.421C230.985 137.426 230.977 137.429 230.971 137.431C230.969 137.432 230.966 137.433 230.965 137.434L230.963 137.434L230.963 137.435L230.849 137.483L230.789 137.591C230.789 137.591 230.788 137.593 230.787 137.594C230.786 137.596 230.785 137.599 230.783 137.603C230.778 137.611 230.772 137.623 230.763 137.638C230.746 137.668 230.721 137.713 230.69 137.769C230.626 137.883 230.536 138.047 230.427 138.243C230.209 138.636 229.917 139.162 229.624 139.695L229.621 139.703C229.338 140.244 229.054 140.788 228.842 141.196C228.736 141.4 228.647 141.57 228.585 141.69C228.554 141.749 228.53 141.796 228.513 141.828C228.505 141.844 228.498 141.856 228.494 141.864C228.491 141.868 228.49 141.871 228.489 141.873C228.488 141.874 228.488 141.876 228.487 141.876L228.487 141.877L228.45 141.948L228.447 142.027L228.447 142.03C228.447 142.031 228.447 142.033 228.447 142.036C228.447 142.042 228.446 142.051 228.445 142.063C228.444 142.087 228.443 142.122 228.441 142.168C228.436 142.26 228.431 142.395 228.423 142.566C228.408 142.909 228.385 143.397 228.358 143.982C228.299 145.178 228.218 146.776 228.16 148.407L228.16 148.408C228.075 150.027 228.004 151.683 227.935 152.94L227.934 152.942C227.904 153.566 227.875 154.09 227.854 154.457C227.844 154.641 227.835 154.785 227.829 154.884C227.826 154.933 227.824 154.971 227.822 154.997C227.822 155.009 227.822 155.019 227.821 155.025C227.821 155.028 227.821 155.032 227.821 155.033L227.82 155.035L227.816 155.098L227.833 155.159L227.834 155.159C227.835 155.16 227.834 155.161 227.835 155.163C227.835 155.166 227.837 155.17 227.839 155.176C227.843 155.189 227.848 155.207 227.855 155.231C227.869 155.279 227.889 155.35 227.915 155.44C227.966 155.619 228.039 155.876 228.126 156.185C228.301 156.802 228.532 157.628 228.755 158.459L228.756 158.461C228.991 159.313 229.222 160.169 229.394 160.812C229.48 161.132 229.551 161.4 229.601 161.587C229.626 161.681 229.646 161.755 229.659 161.806C229.666 161.831 229.671 161.85 229.674 161.863C229.676 161.869 229.677 161.874 229.677 161.878C229.678 161.879 229.678 161.881 229.679 161.882L229.68 161.882L229.679 161.883L229.686 161.91L229.698 161.936L229.698 161.937C229.699 161.938 229.699 161.939 229.7 161.94C229.701 161.943 229.703 161.946 229.705 161.951C229.709 161.961 229.715 161.975 229.724 161.994C229.74 162.032 229.765 162.088 229.796 162.16C229.859 162.302 229.949 162.507 230.057 162.753C230.272 163.244 230.559 163.903 230.846 164.571L230.848 164.574C231.145 165.247 231.441 165.927 231.662 166.44C231.773 166.696 231.865 166.91 231.929 167.06C231.962 167.135 231.987 167.194 232.005 167.235C232.012 167.253 232.018 167.267 232.022 167.278L232.023 167.278C232.138 167.591 232.19 167.869 232.176 168.142L232.176 168.148C232.165 168.447 232.152 168.748 232.124 169.015L232.123 169.024L232.122 169.032C232.121 169.037 232.121 169.044 232.121 169.054C232.119 169.074 232.117 169.103 232.114 169.141C232.107 169.218 232.098 169.329 232.086 169.472C232.063 169.757 232.029 170.166 231.989 170.656C231.907 171.638 231.796 172.949 231.678 174.268C231.547 175.598 231.409 176.943 231.304 177.957C231.252 178.464 231.208 178.888 231.176 179.185C231.161 179.334 231.148 179.45 231.14 179.53C231.136 179.57 231.132 179.6 231.13 179.621C231.129 179.631 231.128 179.639 231.128 179.644C231.127 179.647 231.128 179.649 231.128 179.65L231.127 179.652C231.078 180.078 230.999 180.308 230.939 180.413C230.937 180.411 230.934 180.409 230.93 180.406C230.922 180.4 230.91 180.391 230.895 180.38C230.865 180.356 230.821 180.322 230.765 180.278C230.652 180.192 230.492 180.069 230.3 179.923C229.916 179.631 229.406 179.246 228.899 178.877L228.888 178.87L227.511 177.931C227.324 177.804 227.169 177.697 227.061 177.623C227.007 177.586 226.964 177.556 226.935 177.536C226.921 177.526 226.91 177.518 226.902 177.513C226.899 177.511 226.895 177.509 226.894 177.508L226.892 177.506L226.891 177.506L226.875 177.495C226.667 177.367 226.425 177.022 226.197 176.347L226.195 176.341L226.194 176.339C226.194 176.338 226.193 176.337 226.193 176.335C226.191 176.331 226.189 176.324 226.186 176.316C226.181 176.3 226.172 176.277 226.161 176.246C226.138 176.184 226.106 176.092 226.064 175.976C225.981 175.744 225.863 175.414 225.721 175.02C225.437 174.231 225.06 173.184 224.684 172.153L224.683 172.15L223.63 169.38C223.486 169.007 223.367 168.697 223.284 168.481C223.242 168.373 223.209 168.288 223.187 168.23C223.179 168.21 223.172 168.193 223.167 168.18C223.164 168.16 223.161 168.132 223.156 168.098C223.145 168.018 223.128 167.901 223.107 167.752C223.064 167.455 223.002 167.03 222.927 166.521C222.777 165.503 222.572 164.148 222.357 162.802L222.358 162.802C222.152 161.487 221.937 160.183 221.773 159.208C221.691 158.721 221.622 158.316 221.573 158.032C221.549 157.891 221.531 157.779 221.518 157.703C221.511 157.666 221.505 157.637 221.502 157.617C221.5 157.607 221.499 157.6 221.498 157.595C221.498 157.592 221.497 157.59 221.497 157.588L221.498 157.587L221.497 157.586C221.415 157.122 221.347 156.775 221.281 156.575L221.276 156.563L221.248 156.447C221.241 156.397 221.235 156.333 221.232 156.252C221.225 156.094 221.229 155.897 221.242 155.651L221.243 155.65C221.243 155.65 221.243 155.648 221.243 155.647C221.243 155.645 221.243 155.64 221.244 155.635C221.244 155.625 221.245 155.61 221.246 155.59C221.249 155.55 221.253 155.491 221.258 155.415C221.267 155.26 221.281 155.034 221.299 154.747C221.335 154.173 221.386 153.354 221.449 152.377L221.45 152.374L221.537 150.794C221.566 150.234 221.595 149.645 221.623 149.036L221.623 149.035C221.674 147.832 221.744 146.597 221.8 145.323L221.801 145.322L221.956 141.685C222.009 140.516 222.047 139.477 222.091 138.56L222.091 138.559L222.188 136.394C222.199 136.133 222.208 135.928 222.214 135.789L222.222 135.589L222.222 135.579C222.233 135.365 222.25 135.195 222.27 135.068C222.28 135.004 222.29 134.955 222.3 134.919C222.31 134.884 222.317 134.869 222.318 134.868L222.327 134.851L222.333 134.832C222.384 134.704 222.491 134.486 222.649 134.135L222.654 134.123L222.654 134.122C222.655 134.121 222.655 134.119 222.656 134.118C222.657 134.115 222.659 134.11 222.662 134.104C222.667 134.091 222.675 134.072 222.685 134.048C222.705 133.999 222.734 133.927 222.77 133.836C222.844 133.654 222.95 133.394 223.077 133.082C223.332 132.459 223.673 131.63 224.018 130.808C224.372 130.012 224.732 129.221 225.002 128.629C225.138 128.332 225.251 128.084 225.331 127.911C225.367 127.832 225.396 127.768 225.417 127.722C225.448 127.699 225.489 127.669 225.538 127.633C225.662 127.541 225.839 127.409 226.052 127.252C226.477 126.938 227.045 126.521 227.617 126.111C228.205 125.727 228.805 125.353 229.258 125.074C229.486 124.934 229.677 124.817 229.81 124.736C229.877 124.695 229.93 124.664 229.966 124.642C229.984 124.632 229.998 124.624 230.007 124.618C230.011 124.616 230.014 124.613 230.016 124.612C230.132 124.545 230.245 124.515 230.362 124.504Z" fill="#E6E6E6" stroke="#E6E6E6" stroke-width="0.721016"/>
<path d="M162.431 141.496C162.664 140.109 163.092 138.78 163.652 137.527C164.162 136.309 164.806 135.159 165.522 134.176C166.2 133.201 166.956 132.358 167.773 131.746C168.571 131.152 169.439 130.74 170.352 130.6C171.248 130.472 172.117 130.646 172.891 131.023C173.672 131.438 174.339 132.081 174.869 132.905C175.373 133.752 175.741 134.78 175.944 135.947C176.128 137.139 176.139 138.475 175.953 139.885C175.746 141.328 175.361 142.702 174.827 143.974C174.306 145.249 173.647 146.404 172.893 147.394C172.141 148.414 171.292 149.24 170.396 149.845C169.501 150.45 168.56 150.82 167.619 150.918C166.674 151.03 165.824 150.829 165.104 150.397C164.36 149.981 163.751 149.305 163.285 148.449C162.811 147.599 162.483 146.557 162.326 145.377C162.159 144.21 162.174 142.893 162.431 141.496Z" fill="#303030" stroke="#E6E6E6" stroke-width="2.88406"/>
<path d="M210.028 128.907C210.418 128.985 210.936 129.089 211.455 129.196L211.455 129.197C211.974 129.318 212.49 129.439 212.876 129.531C213.035 129.569 213.172 129.602 213.278 129.627C213.279 129.63 213.28 129.632 213.28 129.634C213.302 129.793 213.334 130.021 213.372 130.294L213.655 132.298C213.76 133.042 213.861 133.784 213.937 134.34C213.974 134.618 214.005 134.85 214.027 135.012C214.037 135.092 214.047 135.156 214.053 135.199C214.055 135.214 214.055 135.227 214.057 135.237C214.056 135.242 214.057 135.247 214.056 135.253C214.056 135.282 214.055 135.325 214.054 135.381C214.051 135.493 214.047 135.656 214.041 135.864C214.031 136.28 214.015 136.874 213.994 137.584L213.994 137.585C213.948 139.027 213.874 140.947 213.8 142.906C213.758 143.89 213.712 144.878 213.668 145.808C213.624 146.737 213.583 147.61 213.55 148.364C213.499 149.118 213.462 149.75 213.437 150.193C213.425 150.415 213.416 150.589 213.41 150.709C213.407 150.768 213.404 150.815 213.403 150.846C213.402 150.853 213.401 150.86 213.401 150.865C213.398 150.877 213.396 150.894 213.392 150.914C213.382 150.964 213.366 151.037 213.347 151.13C213.309 151.317 213.253 151.584 213.187 151.904C213.055 152.544 212.877 153.399 212.697 154.26C212.514 155.115 212.324 155.981 212.179 156.633C212.116 156.918 212.06 157.163 212.019 157.347C211.94 157.324 211.85 157.299 211.752 157.271C211.561 157.217 211.338 157.154 211.098 157.088L210.348 156.889L210.342 156.888C209.826 156.763 209.31 156.638 208.923 156.545C208.791 156.513 208.674 156.485 208.577 156.462C208.579 156.444 208.58 156.424 208.582 156.405C208.6 156.173 208.626 155.843 208.657 155.446C208.719 154.651 208.801 153.592 208.878 152.531L208.879 152.529L209.069 149.667C209.094 149.278 209.115 148.953 209.13 148.726C209.137 148.613 209.142 148.524 209.146 148.463C209.148 148.433 209.15 148.409 209.151 148.393C209.152 148.386 209.151 148.379 209.151 148.376L209.152 148.37L209.172 148.056L208.863 147.994L206.354 147.488L205.95 147.406L205.922 147.818L205.865 148.708L205.711 148.683L205.767 147.716L205.787 147.39L205.465 147.339L203.49 147.027L203.102 146.966L203.075 147.358L203.012 148.256L202.771 148.219L202.835 147.283L202.858 146.946L202.524 146.901L200.714 146.656L200.335 146.605L200.305 146.987L200.237 147.897L199.983 147.871L200.053 146.942L200.08 146.586L199.723 146.556L197.753 146.391L197.392 146.361L197.363 146.721L197.288 147.65L197.015 147.636L197.094 146.731L197.127 146.355L196.749 146.34L194.813 146.263L194.472 146.249L194.44 146.59L194.353 147.528L193.967 147.516L194.048 146.628L194.085 146.241L193.697 146.235L191.913 146.201C191.917 146.15 191.922 146.093 191.928 146.032C191.959 145.682 192.005 145.183 192.062 144.593L192.063 144.59L192.228 142.542C192.285 141.797 192.34 141.005 192.39 140.213L192.391 140.21L192.508 137.896C192.542 137.16 192.571 136.476 192.591 135.891L192.591 135.887L192.62 134.479C192.622 134.422 192.622 134.369 192.624 134.32L194.366 134.429L194.746 134.454L194.749 134.073L194.756 133.238L195.066 133.257L195.065 134.128L195.065 134.462L195.398 134.488L197.29 134.639L197.677 134.669L197.68 134.281L197.685 133.471L197.961 133.496L197.94 134.355L197.932 134.689L198.264 134.723L200.221 134.922L200.613 134.962L200.618 134.568L200.629 133.765L200.887 133.793L200.877 134.652L200.874 134.978L201.199 135.014L202.952 135.205L203.345 135.247L203.352 134.853L203.366 134.057L203.597 134.087L203.575 134.967L203.567 135.283L203.879 135.332L205.874 135.648L206.286 135.713L206.291 135.296L206.3 134.513L206.469 134.54L206.449 135.446L206.442 135.752L209.657 136.344L209.666 135.92L209.666 135.919C209.666 135.918 209.666 135.916 209.666 135.914C209.666 135.911 209.666 135.905 209.666 135.899C209.666 135.884 209.667 135.863 209.668 135.835C209.669 135.78 209.671 135.698 209.674 135.594C209.678 135.387 209.684 135.09 209.693 134.735C209.709 134.024 209.731 133.077 209.754 132.133L209.755 132.13L209.79 129.579C209.794 129.296 209.797 129.051 209.799 128.861C209.869 128.875 209.945 128.891 210.028 128.907Z" fill="#EC1168" stroke="#EC1168" stroke-width="0.721016"/>
<path d="M209.305 135.912C209.305 135.912 209.347 134.014 209.394 132.124C209.422 130.259 209.444 128.423 209.444 128.423C209.444 128.423 210.491 128.631 211.537 128.845C212.577 129.088 213.602 129.335 213.602 129.335C213.602 129.335 213.804 130.787 214.012 132.247C214.222 133.738 214.418 135.218 214.418 135.218C214.418 135.218 214.396 136.174 214.355 137.596C214.309 139.039 214.234 140.961 214.16 142.92C214.076 144.891 213.975 146.874 213.911 148.379C213.808 149.893 213.76 150.91 213.76 150.91C213.76 150.91 213.411 152.613 213.05 154.335C212.683 156.049 212.287 157.802 212.287 157.802C212.287 157.802 211.273 157.498 210.258 157.238C209.226 156.989 208.194 156.741 208.194 156.741C208.194 156.741 208.363 154.624 208.519 152.505C208.66 150.419 208.792 148.347 208.792 148.347M209.305 135.912C209.305 135.912 209.283 136.671 209.257 137.81C209.222 138.954 209.16 140.49 209.103 142.033C209.03 143.589 208.958 145.174 208.889 146.349C208.836 147.549 208.792 148.347 208.792 148.347M209.305 135.912L206.809 135.453L209.305 135.912ZM208.792 148.347L206.283 147.841L208.792 148.347ZM202.475 147.258L202.389 148.525L203.344 148.672L203.435 147.383M202.475 147.258L203.435 147.383L202.475 147.258ZM202.475 147.258L200.665 147.013L202.475 147.258ZM203.435 147.383L205.408 147.695L203.435 147.383ZM205.408 147.695L205.332 148.986L206.199 149.131L206.283 147.841M205.408 147.695L206.283 147.841L205.408 147.695ZM200.665 147.013L200.569 148.293L199.598 148.195L199.694 146.915M200.665 147.013L199.694 146.915L200.665 147.013ZM199.694 146.915L197.723 146.75L199.694 146.915ZM197.723 146.75L197.619 148.029L196.624 147.978L196.735 146.701M197.723 146.75L196.735 146.701L197.723 146.75ZM196.735 146.701L194.799 146.623L196.735 146.701ZM194.799 146.623L194.682 147.899L193.574 147.864L193.69 146.595M194.799 146.623L193.69 146.595L194.799 146.623ZM193.69 146.595L191.52 146.555C191.52 146.555 191.589 145.739 191.704 144.558C191.808 143.353 191.931 141.77 192.031 140.19C192.117 138.608 192.191 137.046 192.23 135.88C192.254 134.711 192.272 133.937 192.272 133.937L194.388 134.07M194.388 134.07L194.399 132.855L195.428 132.92L195.426 134.129M194.388 134.07L195.426 134.129L194.388 134.07ZM195.426 134.129L197.319 134.279L195.426 134.129ZM197.319 134.279L197.327 133.078L198.33 133.168L198.3 134.364M197.319 134.279L198.3 134.364L197.319 134.279ZM198.3 134.364L200.258 134.563L198.3 134.364ZM200.258 134.563L200.273 133.364L201.251 133.47L201.238 134.656M200.258 134.563L201.238 134.656L200.258 134.563ZM201.238 134.656L202.992 134.846L201.238 134.656ZM202.992 134.846L203.014 133.648L203.966 133.772L203.935 134.976M202.992 134.846L203.935 134.976L202.992 134.846ZM203.935 134.976L205.93 135.291L203.935 134.976ZM205.93 135.291L205.945 134.092L206.836 134.234L206.809 135.453M205.93 135.291L206.809 135.453L205.93 135.291Z" fill="#EC1168"/>
<path d="M209.305 135.912C209.305 135.912 209.347 134.014 209.394 132.124C209.422 130.259 209.444 128.423 209.444 128.423C209.444 128.423 210.491 128.631 211.537 128.845C212.577 129.088 213.602 129.335 213.602 129.335C213.602 129.335 213.804 130.787 214.012 132.247C214.222 133.738 214.418 135.218 214.418 135.218C214.418 135.218 214.396 136.174 214.355 137.596C214.309 139.039 214.234 140.961 214.16 142.92C214.076 144.891 213.975 146.874 213.911 148.379C213.808 149.893 213.76 150.91 213.76 150.91C213.76 150.91 213.411 152.613 213.05 154.335C212.683 156.049 212.287 157.802 212.287 157.802C212.287 157.802 211.273 157.498 210.258 157.238C209.226 156.989 208.194 156.741 208.194 156.741C208.194 156.741 208.363 154.624 208.519 152.505C208.66 150.419 208.792 148.347 208.792 148.347M209.305 135.912C209.305 135.912 209.283 136.671 209.257 137.81C209.222 138.954 209.16 140.49 209.103 142.033C209.03 143.589 208.958 145.174 208.889 146.349C208.836 147.549 208.792 148.347 208.792 148.347M209.305 135.912L206.809 135.453M208.792 148.347L206.283 147.841M206.809 135.453L206.836 134.234L205.945 134.092L205.93 135.291M206.809 135.453L205.93 135.291M206.283 147.841L206.199 149.131L205.332 148.986L205.408 147.695M206.283 147.841L205.408 147.695M202.475 147.258L202.389 148.525L203.344 148.672L203.435 147.383M202.475 147.258L203.435 147.383M202.475 147.258L200.665 147.013M203.435 147.383L205.408 147.695M200.665 147.013L200.569 148.293L199.598 148.195L199.694 146.915M200.665 147.013L199.694 146.915M199.694 146.915L197.723 146.75M197.723 146.75L197.619 148.029L196.624 147.978L196.735 146.701M197.723 146.75L196.735 146.701M196.735 146.701L194.799 146.623M194.799 146.623L194.682 147.899L193.574 147.864L193.69 146.595M194.799 146.623L193.69 146.595M193.69 146.595L191.52 146.555C191.52 146.555 191.589 145.739 191.704 144.558C191.808 143.353 191.931 141.77 192.031 140.19C192.117 138.608 192.191 137.046 192.23 135.88C192.254 134.711 192.272 133.937 192.272 133.937L194.388 134.07M194.388 134.07L194.399 132.855L195.428 132.92L195.426 134.129M194.388 134.07L195.426 134.129M195.426 134.129L197.319 134.279M197.319 134.279L197.327 133.078L198.33 133.168L198.3 134.364M197.319 134.279L198.3 134.364M198.3 134.364L200.258 134.563M200.258 134.563L200.273 133.364L201.251 133.47L201.238 134.656M200.258 134.563L201.238 134.656M201.238 134.656L202.992 134.846M202.992 134.846L203.014 133.648L203.966 133.772L203.935 134.976M202.992 134.846L203.935 134.976M203.935 134.976L205.93 135.291" stroke="#EC1168" stroke-width="0.319541"/>
<line x1="27.4972" y1="167.187" x2="307.994" y2="218.785" stroke="#E6E6E6" stroke-width="2.16607"/>
<line x1="97.8136" y1="172.046" x2="266.123" y2="203.007" stroke="#E6E6E6" stroke-width="2.16607"/>
<line x1="151.087" y1="173.771" x2="230.622" y2="188.402" stroke="#E6E6E6" stroke-width="2.16607"/>
<line x1="179.77" y1="169.505" x2="215.275" y2="176.036" stroke="#E6E6E6" stroke-width="2.16607"/>
</g>
<defs>
<filter id="filter0_f_616_9489" x="275.225" y="21.4892" width="48.863" height="70.9395" filterUnits="userSpaceOnUse" color-interpolation-filters="sRGB">
<feFlood flood-opacity="0" result="BackgroundImageFix"/>
<feBlend mode="normal" in="SourceGraphic" in2="BackgroundImageFix" result="shape"/>
<feGaussianBlur stdDeviation="7.35887" result="effect1_foregroundBlur_616_9489"/>
</filter>
<filter id="filter1_f_616_9489" x="249.91" y="14.5708" width="96.4012" height="89.1895" filterUnits="userSpaceOnUse" color-interpolation-filters="sRGB">
<feFlood flood-opacity="0" result="BackgroundImageFix"/>
<feBlend mode="normal" in="SourceGraphic" in2="BackgroundImageFix" result="shape"/>
<feGaussianBlur stdDeviation="11.7742" result="effect1_foregroundBlur_616_9489"/>
</filter>
<filter id="filter2_f_616_9489" x="195.745" y="21.4892" width="48.863" height="70.9395" filterUnits="userSpaceOnUse" color-interpolation-filters="sRGB">
<feFlood flood-opacity="0" result="BackgroundImageFix"/>
<feBlend mode="normal" in="SourceGraphic" in2="BackgroundImageFix" result="shape"/>
<feGaussianBlur stdDeviation="7.35887" result="effect1_foregroundBlur_616_9489"/>
</filter>
<filter id="filter3_f_616_9489" x="170.431" y="14.5708" width="96.4012" height="89.1895" filterUnits="userSpaceOnUse" color-interpolation-filters="sRGB">
<feFlood flood-opacity="0" result="BackgroundImageFix"/>
<feBlend mode="normal" in="SourceGraphic" in2="BackgroundImageFix" result="shape"/>
<feGaussianBlur stdDeviation="11.7742" result="effect1_foregroundBlur_616_9489"/>
</filter>
<filter id="filter4_f_616_9489" x="116.267" y="21.4892" width="48.863" height="70.9395" filterUnits="userSpaceOnUse" color-interpolation-filters="sRGB">
<feFlood flood-opacity="0" result="BackgroundImageFix"/>
<feBlend mode="normal" in="SourceGraphic" in2="BackgroundImageFix" result="shape"/>
<feGaussianBlur stdDeviation="7.35887" result="effect1_foregroundBlur_616_9489"/>
</filter>
<filter id="filter5_f_616_9489" x="90.9514" y="14.5708" width="96.4012" height="89.1895" filterUnits="userSpaceOnUse" color-interpolation-filters="sRGB">
<feFlood flood-opacity="0" result="BackgroundImageFix"/>
<feBlend mode="normal" in="SourceGraphic" in2="BackgroundImageFix" result="shape"/>
<feGaussianBlur stdDeviation="11.7742" result="effect1_foregroundBlur_616_9489"/>
</filter>
<filter id="filter6_f_616_9489" x="36.793" y="21.4892" width="48.863" height="70.9395" filterUnits="userSpaceOnUse" color-interpolation-filters="sRGB">
<feFlood flood-opacity="0" result="BackgroundImageFix"/>
<feBlend mode="normal" in="SourceGraphic" in2="BackgroundImageFix" result="shape"/>
<feGaussianBlur stdDeviation="7.35887" result="effect1_foregroundBlur_616_9489"/>
</filter>
<filter id="filter7_f_616_9489" x="11.4773" y="14.5708" width="96.4012" height="89.1895" filterUnits="userSpaceOnUse" color-interpolation-filters="sRGB">
<feFlood flood-opacity="0" result="BackgroundImageFix"/>
<feBlend mode="normal" in="SourceGraphic" in2="BackgroundImageFix" result="shape"/>
<feGaussianBlur stdDeviation="11.7742" result="effect1_foregroundBlur_616_9489"/>
</filter>
<filter id="filter8_d_616_9489" x="25.7674" y="105.277" width="293.859" height="117.641" filterUnits="userSpaceOnUse" color-interpolation-filters="sRGB">
<feFlood flood-opacity="0" result="BackgroundImageFix"/>
<feColorMatrix in="SourceAlpha" type="matrix" values="0 0 0 0 0 0 0 0 0 0 0 0 0 0 0 0 0 0 127 0" result="hardAlpha"/>
<feOffset dy="1.53387"/>
<feGaussianBlur stdDeviation="0.766934"/>
<feComposite in2="hardAlpha" operator="out"/>
<feColorMatrix type="matrix" values="0 0 0 0 1 0 0 0 0 1 0 0 0 0 1 0 0 0 0.25 0"/>
<feBlend mode="normal" in2="BackgroundImageFix" result="effect1_dropShadow_616_9489"/>
<feBlend mode="normal" in="SourceGraphic" in2="effect1_dropShadow_616_9489" result="shape"/>
</filter>
<linearGradient id="paint0_linear_616_9489" x1="56.5159" y1="360.291" x2="56.5159" y2="339.98" gradientUnits="userSpaceOnUse">
<stop stop-color="#535353"/>
<stop offset="1" stop-color="#B9B9B9"/>
</linearGradient>
<linearGradient id="paint1_linear_616_9489" x1="129.81" y1="456.545" x2="129.81" y2="436.234" gradientUnits="userSpaceOnUse">
<stop stop-color="#535353"/>
<stop offset="1" stop-color="#B9B9B9"/>
</linearGradient>
<linearGradient id="paint2_linear_616_9489" x1="267.318" y1="424.305" x2="234.959" y2="373.236" gradientUnits="userSpaceOnUse">
<stop stop-color="#EC1168"/>
<stop offset="1" stop-color="#F7CCDD"/>
</linearGradient>
</defs>
</svg>
