<svg width="169" height="243" viewBox="0 0 169 243" fill="none" xmlns="http://www.w3.org/2000/svg">
<g clip-path="url(#clip0_621_93593)">
<rect y="0.578125" width="169" height="241.44" rx="10" fill="white"/>
<path d="M42.8481 14.9438C40.7511 16.0293 38.2576 17.9799 37.1998 19.2358C35.1842 21.7347 33.224 30.9396 33.8074 35.4411C34.3518 39.6425 33.0199 41.1374 29.1501 40.3166C24.3411 39.3124 12.8186 42.2297 9.55449 45.2973C8.10952 46.7051 7.04243 48.6742 7.17207 49.6746C7.28874 50.5749 6.7255 53.2924 5.89737 55.5357C4.59868 58.8572 4.63197 60.6837 5.7933 65.7206C6.63421 69.0699 7.69743 71.7801 8.1976 71.7153C8.7978 71.6375 10.3947 70.6169 11.8785 69.5091C13.8107 67.9364 14.2942 66.9584 13.6737 65.3096C13.0532 63.6609 13.3755 63.0089 15.1243 62.3754C16.3729 61.8067 19.2665 59.8043 21.547 57.7796C23.7404 55.8679 26.0597 54.1434 26.5599 54.0785C27.1601 54.0008 26.3635 54.9177 24.8055 56.2385C23.3346 57.4462 20.9319 60.097 19.4517 62.018C17.3879 64.93 17.2045 65.8692 18.2863 67.153C19.0161 68.0755 20.1146 70.2726 20.761 72.1214C22.0799 76.019 25.4346 79.1443 30.0342 80.8876C34.2078 82.4827 34.7079 82.4179 37.9887 80.2636C41.8308 77.7314 44.5948 74.7286 48.0739 69.3955C49.4152 67.1874 49.4986 66.2611 48.5816 65.4646C47.4517 64.5939 47.6388 64.4679 49.3171 64.8607C53.826 65.9038 60.3541 65.2612 61.273 63.7181C61.7695 62.84 63.4145 61.4063 64.8113 60.4116C66.6694 59.0519 67.5623 57.3088 67.8607 54.117C68.3814 50.2861 68.9038 49.6081 71.5399 48.7579C73.2015 48.2374 76.0284 48.0745 77.6938 48.3672L80.8115 48.8786L77.9235 49.3546C75.7357 49.7398 73.7294 51.5256 69.8854 56.3974C65.1095 62.7123 64.8742 63.2514 65.4835 67.953C65.8335 70.6539 66.9875 74.0643 67.9952 75.5612C68.9899 76.958 69.9365 78.7678 70.0272 79.4681C70.2865 81.4688 73.0652 81.7189 83.4205 80.7838C88.6482 80.3097 93.8148 80.1487 94.967 80.4063C96.3323 80.7379 97.1937 80.3211 97.6253 78.9429C98.3441 77.4258 98.6313 77.2868 99.5742 78.2835C100.404 79.1931 100.365 78.893 99.7705 77.4443C99.1889 76.0957 99.3557 74.2432 100.087 72.8261C104.095 65.2886 94.8642 52.1431 83.994 49.8902C82.1156 49.5233 81.5506 49.088 82.651 48.9454C85.3389 48.4953 91.8818 51.1056 95.6366 54.179C97.4575 55.6722 99.3007 56.5522 99.662 56.2002C100.959 55.2184 102.222 57.9027 102.531 62.6432L102.953 67.4707L107.416 66.5873C113.179 65.5352 114.498 63.9403 114.459 58.1476C114.422 55.5079 114.417 51.5417 114.519 49.1891C114.591 45.8232 113.945 43.9744 111.326 40.2453C107.182 34.1709 104.461 32.7944 98.1585 33.6111C91.3562 34.4927 84.5818 33.2346 82.0051 30.6189C80.3583 28.8997 79.8378 27.238 79.7972 23.785C79.6528 19.5318 79.3879 19.0575 75.3459 16.1231C70.6259 12.6662 66.043 11.8361 53.7222 12.5174C48.7816 12.8526 45.5194 13.5805 42.8481 14.9438ZM52.1158 19.7439C52.1418 19.9439 50.958 21.0128 49.5612 22.0075C48.0644 23.0152 45.6227 25.3659 44.1296 27.1868C42.5494 29.1208 41.2526 30.1025 41.1748 29.5023C40.9896 27.2886 43.0979 23.1503 45.3302 21.5387C47.4624 19.9401 51.9862 18.7435 52.1158 19.7439ZM71.5408 21.295C73.8007 23.0364 74.3694 24.285 74.775 28.1993C75.4934 37.6673 83.2477 42.5618 94.8646 41.158C99.6662 40.5357 101.119 40.7544 103.378 42.4958C107.346 45.6432 108.526 49.2537 106.45 52.0657L104.708 54.3257L100.47 52.2304C98.0746 51.0151 94.1233 48.7809 91.4762 47.1914C85.73 43.6641 76.8771 42.0651 69.0615 42.9763C63.8597 43.6504 62.9983 44.0672 61.1346 46.9532C59.9286 48.6352 58.9522 51.3046 58.8466 52.844C58.7057 54.8965 57.748 56.1395 55.1767 57.4899C52.0312 59.1181 51.6181 59.0699 49.6323 57.0896C42.7321 50.1518 40.059 48.3623 37.1673 48.025L34.0885 47.8137L37.0081 46.0114C39.1922 44.8129 40.124 43.3699 40.2519 41.2173L40.4632 38.1385L43.8717 39.3242C46.341 40.3265 50.2071 40.334 58.2357 39.497C64.3508 38.8062 70.1786 38.2543 71.3049 38.3118C72.7313 38.3304 73.1797 37.8654 72.7499 36.904C72.4461 36.1296 72.0609 33.9419 71.9146 32.0283C71.385 25.5872 69.9476 23.1289 65.4739 21.5727C63.2306 20.7446 61.2744 19.7775 61.2356 19.4774C61.0411 17.9769 69.0678 19.4795 71.5408 21.295ZM52.8343 29.2119C52.7619 32.5778 53.0527 33.2521 54.6051 33.4578C55.6443 33.6282 55.1701 33.8931 53.3824 34.2265C49.194 34.871 47.6528 31.6125 50.3261 27.9095C51.3579 26.4535 52.3287 25.3105 52.6288 25.2717C52.8289 25.2457 52.9622 27.0593 52.8343 29.2119ZM65.7719 29.3661C66.561 32.3152 66.3998 32.6412 63.7989 32.9783C61.198 33.3154 60.9591 33.0412 60.5053 29.54C60.2331 27.4393 60.2739 25.3997 60.5222 24.9607C61.6541 23.4917 64.9699 26.3169 65.7719 29.3661ZM29.1313 47.2356C29.3573 47.4097 27.5826 47.8432 25.1818 48.1543C22.781 48.4654 19.5707 49.5935 18.0738 50.6012C14.906 52.8426 14.4188 53.0074 14.7116 51.342C15.2748 48.6245 26.4583 45.446 29.1313 47.2356ZM37.1095 60.1365C38.7656 61.1424 40.6124 62.8356 41.3682 63.9583C42.6148 65.7293 42.5407 65.9423 40.2752 65.7273C36.8963 65.5549 37.2685 67.6427 40.6641 68.7283C43.9466 69.7269 42.9925 71.7831 38.5077 73.2798C36.2587 73.9781 35.1324 73.9206 33.9636 72.7498C32.4427 71.2178 32.2427 71.2437 31.2367 72.8998C30.4049 74.3299 29.8177 74.5077 28.5006 73.7629C26.4314 72.7088 23.8845 65.6138 25.4851 65.4064C25.9852 65.3415 26.5373 65.6769 26.615 66.2771C26.7576 67.3774 31.098 67.1201 31.9687 65.9901C32.2169 65.5511 31.8002 64.6897 30.8962 63.9931C28.6362 62.2517 28.6325 61.4385 31.1649 59.788C33.8844 58.0116 33.7844 58.0245 37.1095 60.1365ZM87.6838 57.9559C89.6011 58.6229 91.787 60.5773 92.8465 62.4743C94.9397 66.0681 94.834 67.6075 92.3999 66.0921C91.6219 65.5827 89.7435 65.2158 88.3171 65.1973C86.7907 65.1917 84.5604 64.4636 83.3303 63.6058C80.6443 61.7162 77.647 62.9184 78.5843 65.4415C79.14 66.59 78.4953 67.8941 76.7372 69.2408L74.0437 71.2173L73.6547 68.2163C73.3955 66.2156 74.0624 64.2983 75.6686 62.5645C77.8972 60.1397 78.2843 59.9878 80.4535 61.0289C83.4878 62.4666 84.8291 60.2585 81.9689 58.5949C79.9868 57.4277 79.9868 57.4277 82.1746 57.0425C83.4751 56.874 85.9666 57.2631 87.6838 57.9559ZM92.7221 70.9327C94.5357 70.7993 94.5487 70.8994 93.3519 71.8682C90.9455 73.7057 83.1373 76.2434 81.2589 75.8765C79.7806 75.4578 80.0029 74.8187 82.3409 71.6677L85.1141 67.9518L87.8613 69.5283C89.4044 70.4472 91.5217 71.0882 92.7221 70.9327Z" fill="black"/>
<path d="M33.5931 68.3223C32.1259 70.3433 32.1518 70.5434 34.2951 71.3845C35.5733 71.8291 36.5125 72.0125 36.5996 71.8995C36.8793 70.1341 36.3515 66.846 35.8124 66.6107C35.3734 66.3625 34.3638 67.2053 33.5931 68.3223Z" fill="black"/>
<path d="M129.653 152.968C129.414 154.165 129.813 156.48 130.451 158.155C131.09 159.831 132.446 164.3 133.483 168.13L135.319 175.152L131.648 175.392C126.222 175.791 125.424 176.828 128.297 179.701C129.813 181.137 130.691 182.893 130.691 184.249C130.691 187.042 132.207 188.957 134.68 189.276C136.436 189.516 136.675 189.995 136.915 192.867C137.234 197.336 138.431 198.214 142.82 197.017C146.889 195.9 149.363 196.378 152.475 198.932C155.029 201.086 155.428 202.523 155.986 210.662C156.465 218.323 157.582 221.993 159.258 221.674C162.769 221.036 164.525 210.423 162.45 203.161C161.173 198.692 156.864 192.229 153.991 190.473C151.358 188.957 143.538 188.558 142.181 189.915C141.623 190.473 141.064 188.239 140.426 182.972C139.628 176.19 138.91 172.758 135.877 161.188C134.68 156.719 131.967 150.814 131.01 150.814C130.531 150.814 129.893 151.771 129.653 152.968Z" fill="black"/>
<path d="M85.2856 155.761C84.4876 157.677 83.3705 161.507 82.8917 164.38C82.3331 167.252 81.2159 172.04 80.4179 175.152C79.5402 178.185 78.5028 182.733 78.024 185.127L77.226 189.516L71.321 189.675C65.5756 189.835 65.416 189.755 65.6554 188.08C65.815 187.122 66.1342 184.648 66.4534 182.494C66.6927 180.419 67.2513 178.903 67.5705 179.062C68.3685 179.541 74.8321 177.786 76.827 176.589C78.1836 175.711 78.2634 175.471 77.226 174.833C75.3109 173.556 64.3786 172.838 62.7029 173.876C61.9049 174.354 60.3089 174.753 59.112 174.833C57.117 174.833 57.0372 174.913 58.4736 175.551C59.3514 175.95 59.7504 176.269 59.2716 176.349C58.8726 176.349 59.511 177.307 60.8675 178.344L63.2614 180.339L60.4685 180.898C58.9524 181.217 57.4362 181.377 57.117 181.297C56.2393 181.057 54.0847 187.441 54.0847 190.154C54.1645 192.229 54.8029 193.187 57.5958 195.341L61.1069 197.974L67.7301 196.777C71.4008 196.139 74.9917 195.421 75.7099 195.102C76.5079 194.783 77.226 195.102 77.5452 195.979C78.1836 197.575 77.9442 197.815 75.9493 198.214C69.4857 199.57 67.4907 201.964 67.0917 208.907C66.7725 214.971 67.6503 219.041 69.3261 219.041C69.9645 219.041 70.523 218.243 70.6826 217.206C70.8422 216.168 71.4806 215.131 72.119 214.892C72.7574 214.652 73.2362 213.375 73.2362 211.62C73.2362 208.667 76.3483 202.443 78.5028 201.246C79.221 200.847 79.9392 199.331 80.0988 197.974C80.2583 196.538 80.5775 195.102 80.8169 194.783C80.9765 194.384 81.6149 190.713 82.0937 186.643C83.1311 177.786 83.1311 178.025 84.727 168.37C86.6422 157.597 87.3603 155.682 89.1957 156.16C90.0735 156.4 90.632 156.799 90.4724 157.118C90.3129 157.357 92.3876 157.437 95.2603 157.198C98.0532 156.958 101.006 157.038 101.724 157.357C104.996 158.634 116.008 157.677 113.773 156.32C113.135 155.921 115.529 155.602 119.519 155.522C124.067 155.522 125.743 155.283 124.706 154.804L123.11 154.086L124.706 154.006C126.142 154.006 126.142 153.846 125.025 153.208C123.189 152.171 95.0209 153.607 92.228 154.884C89.6745 156.001 87.2805 155.283 87.9189 153.607C88.1583 152.969 87.9987 152.41 87.5997 152.41C87.1209 152.41 86.0836 153.926 85.2856 155.761ZM108.188 156.958C107.39 157.118 106.113 157.118 105.395 156.958C104.597 156.719 105.235 156.559 106.751 156.559C108.267 156.559 108.906 156.719 108.188 156.958Z" fill="black"/>
<path d="M114.332 167.332C114.651 170.365 114.97 176.908 115.05 181.935C115.13 192.708 115.928 193.506 120.157 187.202C122.312 184.01 122.711 182.574 122.711 178.743C122.711 175.791 122.312 173.796 121.593 173.237C121.035 172.758 120.317 171.242 119.997 169.966C119.519 167.252 116.646 163.103 114.89 162.385C113.933 162.066 113.853 162.784 114.332 167.332Z" fill="black"/>
<path d="M87.1211 179.701L87.2009 182.334L93.0261 182.573L98.7715 182.813V186.404C98.7715 190.074 100.766 194.703 102.362 194.703C103.799 194.703 104.916 193.506 105.714 191.032C106.751 188 106.193 182.573 104.756 181.775C104.198 181.376 103.879 180.499 104.118 179.621C104.597 177.786 101.804 177.147 93.1857 177.147H87.0413L87.1211 179.701Z" fill="black"/>
<path d="M133.483 199.571C129.015 201.486 127.02 202.124 126.302 201.964C125.903 201.805 125.743 202.044 126.062 202.284C126.381 202.603 126.142 203.64 125.504 204.598C124.865 205.476 124.307 206.832 124.307 207.55C124.307 208.667 123.588 208.907 120.796 208.907C118.88 208.907 116.167 209.545 114.811 210.184C112.098 211.62 111.459 213.854 113.773 213.854C114.97 213.854 114.97 214.014 113.933 214.732C112.975 215.37 113.135 215.45 114.731 215.131C115.848 214.892 117.125 214.652 117.524 214.652C118.003 214.652 119.359 213.774 120.636 212.657C121.913 211.54 123.987 210.662 125.184 210.662C126.701 210.662 128.297 209.785 130.052 208.029C133.803 204.199 135.079 203.64 138.91 204.358C147.687 205.875 148.565 206.673 148.007 212.897C147.847 215.769 147.209 217.685 146.091 218.802C144.575 220.238 144.096 220.318 141.543 219.44C137.393 218.084 134.441 214.253 134.92 210.902C135.399 208.029 134.122 207.311 132.286 209.465C131.728 210.104 131.01 210.503 130.69 210.263C129.733 209.705 128.376 214.652 128.696 217.206C129.015 219.68 131.01 222.871 131.728 222.073C132.047 221.834 132.286 221.994 132.286 222.472C132.286 222.951 132.925 223.35 133.723 223.35C135.478 223.35 139.069 223.989 139.069 224.228C139.069 224.308 139.947 224.547 141.064 224.707C144.256 225.026 150.48 222.712 153.034 220.079C155.029 218.084 155.428 217.126 155.428 213.774C155.428 208.588 152.395 203.161 148.326 201.166C145.134 199.491 135.957 198.533 133.483 199.571ZM152.316 206.034C152.794 206.992 152.794 207.47 152.236 207.47C151.837 207.47 151.438 207.071 151.438 206.513C151.438 206.034 150.799 204.837 150.081 203.959C148.725 202.363 148.725 202.363 150.081 203.401C150.879 204.039 151.917 205.236 152.316 206.034Z" fill="black"/>
<path d="M87.2007 200.049C83.8492 200.927 78.1038 206.034 78.6624 207.63C78.7422 208.029 78.5826 208.268 78.2634 208.268C77.226 208.268 77.0664 215.53 78.1038 216.727C79.3806 218.243 81.7745 218.163 82.7321 216.408C83.5301 215.211 83.7694 215.211 85.2856 217.286C86.1634 218.482 87.2007 219.28 87.5997 219.041C87.9189 218.802 88.3977 219.121 88.6371 219.759C88.8765 220.318 90.8714 221.275 93.026 221.834C97.9734 222.951 102.043 221.914 106.352 218.323C108.986 216.089 109.384 215.291 109.464 212.178C109.464 208.667 107.07 202.363 106.033 203.082C105.634 203.241 104.198 202.762 102.681 201.964C99.9684 200.528 90.1533 199.331 87.2007 200.049ZM99.0906 206.752C101.644 208.747 101.884 212.737 99.6492 215.53C98.2926 217.206 97.9734 217.286 95.7391 216.328C94.2229 215.69 92.7068 214.094 91.7492 212.178C90.8714 210.503 89.9937 209.306 89.7543 209.625C89.0361 210.263 85.2058 210.662 85.2058 210.024C85.2856 207.869 90.1533 205.156 94.0633 205.076C95.8189 205.076 97.8138 205.715 99.0906 206.752Z" fill="black"/>
<path d="M7.09885 234.992V235.267H4.99126V235.048L6.24036 233.824C6.39775 233.67 6.50363 233.537 6.558 233.425C6.61524 233.311 6.64385 233.196 6.64385 233.082C6.64385 232.904 6.58233 232.767 6.45928 232.67C6.33909 232.57 6.16596 232.519 5.93989 232.519C5.58791 232.519 5.31462 232.631 5.12003 232.854L4.90112 232.665C5.01844 232.528 5.16725 232.422 5.34753 232.348C5.53068 232.273 5.73671 232.236 5.96565 232.236C6.27184 232.236 6.51365 232.309 6.69107 232.455C6.87135 232.598 6.96149 232.796 6.96149 233.047C6.96149 233.202 6.92715 233.351 6.85848 233.494C6.7898 233.637 6.65959 233.801 6.46786 233.987L5.44626 234.992H7.09885ZM8.27653 233.494C8.7115 233.494 9.02771 233.573 9.22516 233.73C9.42547 233.884 9.52563 234.102 9.52563 234.382C9.52563 234.557 9.48414 234.713 9.40115 234.85C9.32102 234.988 9.19941 235.096 9.03629 235.176C8.87318 235.254 8.67286 235.292 8.43535 235.292C8.22073 235.292 8.01612 235.258 7.82153 235.189C7.6298 235.118 7.47527 235.023 7.35794 234.906L7.50818 234.661C7.60834 234.764 7.73997 234.849 7.90308 234.915C8.0662 234.978 8.24219 235.009 8.43106 235.009C8.68002 235.009 8.87175 234.953 9.00624 234.842C9.1436 234.73 9.21228 234.581 9.21228 234.395C9.21228 234.189 9.13502 234.033 8.98049 233.927C8.82882 233.821 8.57128 233.769 8.20785 233.769H7.56827L7.7228 232.262H9.36681V232.537H7.99323L7.89021 233.494H8.27653ZM10.1498 235.288C10.0868 235.288 10.0325 235.265 9.98667 235.219C9.94374 235.174 9.92228 235.118 9.92228 235.052C9.92228 234.986 9.94374 234.932 9.98667 234.889C10.0325 234.843 10.0868 234.82 10.1498 234.82C10.2127 234.82 10.2671 234.843 10.3129 234.889C10.3587 234.932 10.3816 234.986 10.3816 235.052C10.3816 235.118 10.3587 235.174 10.3129 235.219C10.2671 235.265 10.2127 235.288 10.1498 235.288ZM11.6101 232.262V235.267H11.301V232.537H10.5927V232.262H11.6101ZM14.3801 234.992V235.267H12.2725V235.048L13.5216 233.824C13.679 233.67 13.7849 233.537 13.8392 233.425C13.8965 233.311 13.9251 233.196 13.9251 233.082C13.9251 232.904 13.8636 232.767 13.7405 232.67C13.6203 232.57 13.4472 232.519 13.2211 232.519C12.8692 232.519 12.5959 232.631 12.4013 232.854L12.1824 232.665C12.2997 232.528 12.4485 232.422 12.6288 232.348C12.8119 232.273 13.018 232.236 13.2469 232.236C13.5531 232.236 13.7949 232.309 13.9723 232.455C14.1526 232.598 14.2427 232.796 14.2427 233.047C14.2427 233.202 14.2084 233.351 14.1397 233.494C14.071 233.637 13.9408 233.801 13.7491 233.987L12.7275 234.992H14.3801ZM15.0417 235.288C14.9787 235.288 14.9243 235.265 14.8786 235.219C14.8356 235.174 14.8142 235.118 14.8142 235.052C14.8142 234.986 14.8356 234.932 14.8786 234.889C14.9243 234.843 14.9787 234.82 15.0417 234.82C15.1046 234.82 15.159 234.843 15.2048 234.889C15.2506 234.932 15.2735 234.986 15.2735 235.052C15.2735 235.118 15.2506 235.174 15.2048 235.219C15.159 235.265 15.1046 235.288 15.0417 235.288ZM17.8132 234.992V235.267H15.7056V235.048L16.9547 233.824C17.1121 233.67 17.218 233.537 17.2724 233.425C17.3296 233.311 17.3582 233.196 17.3582 233.082C17.3582 232.904 17.2967 232.767 17.1736 232.67C17.0535 232.57 16.8803 232.519 16.6543 232.519C16.3023 232.519 16.029 232.631 15.8344 232.854L15.6155 232.665C15.7328 232.528 15.8816 232.422 16.0619 232.348C16.245 232.273 16.4511 232.236 16.68 232.236C16.9862 232.236 17.228 232.309 17.4054 232.455C17.5857 232.598 17.6759 232.796 17.6759 233.047C17.6759 233.202 17.6415 233.351 17.5728 233.494C17.5042 233.637 17.374 233.801 17.1822 233.987L16.1606 234.992H17.8132ZM19.3819 235.292C19.1501 235.292 18.9426 235.231 18.7595 235.108C18.5792 234.985 18.4376 234.809 18.3346 234.58C18.2344 234.348 18.1843 234.076 18.1843 233.764C18.1843 233.452 18.2344 233.182 18.3346 232.953C18.4376 232.721 18.5792 232.544 18.7595 232.421C18.9426 232.298 19.1501 232.236 19.3819 232.236C19.6137 232.236 19.8197 232.298 20 232.421C20.1832 232.544 20.3262 232.721 20.4293 232.953C20.5323 233.182 20.5838 233.452 20.5838 233.764C20.5838 234.076 20.5323 234.348 20.4293 234.58C20.3262 234.809 20.1832 234.985 20 235.108C19.8197 235.231 19.6137 235.292 19.3819 235.292ZM19.3819 235.009C19.5565 235.009 19.7096 234.96 19.8412 234.863C19.9757 234.766 20.0801 234.624 20.1546 234.438C20.229 234.252 20.2662 234.028 20.2662 233.764C20.2662 233.501 20.229 233.276 20.1546 233.09C20.0801 232.904 19.9757 232.763 19.8412 232.665C19.7096 232.568 19.5565 232.519 19.3819 232.519C19.2073 232.519 19.0528 232.568 18.9183 232.665C18.7867 232.763 18.6837 232.904 18.6093 233.09C18.5349 233.276 18.4977 233.501 18.4977 233.764C18.4977 234.028 18.5349 234.252 18.6093 234.438C18.6837 234.624 18.7867 234.766 18.9183 234.863C19.0528 234.96 19.2073 235.009 19.3819 235.009ZM23.0698 234.992V235.267H20.9622V235.048L22.2113 233.824C22.3687 233.67 22.4746 233.537 22.5289 233.425C22.5862 233.311 22.6148 233.196 22.6148 233.082C22.6148 232.904 22.5533 232.767 22.4302 232.67C22.31 232.57 22.1369 232.519 21.9108 232.519C21.5589 232.519 21.2856 232.631 21.091 232.854L20.8721 232.665C20.9894 232.528 21.1382 232.422 21.3185 232.348C21.5016 232.273 21.7077 232.236 21.9366 232.236C22.2428 232.236 22.4846 232.309 22.662 232.455C22.8423 232.598 22.9324 232.796 22.9324 233.047C22.9324 233.202 22.8981 233.351 22.8294 233.494C22.7607 233.637 22.6305 233.801 22.4388 233.987L21.4172 234.992H23.0698ZM25.9111 234.477H25.3101V235.267H25.0011V234.477H23.3055V234.254L24.898 232.262H25.2414L23.7047 234.202H25.0097V233.507H25.3101V234.202H25.9111V234.477Z" fill="black"/>
<path d="M76.1869 234.992V235.267H74.0793V235.048L75.3284 233.824C75.4858 233.67 75.5916 233.537 75.646 233.425C75.7032 233.311 75.7319 233.196 75.7319 233.082C75.7319 232.904 75.6703 232.767 75.5473 232.67C75.4271 232.57 75.254 232.519 75.0279 232.519C74.6759 232.519 74.4026 232.631 74.208 232.854L73.9891 232.665C74.1065 232.528 74.2553 232.422 74.4355 232.348C74.6187 232.273 74.8247 232.236 75.0537 232.236C75.3599 232.236 75.6017 232.309 75.7791 232.455C75.9594 232.598 76.0495 232.796 76.0495 233.047C76.0495 233.202 76.0152 233.351 75.9465 233.494C75.8778 233.637 75.7476 233.801 75.5559 233.987L74.5343 234.992H76.1869ZM77.3645 233.494C77.7995 233.494 78.1157 233.573 78.3132 233.73C78.5135 233.884 78.6136 234.102 78.6136 234.382C78.6136 234.557 78.5722 234.713 78.4892 234.85C78.409 234.988 78.2874 235.096 78.1243 235.176C77.9612 235.254 77.7609 235.292 77.5234 235.292C77.3087 235.292 77.1041 235.258 76.9095 235.189C76.7178 235.118 76.5633 235.023 76.446 234.906L76.5962 234.661C76.6963 234.764 76.828 234.849 76.9911 234.915C77.1542 234.978 77.3302 235.009 77.5191 235.009C77.768 235.009 77.9598 234.953 78.0943 234.842C78.2316 234.73 78.3003 234.581 78.3003 234.395C78.3003 234.189 78.223 234.033 78.0685 233.927C77.9168 233.821 77.6593 233.769 77.2959 233.769H76.6563L76.8108 232.262H78.4548V232.537H77.0812L76.9782 233.494H77.3645ZM79.2378 235.288C79.1748 235.288 79.1205 235.265 79.0747 235.219C79.0318 235.174 79.0103 235.118 79.0103 235.052C79.0103 234.986 79.0318 234.932 79.0747 234.889C79.1205 234.843 79.1748 234.82 79.2378 234.82C79.3007 234.82 79.3551 234.843 79.4009 234.889C79.4467 234.932 79.4696 234.986 79.4696 235.052C79.4696 235.118 79.4467 235.174 79.4009 235.219C79.3551 235.265 79.3007 235.288 79.2378 235.288ZM80.6981 232.262V235.267H80.389V232.537H79.6808V232.262H80.6981ZM83.4681 234.992V235.267H81.3605V235.048L82.6096 233.824C82.767 233.67 82.8729 233.537 82.9273 233.425C82.9845 233.311 83.0131 233.196 83.0131 233.082C83.0131 232.904 82.9516 232.767 82.8285 232.67C82.7083 232.57 82.5352 232.519 82.3091 232.519C81.9572 232.519 81.6839 232.631 81.4893 232.854L81.2704 232.665C81.3877 232.528 81.5365 232.422 81.7168 232.348C81.8999 232.273 82.106 232.236 82.3349 232.236C82.6411 232.236 82.8829 232.309 83.0603 232.455C83.2406 232.598 83.3307 232.796 83.3307 233.047C83.3307 233.202 83.2964 233.351 83.2277 233.494C83.1591 233.637 83.0288 233.801 82.8371 233.987L81.8155 234.992H83.4681ZM84.1297 235.288C84.0667 235.288 84.0124 235.265 83.9666 235.219C83.9236 235.174 83.9022 235.118 83.9022 235.052C83.9022 234.986 83.9236 234.932 83.9666 234.889C84.0124 234.843 84.0667 234.82 84.1297 234.82C84.1926 234.82 84.247 234.843 84.2928 234.889C84.3386 234.932 84.3615 234.986 84.3615 235.052C84.3615 235.118 84.3386 235.174 84.2928 235.219C84.247 235.265 84.1926 235.288 84.1297 235.288ZM86.9012 234.992V235.267H84.7936V235.048L86.0427 233.824C86.2001 233.67 86.306 233.537 86.3604 233.425C86.4176 233.311 86.4462 233.196 86.4462 233.082C86.4462 232.904 86.3847 232.767 86.2617 232.67C86.1415 232.57 85.9683 232.519 85.7423 232.519C85.3903 232.519 85.117 232.631 84.9224 232.854L84.7035 232.665C84.8208 232.528 84.9696 232.422 85.1499 232.348C85.3331 232.273 85.5391 232.236 85.768 232.236C86.0742 232.236 86.316 232.309 86.4934 232.455C86.6737 232.598 86.7639 232.796 86.7639 233.047C86.7639 233.202 86.7295 233.351 86.6609 233.494C86.5922 233.637 86.462 233.801 86.2702 233.987L85.2486 234.992H86.9012ZM88.4699 235.292C88.2381 235.292 88.0307 235.231 87.8475 235.108C87.6672 234.985 87.5256 234.809 87.4226 234.58C87.3224 234.348 87.2723 234.076 87.2723 233.764C87.2723 233.452 87.3224 233.182 87.4226 232.953C87.5256 232.721 87.6672 232.544 87.8475 232.421C88.0307 232.298 88.2381 232.236 88.4699 232.236C88.7017 232.236 88.9078 232.298 89.088 232.421C89.2712 232.544 89.4143 232.721 89.5173 232.953C89.6203 233.182 89.6718 233.452 89.6718 233.764C89.6718 234.076 89.6203 234.348 89.5173 234.58C89.4143 234.809 89.2712 234.985 89.088 235.108C88.9078 235.231 88.7017 235.292 88.4699 235.292ZM88.4699 235.009C88.6445 235.009 88.7976 234.96 88.9292 234.863C89.0637 234.766 89.1682 234.624 89.2426 234.438C89.317 234.252 89.3542 234.028 89.3542 233.764C89.3542 233.501 89.317 233.276 89.2426 233.09C89.1682 232.904 89.0637 232.763 88.9292 232.665C88.7976 232.568 88.6445 232.519 88.4699 232.519C88.2954 232.519 88.1408 232.568 88.0063 232.665C87.8747 232.763 87.7717 232.904 87.6973 233.09C87.6229 233.276 87.5857 233.501 87.5857 233.764C87.5857 234.028 87.6229 234.252 87.6973 234.438C87.7717 234.624 87.8747 234.766 88.0063 234.863C88.1408 234.96 88.2954 235.009 88.4699 235.009ZM92.1578 234.992V235.267H90.0502V235.048L91.2993 233.824C91.4567 233.67 91.5626 233.537 91.617 233.425C91.6742 233.311 91.7028 233.196 91.7028 233.082C91.7028 232.904 91.6413 232.767 91.5182 232.67C91.398 232.57 91.2249 232.519 90.9988 232.519C90.6469 232.519 90.3736 232.631 90.179 232.854L89.9601 232.665C90.0774 232.528 90.2262 232.422 90.4065 232.348C90.5896 232.273 90.7957 232.236 91.0246 232.236C91.3308 232.236 91.5726 232.309 91.75 232.455C91.9303 232.598 92.0205 232.796 92.0205 233.047C92.0205 233.202 91.9861 233.351 91.9174 233.494C91.8488 233.637 91.7185 233.801 91.5268 233.987L90.5052 234.992H92.1578ZM94.9991 234.477H94.3981V235.267H94.0891V234.477H92.3936V234.254L93.9861 232.262H94.3295L92.7928 234.202H94.0977V233.507H94.3981V234.202H94.9991V234.477Z" fill="black"/>
<path d="M145.275 234.951V235.226H143.167V235.007L144.416 233.783C144.574 233.629 144.68 233.496 144.734 233.384C144.791 233.27 144.82 233.155 144.82 233.041C144.82 232.863 144.758 232.726 144.635 232.629C144.515 232.528 144.342 232.478 144.116 232.478C143.764 232.478 143.491 232.59 143.296 232.813L143.077 232.624C143.194 232.487 143.343 232.381 143.524 232.307C143.707 232.232 143.913 232.195 144.142 232.195C144.448 232.195 144.69 232.268 144.867 232.414C145.047 232.557 145.138 232.755 145.138 233.006C145.138 233.161 145.103 233.31 145.035 233.453C144.966 233.596 144.836 233.76 144.644 233.946L143.622 234.951H145.275ZM146.453 233.453C146.888 233.453 147.204 233.531 147.401 233.689C147.601 233.843 147.702 234.061 147.702 234.341C147.702 234.516 147.66 234.672 147.577 234.809C147.497 234.947 147.375 235.055 147.212 235.135C147.049 235.213 146.849 235.251 146.611 235.251C146.397 235.251 146.192 235.217 145.998 235.148C145.806 235.077 145.651 234.982 145.534 234.865L145.684 234.62C145.784 234.723 145.916 234.808 146.079 234.874C146.242 234.937 146.418 234.968 146.607 234.968C146.856 234.968 147.048 234.912 147.182 234.801C147.32 234.689 147.388 234.54 147.388 234.354C147.388 234.148 147.311 233.992 147.157 233.886C147.005 233.78 146.747 233.728 146.384 233.728H145.744L145.899 232.221H147.543V232.496H146.169L146.066 233.453H146.453ZM148.326 235.247C148.263 235.247 148.208 235.224 148.163 235.178C148.12 235.133 148.098 235.077 148.098 235.011C148.098 234.945 148.12 234.891 148.163 234.848C148.208 234.802 148.263 234.779 148.326 234.779C148.389 234.779 148.443 234.802 148.489 234.848C148.535 234.891 148.558 234.945 148.558 235.011C148.558 235.077 148.535 235.133 148.489 235.178C148.443 235.224 148.389 235.247 148.326 235.247ZM149.786 232.221V235.226H149.477V232.496H148.769V232.221H149.786ZM152.556 234.951V235.226H150.449V235.007L151.698 233.783C151.855 233.629 151.961 233.496 152.015 233.384C152.073 233.27 152.101 233.155 152.101 233.041C152.101 232.863 152.04 232.726 151.917 232.629C151.796 232.528 151.623 232.478 151.397 232.478C151.045 232.478 150.772 232.59 150.577 232.813L150.358 232.624C150.476 232.487 150.625 232.381 150.805 232.307C150.988 232.232 151.194 232.195 151.423 232.195C151.729 232.195 151.971 232.268 152.148 232.414C152.329 232.557 152.419 232.755 152.419 233.006C152.419 233.161 152.384 233.31 152.316 233.453C152.247 233.596 152.117 233.76 151.925 233.946L150.904 234.951H152.556ZM153.218 235.247C153.155 235.247 153.1 235.224 153.055 235.178C153.012 235.133 152.99 235.077 152.99 235.011C152.99 234.945 153.012 234.891 153.055 234.848C153.1 234.802 153.155 234.779 153.218 234.779C153.281 234.779 153.335 234.802 153.381 234.848C153.427 234.891 153.449 234.945 153.449 235.011C153.449 235.077 153.427 235.133 153.381 235.178C153.335 235.224 153.281 235.247 153.218 235.247ZM155.989 234.951V235.226H153.882V235.007L155.131 233.783C155.288 233.629 155.394 233.496 155.448 233.384C155.506 233.27 155.534 233.155 155.534 233.041C155.534 232.863 155.473 232.726 155.35 232.629C155.229 232.528 155.056 232.478 154.83 232.478C154.478 232.478 154.205 232.59 154.01 232.813L153.792 232.624C153.909 232.487 154.058 232.381 154.238 232.307C154.421 232.232 154.627 232.195 154.856 232.195C155.162 232.195 155.404 232.268 155.581 232.414C155.762 232.557 155.852 232.755 155.852 233.006C155.852 233.161 155.818 233.31 155.749 233.453C155.68 233.596 155.55 233.76 155.358 233.946L154.337 234.951H155.989ZM157.558 235.251C157.326 235.251 157.119 235.19 156.936 235.067C156.755 234.944 156.614 234.768 156.511 234.539C156.41 234.307 156.36 234.035 156.36 233.723C156.36 233.411 156.41 233.141 156.511 232.912C156.614 232.68 156.755 232.503 156.936 232.38C157.119 232.257 157.326 232.195 157.558 232.195C157.79 232.195 157.996 232.257 158.176 232.38C158.359 232.503 158.502 232.68 158.605 232.912C158.708 233.141 158.76 233.411 158.76 233.723C158.76 234.035 158.708 234.307 158.605 234.539C158.502 234.768 158.359 234.944 158.176 235.067C157.996 235.19 157.79 235.251 157.558 235.251ZM157.558 234.968C157.732 234.968 157.886 234.919 158.017 234.822C158.152 234.725 158.256 234.583 158.331 234.397C158.405 234.211 158.442 233.986 158.442 233.723C158.442 233.46 158.405 233.235 158.331 233.049C158.256 232.863 158.152 232.722 158.017 232.624C157.886 232.527 157.732 232.478 157.558 232.478C157.383 232.478 157.229 232.527 157.094 232.624C156.963 232.722 156.86 232.863 156.785 233.049C156.711 233.235 156.674 233.46 156.674 233.723C156.674 233.986 156.711 234.211 156.785 234.397C156.86 234.583 156.963 234.725 157.094 234.822C157.229 234.919 157.383 234.968 157.558 234.968ZM161.246 234.951V235.226H159.138V235.007L160.387 233.783C160.545 233.629 160.651 233.496 160.705 233.384C160.762 233.27 160.791 233.155 160.791 233.041C160.791 232.863 160.729 232.726 160.606 232.629C160.486 232.528 160.313 232.478 160.087 232.478C159.735 232.478 159.462 232.59 159.267 232.813L159.048 232.624C159.165 232.487 159.314 232.381 159.495 232.307C159.678 232.232 159.884 232.195 160.113 232.195C160.419 232.195 160.661 232.268 160.838 232.414C161.018 232.557 161.108 232.755 161.108 233.006C161.108 233.161 161.074 233.31 161.005 233.453C160.937 233.596 160.807 233.76 160.615 233.946L159.593 234.951H161.246ZM164.087 234.436H163.486V235.226H163.177V234.436H161.482V234.213L163.074 232.221H163.417L161.881 234.161H163.186V233.466H163.486V234.161H164.087V234.436Z" fill="black"/>
<path d="M143.594 110.392C143.369 111.291 143.444 113.015 143.744 114.139C143.968 115.263 144.568 119.985 144.943 124.707C145.842 135.124 146.367 136.099 150.414 134.525L152.362 133.85L150.789 131.152C149.889 129.728 148.765 127.105 148.165 125.306L147.116 122.158L147.416 125.306C147.566 127.03 148.24 129.353 148.99 130.478C150.414 132.651 149.589 134.3 147.566 133.55C146.667 133.176 146.442 131.902 146.442 128.004C146.442 125.231 146.067 120.884 145.542 118.411C145.093 115.938 144.568 113.015 144.343 111.891C143.968 110.092 144.193 109.867 146.667 109.343C148.39 109.043 150.414 109.268 152.213 109.942C154.536 110.842 154.986 111.291 154.986 113.165C154.986 115.039 154.611 115.563 152.587 116.163C151.238 116.537 150.114 117.137 150.114 117.587C150.114 117.961 153.037 121.259 156.634 125.006C162.705 131.302 163.005 131.827 161.731 132.801C160.007 134 158.958 133.775 157.983 131.827C155.885 127.705 150.339 121.109 149.065 121.034C147.716 121.034 147.716 121.109 148.765 121.934C149.44 122.458 151.763 125.606 154.011 128.904C157.983 134.824 158.133 134.974 160.457 134.375C165.028 133.176 164.429 131.302 156.934 123.657C153.861 120.585 151.763 118.036 152.288 118.036C153.861 118.036 156.11 115.039 156.11 112.94C156.11 109.942 152.812 108.143 147.866 108.443C144.643 108.668 143.968 108.893 143.594 110.392Z" fill="black"/>
<path d="M146.142 111.066C145.842 111.291 145.617 112.266 145.617 113.24C145.617 114.814 147.266 115.788 150.264 115.788C152.138 115.788 153.487 113.015 152.288 111.591C151.388 110.542 147.041 110.092 146.142 111.066ZM148.241 112.041C148.465 112.415 149.365 112.79 150.189 112.79C151.838 112.79 152.138 114.139 150.564 114.739C149.14 115.263 146.367 113.765 146.367 112.415C146.367 111.141 147.566 110.917 148.241 112.041Z" fill="black"/>
<path d="M126.927 108.937C126.205 109.418 126.265 109.539 127.349 109.539C128.613 109.539 130.058 111.405 133.61 117.365C136.078 121.519 138.606 133.017 137.041 133.017C136.62 133.017 135.717 133.198 135.054 133.378C133.429 133.8 131.743 130.91 131.743 127.72C131.743 126.335 131.503 125.131 131.141 124.89C130.84 124.709 130.419 122.964 130.178 120.977C129.937 118.99 129.516 117.365 129.275 117.365C128.312 117.365 126.325 121.218 126.325 122.964C126.325 125.071 125.242 129.827 124.339 131.693C123.917 132.596 123.255 133.017 122.472 132.897C121.389 132.716 121.208 132.355 121.329 129.706C121.389 128.021 122.292 123.566 123.375 119.773C125.482 112.067 126.145 108.997 125.362 109.719C125.121 109.96 124.82 110.502 124.76 110.923C124.64 111.345 124.339 112.549 123.977 113.572C123.616 114.656 123.014 116.462 122.653 117.485C122.352 118.569 121.931 120.134 121.75 120.977C121.569 121.82 121.208 123.445 120.907 124.589C120.546 125.733 120.305 128.683 120.305 131.031V135.425L121.81 134.823C122.653 134.522 123.676 134.402 124.158 134.582C124.7 134.763 125.121 134.342 125.362 133.318C125.844 131.332 127.83 129.405 129.275 129.405C130.058 129.405 130.961 130.308 131.864 131.934C133.248 134.462 133.309 134.522 136.258 134.402C138.486 134.342 139.208 134.101 139.028 133.499C138.907 133.077 138.667 131.633 138.546 130.308C138.185 125.914 136.439 120.134 134.513 116.883C133.489 115.077 132.165 112.79 131.563 111.766C130.479 109.96 128.914 108.335 128.192 108.335C128.011 108.335 127.409 108.636 126.927 108.937ZM129.095 124.107C127.349 125.311 126.988 123.265 128.252 119.713L129.034 117.666L129.396 120.676C129.636 122.602 129.516 123.867 129.095 124.107ZM130.419 126.817C130.6 128.442 130.419 128.683 128.794 128.924C127.228 129.164 126.927 128.984 126.927 128.021C126.927 126.576 128.673 124.469 129.576 124.77C129.937 124.89 130.299 125.793 130.419 126.817Z" fill="black"/>
<path d="M105.32 109.747C104.221 110.48 102.45 112.434 101.473 114.021C99.7632 116.769 99.6411 117.38 99.6411 123.18C99.58 128.615 99.7632 129.714 100.923 131.607C101.656 132.767 102.999 134.11 103.854 134.599C105.259 135.332 105.686 135.332 107.579 134.294C108.739 133.683 109.777 132.584 109.96 131.912C111.121 125.989 110.693 123.18 109.106 126.722C107.091 131.363 104.221 128.92 103.732 122.264L103.366 117.624L105.381 116.586C106.724 115.914 108.129 115.67 109.594 115.914L111.792 116.28L111.609 113.655C111.243 108.892 110.999 108.342 109.106 108.342C108.19 108.342 106.48 108.953 105.32 109.747ZM110.327 112.128C110.754 113.777 110.693 113.838 108.556 113.838C107.274 113.838 105.503 114.388 104.343 115.181C102.389 116.525 102.328 116.769 102.328 120.555C102.328 127.088 102.816 128.676 105.137 130.202C106.907 131.363 107.274 131.424 107.579 130.63C107.762 130.141 108.19 129.897 108.495 130.08C109.289 130.508 108.068 132.584 106.541 133.439C105.442 133.988 104.953 133.805 103.488 132.401C101.107 130.141 100.313 127.333 100.679 122.509C101.045 117.318 101.351 116.097 102.877 113.594C105.198 109.93 109.533 109.075 110.327 112.128Z" fill="black"/>
<path d="M73.2647 118.327C72.8094 118.49 72.094 118.685 71.6388 118.718C70.4682 118.848 70.3706 120.246 71.4437 121.872C72.1916 122.977 72.4517 123.14 73.5248 123.14C74.1752 123.173 75.5409 123.238 76.5164 123.335C77.4919 123.4 79.9307 123.53 81.8818 123.595C83.8653 123.693 85.979 123.888 86.5968 124.083C88.4828 124.668 90.4339 124.538 90.8241 123.823C91.2793 122.912 91.2143 121.579 90.5639 119.888L89.9786 118.425L86.2716 118.36C84.223 118.36 80.6461 118.262 78.3049 118.165C75.9636 118.1 73.7199 118.165 73.2647 118.327ZM89.751 120.929C89.9786 121.709 90.1737 122.652 90.1737 123.042C90.1737 123.693 90.0437 123.758 89.1332 123.595C88.5479 123.498 87.8325 123.335 87.5723 123.238C87.3122 123.14 84.9059 122.945 82.207 122.782C73.85 122.295 73.1996 122.197 72.3217 121.352C71.8664 120.896 71.6063 120.441 71.7364 120.344C72.3867 119.693 76.5164 119.336 82.6622 119.433L89.3283 119.531L89.751 120.929Z" fill="black"/>
<path d="M44.8176 112.1C42.9667 115.8 42.8218 114.263 46.6449 126.783C48.3627 132.295 49.4205 134.047 51.6561 135.03C53.2106 135.695 53.6351 135.62 58.1239 133.77C63.0053 131.662 63.5872 131.06 64.772 126.414C65.3091 124.131 62.4961 114.873 60.7212 113.309C59.8338 112.527 59.0963 111.531 59.0218 111.107C58.8621 110.197 56.4553 109.307 52.2791 108.664C47.6357 107.854 46.5973 108.349 44.8176 112.1ZM54.1572 110.46C56.7747 111.126 58.5324 111.88 58.6389 112.487C58.7241 112.972 59.3689 113.796 60.0818 114.296C61.0086 114.946 61.5067 116.359 62.469 121.129C63.5591 126.627 63.5943 127.183 62.4688 129.319C61.722 130.762 60.6581 131.824 59.4165 132.23C58.3675 132.664 56.7226 133.265 55.7235 133.628C54.2106 134.269 53.7542 134.162 52.6102 132.987C51.9047 132.173 51.0812 131.755 50.8099 131.99C50.2173 132.532 48.5188 129.267 47.4023 125.399C46.9723 123.662 46.2071 121.796 45.7974 121.242C45.3271 120.7 44.7971 119.105 44.5522 117.71C44.169 115.527 44.3944 114.675 45.9338 112.404C46.9232 110.917 48.2583 109.62 48.8042 109.524C49.35 109.429 51.7929 109.812 54.1572 110.46Z" fill="black"/>
<path d="M50.3618 118.753C50.2534 120.273 50.1057 121.924 50.0196 122.502C49.9941 123.069 51.12 124.497 52.781 125.768C55.3901 127.811 55.7252 127.939 57.2062 127.117C58.7979 126.212 58.8266 126.02 58.2527 121.682C57.5478 116.242 56.4645 115.057 52.8864 115.685C50.6424 116.079 50.5424 116.221 50.3618 118.753ZM55.9242 116.964C56.8616 117.675 57.2458 118.795 57.593 121.485C57.9965 124.853 57.9178 125.116 56.5549 125.543C55.6665 125.824 54.4291 125.541 53.4416 124.902C51.9658 123.973 51.7593 123.509 51.6335 120.656C51.578 118.915 51.6044 117.285 51.7331 116.95C52.0693 116.016 54.6909 115.993 55.9242 116.964Z" fill="black"/>
<path d="M31.8519 109.554C31.1526 109.67 30.4532 110.253 30.2784 110.777C30.1035 111.302 30.0452 116.839 30.1035 123.016C30.2784 135.022 30.4532 135.838 33.1341 135.022C33.7751 134.847 35.6984 134.614 37.3302 134.556L40.419 134.497L40.3607 132.166C40.3024 130.884 40.1276 129.194 39.8945 128.378C39.5448 127.096 39.1951 126.921 36.9222 127.037C34.1248 127.212 33.4255 126.688 33.4255 124.124C33.4255 122.492 33.3672 122.492 37.505 122.317C39.9528 122.2 40.5356 121.384 40.0693 118.529C39.6614 116.081 39.6031 116.023 37.8547 116.314C36.8639 116.489 35.6401 116.78 35.1156 117.013C34.5328 117.247 34.0082 116.897 33.542 116.023C32.9592 114.741 32.9009 114.799 32.9009 116.605C32.8427 118.354 32.9592 118.47 34.4745 118.121C35.3487 117.888 36.6308 117.538 37.2719 117.247C38.8455 116.664 39.2534 117.072 39.2534 119.111C39.2534 120.918 38.3792 121.384 35.1156 121.384H32.8427V124.939V128.436L35.8732 128.261L38.9037 128.087L39.3117 130.126C39.5448 131.234 39.6031 132.341 39.37 132.574C39.1368 132.807 37.2136 133.157 35.1156 133.39L31.2691 133.74L30.9194 130.068C30.628 126.979 30.7446 112.176 31.036 110.777C31.036 110.544 32.2016 110.136 33.6003 109.845C35.9898 109.262 34.4745 109.029 31.8519 109.554Z" fill="black"/>
<path d="M39.4865 110.078C40.1859 111.943 38.7872 113.167 35.5818 113.4C33.0758 113.575 33.1923 113.633 36.3394 113.575L40.1276 113.517L40.3024 111.302C40.419 109.961 40.2442 109.146 39.8362 109.146C39.4283 109.146 39.3117 109.554 39.4865 110.078Z" fill="black"/>
<path d="M18.6921 108.668C17.7569 109.218 17.7569 111.804 18.6371 119.176C19.0222 122.147 19.2973 125.778 19.2973 127.318V130.069L17.3718 127.923C16.3265 126.768 14.5659 123.852 13.4656 121.486C9.72456 113.234 8.40418 110.538 7.57895 109.438C6.80873 108.393 6.6987 108.503 6.09352 110.813C5.48835 112.904 5.54337 114.004 6.31359 117.855C7.08381 121.431 7.19384 123.742 6.86374 128.694L6.47863 135.02L7.96406 135.075C8.73428 135.13 9.72456 135.185 10.0547 135.24C10.8249 135.295 10.8799 134.085 10.2197 131.059C9.72456 128.528 10.3297 125.558 11.1 126.823C11.375 127.208 11.5951 128.088 11.5951 128.749C11.5951 130.564 13.9058 133.535 15.7213 134.03C18.7471 134.855 22.8183 135.02 23.2584 134.305C24.4138 132.545 23.2034 111.529 21.883 109.328C21.3329 108.503 19.5724 108.118 18.6921 108.668ZM21.4979 110.483C22.1581 112.134 23.0934 122.147 23.1484 126.878V133.37H19.7374C14.896 133.37 13.9058 132.655 12.3103 128.418C11.5951 126.438 10.8799 124.237 10.7148 123.467C10.6048 122.697 10.1097 120.991 9.66955 119.616C8.95434 117.305 8.89933 117.635 9.17441 124.842C9.33945 129.079 9.55952 132.875 9.72456 133.205C9.83459 133.59 9.44948 133.92 8.89933 133.92C7.63396 133.92 7.19384 130.729 7.85403 126.548C8.07409 124.842 7.96406 122.422 7.46892 119.671C6.97378 117.14 6.86374 114.72 7.13882 113.564C7.52393 111.639 7.57895 111.749 11.21 119.176C13.5757 124.072 15.7213 127.648 17.2067 129.244C18.4721 130.619 19.6824 131.719 19.9025 131.719C20.6727 131.719 20.7827 127.483 20.1225 124.292C19.2423 120.221 18.5271 111.088 18.9672 110.373C19.2423 109.933 21.3879 110.043 21.4979 110.483Z" fill="black"/>
</g>
<defs>
<clipPath id="clip0_621_93593">
<rect y="0.578125" width="169" height="241.44" rx="10" fill="white"/>
</clipPath>
</defs>
</svg>
