<svg width="169" height="243" viewBox="0 0 169 243" fill="none" xmlns="http://www.w3.org/2000/svg">
<rect y="0.578125" width="169" height="241.44" rx="10" fill="white"/>
<path d="M84.8497 42.5327C86.4621 43.7053 85.8758 43.8519 82.2114 43.2656C79.4265 42.8259 73.1237 43.5587 67.1141 45.3176C52.1635 49.4218 43.3689 57.63 33.4018 76.9779C29.7374 84.1601 27.6854 89.8765 27.6854 93.5409C27.6854 98.5245 27.2457 99.2574 23.5813 99.9902C15.8128 101.603 13.9073 106.733 12.8813 129.598C12.1484 148.36 12.295 150.852 15.2265 158.181C16.9854 162.578 18.8909 168.001 19.4772 170.2C20.21 173.424 21.2361 174.304 24.3142 174.304C28.1251 174.304 28.1251 174.304 27.3922 184.271C26.6594 194.971 26.9525 195.85 34.721 199.808C39.1183 202.007 39.4114 202.007 41.0237 198.929C42.7826 195.704 43.6621 181.193 42.3429 177.235C41.7566 175.33 44.6881 175.037 64.3292 175.183C76.7881 175.183 92.7648 175.77 99.8004 176.356L112.406 177.529L111.966 181.926C111.526 184.271 110.94 187.496 110.5 188.815C109.181 193.359 121.494 201.127 127.65 199.661C135.272 197.756 139.083 189.255 133.806 186.323C129.848 184.124 132.34 177.235 137.177 177.235C142.454 177.235 149.636 169.174 153.007 159.06C155.792 150.998 155.792 150.412 153.3 139.419C151.835 133.263 150.369 126.081 149.929 123.735C147.437 108.052 145.972 104.094 142.454 103.215C140.548 102.775 138.35 102.775 137.617 103.215C136.884 103.655 136.737 101.896 137.031 99.2574C137.617 95.7396 136.298 90.9026 132.487 81.5218C127.65 70.2355 125.744 67.5971 116.803 59.2423C111.087 54.1122 103.318 48.3957 99.6538 46.4903C95.9895 44.5848 92.6182 42.8259 92.1785 42.3861C91.7388 41.9464 89.5402 41.5067 87.0484 41.3601C83.5306 41.067 83.0908 41.3601 84.8497 42.5327ZM98.921 58.2163C111.82 68.1834 122.08 80.056 126.917 90.6094C129.555 96.4724 131.607 101.749 131.168 102.042C130.728 102.482 127.21 103.068 123.106 103.361C116.217 103.948 115.924 103.801 116.217 100.577C116.51 98.6711 116.95 96.4724 117.536 95.7396C117.976 95.0067 116.217 91.3423 113.578 87.8245C105.957 77.2711 88.9538 69.6492 81.6251 73.4601C77.8141 75.3656 78.4004 77.4176 82.9443 79.1765C85.1429 80.056 87.3415 81.2286 87.7812 81.8149C88.221 82.4012 91.7388 84.5998 95.6963 86.5053C100.094 88.7039 104.198 92.2217 106.25 95.4464C109.621 100.723 109.621 100.723 106.543 99.8437C104.198 99.2574 103.611 99.6971 104.198 101.163C105.077 103.361 102.439 103.508 85.5826 102.629C80.4525 102.335 79.1333 101.896 81.1854 101.163C84.1169 99.9902 69.7525 98.0848 57.7333 98.0848H52.0169L57.4402 92.5149C60.958 88.9971 62.8635 85.6259 62.8635 83.1341C62.8635 80.9354 63.5963 79.03 64.6224 78.7368C67.1141 77.8574 64.6224 74.6327 61.5443 74.6327C57.5867 74.6327 43.2224 91.3423 42.1963 97.3519C41.7566 99.4039 40.1443 100.43 36.6265 100.723L31.7895 101.163L32.6689 95.8861C34.1347 88.7039 45.421 71.5546 52.7498 65.8382C62.7169 57.9231 73.8566 53.9656 84.9963 54.4053C92.1785 54.8451 95.5497 55.7245 98.921 58.2163ZM135.125 113.475C139.962 114.794 143.48 120.804 143.48 127.84C143.48 130.624 144.359 135.461 145.532 138.54C146.558 141.764 148.024 147.627 148.463 151.585C149.929 162.578 148.463 163.75 132.487 164.19C117.096 164.63 83.8237 163.164 55.2415 160.819C44.2484 159.94 33.2552 159.646 31.0566 160.086C27.2457 160.819 26.8059 160.379 23.2881 151.878C20.21 144.256 19.4772 140.445 19.6237 128.866V114.941L35.0141 113.329C51.4306 111.57 128.236 111.716 135.125 113.475Z" fill="black"/>
<path d="M38.532 121.976C28.858 126.667 24.7539 131.944 24.7539 139.859C24.7539 145.135 25.3402 146.308 28.858 147.92C34.2813 150.559 59.7854 151.585 66.2347 149.533C69.1662 148.507 71.8046 146.601 72.2443 145.282C74.4429 137.22 74.5895 133.702 72.5374 131.064C71.2183 129.452 70.1922 126.374 70.1922 124.028C70.1922 120.364 69.7525 120.071 64.4758 120.071C61.3977 120.071 55.9744 119.778 52.4566 119.338C47.4731 118.605 44.2484 119.338 38.532 121.976ZM61.984 134.289C65.2087 136.341 58.1731 137.66 48.9388 136.781C37.506 135.754 35.3073 135.022 38.0923 132.97C40.1443 131.797 59.3457 132.823 61.984 134.289Z" fill="black"/>
<path d="M109.474 122.563C107.422 122.856 104.931 124.028 104.198 124.908C102.146 127.839 98.0415 139.712 98.0415 143.23C98.0415 149.533 117.243 155.982 125.451 152.464C135.858 148.067 141.574 131.357 134.685 125.201C131.9 122.563 117.683 121.097 109.474 122.563ZM128.529 137.22C128.822 138.539 127.063 139.126 122.52 139.126C114.165 139.126 110.207 137.807 112.992 136.048C115.777 134.142 127.796 135.168 128.529 137.22Z" fill="black"/>
<path d="M7.14011 234.542V234.817H5.03252V234.598L6.28162 233.375C6.43901 233.22 6.54489 233.087 6.59926 232.975C6.6565 232.861 6.68511 232.747 6.68511 232.632C6.68511 232.455 6.62359 232.317 6.50054 232.22C6.38035 232.12 6.20722 232.07 5.98115 232.07C5.62917 232.07 5.35588 232.181 5.16129 232.405L4.94238 232.216C5.0597 232.078 5.20851 231.972 5.38879 231.898C5.57194 231.824 5.77797 231.786 6.0069 231.786C6.3131 231.786 6.55491 231.859 6.73233 232.005C6.91261 232.148 7.00275 232.346 7.00275 232.598C7.00275 232.752 6.96841 232.901 6.89974 233.044C6.83106 233.187 6.70085 233.352 6.50912 233.538L5.48752 234.542H7.14011ZM8.31779 233.044C8.75276 233.044 9.06897 233.123 9.26642 233.28C9.46673 233.435 9.56689 233.652 9.56689 233.933C9.56689 234.107 9.5254 234.263 9.44241 234.401C9.36228 234.538 9.24066 234.647 9.07755 234.727C8.91444 234.804 8.71412 234.843 8.47661 234.843C8.26199 234.843 8.05738 234.808 7.86279 234.74C7.67106 234.668 7.51653 234.574 7.3992 234.456L7.54944 234.212C7.6496 234.315 7.78123 234.399 7.94434 234.465C8.10746 234.528 8.28345 234.559 8.47232 234.559C8.72128 234.559 8.91301 234.504 9.0475 234.392C9.18486 234.28 9.25354 234.132 9.25354 233.946C9.25354 233.739 9.17628 233.584 9.02175 233.478C8.87008 233.372 8.61254 233.319 8.24911 233.319H7.60953L7.76406 231.812H9.40807V232.087H8.03449L7.93147 233.044H8.31779ZM10.191 234.838C10.1281 234.838 10.0737 234.815 10.0279 234.77C9.985 234.724 9.96354 234.668 9.96354 234.602C9.96354 234.536 9.985 234.482 10.0279 234.439C10.0737 234.393 10.1281 234.37 10.191 234.37C10.254 234.37 10.3084 234.393 10.3542 234.439C10.3999 234.482 10.4228 234.536 10.4228 234.602C10.4228 234.668 10.3999 234.724 10.3542 234.77C10.3084 234.815 10.254 234.838 10.191 234.838ZM11.6513 231.812V234.817H11.3423V232.087H10.634V231.812H11.6513ZM14.4214 234.542V234.817H12.3138V234.598L13.5629 233.375C13.7203 233.22 13.8261 233.087 13.8805 232.975C13.9377 232.861 13.9664 232.747 13.9664 232.632C13.9664 232.455 13.9048 232.317 13.7818 232.22C13.6616 232.12 13.4885 232.07 13.2624 232.07C12.9104 232.07 12.6371 232.181 12.4425 232.405L12.2236 232.216C12.3409 232.078 12.4898 231.972 12.67 231.898C12.8532 231.824 13.0592 231.786 13.2881 231.786C13.5943 231.786 13.8361 231.859 14.0136 232.005C14.1939 232.148 14.284 232.346 14.284 232.598C14.284 232.752 14.2497 232.901 14.181 233.044C14.1123 233.187 13.9821 233.352 13.7904 233.538L12.7688 234.542H14.4214ZM15.0829 234.838C15.02 234.838 14.9656 234.815 14.9198 234.77C14.8769 234.724 14.8554 234.668 14.8554 234.602C14.8554 234.536 14.8769 234.482 14.9198 234.439C14.9656 234.393 15.02 234.37 15.0829 234.37C15.1459 234.37 15.2003 234.393 15.246 234.439C15.2918 234.482 15.3147 234.536 15.3147 234.602C15.3147 234.668 15.2918 234.724 15.246 234.77C15.2003 234.815 15.1459 234.838 15.0829 234.838ZM17.8545 234.542V234.817H15.7469V234.598L16.996 233.375C17.1534 233.22 17.2593 233.087 17.3136 232.975C17.3709 232.861 17.3995 232.747 17.3995 232.632C17.3995 232.455 17.338 232.317 17.2149 232.22C17.0947 232.12 16.9216 232.07 16.6955 232.07C16.3435 232.07 16.0702 232.181 15.8757 232.405L15.6567 232.216C15.7741 232.078 15.9229 231.972 16.1032 231.898C16.2863 231.824 16.4923 231.786 16.7213 231.786C17.0275 231.786 17.2693 231.859 17.4467 232.005C17.627 232.148 17.7171 232.346 17.7171 232.598C17.7171 232.752 17.6828 232.901 17.6141 233.044C17.5454 233.187 17.4152 233.352 17.2235 233.538L16.2019 234.542H17.8545ZM19.4232 234.843C19.1914 234.843 18.9839 234.781 18.8008 234.658C18.6205 234.535 18.4788 234.359 18.3758 234.13C18.2757 233.898 18.2256 233.626 18.2256 233.315C18.2256 233.003 18.2757 232.732 18.3758 232.503C18.4788 232.271 18.6205 232.094 18.8008 231.971C18.9839 231.848 19.1914 231.786 19.4232 231.786C19.655 231.786 19.861 231.848 20.0413 231.971C20.2244 232.094 20.3675 232.271 20.4705 232.503C20.5735 232.732 20.6251 233.003 20.6251 233.315C20.6251 233.626 20.5735 233.898 20.4705 234.13C20.3675 234.359 20.2244 234.535 20.0413 234.658C19.861 234.781 19.655 234.843 19.4232 234.843ZM19.4232 234.559C19.5977 234.559 19.7508 234.511 19.8825 234.413C20.017 234.316 20.1214 234.174 20.1958 233.988C20.2702 233.802 20.3074 233.578 20.3074 233.315C20.3074 233.051 20.2702 232.827 20.1958 232.641C20.1214 232.455 20.017 232.313 19.8825 232.216C19.7508 232.118 19.5977 232.07 19.4232 232.07C19.2486 232.07 19.0941 232.118 18.9596 232.216C18.8279 232.313 18.7249 232.455 18.6505 232.641C18.5761 232.827 18.5389 233.051 18.5389 233.315C18.5389 233.578 18.5761 233.802 18.6505 233.988C18.7249 234.174 18.8279 234.316 18.9596 234.413C19.0941 234.511 19.2486 234.559 19.4232 234.559ZM23.1111 234.542V234.817H21.0035V234.598L22.2526 233.375C22.41 233.22 22.5158 233.087 22.5702 232.975C22.6274 232.861 22.6561 232.747 22.6561 232.632C22.6561 232.455 22.5945 232.317 22.4715 232.22C22.3513 232.12 22.1782 232.07 21.9521 232.07C21.6001 232.07 21.3268 232.181 21.1322 232.405L20.9133 232.216C21.0306 232.078 21.1795 231.972 21.3597 231.898C21.5429 231.824 21.7489 231.786 21.9778 231.786C22.284 231.786 22.5259 231.859 22.7033 232.005C22.8836 232.148 22.9737 232.346 22.9737 232.598C22.9737 232.752 22.9394 232.901 22.8707 233.044C22.802 233.187 22.6718 233.352 22.4801 233.538L21.4585 234.542H23.1111ZM25.9523 234.027H25.3514V234.817H25.0423V234.027H23.3468V233.804L24.9393 231.812H25.2827L23.746 233.752H25.0509V233.057H25.3514V233.752H25.9523V234.027Z" fill="black"/>
<path d="M76.2281 234.542V234.817H74.1205V234.598L75.3696 233.375C75.527 233.22 75.6329 233.087 75.6873 232.975C75.7445 232.861 75.7731 232.747 75.7731 232.632C75.7731 232.455 75.7116 232.317 75.5885 232.22C75.4684 232.12 75.2952 232.07 75.0692 232.07C74.7172 232.07 74.4439 232.181 74.2493 232.405L74.0304 232.216C74.1477 232.078 74.2965 231.972 74.4768 231.898C74.6599 231.824 74.866 231.786 75.0949 231.786C75.4011 231.786 75.6429 231.859 75.8203 232.005C76.0006 232.148 76.0908 232.346 76.0908 232.598C76.0908 232.752 76.0564 232.901 75.9877 233.044C75.9191 233.187 75.7889 233.352 75.5971 233.538L74.5755 234.542H76.2281ZM77.4058 233.044C77.8408 233.044 78.157 233.123 78.3544 233.28C78.5547 233.435 78.6549 233.652 78.6549 233.933C78.6549 234.107 78.6134 234.263 78.5304 234.401C78.4503 234.538 78.3287 234.647 78.1656 234.727C78.0025 234.804 77.8021 234.843 77.5646 234.843C77.35 234.843 77.1454 234.808 76.9508 234.74C76.7591 234.668 76.6045 234.574 76.4872 234.456L76.6375 234.212C76.7376 234.315 76.8692 234.399 77.0324 234.465C77.1955 234.528 77.3715 234.559 77.5603 234.559C77.8093 234.559 78.001 234.504 78.1355 234.392C78.2729 234.28 78.3416 234.132 78.3416 233.946C78.3416 233.739 78.2643 233.584 78.1098 233.478C77.9581 233.372 77.7005 233.319 77.3371 233.319H76.6975L76.8521 231.812H78.4961V232.087H77.1225L77.0195 233.044H77.4058ZM79.2791 234.838C79.2161 234.838 79.1617 234.815 79.1159 234.77C79.073 234.724 79.0516 234.668 79.0516 234.602C79.0516 234.536 79.073 234.482 79.1159 234.439C79.1617 234.393 79.2161 234.37 79.2791 234.37C79.342 234.37 79.3964 234.393 79.4422 234.439C79.488 234.482 79.5108 234.536 79.5108 234.602C79.5108 234.668 79.488 234.724 79.4422 234.77C79.3964 234.815 79.342 234.838 79.2791 234.838ZM80.7393 231.812V234.817H80.4303V232.087H79.722V231.812H80.7393ZM83.5094 234.542V234.817H81.4018V234.598L82.6509 233.375C82.8083 233.22 82.9141 233.087 82.9685 232.975C83.0258 232.861 83.0544 232.747 83.0544 232.632C83.0544 232.455 82.9928 232.317 82.8698 232.22C82.7496 232.12 82.5765 232.07 82.3504 232.07C81.9984 232.07 81.7251 232.181 81.5305 232.405L81.3116 232.216C81.429 232.078 81.5778 231.972 81.758 231.898C81.9412 231.824 82.1472 231.786 82.3762 231.786C82.6824 231.786 82.9242 231.859 83.1016 232.005C83.2819 232.148 83.372 232.346 83.372 232.598C83.372 232.752 83.3377 232.901 83.269 233.044C83.2003 233.187 83.0701 233.352 82.8784 233.538L81.8568 234.542H83.5094ZM84.1709 234.838C84.108 234.838 84.0536 234.815 84.0078 234.77C83.9649 234.724 83.9434 234.668 83.9434 234.602C83.9434 234.536 83.9649 234.482 84.0078 234.439C84.0536 234.393 84.108 234.37 84.1709 234.37C84.2339 234.37 84.2883 234.393 84.3341 234.439C84.3798 234.482 84.4027 234.536 84.4027 234.602C84.4027 234.668 84.3798 234.724 84.3341 234.77C84.2883 234.815 84.2339 234.838 84.1709 234.838ZM86.9425 234.542V234.817H84.8349V234.598L86.084 233.375C86.2414 233.22 86.3473 233.087 86.4016 232.975C86.4589 232.861 86.4875 232.747 86.4875 232.632C86.4875 232.455 86.426 232.317 86.3029 232.22C86.1827 232.12 86.0096 232.07 85.7835 232.07C85.4315 232.07 85.1583 232.181 84.9637 232.405L84.7448 232.216C84.8621 232.078 85.0109 231.972 85.1912 231.898C85.3743 231.824 85.5804 231.786 85.8093 231.786C86.1155 231.786 86.3573 231.859 86.5347 232.005C86.715 232.148 86.8051 232.346 86.8051 232.598C86.8051 232.752 86.7708 232.901 86.7021 233.044C86.6334 233.187 86.5032 233.352 86.3115 233.538L85.2899 234.542H86.9425ZM88.5112 234.843C88.2794 234.843 88.0719 234.781 87.8888 234.658C87.7085 234.535 87.5668 234.359 87.4638 234.13C87.3637 233.898 87.3136 233.626 87.3136 233.315C87.3136 233.003 87.3637 232.732 87.4638 232.503C87.5668 232.271 87.7085 232.094 87.8888 231.971C88.0719 231.848 88.2794 231.786 88.5112 231.786C88.743 231.786 88.949 231.848 89.1293 231.971C89.3124 232.094 89.4555 232.271 89.5585 232.503C89.6616 232.732 89.7131 233.003 89.7131 233.315C89.7131 233.626 89.6616 233.898 89.5585 234.13C89.4555 234.359 89.3124 234.535 89.1293 234.658C88.949 234.781 88.743 234.843 88.5112 234.843ZM88.5112 234.559C88.6857 234.559 88.8388 234.511 88.9705 234.413C89.105 234.316 89.2094 234.174 89.2838 233.988C89.3582 233.802 89.3954 233.578 89.3954 233.315C89.3954 233.051 89.3582 232.827 89.2838 232.641C89.2094 232.455 89.105 232.313 88.9705 232.216C88.8388 232.118 88.6857 232.07 88.5112 232.07C88.3366 232.07 88.1821 232.118 88.0476 232.216C87.916 232.313 87.8129 232.455 87.7385 232.641C87.6641 232.827 87.6269 233.051 87.6269 233.315C87.6269 233.578 87.6641 233.802 87.7385 233.988C87.8129 234.174 87.916 234.316 88.0476 234.413C88.1821 234.511 88.3366 234.559 88.5112 234.559ZM92.1991 234.542V234.817H90.0915V234.598L91.3406 233.375C91.498 233.22 91.6038 233.087 91.6582 232.975C91.7155 232.861 91.7441 232.747 91.7441 232.632C91.7441 232.455 91.6825 232.317 91.5595 232.22C91.4393 232.12 91.2662 232.07 91.0401 232.07C90.6881 232.07 90.4148 232.181 90.2202 232.405L90.0013 232.216C90.1187 232.078 90.2675 231.972 90.4477 231.898C90.6309 231.824 90.8369 231.786 91.0659 231.786C91.3721 231.786 91.6139 231.859 91.7913 232.005C91.9716 232.148 92.0617 232.346 92.0617 232.598C92.0617 232.752 92.0274 232.901 91.9587 233.044C91.89 233.187 91.7598 233.352 91.5681 233.538L90.5465 234.542H92.1991ZM95.0403 234.027H94.4394V234.817H94.1303V234.027H92.4348V233.804L94.0273 231.812H94.3707L92.834 233.752H94.1389V233.057H94.4394V233.752H95.0403V234.027Z" fill="black"/>
<path d="M145.316 234.542V234.817H143.209V234.598L144.458 233.375C144.615 233.22 144.721 233.087 144.775 232.975C144.833 232.861 144.861 232.747 144.861 232.632C144.861 232.455 144.8 232.317 144.677 232.22C144.556 232.12 144.383 232.07 144.157 232.07C143.805 232.07 143.532 232.181 143.337 232.405L143.119 232.216C143.236 232.078 143.385 231.972 143.565 231.898C143.748 231.824 143.954 231.786 144.183 231.786C144.489 231.786 144.731 231.859 144.908 232.005C145.089 232.148 145.179 232.346 145.179 232.598C145.179 232.752 145.145 232.901 145.076 233.044C145.007 233.187 144.877 233.352 144.685 233.538L143.664 234.542H145.316ZM146.494 233.044C146.929 233.044 147.245 233.123 147.443 233.28C147.643 233.435 147.743 233.652 147.743 233.933C147.743 234.107 147.702 234.263 147.619 234.401C147.538 234.538 147.417 234.647 147.254 234.727C147.091 234.804 146.89 234.843 146.653 234.843C146.438 234.843 146.234 234.808 146.039 234.74C145.847 234.668 145.693 234.574 145.575 234.456L145.726 234.212C145.826 234.315 145.957 234.399 146.12 234.465C146.284 234.528 146.46 234.559 146.648 234.559C146.897 234.559 147.089 234.504 147.224 234.392C147.361 234.28 147.43 234.132 147.43 233.946C147.43 233.739 147.352 233.584 147.198 233.478C147.046 233.372 146.789 233.319 146.425 233.319H145.786L145.94 231.812H147.584V232.087H146.211L146.108 233.044H146.494ZM148.367 234.838C148.304 234.838 148.25 234.815 148.204 234.77C148.161 234.724 148.14 234.668 148.14 234.602C148.14 234.536 148.161 234.482 148.204 234.439C148.25 234.393 148.304 234.37 148.367 234.37C148.43 234.37 148.485 234.393 148.53 234.439C148.576 234.482 148.599 234.536 148.599 234.602C148.599 234.668 148.576 234.724 148.53 234.77C148.485 234.815 148.43 234.838 148.367 234.838ZM149.827 231.812V234.817H149.518V232.087H148.81V231.812H149.827ZM152.598 234.542V234.817H150.49V234.598L151.739 233.375C151.896 233.22 152.002 233.087 152.057 232.975C152.114 232.861 152.143 232.747 152.143 232.632C152.143 232.455 152.081 232.317 151.958 232.22C151.838 232.12 151.665 232.07 151.439 232.07C151.087 232.07 150.813 232.181 150.619 232.405L150.4 232.216C150.517 232.078 150.666 231.972 150.846 231.898C151.029 231.824 151.235 231.786 151.464 231.786C151.77 231.786 152.012 231.859 152.19 232.005C152.37 232.148 152.46 232.346 152.46 232.598C152.46 232.752 152.426 232.901 152.357 233.044C152.288 233.187 152.158 233.352 151.967 233.538L150.945 234.542H152.598ZM153.259 234.838C153.196 234.838 153.142 234.815 153.096 234.77C153.053 234.724 153.032 234.668 153.032 234.602C153.032 234.536 153.053 234.482 153.096 234.439C153.142 234.393 153.196 234.37 153.259 234.37C153.322 234.37 153.376 234.393 153.422 234.439C153.468 234.482 153.491 234.536 153.491 234.602C153.491 234.668 153.468 234.724 153.422 234.77C153.376 234.815 153.322 234.838 153.259 234.838ZM156.031 234.542V234.817H153.923V234.598L155.172 233.375C155.33 233.22 155.435 233.087 155.49 232.975C155.547 232.861 155.576 232.747 155.576 232.632C155.576 232.455 155.514 232.317 155.391 232.22C155.271 232.12 155.098 232.07 154.872 232.07C154.52 232.07 154.246 232.181 154.052 232.405L153.833 232.216C153.95 232.078 154.099 231.972 154.279 231.898C154.462 231.824 154.668 231.786 154.897 231.786C155.204 231.786 155.445 231.859 155.623 232.005C155.803 232.148 155.893 232.346 155.893 232.598C155.893 232.752 155.859 232.901 155.79 233.044C155.722 233.187 155.591 233.352 155.4 233.538L154.378 234.542H156.031ZM157.599 234.843C157.368 234.843 157.16 234.781 156.977 234.658C156.797 234.535 156.655 234.359 156.552 234.13C156.452 233.898 156.402 233.626 156.402 233.315C156.402 233.003 156.452 232.732 156.552 232.503C156.655 232.271 156.797 232.094 156.977 231.971C157.16 231.848 157.368 231.786 157.599 231.786C157.831 231.786 158.037 231.848 158.217 231.971C158.401 232.094 158.544 232.271 158.647 232.503C158.75 232.732 158.801 233.003 158.801 233.315C158.801 233.626 158.75 233.898 158.647 234.13C158.544 234.359 158.401 234.535 158.217 234.658C158.037 234.781 157.831 234.843 157.599 234.843ZM157.599 234.559C157.774 234.559 157.927 234.511 158.059 234.413C158.193 234.316 158.298 234.174 158.372 233.988C158.446 233.802 158.484 233.578 158.484 233.315C158.484 233.051 158.446 232.827 158.372 232.641C158.298 232.455 158.193 232.313 158.059 232.216C157.927 232.118 157.774 232.07 157.599 232.07C157.425 232.07 157.27 232.118 157.136 232.216C157.004 232.313 156.901 232.455 156.827 232.641C156.752 232.827 156.715 233.051 156.715 233.315C156.715 233.578 156.752 233.802 156.827 233.988C156.901 234.174 157.004 234.316 157.136 234.413C157.27 234.511 157.425 234.559 157.599 234.559ZM161.287 234.542V234.817H159.18V234.598L160.429 233.375C160.586 233.22 160.692 233.087 160.746 232.975C160.804 232.861 160.832 232.747 160.832 232.632C160.832 232.455 160.771 232.317 160.648 232.22C160.527 232.12 160.354 232.07 160.128 232.07C159.776 232.07 159.503 232.181 159.308 232.405L159.089 232.216C159.207 232.078 159.356 231.972 159.536 231.898C159.719 231.824 159.925 231.786 160.154 231.786C160.46 231.786 160.702 231.859 160.879 232.005C161.06 232.148 161.15 232.346 161.15 232.598C161.15 232.752 161.116 232.901 161.047 233.044C160.978 233.187 160.848 233.352 160.656 233.538L159.635 234.542H161.287ZM164.128 234.027H163.528V234.817H163.218V234.027H161.523V233.804L163.115 231.812H163.459L161.922 233.752H163.227V233.057H163.528V233.752H164.128V234.027Z" fill="black"/>
<path d="M41.1262 10.7909C40.0094 11.1818 39.0322 12.1031 39.0322 12.7173C39.0322 12.8848 39.2556 12.7452 39.5348 12.4102C39.9815 11.8239 42.0475 10.8467 42.55 10.9584C42.6896 10.9863 43.2759 10.9305 43.8622 10.7909C45.2303 10.5117 46.0678 10.9026 46.6821 12.0752L47.1567 13.0244L46.9892 12.1868C46.6541 10.7071 46.1237 10.3721 44.0856 10.3721C43.0805 10.4 41.7404 10.5675 41.1262 10.7909Z" fill="black"/>
<path d="M38.5017 14.504C37.9433 16.7655 38.1388 24.5828 38.8367 27.0676C39.1438 28.1844 39.4789 29.0499 39.5626 28.994C41.852 27.7377 44.5601 27.2351 45.2581 27.9331C45.984 28.659 46.2074 28.2123 46.2632 26.1463C46.319 24.1361 46.2911 24.0244 45.5932 23.7732C44.616 23.4102 42.7733 23.4102 42.0474 23.8011C41.2657 24.2199 41.0703 23.9127 40.8748 21.9026L40.7073 20.1995L41.5728 20.0041C43.0804 19.669 44.6997 20.0599 45.4536 20.9812C45.8444 21.4559 46.2074 21.8188 46.319 21.8188C46.4028 21.8188 46.4866 21.3163 46.5145 20.6741C46.5424 20.0599 46.6262 19.4178 46.7099 19.2782C46.8216 19.1386 46.6541 18.5802 46.4028 18.0218C45.7327 16.6259 44.5043 16.1233 42.5779 16.4863C41.7124 16.6538 41.0144 16.6538 40.8748 16.4863C40.456 16.0954 41.2378 14.8949 42.3266 14.2248C43.22 13.6944 43.4155 13.6664 44.5881 13.9735C45.3977 14.1969 46.1236 14.6436 46.6262 15.202L47.38 16.0954L47.3521 14.6994C47.3521 13.9177 47.2683 13.5827 47.2125 13.9177C47.0729 14.6715 46.7658 14.7274 46.1795 14.1131C45.9282 13.8898 45.314 13.5548 44.8393 13.4152C42.3545 12.6893 40.1489 14.2807 40.1489 16.7934C40.1489 18.301 40.456 18.5523 41.2378 17.603C41.6007 17.1284 42.0474 16.9888 43.3317 16.9609C44.8114 16.933 45.0069 16.9888 45.6211 17.7705C46.319 18.636 46.5424 20.4229 45.9561 20.4229C45.7886 20.4229 45.3977 20.1995 45.1185 19.9482C44.5322 19.4457 42.0474 19.2782 40.6794 19.6411C39.9814 19.8366 39.9814 19.8645 40.0931 22.2934C40.1489 23.6615 40.3164 24.862 40.456 25.0295C40.6236 25.197 41.0144 25.1133 41.517 24.8062C42.0474 24.499 42.9129 24.3315 44.0297 24.3315H45.7327V25.4204C45.7327 27.0955 45.5373 27.4306 44.6997 27.0955C43.6388 26.7047 42.8571 26.7884 41.1819 27.5422L39.6464 28.2123L39.3114 27.3189C38.8367 26.0625 38.6134 15.4812 39.0601 14.6715C39.2555 14.2807 39.2834 13.8898 39.1159 13.6106C38.9205 13.2476 38.7809 13.4431 38.5017 14.504Z" fill="black"/>
<path d="M27.283 10.9552C26.8273 11.3759 27.0376 11.6914 27.6686 11.5512C28.7554 11.2357 29.4566 12.1822 29.667 14.2156C29.7721 15.2673 30.0175 17.2306 30.2279 18.5277C30.4032 19.8249 30.4382 22.4893 30.298 24.4175C30.0876 27.7129 30.0526 27.9233 29.3514 27.8181C28.7204 27.7129 28.6152 27.4675 28.6152 25.96C28.5802 24.9784 28.3698 22.4542 28.0893 20.2806C27.7037 17.0904 27.7037 15.9685 28.0543 14.426C28.5451 12.2173 28.4049 11.7265 27.283 11.9018C26.8623 11.9719 26.2313 11.8667 25.9157 11.6914C24.9341 11.2006 23.637 11.7265 22.1295 13.234C20.8674 14.4961 20.7272 14.8467 20.7272 16.3191C20.7272 17.7565 20.8674 18.1421 21.7088 18.7731C22.4801 19.4042 23.0059 19.5094 24.6537 19.4042C26.6169 19.264 26.6169 19.264 26.8623 20.3157C26.9675 20.9117 27.1428 22.9801 27.283 24.9083C27.4934 28.7997 27.7738 29.2905 29.702 29.2905C30.5083 29.2905 30.894 29.1152 31.0342 28.6595C31.3848 27.3623 31.7354 24.102 31.7704 21.9284C31.7704 20.0703 31.8756 19.6846 32.2963 19.7898C35.0308 20.526 36.7136 19.6496 36.9941 17.3007C37.3797 14.0053 33.5584 10.2891 31.2446 11.7265C30.894 11.9719 30.6135 11.8667 30.2629 11.3759C29.8072 10.7098 27.7738 10.4293 27.283 10.9552ZM34.8555 13.3041C36.8538 15.3024 37.0291 18.7731 35.171 19.4042C33.7337 19.8599 31.9457 19.1938 31.9457 18.1772C31.9457 17.476 32.0509 17.4059 32.6118 17.7214C34.8906 18.9134 36.0826 16.5995 34.1894 14.6714C33.4883 13.9702 33.0676 13.83 32.2612 14.0053C30.9641 14.2507 30.4733 13.3742 31.4549 12.638C32.5417 11.8317 33.5934 12.042 34.8555 13.3041ZM25.46 12.8483C25.6002 13.0587 25.9157 13.1288 26.1962 13.0236C26.4767 12.9185 26.687 13.0236 26.687 13.269C26.687 13.5495 26.2313 13.7248 25.4951 13.7248C23.9525 13.7248 23.1812 14.3909 23.1812 15.653C23.1812 16.4243 23.3565 16.6697 23.8824 16.6697C24.829 16.6697 26.3364 17.4059 26.3364 17.8967C26.3364 18.1421 25.6002 18.3174 24.4433 18.3875C22.8306 18.4576 22.445 18.3524 22.0243 17.6863C21.1829 16.5294 21.5686 14.9168 23.0059 13.5846C24.268 12.4277 25.0744 12.1822 25.46 12.8483ZM25.8807 14.7765C26.7221 15.6179 25.9508 16.2139 24.7238 15.653C23.9876 15.3375 23.8824 15.1622 24.233 14.7415C24.7939 14.0754 25.2146 14.0754 25.8807 14.7765ZM34.0492 15.3375C34.4348 15.7582 34.7504 16.3892 34.7504 16.7748C34.7504 17.3358 34.5751 17.4409 33.6636 17.2306C33.0676 17.1254 32.3314 17.0202 32.0859 17.0202C31.5601 17.0202 31.4549 16.0737 31.8055 15.1271C32.121 14.3208 33.2078 14.426 34.0492 15.3375Z" fill="black"/>
<path d="M64.1012 11.0439C62.1029 12.8318 62.8741 15.0755 65.4334 14.9002L66.9058 14.7951L66.9759 21.5613C67.011 27.9067 67.046 28.3976 67.7121 28.8533C68.0978 29.1338 68.7989 29.3441 69.2897 29.274C70.2714 29.1688 70.2714 29.4142 69.8857 21.6314C69.6754 17.6698 69.9909 15.4261 70.7972 14.9002C71.0076 14.76 71.9541 14.5497 72.8657 14.4445C74.4783 14.1991 74.5484 14.164 74.5484 13.0422C74.5484 12.4111 74.303 11.71 74.0576 11.4646C73.2513 10.8335 69.7104 10.0973 67.3265 10.0623C65.4684 10.0623 65.0477 10.2025 64.1012 11.0439ZM72.5501 12.0255C74.4433 12.341 74.3381 13.3928 72.4099 13.6732C71.6036 13.7784 70.6219 14.1991 70.2012 14.6198C69.5001 15.3209 69.465 15.6715 69.5351 22.017C69.5702 28.6079 69.5702 28.678 68.834 28.5728C67.7472 28.3976 67.5018 27.0303 67.4317 20.5796C67.3616 17.3894 67.2213 14.5847 67.0811 14.3393C66.9058 14.129 66.415 13.9186 65.9592 13.9186C64.8724 13.9186 64.031 13.568 64.031 13.1474C64.031 12.937 64.2765 12.8669 64.5569 13.0071C64.8724 13.1123 65.0828 13.0071 65.0828 12.6916C65.0828 12.4462 65.3633 12.1307 65.7138 12.0606C66.6604 11.8151 71.0777 11.8151 72.5501 12.0255Z" fill="black"/>
<path d="M56.7563 10.7976C53.531 11.8143 52.1637 13.8126 51.0769 18.9661C50.4108 22.2615 50.4108 24.4702 51.0419 26.0127C51.6379 27.38 53.1103 28.9927 53.7764 28.9927C54.0218 28.9927 53.8465 28.7473 53.4258 28.4317C52.9701 28.1162 52.2689 27.0645 51.8131 26.0478C51.112 24.4702 51.0419 23.9093 51.2873 22.1914C51.4275 21.0696 51.6379 20.088 51.708 19.9828C51.9534 19.7374 53.0051 23.4535 52.7948 23.8041C52.5143 24.2599 53.3557 25.1363 54.0919 25.1363C54.4775 25.1363 54.9684 24.6805 55.3189 24.0495C55.8097 23.1029 55.985 22.9978 56.9316 23.1731C57.5276 23.2782 58.2287 23.3834 58.5092 23.3834C58.8948 23.3834 59 23.6639 58.8948 24.4351C58.7897 25.1363 58.8948 25.4869 59.2104 25.4869C59.4908 25.4869 59.6661 25.0311 59.6661 24.1196C59.6661 22.8225 59.6311 22.7524 58.0184 22.3317C56.4057 21.8409 56.4057 21.8409 55.4592 22.9627C54.9333 23.5938 54.3373 24.0846 54.127 24.0846C53.9166 24.0846 53.4959 23.2782 53.2155 22.3317C52.7597 20.8242 52.7597 20.3334 53.1453 19.0362C54.0919 15.9161 54.4775 15.3201 55.8097 15.1097C56.4758 15.0046 57.3172 14.8293 57.6328 14.7591C57.9483 14.654 58.369 14.8643 58.5443 15.1798C58.8598 15.7057 58.9299 15.7057 59.3155 14.9344C59.9466 13.8126 59.9115 11.1832 59.2805 10.6223C58.8598 10.2016 58.4742 10.2367 56.7563 10.7976ZM58.6144 12.9361V14.093H56.6161C55.4942 14.093 54.2672 14.2683 53.8816 14.4436C53.2155 14.7591 53.2155 14.7241 53.7413 13.9178C54.4074 12.831 56.3356 11.8143 57.6678 11.8143C58.5092 11.8143 58.6144 11.9545 58.6144 12.9361Z" fill="black"/>
<path d="M56.5111 27.4849C56.0203 27.9757 55.845 28.3263 56.1254 28.2562C56.5812 28.0809 57.8433 26.5384 57.5277 26.5384C57.4576 26.5384 57.0019 26.9591 56.5111 27.4849Z" fill="black"/>
<path d="M77.7048 11.3004C77.2703 11.4631 76.8766 11.7443 76.8392 11.9825C76.8015 12.1811 76.7256 12.5385 76.6882 12.7767C76.6108 12.9757 76.7829 14.401 77.075 15.9442C77.3271 17.4481 77.6392 21.092 77.7859 24.0239C77.9323 26.9162 78.1542 29.4113 78.2746 29.5687C78.4342 29.6861 78.7498 29.5246 79.0235 29.1256C79.7668 28.0879 81.8664 27.9491 81.4798 28.9834C81.0547 30.1369 81.644 29.5764 83.3654 27.1817C84.3042 25.8647 85.396 23.9517 85.7826 22.9174C86.5931 20.6106 87.7275 19.0143 88.0898 19.6054C88.2106 19.8025 88.2125 20.0006 88.0143 20.0025C87.8558 20.004 87.7108 21.4324 87.727 23.1367C87.7435 24.8807 87.8748 26.1876 87.993 26.1072C88.1111 26.0268 88.3335 24.3994 88.474 22.4954C88.5745 20.5521 88.792 18.4096 88.9041 17.695C89.2062 16.1066 88.412 15.9555 87.8321 17.507C87.6003 18.1434 87.0152 19.1399 86.5459 19.8183C86.0763 20.4569 85.219 22.011 84.6754 23.2053C83.2004 26.5094 82.5319 27.0707 80.5482 26.8913L78.8424 26.749L78.7644 22.7065C78.7437 20.5265 78.5577 17.6346 78.3871 16.3678C77.9188 12.9632 78.1491 12.1683 79.5363 12.1551C80.4083 12.1468 80.7277 12.3816 80.9326 13.0932C81.0568 13.647 81.0624 14.2415 80.9458 14.4805C80.7891 14.6801 80.871 14.9568 81.1103 15.1131C81.3096 15.2301 81.4791 16.3781 81.4907 17.6068C81.4386 20.4613 81.9948 24.7767 82.4334 25.05C82.6328 25.1671 82.9468 24.847 83.1401 24.3298C83.3334 23.8127 83.7207 22.8577 83.9525 22.2212C87.6658 12.514 87.5884 12.7129 88.9323 12.3038C90.9877 11.6897 91.1107 12.1245 90.6432 17.1632C90.3566 20.3767 90.3335 22.121 90.6645 23.5845C91.3673 26.6301 91.3295 26.8287 89.9789 26.5244C88.7876 26.2978 87.1678 26.8682 87.1742 27.542C87.1764 27.7798 88.2085 27.9285 89.4768 27.9165L91.736 27.8951L91.6608 19.9679C91.5358 10.971 91.4131 10.5757 88.9206 11.0751C88.169 11.2408 87.3786 11.4861 87.1419 11.6073C86.7089 11.9285 84.2637 17.4219 83.5325 19.7279C82.956 21.6361 82.3652 22.0381 82.3117 20.5719C82.2664 19.9778 82.26 19.304 82.2981 19.1451C82.4488 18.3112 81.041 11.9823 80.6401 11.5104C80.1588 10.9204 79.0483 10.8516 77.7048 11.3004Z" fill="black"/>
<path d="M99.1493 11.4426C99.2772 11.7741 99.6959 12.0613 100.154 12.1402C101.904 12.4147 103.284 13.192 103.876 14.2263C104.214 14.8055 104.467 15.0942 104.506 14.8027C104.498 14.054 102.439 11.8689 101.438 11.5872C100.938 11.4256 100.187 11.2247 99.7284 11.1043C99.2281 10.9842 99.0209 11.0694 99.1493 11.4426Z" fill="black"/>
<path d="M97.8018 14.1175C96.9869 15.9139 96.8304 16.9553 96.753 21.9477C96.6661 25.9419 96.8091 27.854 97.1458 28.2668C97.8611 29.1335 101.109 29.4771 102.6 28.839C104.382 28.0733 106.349 24.9349 106.575 22.5201C106.724 20.6884 106.638 20.398 105.506 19.3688C104.456 18.3805 104.328 18.0489 104.654 17.2555C104.98 16.5452 104.934 16.1713 104.473 15.8013C104.179 15.5129 104.013 15.4729 104.181 15.6792C104.77 16.3808 103.699 17.5141 102.245 17.6943C101.456 17.785 100.79 17.8329 100.79 17.7913C100.781 16.8762 101.767 15.5358 102.433 15.5295C102.89 15.5251 103.263 15.3552 103.26 15.1056C103.258 14.8561 102.884 14.8596 102.179 15.1159C101.268 15.4989 101.142 15.4585 101.261 14.8334C101.34 14.3751 101.754 14.1216 102.212 14.1588C103.044 14.2341 103.044 14.1925 102.248 13.6177C100.824 12.5913 100.458 13.4267 100.212 18.2543C100.109 20.5432 99.8796 22.6668 99.3725 26.2074C99.256 27.082 98.9284 27.6259 98.3472 27.7562C97.4761 28.0141 97.4754 27.9309 97.5884 22.3142C97.7157 18.1948 97.946 16.1544 98.4344 15.0266C99.5334 12.4788 98.9432 11.6524 97.8018 14.1175ZM104.803 19.8331C105.725 20.5731 105.938 21.1118 105.908 22.36C105.843 24.2741 104.164 27.0355 102.713 27.59C101.677 28.0158 98.9751 28.1662 99.9694 27.7408C100.218 27.6553 100.461 26.9042 100.453 26.1139C100.44 24.6998 100.44 24.6998 102.311 24.682C104.1 24.665 104.183 24.6226 104.13 23.5C104.12 22.377 104.12 22.377 103.713 23.3792C103.47 24.0054 103.139 24.2582 102.68 24.0961C102.305 23.9749 101.638 23.8564 101.222 23.8604C100.557 23.8667 100.43 23.7015 100.631 22.9093C101.075 21.4907 101.406 21.2796 102.7 21.7665C103.743 22.131 103.785 22.1306 103.322 21.5526C103.027 21.2226 102.442 20.937 102.026 20.9409C101.569 20.9453 101.234 20.7821 101.232 20.5741C101.231 20.3661 101.143 19.9094 101.015 19.5778C100.589 18.5419 103.503 18.7223 104.803 19.8331Z" fill="black"/>
<path d="M111.537 12.4769C110.745 13.392 110.565 14.0878 110.584 16.0896C110.606 18.4651 110.061 20.0986 108.844 21.258C107.839 22.2552 107.634 23.138 107.77 26.1798L107.871 28.4211L108.809 28.7325C109.317 28.9145 110.307 29.092 111.002 29.1655L112.257 29.2871L112.402 27.6307C112.5 26.7222 112.652 25.8398 112.757 25.7054C112.941 25.3833 117.102 25.0235 116.891 25.3725C116.812 25.48 116.894 25.586 117.027 25.5848C117.187 25.5832 117.323 25.8489 117.326 26.1959C117.333 26.8632 118.737 28.6116 119.028 28.3152C119.134 28.2074 119.961 28.1195 120.895 28.1106C122.549 28.0683 122.549 28.0683 122.622 27.2668C122.741 25.7975 121.541 20.2299 120.696 18.3694C120.396 17.7049 119.772 16.6964 119.259 16.114C118.773 15.5047 118.151 14.603 117.879 14.0984C116.9 12.1858 116.524 11.9758 114.122 11.9986C112.36 12.0153 111.854 12.1269 111.537 12.4769ZM116.192 13.5806C116.437 14.0854 116.79 14.6426 116.925 14.8282C117.087 15.0135 117.223 15.2792 117.224 15.4126C117.225 15.5461 117.442 15.8377 117.71 16.022C118.866 16.8652 120.821 20.3435 121.159 22.1555C121.244 22.6885 121.094 23.7577 120.705 25.016C120.136 26.9166 120.084 27.0239 119.284 27.1116C118.43 27.1998 118.43 27.1731 118.095 25.6013C117.899 24.6956 117.626 23.9775 117.519 23.9785C117.385 23.9797 117.329 23.6333 117.351 23.206C117.374 22.7786 117.262 22.2725 117.1 22.0605C116.938 21.8752 116.557 21.1047 116.283 20.3599C114.861 16.7964 114.512 16.5595 114.027 18.8598C113.796 19.8763 113.456 20.6003 112.954 21.0855C112.134 21.8941 112.029 22.162 112.59 22.1567C112.91 22.1537 112.912 22.3405 112.627 23.2775C112.395 24.1072 112.158 24.4565 111.679 24.5678C111.093 24.7335 111.093 24.7602 111.523 24.9964C111.979 25.259 111.979 25.3123 111.538 26.5978C111.043 27.9372 110.619 28.2349 109.468 27.9521C108.907 27.824 108.825 27.6112 108.646 25.6376L108.438 23.4774L109.365 22.6945C109.895 22.2624 110.448 21.483 110.603 20.9743C111.174 19.2071 111.569 15.7866 111.317 14.6145C111.007 12.909 111.457 12.5044 113.834 12.5886C115.703 12.6509 115.73 12.6507 116.192 13.5806ZM115.399 19.9679C115.4 20.1013 115.483 20.3942 115.565 20.6336C115.675 20.9529 115.569 21.0607 115.142 21.0647C114.715 21.0688 114.607 20.963 114.711 20.6417C114.789 20.4007 114.866 20.1064 114.865 19.9729C114.864 19.8395 114.996 19.7314 115.13 19.7302C115.29 19.7287 115.397 19.8344 115.399 19.9679ZM116.362 22.9751C116.582 23.7204 116.775 24.3859 116.776 24.4393C116.776 24.466 116.002 24.5001 115.041 24.4558C113.626 24.4158 113.331 24.3385 113.462 24.017C113.54 23.8027 113.748 23.2401 113.904 22.8116C114.216 21.8743 114.533 21.6044 115.334 21.5968C115.815 21.5922 116.004 21.8574 116.362 22.9751ZM121.932 24.9243C122.247 27.1102 122.196 27.4043 121.475 27.4111C120.862 27.4169 120.807 27.3374 120.932 26.4019C121.082 25.2794 121.257 24.1032 121.283 23.9961C121.309 23.9692 121.416 23.9415 121.549 23.9402C121.683 23.939 121.847 24.3912 121.932 24.9243Z" fill="black"/>
<path d="M128.721 11.4668L127.552 11.8183L127.359 15.3374C127.231 17.7591 126.798 20.0324 126.027 22.4602C124.742 26.557 124.241 29.5117 124.88 29.0896C125.105 28.9362 125.635 29.0068 126.053 29.1919C127.08 29.7495 127.602 28.9881 128.179 26.0705C128.722 23.4936 128.8 19.7486 128.346 19.753C128.195 19.7544 128.125 20.398 128.209 21.2292C128.292 22.0227 128.084 23.9913 127.759 25.5828C127.216 28.1598 127.067 28.4637 126.273 28.4713C125.479 28.4788 125.402 28.3661 125.694 27.2287C125.877 26.584 126.131 25.4092 126.237 24.6896C126.344 23.97 126.709 22.605 127.003 21.6567C127.664 19.646 128.295 14.3073 127.946 13.4786C127.636 12.6873 128.464 12.1878 130.128 12.172C131.716 12.1569 131.754 12.1944 132.625 16.2707C132.942 17.8562 133.649 20.6103 134.196 22.4205C134.743 24.2307 135.099 25.8914 134.95 26.1197C134.838 26.3099 134.915 26.4983 135.142 26.4961C135.407 26.4936 135.523 26.7194 135.412 27.023C135.301 27.3266 135.38 27.6284 135.608 27.7019C136.404 27.9591 135.504 28.7619 134.407 28.7723C133.046 28.7852 132.814 28.2201 132.699 24.061C132.548 20.0913 131.759 16.695 130.965 16.7025C130.587 16.7061 130.513 16.9337 130.708 17.537C130.981 18.4421 131.648 24.9786 131.709 27.3985C131.758 28.5705 131.912 28.8716 132.785 29.2037C134 29.646 136.152 29.323 136.411 28.6398C136.484 28.4122 135.893 25.8839 135.072 23.0929C134.214 20.3024 133.427 17.1708 133.304 16.1508C133.019 13.9599 132.552 12.6028 131.712 11.7031C131.024 10.9533 130.494 10.9205 128.721 11.4668Z" fill="black"/>
<path d="M129.009 17.8935C128.561 18.5029 128.303 19.1483 128.417 19.2607C128.532 19.4109 128.683 19.4094 128.758 19.3331C129.279 18.4204 130.057 16.7112 129.944 16.7122C129.868 16.7129 129.457 17.2463 129.009 17.8935Z" fill="black"/>
<path d="M139.795 12.2941C139.068 12.7885 138.833 13.7047 138.854 15.8373C138.93 17.4209 138.781 21.0785 138.565 24.0055C138.236 27.7867 138.312 29.3703 138.799 29.3657C139.165 29.3622 139.46 28.3235 139.508 27.0434C139.497 25.8247 139.665 24.2388 139.78 23.5674C139.896 22.896 140.116 20.4565 140.277 18.1394C140.537 13.3839 141.258 12.4021 143.829 13.5964C144.869 14.0131 145.362 14.6178 145.185 15.2288C145.008 15.7789 144.719 17.4879 144.551 19.0129L144.151 21.8197L146.531 22.1628C147.873 22.3938 149.526 23.1703 150.326 24.0158C151.988 25.7062 151.889 28.2055 150.186 28.5264C149.335 28.7173 149.15 28.5362 149.388 27.8636C149.565 27.3135 149.19 26.2812 148.512 25.4954C147.342 24.166 147.281 24.1665 148.085 25.4386C149.076 27.1354 148.654 27.5659 145.852 27.7144C144.086 27.7921 143.474 27.5542 143.099 26.5827C142.849 25.8539 142.901 25.0003 143.323 24.5088C143.865 23.8333 143.803 23.712 143.074 23.9627C142.588 24.0892 141.99 25.2527 141.819 26.473C141.534 28.5475 141.596 28.7298 143.059 28.7768C143.913 28.8296 146.351 28.9284 148.485 29.03L152.264 29.1769L152.243 26.9225C152.213 23.815 150.298 21.0302 147.608 20.0807C145.468 19.3088 145.467 19.2479 145.808 16.6854C146.151 14.2447 146.027 14.063 144.127 12.9233C141.799 11.5438 141.249 11.4272 139.795 12.2941Z" fill="black"/>
<path d="M117.444 207.489C116.777 207.612 116.241 207.937 116.238 208.136C116.207 210.263 114.537 220.01 114.06 220.867C113.376 222.186 113.828 223.057 115.939 224.218C117.324 224.969 117.657 224.907 118.47 223.855C118.944 223.198 119.359 222.14 119.369 221.409C119.416 218.153 122.567 216.337 123.993 218.817C124.382 219.487 124.712 219.692 124.717 219.293C124.732 218.296 122.567 216.337 121.37 216.32C119.842 216.298 118.758 217.678 118.73 219.672C118.715 220.668 118.498 221.928 118.29 222.523C117.806 223.779 116.276 223.89 115.894 222.688C115.638 222.02 115.831 217.901 116.096 217.905C116.163 217.906 116.324 215.981 116.424 213.656C116.679 209.804 117.431 208.353 119.093 208.311C119.559 208.317 119.848 211.313 119.614 213.702C119.535 214.565 120.194 214.907 122.318 215.137C123.844 215.359 125.172 215.444 125.306 215.38C125.373 215.314 125.185 214.514 124.865 213.645C124.546 212.776 124.218 212.439 124.212 212.905C124.137 213.435 123.535 213.692 122.673 213.547C121.347 213.328 121.155 212.86 120.994 210.199C120.841 207.007 120.643 206.871 117.444 207.489Z" fill="black"/>
<path d="M126.383 209.812C125.182 210.127 124.177 210.711 124.172 211.043C124.167 211.375 124.965 211.387 126.166 211.072C128.034 210.567 128.166 210.635 128.139 212.496C128.124 213.56 128.444 214.428 128.776 214.433C129.175 214.439 129.458 213.246 129.479 211.784C129.5 210.322 129.318 209.123 129.051 209.186C128.719 209.181 127.518 209.496 126.383 209.812Z" fill="black"/>
<path d="M128.794 217.757C128.76 220.149 128.888 220.484 129.433 219.561C129.91 218.77 129.924 217.773 129.476 216.57C128.902 214.9 128.901 214.967 128.794 217.757Z" fill="black"/>
<path d="M124.878 222.02C124.984 223.816 125.181 224.019 126.978 223.845C129.441 223.615 129.576 223.484 128.734 221.943C128.345 221.273 128.014 221.135 128.009 221.534C127.989 222.863 125.469 222.494 125.089 221.159C124.965 220.559 124.827 220.889 124.878 222.02Z" fill="black"/>
<path d="M103.428 207.994C101.506 208.353 100.843 208.991 100.531 210.916C100.396 211.752 99.96 213.06 99.5399 213.812C99.1197 214.564 98.8871 215.309 98.9725 215.472C99.0942 215.641 98.9372 215.69 98.6643 215.534C98.355 215.372 98.0478 214.279 97.9447 212.845C97.4724 207.252 97.4665 207.288 96.4505 207.347C95.1802 207.365 94.6717 208.662 95.0566 210.886C95.8263 215.335 95.8656 217.392 95.2108 219.82C94.0682 224.108 94.1615 224.682 96.0639 223.984C96.6559 223.782 97.828 223.45 98.6379 223.283C99.4114 223.111 100.105 222.739 100.183 222.49C100.224 222.236 100.426 221.449 100.611 220.77C100.796 220.092 101.199 218.294 101.513 216.816C101.864 215.345 102.539 213.479 103.043 212.666C103.95 211.21 105.278 210.381 105.765 211.057C105.886 211.226 105.55 213.072 104.996 215.107C104.073 218.499 103.658 223.128 104.175 223.846C104.419 224.184 106.485 223.624 107.487 222.966C108.488 222.309 108.897 220.474 108.811 217.329C108.794 216.282 108.881 214.134 109.026 212.555C109.382 208.288 109.437 208.409 107.04 208.02C105.908 207.874 104.274 207.833 103.428 207.994ZM107.961 212.457C107.956 214.096 107.989 216.189 108.102 217.102C108.337 219.563 107.589 221.417 106.067 222.065C104.793 222.567 104.793 222.567 104.638 221.684C104.527 221.219 104.896 218.483 105.44 215.589C106.379 210.485 106.397 210.376 105.632 209.805C104.297 208.843 104.435 208.679 106.234 209.083L108.032 209.486L107.961 212.457ZM103.1 210.476C102.127 211.883 101.301 213.986 100.444 217.202C99.4919 220.775 98.8185 221.71 97.1015 221.953L95.6506 222.165L96.1935 220.427C96.8315 218.331 96.7579 215.337 95.9303 211.475C95.3128 208.616 95.4178 207.739 96.1609 208.903C96.5506 209.488 97.5893 215.956 97.6483 218.352C97.6974 219.888 98.3679 219.661 98.6388 217.99C98.7507 217.3 99.1934 216.179 99.644 215.469C100.089 214.796 100.723 213.184 101.08 211.9C101.586 209.932 101.796 209.556 102.66 209.286C103.916 208.893 104.026 209.135 103.1 210.476Z" fill="black"/>
<path d="M84.6529 207.429C83.6253 207.89 82.8362 208.75 82.7837 209.473C82.7533 209.891 82.949 209.829 83.4116 209.251C83.7491 208.817 84.4234 208.483 84.9178 208.519C85.7166 208.577 85.7761 208.811 85.8966 212.414C86.0066 215.634 86.2065 216.566 87.0821 218.198C87.6541 219.272 88.0331 220.37 87.8969 220.666C87.4502 221.551 85.2434 221.926 81.6679 221.666C79.7661 221.528 77.4265 221.625 76.3774 221.855C74.6678 222.228 72.6927 222.046 73.2259 221.55C73.3455 221.482 73.2431 220.786 72.9886 220.079C72.7099 219.18 72.6579 217.264 72.8764 214.259L73.2026 209.771L73.9129 211.046C74.2816 211.761 74.6896 213.511 74.8128 214.973C75.0453 218.087 75.1428 218.324 76.4139 218.722L77.3483 219.02L77.6718 214.569C77.9047 210.839 78.0333 210.122 78.5278 210.158C78.9462 210.188 79.0651 210.656 79.0119 211.914C78.5993 218.116 78.6263 218.271 79.7695 218.851C81.358 219.617 82.5593 219.398 83.2183 218.223C83.7439 217.305 83.7445 216.77 83.3565 214.218C82.8418 210.777 82.4787 209.986 82.4352 212.162C82.4097 213.04 82.4657 213.847 82.6096 213.972C82.7126 214.133 82.7604 215.054 82.6857 216.081C82.5585 217.831 82.515 217.904 81.4499 217.826C80.8033 217.779 80.2058 217.583 80.1083 217.347C80.008 217.148 79.8883 215.113 79.8584 212.893C79.8667 210.676 79.7387 208.754 79.5976 208.591C79.1743 208.102 78.0319 209.089 77.4323 210.499C77.0644 211.351 76.7906 213.014 76.7589 214.503C76.7264 216.527 76.6172 216.978 76.2617 216.608C76.012 216.361 75.6572 215.455 75.4926 214.564C75.3252 213.71 74.9033 212.15 74.5948 211.134C74.2483 210.114 74.0242 208.989 74.0546 208.571C74.085 208.152 73.8575 207.6 73.5725 207.312C73.1057 206.896 72.9453 206.999 72.4114 208.031C71.9619 208.954 71.7317 210.543 71.6052 213.861C71.3655 220.841 72.1333 223.956 74.0711 223.599C74.6119 223.524 75.5005 223.397 76.0386 223.36C76.5766 223.323 77.0006 223.277 77.0033 223.239C77.0061 223.201 79.4487 223.264 84.6736 223.452C86.3499 223.536 88.3845 221.848 88.4979 220.289C88.5449 219.642 88.1229 218.082 87.6028 216.821C86.7819 214.964 86.5903 213.917 86.6019 211.127C86.6177 207.228 86.3168 206.632 84.6529 207.429Z" fill="black"/>
<path d="M58.8036 207.258C57.7838 208.476 56.5665 212.752 56.3691 215.845C56.3034 216.996 56.0073 219.003 55.7441 220.286C55.0203 223.74 55.0203 223.806 56.5007 223.806C57.4877 223.806 57.9812 223.576 58.6391 222.819C59.9879 221.306 62.2579 221.503 63.212 223.181C63.8041 224.168 64.4621 224.464 64.4621 223.675C64.4621 223.444 64.8569 223.148 65.3832 223.05C66.3702 222.852 67.7519 220.813 67.7519 219.529C67.7519 217.72 60.6788 206.699 59.5274 206.699C59.3958 206.699 59.0668 206.962 58.8036 207.258ZM64.0673 214.43C66.5347 218.575 66.8965 219.497 66.4031 220.451C65.8109 221.503 64.495 221.767 63.9028 220.977C63.6396 220.648 63.508 220.089 63.6067 219.793C63.6725 219.464 63.6067 219.135 63.4751 219.036C63.3107 218.937 63.0804 218.181 62.9488 217.325C62.7843 216.141 62.4553 215.549 61.5342 214.693C60.8762 214.101 60.1853 213.608 59.9879 213.608C59.4945 213.608 59.1326 215.286 59.1655 217.292C59.2313 219.168 58.5404 220.977 57.5864 221.503C56.731 221.964 56.1389 221.635 56.402 220.845C56.5007 220.516 56.7968 219.102 57.06 217.687C57.3561 216.24 57.6193 214.792 57.718 214.43C57.7838 214.068 57.9154 213.41 57.9812 212.95C58.047 212.489 58.3759 211.272 58.7049 210.252L59.2971 208.377L60.8104 209.923C61.6328 210.779 63.1133 212.785 64.0673 214.43ZM61.6657 218.51C61.4684 218.674 61.0078 218.904 60.613 219.036C60.0208 219.2 59.8892 219.135 60.0537 218.74C60.1524 218.444 60.6459 218.214 61.1065 218.214C61.6328 218.214 61.8302 218.345 61.6657 218.51ZM62.1592 220.187C62.1592 220.352 61.6986 220.516 61.1394 220.516C60.5801 220.516 60.2182 220.385 60.3498 220.187C60.4485 219.99 60.9091 219.858 61.3697 219.858C61.7973 219.858 62.1592 219.99 62.1592 220.187Z" fill="black"/>
<path d="M44.506 207.147C44.1598 207.484 43.6394 208.277 43.384 208.871C43.1263 209.502 42.8064 209.984 42.6631 209.974C42.5199 209.965 41.9134 209.349 41.314 208.626C40.7504 207.905 40.1439 207.289 40.003 207.243C39.8598 207.234 39.399 207.131 39.0122 206.997C38.0571 206.754 37.6704 207.16 36.539 209.567C35.62 211.484 34.5128 216.77 34.2196 220.636C34.0718 222.317 34.1793 222.864 34.8168 223.553L35.5523 224.394L35.6047 223.606C35.6762 222.531 36.4808 222.333 37.7248 223.099L38.7635 223.708L39.2623 222.159C39.5344 221.313 39.7897 220.179 39.8279 219.606C39.928 218.102 40.3982 216.982 40.8542 217.156C41.0643 217.242 41.456 217.844 41.6996 218.508C42.1964 219.692 42.6977 219.725 42.7716 218.615C42.7931 218.293 43.1535 217.741 43.5713 217.409C44.2923 216.846 44.3281 216.848 44.2852 217.493C44.2209 218.46 45.5559 221.642 46.5803 223.005C47.3755 224.029 47.4806 224.072 47.841 223.521C48.0774 223.213 48.5978 222.96 48.956 222.983C49.3499 223.01 50.016 222.73 50.4362 222.363C51.5821 221.36 51.5198 219.593 50.2469 217.098C48.3436 213.266 47.6629 211.602 47.4622 210.294C47.2185 208.551 46.1223 206.643 45.3368 206.555C45.2294 206.548 44.8522 206.811 44.506 207.147ZM45.5091 209.372C45.8649 209.972 46.4213 211.34 46.7438 212.44C47.1021 213.543 48.0096 215.582 48.7833 216.929C50.904 220.739 50.9063 220.703 48.452 221.367L47.2415 221.718L46.4391 219.722C46.0068 218.65 45.5935 216.752 45.5289 215.561C45.3901 212.782 44.86 212.099 44.3349 214.043C44.2347 214.468 43.8241 215.232 43.4684 215.712L42.7976 216.602L41.8472 215.208C40.1398 212.756 39.7507 213.198 39.0279 218.654C38.8275 220.043 38.5579 221.392 38.4385 221.564C38.3168 221.772 37.5552 221.865 36.7315 221.81L35.2989 221.715L35.7593 218.04C36.036 216.044 36.327 213.833 36.4439 213.158C36.7302 211.558 38.7569 208.671 39.5472 208.688C40.2277 208.733 41.8276 211.178 41.7633 212.145C41.6322 214.115 43.0836 212.305 43.9237 209.411C44.3032 208.033 44.6637 208.021 45.5091 209.372Z" fill="black"/>
</svg>
