<svg width="100" height="100" viewBox="0 0 100 100" fill="none" xmlns="http://www.w3.org/2000/svg">
<circle cx="50" cy="50" r="49.5" transform="matrix(-1 0 0 1 100 0)" stroke="#D9D9D9"/>
<path d="M32.7217 49.8783C32.7217 51.9866 34.4308 53.6957 36.5391 53.6957H72.1826C74.2909 53.6957 76 51.9866 76 49.8783C76 47.77 74.2909 46.0609 72.1826 46.0609H36.5391C34.4308 46.0609 32.7217 47.77 32.7217 49.8783Z" fill="#D9D9D9"/>
<path d="M55.3518 23.126C53.8654 21.6308 51.4486 21.624 49.9533 23.1104L25.5861 47.3331C24.0913 48.8195 24.0843 51.2364 25.5705 52.7315L49.7932 77.0977C51.2795 78.5924 53.6965 78.6002 55.1916 77.1143C56.6867 75.6281 56.6941 73.2102 55.2082 71.7149L36.7697 53.1661L36.7785 50.0655L36.7873 46.9639L55.3361 28.5245C56.8308 27.0382 56.8376 24.6212 55.3518 23.126Z" fill="#D9D9D9"/>
</svg>
