<svg width="100" height="100" viewBox="0 0 100 100" fill="none" xmlns="http://www.w3.org/2000/svg">
<circle cx="50" cy="50" r="49.5" stroke="#D9D9D9"/>
<path d="M67.2783 49.8783C67.2783 51.9866 65.5692 53.6957 63.4609 53.6957H27.8174C25.7091 53.6957 24 51.9866 24 49.8783C24 47.77 25.7091 46.0609 27.8174 46.0609H63.4609C65.5692 46.0609 67.2783 47.77 67.2783 49.8783Z" fill="#D9D9D9"/>
<path d="M44.6489 23.126C46.1353 21.6308 48.5521 21.624 50.0474 23.1104L74.4145 47.3331C75.909 48.8195 75.9163 51.2365 74.4302 52.7315L50.2075 77.0977C48.7213 78.5927 46.3043 78.6 44.8091 77.1143C43.3139 75.6279 43.3062 73.2102 44.7925 71.7149L63.2309 53.1661L63.2222 50.0655L63.2134 46.9639L44.6645 28.5245C43.1697 27.0381 43.1627 24.6212 44.6489 23.126Z" fill="#D9D9D9"/>
</svg>
