<svg width="27" height="30" viewBox="0 0 27 30" fill="none" xmlns="http://www.w3.org/2000/svg">
<path d="M22.6738 14.6046C22.6738 15.7092 21.7784 16.6046 20.6738 16.6046H2C0.895431 16.6046 0 15.7092 0 14.6046C0 13.5 0.895431 12.6046 2 12.6046L20.6738 12.6046C21.7784 12.6046 22.6738 13.5 22.6738 14.6046Z" fill="black"/>
<path d="M10.8176 0.589576C11.5963 -0.193565 12.8624 -0.196862 13.6457 0.581764L26.4113 13.2722C27.1945 14.0509 27.1988 15.317 26.4201 16.1003L13.7297 28.8659C12.951 29.6489 11.6848 29.6523 10.9016 28.8738C10.1184 28.0951 10.1144 26.829 10.8928 26.0456L20.552 16.3279L20.5481 14.7038L20.5442 13.0788L10.8264 3.41868C10.0431 2.64003 10.0391 1.37295 10.8176 0.589576Z" fill="black"/>
</svg>
