<svg width="363" height="519" viewBox="0 0 363 519" fill="none" xmlns="http://www.w3.org/2000/svg">
<rect width="363" height="518.596" fill="white"/>
<path d="M182.251 90.1151C185.714 92.6337 184.455 92.9486 176.584 91.6892C170.602 90.7448 157.065 92.3189 144.156 96.0969C112.043 104.912 93.1534 122.543 71.7447 164.101C63.8739 179.528 59.4662 191.806 59.4662 199.677C59.4662 210.381 58.5217 211.956 50.6509 213.53C33.9647 216.993 29.8719 228.012 27.6681 277.126C26.0939 317.425 26.4087 322.777 32.7054 338.519C36.4834 347.964 40.5762 359.612 41.8356 364.335C43.4097 371.261 45.6136 373.15 52.2251 373.15C60.4107 373.15 60.4107 373.15 58.8366 394.559C57.2624 417.542 57.8921 419.431 74.5782 427.931C84.0232 432.654 84.6529 432.654 88.1161 426.042C91.8941 419.116 93.7831 387.947 90.9496 379.447C89.6902 375.354 95.9869 374.724 138.175 375.039C164.935 375.039 199.252 376.299 214.364 377.558L241.44 380.077L240.495 389.522C239.551 394.559 238.292 401.485 237.347 404.319C234.514 414.079 260.96 430.765 274.183 427.616C290.554 423.524 298.74 405.263 287.406 398.967C278.905 394.244 284.257 379.447 294.647 379.447C305.981 379.447 321.408 362.131 328.649 340.408C334.631 323.092 334.631 321.832 329.278 298.22C326.13 284.997 322.982 269.57 322.037 264.533C316.685 230.846 313.537 222.345 305.981 220.456C301.888 219.512 297.165 219.512 295.591 220.456C294.017 221.401 293.702 217.623 294.332 211.956C295.591 204.4 292.758 194.01 284.572 173.861C274.183 149.619 270.09 143.952 250.885 126.006C238.606 114.987 221.92 102.708 214.049 98.6156C206.179 94.5227 198.937 90.7448 197.993 89.8002C197.048 88.8557 192.326 87.9112 186.974 87.5964C179.418 86.9667 178.473 87.5964 182.251 90.1151ZM212.475 123.802C240.181 145.211 262.219 170.712 272.608 193.38C278.275 205.974 282.683 217.308 281.739 217.937C280.794 218.882 273.238 220.141 264.423 220.771C249.626 222.03 248.996 221.715 249.626 214.789C250.255 210.696 251.2 205.974 252.459 204.4C253.404 202.825 249.626 194.955 243.959 187.399C227.587 164.731 191.067 148.359 175.325 156.545C167.139 160.638 168.399 165.045 178.158 168.823C182.881 170.712 187.603 173.231 188.548 174.49C189.492 175.75 197.048 180.472 205.549 184.565C214.994 189.288 223.809 196.844 228.217 203.77C235.458 215.104 235.458 215.104 228.847 213.215C223.809 211.956 222.55 212.9 223.809 216.048C225.698 220.771 220.031 221.086 183.825 219.197C172.806 218.567 169.973 217.623 174.38 216.048C180.677 213.53 149.823 209.437 124.007 209.437H111.729L123.377 197.473C130.933 189.917 135.026 182.676 135.026 177.324C135.026 172.601 136.6 168.509 138.804 167.879C144.156 165.99 138.804 159.064 132.193 159.064C123.692 159.064 92.8386 194.955 90.6347 207.863C89.6902 212.27 86.2271 214.474 78.6711 215.104L68.2816 216.048L70.1706 204.714C73.3189 189.288 97.5611 152.452 113.303 140.174C134.711 123.173 158.639 114.672 182.566 115.617C197.993 116.561 205.234 118.45 212.475 123.802ZM290.239 242.494C300.629 245.328 308.185 258.236 308.185 273.348C308.185 279.33 310.074 289.719 312.592 296.331C314.796 303.257 317.944 315.851 318.889 324.351C322.037 347.964 318.889 350.482 284.572 351.427C251.515 352.371 180.047 349.223 118.655 344.186C95.0424 342.297 71.4299 341.667 66.7074 342.611C58.5217 344.186 57.5772 343.241 50.0212 324.981C43.4097 308.609 41.8356 300.424 42.1504 275.552V245.643L75.2079 242.18C110.469 238.402 275.442 238.716 290.239 242.494Z" fill="black"/>
<path d="M82.7638 260.755C61.9848 270.829 53.1694 282.163 53.1694 299.164C53.1694 310.498 54.4288 313.017 61.9848 316.48C73.6336 322.147 128.415 324.351 142.267 319.943C148.564 317.74 154.231 313.647 155.175 310.813C159.898 293.497 160.213 285.941 155.805 280.274C152.972 276.811 150.768 270.2 150.768 265.162C150.768 257.292 149.823 256.662 138.489 256.662C131.878 256.662 120.229 256.032 112.673 255.088C101.969 253.514 95.0423 255.088 82.7638 260.755ZM133.137 287.201C140.063 291.608 124.951 294.442 105.117 292.553C80.5599 290.349 75.8374 288.775 81.8193 284.367C86.2269 281.849 127.47 284.052 133.137 287.201Z" fill="black"/>
<path d="M235.143 262.014C230.736 262.644 225.384 265.163 223.809 267.052C219.402 273.348 210.586 298.85 210.586 306.406C210.586 319.944 251.83 333.796 269.46 326.24C291.813 316.795 304.092 280.904 289.295 267.681C283.313 262.014 252.774 258.866 235.143 262.014ZM276.072 293.498C276.701 296.331 272.923 297.59 263.164 297.59C245.218 297.59 236.718 294.757 242.699 290.979C248.681 286.886 274.498 289.09 276.072 293.498Z" fill="black"/>
<path d="M15.3367 502.947V503.537H10.8098V503.066L13.4928 500.439C13.8308 500.107 14.0582 499.821 14.175 499.581C14.298 499.335 14.3594 499.09 14.3594 498.844C14.3594 498.463 14.2273 498.168 13.963 497.959C13.7048 497.743 13.3329 497.636 12.8474 497.636C12.0913 497.636 11.5043 497.876 11.0864 498.355L10.6162 497.949C10.8682 497.654 11.1878 497.427 11.575 497.267C11.9684 497.107 12.411 497.027 12.9027 497.027C13.5604 497.027 14.0798 497.184 14.4608 497.498C14.8481 497.805 15.0417 498.229 15.0417 498.77C15.0417 499.102 14.9679 499.421 14.8204 499.729C14.6729 500.036 14.3932 500.39 13.9814 500.789L11.7871 502.947H15.3367ZM17.8663 499.729C18.8006 499.729 19.4798 499.898 19.9039 500.236C20.3342 500.568 20.5493 501.035 20.5493 501.637C20.5493 502.012 20.4602 502.347 20.2819 502.642C20.1098 502.937 19.8486 503.171 19.4982 503.343C19.1479 503.509 18.7176 503.592 18.2074 503.592C17.7464 503.592 17.307 503.518 16.889 503.371C16.4772 503.217 16.1453 503.014 15.8932 502.762L16.2159 502.237C16.4311 502.458 16.7138 502.639 17.0642 502.781C17.4145 502.916 17.7925 502.983 18.1982 502.983C18.733 502.983 19.1448 502.864 19.4337 502.624C19.7287 502.384 19.8762 502.065 19.8762 501.665C19.8762 501.222 19.7103 500.887 19.3784 500.66C19.0526 500.433 18.4994 500.319 17.7188 500.319H16.345L16.6769 497.083H20.2081V497.673H17.2578L17.0365 499.729H17.8663ZM21.8899 503.583C21.7547 503.583 21.6379 503.534 21.5396 503.435C21.4474 503.337 21.4013 503.217 21.4013 503.076C21.4013 502.934 21.4474 502.817 21.5396 502.725C21.6379 502.627 21.7547 502.578 21.8899 502.578C22.0251 502.578 22.1419 502.627 22.2403 502.725C22.3386 502.817 22.3878 502.934 22.3878 503.076C22.3878 503.217 22.3386 503.337 22.2403 503.435C22.1419 503.534 22.0251 503.583 21.8899 503.583ZM25.0265 497.083V503.537H24.3626V497.673H22.8414V497.083H25.0265ZM30.9763 502.947V503.537H26.4494V503.066L29.1323 500.439C29.4704 500.107 29.6978 499.821 29.8146 499.581C29.9376 499.335 29.999 499.09 29.999 498.844C29.999 498.463 29.8669 498.168 29.6026 497.959C29.3444 497.743 28.9725 497.636 28.487 497.636C27.7309 497.636 27.1439 497.876 26.726 498.355L26.2557 497.949C26.5078 497.654 26.8274 497.427 27.2146 497.267C27.608 497.107 28.0505 497.027 28.5423 497.027C29.2 497.027 29.7193 497.184 30.1004 497.498C30.4877 497.805 30.6813 498.229 30.6813 498.77C30.6813 499.102 30.6075 499.421 30.46 499.729C30.3125 500.036 30.0328 500.39 29.621 500.789L27.4267 502.947H30.9763ZM32.3973 503.583C32.2621 503.583 32.1453 503.534 32.047 503.435C31.9548 503.337 31.9087 503.217 31.9087 503.076C31.9087 502.934 31.9548 502.817 32.047 502.725C32.1453 502.627 32.2621 502.578 32.3973 502.578C32.5326 502.578 32.6493 502.627 32.7477 502.725C32.846 502.817 32.8952 502.934 32.8952 503.076C32.8952 503.217 32.846 503.337 32.7477 503.435C32.6493 503.534 32.5326 503.583 32.3973 503.583ZM38.3504 502.947V503.537H33.8235V503.066L36.5065 500.439C36.8445 500.107 37.0719 499.821 37.1887 499.581C37.3117 499.335 37.3731 499.09 37.3731 498.844C37.3731 498.463 37.241 498.168 36.9767 497.959C36.7185 497.743 36.3466 497.636 35.8611 497.636C35.105 497.636 34.518 497.876 34.1001 498.355L33.6298 497.949C33.8819 497.654 34.2015 497.427 34.5887 497.267C34.9821 497.107 35.4247 497.027 35.9164 497.027C36.5741 497.027 37.0935 497.184 37.4745 497.498C37.8618 497.805 38.0554 498.229 38.0554 498.77C38.0554 499.102 37.9816 499.421 37.8341 499.729C37.6866 500.036 37.4069 500.39 36.9951 500.789L34.8008 502.947H38.3504ZM41.7199 503.592C41.222 503.592 40.7764 503.46 40.383 503.195C39.9957 502.931 39.6915 502.553 39.4702 502.061C39.2551 501.564 39.1475 500.98 39.1475 500.31C39.1475 499.64 39.2551 499.059 39.4702 498.567C39.6915 498.069 39.9957 497.688 40.383 497.424C40.7764 497.16 41.222 497.027 41.7199 497.027C42.2177 497.027 42.6603 497.16 43.0475 497.424C43.4409 497.688 43.7482 498.069 43.9695 498.567C44.1908 499.059 44.3014 499.64 44.3014 500.31C44.3014 500.98 44.1908 501.564 43.9695 502.061C43.7482 502.553 43.4409 502.931 43.0475 503.195C42.6603 503.46 42.2177 503.592 41.7199 503.592ZM41.7199 502.983C42.0948 502.983 42.4237 502.879 42.7064 502.67C42.9953 502.461 43.2196 502.157 43.3794 501.757C43.5393 501.358 43.6192 500.875 43.6192 500.31C43.6192 499.744 43.5393 499.262 43.3794 498.862C43.2196 498.463 42.9953 498.158 42.7064 497.949C42.4237 497.74 42.0948 497.636 41.7199 497.636C41.3449 497.636 41.013 497.74 40.7241 497.949C40.4414 498.158 40.2201 498.463 40.0603 498.862C39.9005 499.262 39.8206 499.744 39.8206 500.31C39.8206 500.875 39.9005 501.358 40.0603 501.757C40.2201 502.157 40.4414 502.461 40.7241 502.67C41.013 502.879 41.3449 502.983 41.7199 502.983ZM49.6412 502.947V503.537H45.1142V503.066L47.7972 500.439C48.1353 500.107 48.3627 499.821 48.4795 499.581C48.6024 499.335 48.6639 499.09 48.6639 498.844C48.6639 498.463 48.5317 498.168 48.2674 497.959C48.0093 497.743 47.6374 497.636 47.1518 497.636C46.3958 497.636 45.8088 497.876 45.3908 498.355L44.9206 497.949C45.1726 497.654 45.4922 497.427 45.8795 497.267C46.2729 497.107 46.7154 497.027 47.2071 497.027C47.8648 497.027 48.3842 497.184 48.7653 497.498C49.1525 497.805 49.3462 498.229 49.3462 498.77C49.3462 499.102 49.2724 499.421 49.1249 499.729C48.9774 500.036 48.6977 500.39 48.2859 500.789L46.0915 502.947H49.6412ZM55.744 501.84H54.4532V503.537H53.7894V501.84H50.1476V501.361L53.5681 497.083H54.3057L51.005 501.25H53.8079V499.756H54.4532V501.25H55.744V501.84Z" fill="black"/>
<path d="M163.733 502.947V503.537H159.206V503.066L161.889 500.439C162.227 500.107 162.454 499.821 162.571 499.581C162.694 499.335 162.755 499.09 162.755 498.844C162.755 498.463 162.623 498.168 162.359 497.959C162.101 497.743 161.729 497.636 161.243 497.636C160.487 497.636 159.9 497.876 159.482 498.355L159.012 497.949C159.264 497.654 159.584 497.427 159.971 497.267C160.364 497.107 160.807 497.027 161.299 497.027C161.956 497.027 162.476 497.184 162.857 497.498C163.244 497.805 163.438 498.229 163.438 498.77C163.438 499.102 163.364 499.421 163.216 499.729C163.069 500.036 162.789 500.39 162.377 500.789L160.183 502.947H163.733ZM166.262 499.729C167.197 499.729 167.876 499.898 168.3 500.236C168.73 500.568 168.945 501.035 168.945 501.637C168.945 502.012 168.856 502.347 168.678 502.642C168.506 502.937 168.245 503.171 167.894 503.343C167.544 503.509 167.114 503.592 166.603 503.592C166.142 503.592 165.703 503.518 165.285 503.371C164.873 503.217 164.541 503.014 164.289 502.762L164.612 502.237C164.827 502.458 165.11 502.639 165.46 502.781C165.811 502.916 166.189 502.983 166.594 502.983C167.129 502.983 167.541 502.864 167.83 502.624C168.125 502.384 168.272 502.065 168.272 501.665C168.272 501.222 168.106 500.887 167.774 500.66C167.449 500.433 166.895 500.319 166.115 500.319H164.741L165.073 497.083H168.604V497.673H165.654L165.433 499.729H166.262ZM170.286 503.583C170.151 503.583 170.034 503.534 169.936 503.435C169.843 503.337 169.797 503.217 169.797 503.076C169.797 502.934 169.843 502.817 169.936 502.725C170.034 502.627 170.151 502.578 170.286 502.578C170.421 502.578 170.538 502.627 170.636 502.725C170.735 502.817 170.784 502.934 170.784 503.076C170.784 503.217 170.735 503.337 170.636 503.435C170.538 503.534 170.421 503.583 170.286 503.583ZM173.422 497.083V503.537H172.759V497.673H171.237V497.083H173.422ZM179.372 502.947V503.537H174.845V503.066L177.528 500.439C177.866 500.107 178.094 499.821 178.211 499.581C178.334 499.335 178.395 499.09 178.395 498.844C178.395 498.463 178.263 498.168 177.999 497.959C177.74 497.743 177.369 497.636 176.883 497.636C176.127 497.636 175.54 497.876 175.122 498.355L174.652 497.949C174.904 497.654 175.223 497.427 175.611 497.267C176.004 497.107 176.447 497.027 176.938 497.027C177.596 497.027 178.115 497.184 178.496 497.498C178.884 497.805 179.077 498.229 179.077 498.77C179.077 499.102 179.004 499.421 178.856 499.729C178.708 500.036 178.429 500.39 178.017 500.789L175.823 502.947H179.372ZM180.793 503.583C180.658 503.583 180.541 503.534 180.443 503.435C180.351 503.337 180.305 503.217 180.305 503.076C180.305 502.934 180.351 502.817 180.443 502.725C180.541 502.627 180.658 502.578 180.793 502.578C180.929 502.578 181.045 502.627 181.144 502.725C181.242 502.817 181.291 502.934 181.291 503.076C181.291 503.217 181.242 503.337 181.144 503.435C181.045 503.534 180.929 503.583 180.793 503.583ZM186.746 502.947V503.537H182.219V503.066L184.902 500.439C185.241 500.107 185.468 499.821 185.585 499.581C185.708 499.335 185.769 499.09 185.769 498.844C185.769 498.463 185.637 498.168 185.373 497.959C185.115 497.743 184.743 497.636 184.257 497.636C183.501 497.636 182.914 497.876 182.496 498.355L182.026 497.949C182.278 497.654 182.597 497.427 182.985 497.267C183.378 497.107 183.821 497.027 184.312 497.027C184.97 497.027 185.489 497.184 185.871 497.498C186.258 497.805 186.451 498.229 186.451 498.77C186.451 499.102 186.378 499.421 186.23 499.729C186.083 500.036 185.803 500.39 185.391 500.789L183.197 502.947H186.746ZM190.116 503.592C189.618 503.592 189.172 503.46 188.779 503.195C188.392 502.931 188.087 502.553 187.866 502.061C187.651 501.564 187.544 500.98 187.544 500.31C187.544 499.64 187.651 499.059 187.866 498.567C188.087 498.069 188.392 497.688 188.779 497.424C189.172 497.16 189.618 497.027 190.116 497.027C190.614 497.027 191.056 497.16 191.444 497.424C191.837 497.688 192.144 498.069 192.366 498.567C192.587 499.059 192.697 499.64 192.697 500.31C192.697 500.98 192.587 501.564 192.366 502.061C192.144 502.553 191.837 502.931 191.444 503.195C191.056 503.46 190.614 503.592 190.116 503.592ZM190.116 502.983C190.491 502.983 190.82 502.879 191.102 502.67C191.391 502.461 191.616 502.157 191.775 501.757C191.935 501.358 192.015 500.875 192.015 500.31C192.015 499.744 191.935 499.262 191.775 498.862C191.616 498.463 191.391 498.158 191.102 497.949C190.82 497.74 190.491 497.636 190.116 497.636C189.741 497.636 189.409 497.74 189.12 497.949C188.837 498.158 188.616 498.463 188.456 498.862C188.296 499.262 188.217 499.744 188.217 500.31C188.217 500.875 188.296 501.358 188.456 501.757C188.616 502.157 188.837 502.461 189.12 502.67C189.409 502.879 189.741 502.983 190.116 502.983ZM198.037 502.947V503.537H193.51V503.066L196.193 500.439C196.531 500.107 196.759 499.821 196.875 499.581C196.998 499.335 197.06 499.09 197.06 498.844C197.06 498.463 196.928 498.168 196.663 497.959C196.405 497.743 196.033 497.636 195.548 497.636C194.792 497.636 194.205 497.876 193.787 498.355L193.317 497.949C193.569 497.654 193.888 497.427 194.275 497.267C194.669 497.107 195.111 497.027 195.603 497.027C196.261 497.027 196.78 497.184 197.161 497.498C197.549 497.805 197.742 498.229 197.742 498.77C197.742 499.102 197.668 499.421 197.521 499.729C197.373 500.036 197.094 500.39 196.682 500.789L194.488 502.947H198.037ZM204.14 501.84H202.849V503.537H202.185V501.84H198.544V501.361L201.964 497.083H202.702L199.401 501.25H202.204V499.756H202.849V501.25H204.14V501.84Z" fill="black"/>
<path d="M312.129 502.947V503.537H307.602V503.066L310.285 500.439C310.623 500.107 310.851 499.821 310.968 499.581C311.09 499.335 311.152 499.09 311.152 498.844C311.152 498.463 311.02 498.168 310.755 497.959C310.497 497.743 310.125 497.636 309.64 497.636C308.884 497.636 308.297 497.876 307.879 498.355L307.409 497.949C307.661 497.654 307.98 497.427 308.368 497.267C308.761 497.107 309.203 497.027 309.695 497.027C310.353 497.027 310.872 497.184 311.253 497.498C311.641 497.805 311.834 498.229 311.834 498.77C311.834 499.102 311.76 499.421 311.613 499.729C311.465 500.036 311.186 500.39 310.774 500.789L308.58 502.947H312.129ZM314.659 499.729C315.593 499.729 316.272 499.898 316.696 500.236C317.127 500.568 317.342 501.035 317.342 501.637C317.342 502.012 317.253 502.347 317.074 502.642C316.902 502.937 316.641 503.171 316.291 503.343C315.94 503.509 315.51 503.592 315 503.592C314.539 503.592 314.099 503.518 313.681 503.371C313.27 503.217 312.938 503.014 312.686 502.762L313.008 502.237C313.224 502.458 313.506 502.639 313.857 502.781C314.207 502.916 314.585 502.983 314.991 502.983C315.525 502.983 315.937 502.864 316.226 502.624C316.521 502.384 316.669 502.065 316.669 501.665C316.669 501.222 316.503 500.887 316.171 500.66C315.845 500.433 315.292 500.319 314.511 500.319H313.137L313.469 497.083H317.001V497.673H314.05L313.829 499.729H314.659ZM318.682 503.583C318.547 503.583 318.43 503.534 318.332 503.435C318.24 503.337 318.194 503.217 318.194 503.076C318.194 502.934 318.24 502.817 318.332 502.725C318.43 502.627 318.547 502.578 318.682 502.578C318.818 502.578 318.934 502.627 319.033 502.725C319.131 502.817 319.18 502.934 319.18 503.076C319.18 503.217 319.131 503.337 319.033 503.435C318.934 503.534 318.818 503.583 318.682 503.583ZM321.819 497.083V503.537H321.155V497.673H319.634V497.083H321.819ZM327.769 502.947V503.537H323.242V503.066L325.925 500.439C326.263 500.107 326.49 499.821 326.607 499.581C326.73 499.335 326.791 499.09 326.791 498.844C326.791 498.463 326.659 498.168 326.395 497.959C326.137 497.743 325.765 497.636 325.279 497.636C324.523 497.636 323.936 497.876 323.518 498.355L323.048 497.949C323.3 497.654 323.62 497.427 324.007 497.267C324.4 497.107 324.843 497.027 325.335 497.027C325.992 497.027 326.512 497.184 326.893 497.498C327.28 497.805 327.474 498.229 327.474 498.77C327.474 499.102 327.4 499.421 327.252 499.729C327.105 500.036 326.825 500.39 326.413 500.789L324.219 502.947H327.769ZM329.19 503.583C329.055 503.583 328.938 503.534 328.839 503.435C328.747 503.337 328.701 503.217 328.701 503.076C328.701 502.934 328.747 502.817 328.839 502.725C328.938 502.627 329.055 502.578 329.19 502.578C329.325 502.578 329.442 502.627 329.54 502.725C329.639 502.817 329.688 502.934 329.688 503.076C329.688 503.217 329.639 503.337 329.54 503.435C329.442 503.534 329.325 503.583 329.19 503.583ZM335.143 502.947V503.537H330.616V503.066L333.299 500.439C333.637 500.107 333.864 499.821 333.981 499.581C334.104 499.335 334.166 499.09 334.166 498.844C334.166 498.463 334.033 498.168 333.769 497.959C333.511 497.743 333.139 497.636 332.654 497.636C331.898 497.636 331.311 497.876 330.893 498.355L330.422 497.949C330.674 497.654 330.994 497.427 331.381 497.267C331.775 497.107 332.217 497.027 332.709 497.027C333.367 497.027 333.886 497.184 334.267 497.498C334.654 497.805 334.848 498.229 334.848 498.77C334.848 499.102 334.774 499.421 334.627 499.729C334.479 500.036 334.199 500.39 333.788 500.789L331.593 502.947H335.143ZM338.512 503.592C338.014 503.592 337.569 503.46 337.175 503.195C336.788 502.931 336.484 502.553 336.263 502.061C336.048 501.564 335.94 500.98 335.94 500.31C335.94 499.64 336.048 499.059 336.263 498.567C336.484 498.069 336.788 497.688 337.175 497.424C337.569 497.16 338.014 497.027 338.512 497.027C339.01 497.027 339.453 497.16 339.84 497.424C340.233 497.688 340.541 498.069 340.762 498.567C340.983 499.059 341.094 499.64 341.094 500.31C341.094 500.98 340.983 501.564 340.762 502.061C340.541 502.553 340.233 502.931 339.84 503.195C339.453 503.46 339.01 503.592 338.512 503.592ZM338.512 502.983C338.887 502.983 339.216 502.879 339.499 502.67C339.788 502.461 340.012 502.157 340.172 501.757C340.332 501.358 340.412 500.875 340.412 500.31C340.412 499.744 340.332 499.262 340.172 498.862C340.012 498.463 339.788 498.158 339.499 497.949C339.216 497.74 338.887 497.636 338.512 497.636C338.137 497.636 337.805 497.74 337.517 497.949C337.234 498.158 337.013 498.463 336.853 498.862C336.693 499.262 336.613 499.744 336.613 500.31C336.613 500.875 336.693 501.358 336.853 501.757C337.013 502.157 337.234 502.461 337.517 502.67C337.805 502.879 338.137 502.983 338.512 502.983ZM346.434 502.947V503.537H341.907V503.066L344.59 500.439C344.928 500.107 345.155 499.821 345.272 499.581C345.395 499.335 345.456 499.09 345.456 498.844C345.456 498.463 345.324 498.168 345.06 497.959C344.802 497.743 344.43 497.636 343.944 497.636C343.188 497.636 342.601 497.876 342.183 498.355L341.713 497.949C341.965 497.654 342.285 497.427 342.672 497.267C343.065 497.107 343.508 497.027 344 497.027C344.657 497.027 345.177 497.184 345.558 497.498C345.945 497.805 346.139 498.229 346.139 498.77C346.139 499.102 346.065 499.421 345.917 499.729C345.77 500.036 345.49 500.39 345.078 500.789L342.884 502.947H346.434ZM352.537 501.84H351.246V503.537H350.582V501.84H346.94V501.361L350.361 497.083H351.098L347.797 501.25H350.6V499.756H351.246V501.25H352.537V501.84Z" fill="black"/>
<path d="M88.336 21.9361C85.9373 22.7756 83.8384 24.7546 83.8384 26.0739C83.8384 26.4337 84.3181 26.1338 84.9178 25.4142C85.8773 24.1549 90.3149 22.056 91.3944 22.2959C91.6942 22.3558 92.9536 22.2359 94.2129 21.9361C97.1513 21.3364 98.9504 22.1759 100.27 24.6946L101.289 26.7335L100.929 24.9345C100.21 21.7562 99.0703 21.0365 94.6926 21.0365C92.5338 21.0965 89.6553 21.4563 88.336 21.9361Z" fill="black"/>
<path d="M82.6991 29.9115C81.4997 34.7689 81.9195 51.5601 83.4187 56.8972C84.0784 59.296 84.798 61.155 84.9779 61.035C89.8953 58.3365 95.7122 57.257 97.2114 58.7562C98.7706 60.3154 99.2503 59.3559 99.3703 54.9183C99.4902 50.6006 99.4302 50.3607 97.931 49.821C95.8321 49.0414 91.8742 49.0414 90.3151 49.8809C88.6359 50.7805 88.2162 50.1208 87.7964 45.8031L87.4366 42.145L89.2956 41.7253C92.5339 41.0056 96.012 41.8452 97.6312 43.8241C98.4707 44.8436 99.2503 45.6232 99.4902 45.6232C99.6701 45.6232 99.85 44.5438 99.91 43.1645C99.9699 41.8452 100.15 40.4659 100.33 40.1661C100.57 39.8662 100.21 38.6669 99.6701 37.4675C98.2309 34.4691 95.5923 33.3897 91.4544 34.1693C89.5954 34.5291 88.0962 34.5291 87.7964 34.1693C86.8969 33.3297 88.576 30.7511 90.9147 29.3118C92.8337 28.1724 93.2535 28.1125 95.7722 28.7721C97.5112 29.2519 99.0704 30.2114 100.15 31.4107L101.769 33.3297L101.709 30.3313C101.709 28.6522 101.529 27.9326 101.409 28.6522C101.109 30.2713 100.45 30.3913 99.1904 29.072C98.6506 28.5922 97.3313 27.8726 96.3119 27.5728C90.9747 26.0136 86.2372 29.4318 86.2372 34.8289C86.2372 38.0672 86.8969 38.6069 88.576 36.568C89.3556 35.5485 90.3151 35.2487 93.0736 35.1887C96.2519 35.1287 96.6717 35.2487 97.991 36.9278C99.4902 38.7868 99.9699 42.6248 98.7106 42.6248C98.3508 42.6248 97.5112 42.145 96.9116 41.6053C95.6522 40.5259 90.3151 40.1661 87.3766 40.9457C85.8774 41.3654 85.8774 41.4254 86.1173 46.6427C86.2372 49.5811 86.597 52.1597 86.8969 52.5195C87.2567 52.8794 88.0962 52.6994 89.1757 52.0398C90.3151 51.3801 92.1741 51.0203 94.5728 51.0203H98.2309V53.3591C98.2309 56.9572 97.8111 57.6768 96.012 56.9572C93.7332 56.1176 92.0541 56.2975 88.456 57.9167L85.1578 59.3559L84.4382 57.4369C83.4187 54.7384 82.939 32.0104 83.8984 30.2713C84.3182 29.4318 84.3782 28.5922 84.0184 27.9925C83.5986 27.2129 83.2988 27.6327 82.6991 29.9115Z" fill="black"/>
<path d="M58.602 22.2894C57.6231 23.1931 58.0749 23.8708 59.4303 23.5696C61.7647 22.8918 63.2707 24.925 63.7225 29.2925C63.9484 31.5516 64.4755 35.7685 64.9273 38.5547C65.3039 41.3408 65.3792 47.0638 65.0779 51.2054C64.6261 58.2838 64.5508 58.7356 63.0448 58.5097C61.6894 58.2838 61.4635 57.7567 61.4635 54.5187C61.3882 52.4102 60.9363 46.9885 60.3339 42.3198C59.5056 35.4673 59.5056 33.0576 60.2586 29.7443C61.3128 25.0003 61.0116 23.9461 58.602 24.3226C57.6984 24.4732 56.3429 24.2473 55.6652 23.8708C53.5567 22.8165 50.7706 23.9461 47.5326 27.1841C44.8217 29.8949 44.5205 30.6479 44.5205 33.8106C44.5205 36.898 44.8217 37.7263 46.629 39.0818C48.2856 40.4372 49.4151 40.6631 52.9543 40.4372C57.1712 40.136 57.1712 40.136 57.6984 42.3951C57.9243 43.6752 58.3008 48.118 58.602 52.2596C59.0538 60.6181 59.6562 61.6724 63.7978 61.6724C65.5298 61.6724 66.3581 61.2959 66.6593 60.3169C67.4123 57.5308 68.1653 50.5277 68.2406 45.8589C68.2406 41.8679 68.4665 41.0396 69.3702 41.2655C75.2437 42.8469 78.8582 40.9643 79.4606 35.9191C80.2889 28.8407 72.081 20.8587 67.1111 23.9461C66.3581 24.4732 65.7557 24.2473 65.0026 23.1931C64.0237 21.7623 59.6562 21.1599 58.602 22.2894ZM74.8672 27.3347C79.1594 31.6269 79.5359 39.0818 75.5449 40.4372C72.4575 41.4161 68.6171 39.9854 68.6171 37.8016C68.6171 36.2956 68.843 36.145 70.0479 36.8227C74.9425 39.383 77.5028 34.413 73.4365 30.2714C71.9304 28.7654 71.0268 28.4642 69.2949 28.8407C66.5087 29.3678 65.4545 27.4853 67.5629 25.9039C69.8973 24.172 72.1563 24.6238 74.8672 27.3347ZM54.6863 26.3557C54.9875 26.8075 55.6652 26.9581 56.2676 26.7322C56.87 26.5063 57.3218 26.7322 57.3218 27.2594C57.3218 27.8618 56.3429 28.2383 54.7616 28.2383C51.4483 28.2383 49.7916 29.669 49.7916 32.3799C49.7916 34.0365 50.1682 34.5637 51.2977 34.5637C53.3308 34.5637 56.5688 36.145 56.5688 37.1992C56.5688 37.7263 54.9875 38.1028 52.5025 38.2534C49.0386 38.4041 48.2103 38.1781 47.3067 36.7474C45.4994 34.2624 46.3278 30.7985 49.4151 27.9371C52.126 25.4521 53.858 24.925 54.6863 26.3557ZM55.5899 30.4973C57.3971 32.3046 55.7405 33.5847 53.1049 32.3799C51.5236 31.7022 51.2977 31.3257 52.0507 30.422C53.2555 28.9913 54.1592 28.9913 55.5899 30.4973ZM73.1353 31.7022C73.9636 32.6058 74.6413 33.9612 74.6413 34.7896C74.6413 35.9944 74.2648 36.2203 72.3069 35.7685C71.0268 35.5426 69.4455 35.3167 68.9184 35.3167C67.7888 35.3167 67.5629 33.2835 68.3159 31.2504C68.9937 29.5184 71.328 29.7443 73.1353 31.7022Z" fill="black"/>
<path d="M137.685 22.4798C133.392 26.3202 135.049 31.1395 140.546 30.763L143.709 30.5371L143.859 45.0704C143.935 58.7 144.01 59.7543 145.441 60.7332C146.269 61.3356 147.775 61.7874 148.829 61.6368C150.938 61.4109 150.938 61.938 150.109 45.221C149.658 36.7119 150.335 31.8925 152.067 30.763C152.519 30.4618 154.552 30.01 156.51 29.7841C159.974 29.257 160.125 29.1817 160.125 26.772C160.125 25.4166 159.597 23.9105 159.07 23.3834C157.338 22.028 149.733 20.4466 144.612 20.3713C140.621 20.3713 139.718 20.6725 137.685 22.4798ZM155.832 24.5882C159.899 25.266 159.673 27.525 155.531 28.1274C153.799 28.3533 151.691 29.257 150.787 30.1606C149.281 31.6666 149.206 32.4197 149.356 46.0493C149.432 60.2061 149.432 60.3567 147.85 60.1308C145.516 59.7543 144.989 56.8175 144.838 42.9619C144.688 36.1095 144.386 30.0853 144.085 29.5582C143.709 29.1064 142.654 28.6546 141.676 28.6546C139.341 28.6546 137.534 27.9015 137.534 26.9979C137.534 26.5461 138.061 26.3955 138.663 26.6967C139.341 26.9226 139.793 26.6967 139.793 26.019C139.793 25.4919 140.395 24.8142 141.148 24.6635C143.182 24.1364 152.67 24.1364 155.832 24.5882Z" fill="black"/>
<path d="M121.909 21.9506C114.981 24.1344 112.044 28.4266 109.71 39.496C108.279 46.5744 108.279 51.3184 109.634 54.6317C110.914 57.5685 114.077 61.0323 115.508 61.0323C116.035 61.0323 115.658 60.5052 114.755 59.8275C113.776 59.1498 112.27 56.8907 111.291 54.707C109.785 51.3184 109.634 50.1136 110.161 46.4238C110.463 44.0141 110.914 41.9056 111.065 41.6797C111.592 41.1526 113.851 49.1346 113.399 49.8877C112.797 50.8666 114.604 52.7491 116.186 52.7491C117.014 52.7491 118.068 51.7702 118.821 50.4148C119.875 48.3816 120.252 48.1557 122.285 48.5322C123.565 48.7581 125.071 48.984 125.674 48.984C126.502 48.984 126.728 49.5864 126.502 51.2431C126.276 52.7491 126.502 53.5021 127.18 53.5021C127.782 53.5021 128.159 52.5232 128.159 50.5654C128.159 47.7792 128.083 47.6286 124.619 46.725C121.156 45.6707 121.156 45.6707 119.122 48.0804C117.993 49.4358 116.713 50.4901 116.261 50.4901C115.809 50.4901 114.905 48.7581 114.303 46.725C113.324 43.487 113.324 42.4328 114.152 39.6466C116.186 32.9447 117.014 31.6646 119.875 31.2128C121.306 30.9869 123.113 30.6103 123.791 30.4597C124.469 30.2338 125.372 30.6856 125.749 31.3634C126.427 32.4929 126.577 32.4929 127.406 30.8363C128.761 28.4266 128.686 22.7789 127.33 21.5741C126.427 20.6705 125.598 20.7458 121.909 21.9506ZM125.9 26.544V29.029H121.607C119.198 29.029 116.562 29.4055 115.734 29.782C114.303 30.4597 114.303 30.3844 115.433 28.6525C116.863 26.3181 121.005 24.1344 123.866 24.1344C125.674 24.1344 125.9 24.4356 125.9 26.544Z" fill="black"/>
<path d="M121.381 57.7944C120.327 58.8486 119.951 59.6016 120.553 59.451C121.532 59.0745 124.243 55.7612 123.565 55.7612C123.415 55.7612 122.436 56.6649 121.381 57.7944Z" fill="black"/>
<path d="M166.905 23.0308C165.971 23.3802 165.126 23.9843 165.045 24.4959C164.964 24.9224 164.801 25.6902 164.721 26.2018C164.555 26.6291 164.924 29.6907 165.552 33.0053C166.093 36.2356 166.764 44.0623 167.079 50.3599C167.393 56.5723 167.87 61.9318 168.128 62.2699C168.471 62.522 169.149 62.175 169.737 61.318C171.334 59.0892 175.843 58.791 175.013 61.0125C174.1 63.4903 175.366 62.2863 179.063 57.1427C181.08 54.3139 183.425 50.2048 184.255 47.9832C185.996 43.0284 188.433 39.5996 189.211 40.8693C189.47 41.2926 189.474 41.7183 189.049 41.7223C188.708 41.7255 188.397 44.7936 188.431 48.4544C188.467 52.2003 188.749 55.0074 189.003 54.8347C189.257 54.662 189.734 51.1666 190.036 47.0769C190.252 42.9029 190.719 38.3008 190.96 36.7659C191.609 33.354 189.903 33.0297 188.657 36.362C188.159 37.729 186.903 39.8695 185.895 41.3265C184.886 42.6984 183.045 46.0364 181.877 48.6018C178.709 55.6986 177.273 56.9043 173.012 56.519L169.348 56.2132L169.181 47.5302C169.136 42.8478 168.737 36.6362 168.37 33.9151C167.364 26.6024 167.859 24.8949 170.839 24.8666C172.712 24.8488 173.397 25.3532 173.838 26.8816C174.104 28.071 174.117 29.3481 173.866 29.8613C173.529 30.2902 173.705 30.8845 174.219 31.2202C174.648 31.4716 175.011 33.9373 175.037 36.5764C174.924 42.7078 176.119 51.9769 177.061 52.564C177.489 52.8154 178.164 52.1278 178.579 51.017C178.994 49.9062 179.826 47.8549 180.324 46.4879C188.3 25.6375 188.134 26.0648 191.02 25.186C195.435 23.8669 195.7 24.801 194.695 35.6236C194.08 42.526 194.03 46.2727 194.741 49.4162C196.251 55.9579 196.17 56.3844 193.269 55.7308C190.71 55.2442 187.23 56.4692 187.244 57.9165C187.249 58.4273 189.466 58.7468 192.19 58.721L197.043 58.6749L196.881 41.648C196.613 22.3232 196.349 21.4743 190.995 22.5468C189.381 22.9027 187.683 23.4296 187.175 23.6899C186.245 24.3799 180.993 36.1793 179.422 41.1325C178.184 45.2311 176.915 46.0946 176.8 42.9454C176.703 41.6692 176.689 40.2219 176.771 39.8805C177.094 38.0895 174.07 24.4954 173.209 23.4818C172.176 22.2145 169.79 22.0669 166.905 23.0308Z" fill="black"/>
<path d="M212.966 23.3362C213.24 24.0483 214.14 24.6652 215.124 24.8346C218.882 25.4244 221.847 27.0938 223.119 29.3155C223.845 30.5594 224.387 31.1797 224.471 30.5535C224.455 28.9454 220.033 24.2519 217.883 23.6469C216.807 23.2997 215.195 22.8683 214.21 22.6096C213.135 22.3517 212.69 22.5346 212.966 23.3362Z" fill="black"/>
<path d="M210.072 29.0822C208.321 32.9408 207.985 35.1777 207.819 45.901C207.632 54.4802 207.939 58.5873 208.662 59.4739C210.199 61.3356 217.175 62.0735 220.379 60.7029C224.205 59.0583 228.43 52.3172 228.917 47.1304C229.237 43.196 229.052 42.5723 226.619 40.3617C224.365 38.2388 224.09 37.5266 224.789 35.8223C225.489 34.2968 225.392 33.4936 224.402 32.6988C223.77 32.0794 223.412 31.9935 223.774 32.4368C225.039 33.9437 222.739 36.3779 219.615 36.7649C217.92 36.9597 216.491 37.0626 216.49 36.9733C216.472 35.0078 218.589 32.1286 220.018 32.115C221.001 32.1057 221.801 31.7407 221.796 31.2047C221.791 30.6686 220.987 30.6762 219.473 31.2267C217.516 32.0494 217.247 31.9626 217.502 30.62C217.671 29.6355 218.56 29.091 219.543 29.171C221.332 29.3328 221.331 29.2434 219.622 28.0088C216.563 25.8041 215.776 27.5985 215.249 37.9679C215.027 42.8841 214.535 47.4455 213.445 55.0504C213.195 56.9291 212.491 58.0973 211.243 58.3772C209.372 58.9311 209.37 58.7524 209.613 46.6881C209.887 37.8401 210.381 33.4573 211.43 31.035C213.791 25.5624 212.523 23.7874 210.072 29.0822ZM225.109 41.3589C227.09 42.9483 227.548 44.1055 227.484 46.7866C227.344 50.8979 223.737 56.8291 220.621 58.0202C218.396 58.9348 212.592 59.2579 214.727 58.3441C215.262 58.1604 215.782 56.5472 215.766 54.8497C215.738 51.8122 215.738 51.8122 219.758 51.774C223.599 51.7376 223.777 51.6465 223.665 49.2352C223.642 46.823 223.642 46.823 222.769 48.9757C222.246 50.3208 221.536 50.8637 220.55 50.5156C219.743 50.2552 218.311 50.0008 217.418 50.0093C215.989 50.0228 215.717 49.668 216.148 47.9663C217.102 44.9194 217.812 44.466 220.592 45.5117C222.833 46.2946 222.922 46.2938 221.928 45.0523C221.296 44.3435 220.039 43.73 219.145 43.7385C218.163 43.7478 217.445 43.3973 217.44 42.9506C217.436 42.5039 217.248 41.5228 216.973 40.8106C216.059 38.5856 222.317 38.973 225.109 41.3589Z" fill="black"/>
<path d="M239.574 25.5576C237.873 27.5232 237.485 29.0176 237.526 33.3174C237.575 38.4199 236.404 41.9285 233.79 44.4187C231.632 46.5606 231.191 48.4569 231.482 54.9904L231.7 59.8046L233.713 60.4735C234.806 60.8645 236.931 61.2457 238.423 61.4035L241.121 61.6646L241.431 58.1068C241.642 56.1554 241.968 54.2602 242.194 53.9714C242.589 53.2796 251.526 52.5068 251.075 53.2564C250.905 53.4874 251.079 53.7151 251.366 53.7124C251.71 53.7091 252.002 54.2797 252.009 55.025C252.022 56.4583 255.04 60.2138 255.664 59.5772C255.891 59.3457 257.667 59.1568 259.674 59.1378C263.228 59.0467 263.228 59.0467 263.383 57.3252C263.64 54.1692 261.061 42.2105 259.246 38.2142C258.601 36.7869 257.262 34.6209 256.161 33.3699C255.116 32.0611 253.779 30.1244 253.196 29.0405C251.093 24.9323 250.286 24.4813 245.126 24.5302C241.342 24.5661 240.255 24.8058 239.574 25.5576ZM249.573 27.9282C250.099 29.0126 250.856 30.2094 251.146 30.608C251.494 31.0061 251.786 31.5767 251.789 31.8633C251.792 32.15 252.256 32.7763 252.834 33.1721C255.316 34.9833 259.515 42.4545 260.24 46.3465C260.423 47.4915 260.101 49.788 259.266 52.4907C258.044 56.5731 257.931 56.8035 256.213 56.9919C254.38 57.1813 254.38 57.1239 253.659 53.7479C253.24 51.8025 252.652 50.26 252.422 50.2622C252.136 50.2649 252.014 49.5207 252.063 48.6028C252.111 47.685 251.872 46.5979 251.523 46.1425C251.175 45.7445 250.357 44.0895 249.768 42.4897C246.714 34.8356 245.964 34.3267 244.922 39.2675C244.426 41.451 243.696 43.006 242.616 44.0483C240.855 45.7851 240.631 46.3606 241.835 46.3491C242.523 46.3426 242.527 46.7439 241.916 48.7565C241.416 50.5386 240.908 51.2888 239.878 51.5279C238.62 51.8839 238.62 51.9412 239.542 52.4485C240.523 53.0126 240.524 53.1272 239.575 55.8883C238.513 58.7652 237.602 59.4046 235.131 58.7973C233.924 58.5221 233.748 58.0651 233.363 53.8259L232.918 49.1859L234.909 47.5042C236.047 46.5761 237.235 44.902 237.568 43.8095C238.794 40.0137 239.641 32.6666 239.102 30.149C238.436 26.4858 239.403 25.6166 244.507 25.7975C248.522 25.9314 248.579 25.9308 249.573 27.9282ZM247.868 41.6477C247.871 41.9343 248.049 42.5633 248.226 43.0777C248.462 43.7635 248.235 43.995 247.317 44.0037C246.4 44.0124 246.169 43.7852 246.391 43.0951C246.558 42.5775 246.724 41.9452 246.722 41.6585C246.719 41.3719 247.004 41.1398 247.29 41.1371C247.634 41.1339 247.866 41.361 247.868 41.6477ZM249.936 48.107C250.41 49.7079 250.825 51.1374 250.826 51.252C250.827 51.3094 249.165 51.3825 247.1 51.2874C244.06 51.2016 243.428 51.0356 243.708 50.3449C243.876 49.8846 244.323 48.6763 244.658 47.7557C245.327 45.7426 246.01 45.1628 247.73 45.1465C248.762 45.1367 249.168 45.7062 249.936 48.107ZM261.902 52.2936C262.577 56.9888 262.469 57.6205 260.921 57.6352C259.602 57.6477 259.486 57.4768 259.753 55.4675C260.075 53.0564 260.452 50.53 260.507 50.3001C260.564 50.2423 260.793 50.1827 261.079 50.18C261.366 50.1773 261.719 51.1487 261.902 52.2936Z" fill="black"/>
<path d="M276.485 23.3882L273.974 24.1431L273.558 31.7019C273.283 36.9036 272.354 41.7865 270.698 47.0013C267.938 55.8008 266.861 62.1474 268.233 61.2408C268.718 60.9113 269.856 61.0629 270.754 61.4606C272.958 62.6582 274.08 61.0228 275.321 54.756C276.487 49.2209 276.654 41.1771 275.679 41.1863C275.354 41.1894 275.205 42.5718 275.384 44.3573C275.563 46.0615 275.116 50.29 274.417 53.7085C273.251 59.2435 272.932 59.8964 271.227 59.9126C269.521 59.9288 269.356 59.6867 269.983 57.2437C270.376 55.8589 270.92 53.3355 271.149 51.7898C271.378 50.2442 272.163 47.3123 272.794 45.2754C274.215 40.9565 275.568 29.4895 274.82 27.7094C274.154 26.0098 275.931 24.9369 279.505 24.903C282.917 24.8706 282.999 24.9511 284.869 33.7067C285.551 37.1121 287.07 43.0279 288.244 46.916C289.418 50.8041 290.183 54.3712 289.863 54.8617C289.623 55.2701 289.789 55.6747 290.276 55.6701C290.845 55.6647 291.093 56.1497 290.856 56.8019C290.618 57.454 290.787 58.1023 291.276 58.2601C292.987 58.8125 291.054 60.5368 288.698 60.5592C285.774 60.5869 285.275 59.3731 285.028 50.4396C284.703 41.913 283.009 34.6179 281.303 34.6341C280.491 34.6418 280.333 35.1307 280.752 36.4265C281.339 38.3706 282.772 52.4107 282.902 57.6085C283.008 60.1258 283.339 60.7725 285.214 61.4858C287.822 62.4359 292.446 61.7421 293.001 60.2746C293.159 59.7857 291.889 54.355 290.126 48.3604C288.282 42.3665 286.593 35.64 286.329 33.4491C285.716 28.7433 284.713 25.8284 282.908 23.8959C281.43 22.2852 280.292 22.2148 276.485 23.3882Z" fill="black"/>
<path d="M277.103 37.1924C276.141 38.5013 275.586 39.8876 275.832 40.129C276.078 40.4516 276.403 40.4485 276.564 40.2845C277.683 38.3242 279.354 34.6528 279.11 34.6551C278.948 34.6567 278.065 35.8023 277.103 37.1924Z" fill="black"/>
<path d="M300.27 25.1652C298.709 26.2271 298.204 28.1952 298.248 32.7758C298.411 36.1773 298.093 44.0336 297.629 50.3205C296.921 58.4422 297.084 61.8437 298.131 61.8338C298.916 61.8263 299.549 59.5952 299.654 56.8456C299.629 54.2281 299.99 50.8217 300.238 49.3795C300.486 47.9374 300.96 42.6975 301.305 37.7205C301.863 27.5061 303.413 25.3972 308.935 27.9625C311.168 28.8575 312.228 30.1563 311.848 31.4688C311.466 32.6504 310.846 36.3211 310.485 39.5967L309.626 45.6256L314.737 46.3624C317.622 46.8586 321.171 48.5265 322.89 50.3426C326.459 53.9735 326.248 59.3419 322.59 60.031C320.761 60.441 320.365 60.0521 320.874 58.6075C321.256 57.4259 320.45 55.2085 318.994 53.5208C316.48 50.6652 316.349 50.6664 318.076 53.3986C320.205 57.0433 319.298 57.9681 313.28 58.287C309.486 58.4538 308.172 57.9428 307.367 55.8562C306.829 54.2907 306.942 52.4572 307.848 51.4015C309.013 49.9507 308.879 49.6902 307.314 50.2286C306.269 50.5003 304.984 52.9993 304.616 55.6206C304.004 60.0765 304.139 60.4679 307.281 60.569C309.114 60.6824 314.352 60.8945 318.935 61.1128L327.053 61.4284L327.007 56.5861C326.944 49.9114 322.829 43.9297 317.051 41.8903C312.454 40.2324 312.453 40.1016 313.186 34.5974C313.922 29.3549 313.656 28.9648 309.575 26.5167C304.574 23.5537 303.393 23.3032 300.27 25.1652Z" fill="black"/>
<path d="M252.261 444.43C250.829 444.694 249.677 445.392 249.671 445.82C249.604 450.388 246.018 471.323 244.992 473.164C243.523 475.998 244.495 477.868 249.028 480.361C252.003 481.974 252.718 481.842 254.464 479.583C255.484 478.17 256.374 475.899 256.396 474.328C256.498 467.334 263.264 463.435 266.328 468.761C267.164 470.201 267.871 470.64 267.884 469.783C267.915 467.642 263.264 463.435 260.695 463.397C257.412 463.35 255.085 466.314 255.023 470.597C254.992 472.738 254.524 475.444 254.078 476.722C253.039 479.42 249.752 479.658 248.933 477.076C248.382 475.64 248.796 466.794 249.367 466.803C249.51 466.805 249.855 462.669 250.07 457.676C250.618 449.403 252.234 446.285 255.804 446.194C256.803 446.209 257.424 452.642 256.922 457.775C256.752 459.628 258.169 460.363 262.731 460.857C266.007 461.333 268.86 461.517 269.148 461.378C269.292 461.237 268.889 459.518 268.202 457.652C267.515 455.786 266.812 455.062 266.798 456.062C266.638 457.201 265.345 457.754 263.494 457.442C260.645 456.972 260.231 455.967 259.886 450.251C259.557 443.393 259.133 443.101 252.261 444.43Z" fill="black"/>
<path d="M271.462 449.419C268.883 450.096 266.723 451.349 266.713 452.063C266.702 452.777 268.415 452.801 270.995 452.125C275.008 451.041 275.292 451.188 275.234 455.184C275.201 457.468 275.887 459.334 276.601 459.345C277.458 459.357 278.066 456.796 278.111 453.656C278.157 450.515 277.766 447.94 277.193 448.074C276.479 448.064 273.899 448.74 271.462 449.419Z" fill="black"/>
<path d="M276.641 466.484C276.567 471.622 276.842 472.34 278.013 470.358C279.037 468.66 279.068 466.519 278.106 463.935C276.873 460.348 276.871 460.491 276.641 466.484Z" fill="black"/>
<path d="M268.228 475.642C268.458 479.5 268.88 479.934 272.74 479.562C278.03 479.067 278.319 478.786 276.511 475.476C275.675 474.036 274.966 473.74 274.953 474.597C274.912 477.452 269.498 476.659 268.683 473.792C268.416 472.503 268.12 473.213 268.228 475.642Z" fill="black"/>
<path d="M222.156 445.515C218.028 446.287 216.604 447.658 215.934 451.792C215.643 453.587 214.707 456.398 213.804 458.013C212.902 459.628 212.402 461.228 212.586 461.578C212.847 461.941 212.51 462.046 211.923 461.711C211.259 461.363 210.599 459.014 210.378 455.936C209.363 443.921 209.351 443.999 207.168 444.126C204.44 444.164 203.348 446.949 204.174 451.727C205.828 461.283 205.912 465.701 204.506 470.917C202.052 480.127 202.252 481.361 206.338 479.862C207.61 479.427 210.127 478.714 211.867 478.356C213.528 477.985 215.019 477.186 215.186 476.652C215.274 476.106 215.708 474.415 216.105 472.958C216.501 471.501 217.368 467.638 218.043 464.465C218.795 461.304 220.246 457.296 221.33 455.55C223.278 452.423 226.129 450.643 227.174 452.094C227.436 452.456 226.713 456.423 225.524 460.794C223.542 468.079 222.65 478.023 223.761 479.564C224.284 480.289 228.723 479.087 230.873 477.675C233.024 476.262 233.903 472.321 233.717 465.565C233.682 463.318 233.869 458.704 234.179 455.311C234.944 446.148 235.062 446.407 229.913 445.572C227.482 445.258 223.974 445.169 222.156 445.515ZM231.891 455.101C231.881 458.622 231.953 463.117 232.195 465.078C232.699 470.364 231.092 474.347 227.824 475.739C225.087 476.817 225.087 476.817 224.754 474.921C224.516 473.922 225.309 468.045 226.477 461.829C228.494 450.867 228.532 450.633 226.89 449.405C224.022 447.339 224.319 446.987 228.182 447.853L232.045 448.72L231.891 455.101ZM221.452 450.846C219.36 453.869 217.587 458.386 215.746 465.293C213.701 472.969 212.255 474.976 208.567 475.499L205.45 475.954L206.616 472.22C207.987 467.718 207.829 461.287 206.051 452.992C204.725 446.852 204.95 444.967 206.546 447.468C207.384 448.725 209.615 462.618 209.741 467.763C209.847 471.063 211.287 470.575 211.869 466.987C212.109 465.504 213.06 463.096 214.028 461.572C214.983 460.125 216.345 456.663 217.113 453.905C218.198 449.678 218.65 448.87 220.505 448.29C223.204 447.447 223.44 447.965 221.452 450.846Z" fill="black"/>
<path d="M181.828 444.301C179.621 445.29 177.926 447.138 177.813 448.691C177.748 449.589 178.168 449.456 179.162 448.214C179.887 447.281 181.335 446.565 182.397 446.642C184.113 446.767 184.241 447.269 184.499 455.008C184.736 461.924 185.165 463.927 187.046 467.431C188.275 469.738 189.089 472.097 188.796 472.732C187.836 474.634 183.096 475.439 175.417 474.881C171.332 474.584 166.306 474.793 164.053 475.287C160.381 476.088 156.138 475.697 157.284 474.63C157.541 474.485 157.321 472.99 156.774 471.472C156.175 469.54 156.064 465.425 156.533 458.971L157.234 449.33L158.759 452.069C159.551 453.605 160.428 457.365 160.692 460.505C161.192 467.194 161.401 467.702 164.131 468.558L166.138 469.196L166.833 459.637C167.333 451.625 167.61 450.084 168.672 450.162C169.57 450.227 169.826 451.231 169.712 453.933C168.825 467.256 168.883 467.589 171.339 468.835C174.751 470.479 177.331 470.01 178.747 467.485C179.876 465.513 179.877 464.364 179.044 458.882C177.938 451.492 177.158 449.793 177.065 454.468C177.01 456.353 177.13 458.086 177.439 458.355C177.661 458.7 177.763 460.678 177.603 462.884C177.33 466.642 177.236 466.8 174.948 466.634C173.56 466.533 172.276 466.111 172.067 465.603C171.851 465.176 171.594 460.805 171.53 456.036C171.548 451.274 171.273 447.148 170.97 446.797C170.061 445.745 167.607 447.867 166.319 450.894C165.529 452.726 164.941 456.297 164.872 459.495C164.803 463.843 164.568 464.811 163.804 464.017C163.268 463.485 162.506 461.54 162.152 459.626C161.793 457.793 160.887 454.441 160.224 452.258C159.48 450.068 158.998 447.652 159.064 446.753C159.129 445.854 158.64 444.669 158.028 444.049C157.026 443.155 156.681 443.377 155.534 445.593C154.569 447.576 154.074 450.99 153.803 458.115C153.288 473.108 154.937 479.798 159.099 479.033C160.261 478.871 162.17 478.599 163.325 478.519C164.481 478.439 165.391 478.341 165.397 478.259C165.403 478.177 170.65 478.312 181.873 478.717C185.473 478.897 189.843 475.272 190.087 471.923C190.188 470.534 189.282 467.183 188.164 464.473C186.401 460.485 185.989 458.237 186.014 452.244C186.048 443.869 185.402 442.59 181.828 444.301Z" fill="black"/>
<path d="M126.306 443.935C124.116 446.549 121.501 455.735 121.077 462.378C120.936 464.851 120.3 469.161 119.734 471.917C118.18 479.337 118.18 479.478 121.36 479.478C123.48 479.478 124.539 478.984 125.953 477.358C128.85 474.108 133.726 474.532 135.775 478.136C137.047 480.255 138.46 480.891 138.46 479.196C138.46 478.701 139.308 478.065 140.439 477.853C142.559 477.429 145.526 473.048 145.526 470.292C145.526 466.406 130.334 442.734 127.861 442.734C127.578 442.734 126.871 443.299 126.306 443.935ZM137.612 459.339C142.912 468.243 143.689 470.221 142.629 472.271C141.357 474.532 138.531 475.097 137.259 473.401C136.693 472.695 136.411 471.493 136.623 470.857C136.764 470.151 136.623 469.444 136.34 469.232C135.987 469.02 135.492 467.395 135.21 465.558C134.856 463.014 134.15 461.742 132.171 459.905C130.758 458.633 129.274 457.573 128.85 457.573C127.79 457.573 127.013 461.177 127.083 465.487C127.225 469.515 125.741 473.401 123.692 474.532C121.854 475.521 120.582 474.814 121.148 473.119C121.36 472.412 121.996 469.373 122.561 466.335C123.197 463.226 123.762 460.117 123.974 459.339C124.116 458.562 124.398 457.149 124.539 456.159C124.681 455.17 125.387 452.556 126.094 450.365L127.366 446.337L130.616 449.658C132.383 451.496 135.563 455.806 137.612 459.339ZM132.454 468.101C132.03 468.455 131.04 468.949 130.193 469.232C128.921 469.585 128.638 469.444 128.991 468.596C129.203 467.96 130.263 467.465 131.252 467.465C132.383 467.465 132.807 467.748 132.454 468.101ZM133.514 471.705C133.514 472.059 132.524 472.412 131.323 472.412C130.122 472.412 129.345 472.129 129.627 471.705C129.839 471.281 130.828 470.999 131.818 470.999C132.736 470.999 133.514 471.281 133.514 471.705Z" fill="black"/>
<path d="M95.5958 443.695C94.8522 444.418 93.7345 446.121 93.1859 447.398C92.6322 448.752 91.9451 449.788 91.6374 449.768C91.3297 449.747 90.027 448.424 88.7396 446.871C87.5291 445.322 86.2263 443.999 85.9237 443.902C85.616 443.881 84.6262 443.661 83.7954 443.374C81.744 442.851 80.9133 443.723 78.4831 448.892C76.5092 453.011 74.131 464.365 73.5013 472.668C73.1837 476.278 73.4147 477.453 74.7841 478.935L76.3639 480.74L76.4765 479.047C76.63 476.739 78.3582 476.314 81.0303 477.96L83.2613 479.267L84.3327 475.939C84.9171 474.123 85.4656 471.687 85.5475 470.456C85.7625 467.225 86.7725 464.82 87.752 465.194C88.2033 465.379 89.0445 466.671 89.5678 468.097C90.6348 470.64 91.7118 470.712 91.8704 468.327C91.9165 467.635 92.6908 466.45 93.5881 465.737C95.1367 464.527 95.2137 464.532 95.1215 465.916C94.9833 467.993 97.8509 474.829 100.051 477.757C101.759 479.957 101.985 480.049 102.759 478.865C103.267 478.203 104.385 477.659 105.154 477.71C106 477.767 107.431 477.167 108.333 476.377C110.795 474.222 110.661 470.427 107.927 465.069C103.839 456.838 102.377 453.264 101.945 450.454C101.422 446.71 99.0675 442.613 97.3803 442.423C97.1495 442.408 96.3393 442.972 95.5958 443.695ZM97.7502 448.475C98.5145 449.762 99.7098 452.7 100.402 455.064C101.172 457.433 103.121 461.813 104.783 464.705C109.338 472.889 109.343 472.812 104.071 474.239L101.472 474.993L99.7479 470.706C98.8194 468.403 97.9317 464.326 97.7929 461.767C97.4947 455.798 96.356 454.331 95.2283 458.506C95.013 459.419 94.1312 461.06 93.3672 462.091L91.9263 464.004L89.8849 461.009C86.2175 455.743 85.3817 456.692 83.8292 468.41C83.3988 471.395 82.8197 474.293 82.5633 474.662C82.3018 475.108 80.6659 475.308 78.8966 475.19L75.8196 474.986L76.8084 467.093C77.4027 462.806 78.0278 458.057 78.2789 456.605C78.8939 453.169 83.2471 446.969 84.9446 447.004C86.4062 447.102 89.8428 452.353 89.7046 454.43C89.4231 458.661 92.5406 454.773 94.345 448.557C95.1601 445.598 95.9345 445.572 97.7502 448.475Z" fill="black"/>
</svg>
