<svg width="363" height="519" viewBox="0 0 363 519" fill="none" xmlns="http://www.w3.org/2000/svg">
<g clip-path="url(#clip0_631_131637)">
<rect width="363" height="518.596" fill="white"/>
<path d="M92.035 30.8566C87.5307 33.1882 82.1749 37.3778 79.9028 40.0755C75.5735 45.443 71.3631 65.2144 72.6161 74.8833C73.7856 83.9077 70.9246 87.1186 62.6126 85.3557C52.2833 83.1987 27.5339 89.4648 20.5227 96.0537C17.419 99.0776 15.127 103.307 15.4054 105.456C15.656 107.39 14.4462 113.227 12.6675 118.045C9.87796 125.179 9.94945 129.103 12.4439 139.922C14.2501 147.116 16.5339 152.937 17.6082 152.798C18.8974 152.631 22.3273 150.438 25.5146 148.059C29.6647 144.681 30.7033 142.58 29.3705 139.039C28.0377 135.498 28.73 134.097 32.4862 132.736C35.1681 131.515 41.3834 127.214 46.2817 122.865C50.9929 118.759 55.9747 115.054 57.049 114.915C58.3382 114.748 56.6272 116.718 53.2808 119.555C50.1214 122.149 44.9605 127.843 41.7811 131.969C37.3484 138.223 36.9544 140.241 39.278 142.998C40.8457 144.98 43.205 149.699 44.5936 153.67C47.4263 162.042 54.632 168.755 64.5117 172.499C73.4762 175.925 74.5505 175.786 81.5974 171.159C89.85 165.72 95.7868 159.27 103.26 147.815C106.141 143.072 106.32 141.083 104.35 139.372C101.923 137.501 102.325 137.231 105.93 138.075C115.615 140.315 129.637 138.935 131.61 135.62C132.677 133.734 136.21 130.655 139.21 128.518C143.201 125.598 145.119 121.854 145.76 114.998C146.879 106.769 148.001 105.313 153.663 103.487C157.232 102.369 163.304 102.019 166.881 102.648L173.578 103.746L167.374 104.769C162.675 105.596 158.366 109.432 150.109 119.896C139.851 133.46 139.345 134.618 140.654 144.717C141.406 150.518 143.885 157.843 146.049 161.058C148.186 164.059 150.219 167.946 150.414 169.45C150.971 173.748 156.939 174.285 179.182 172.276C190.41 171.258 201.508 170.912 203.983 171.465C206.915 172.178 208.765 171.282 209.693 168.322C211.237 165.063 211.853 164.765 213.879 166.906C215.661 168.86 215.578 168.215 214.3 165.103C213.051 162.207 213.409 158.228 214.981 155.184C223.588 138.994 203.762 110.758 180.413 105.919C176.379 105.131 175.165 104.196 177.529 103.89C183.302 102.923 197.356 108.53 205.421 115.131C209.332 118.338 213.291 120.228 214.067 119.472C216.852 117.364 219.566 123.129 220.23 133.312L221.137 143.681L230.722 141.783C243.101 139.523 245.934 136.098 245.851 123.655C245.772 117.985 245.76 109.466 245.979 104.413C246.134 97.1833 244.746 93.2122 239.12 85.2024C230.219 72.155 224.374 69.1985 210.838 70.9527C196.227 72.8462 181.676 70.144 176.141 64.5255C172.604 60.8329 171.486 57.2638 171.399 49.8469C171.089 40.7112 170.52 39.6926 161.838 33.3896C151.7 25.9645 141.856 24.1816 115.392 25.645C104.78 26.3648 97.7727 27.9283 92.035 30.8566ZM111.941 41.1668C111.997 41.5966 109.454 43.8923 106.454 46.0289C103.239 48.1934 97.9947 53.2425 94.7875 57.1538C91.3933 61.3077 88.608 63.4165 88.4409 62.1273C88.0432 57.3724 92.5715 48.4835 97.3663 45.022C101.946 41.5883 111.663 39.0182 111.941 41.1668ZM153.665 44.4986C158.519 48.239 159.741 50.9209 160.612 59.3285C162.155 79.6651 178.81 90.1781 203.763 87.1628C214.076 85.8262 217.196 86.2959 222.05 90.0363C230.573 96.7968 233.107 104.552 228.646 110.592L224.906 115.446L215.802 110.946C210.658 108.335 202.171 103.536 196.485 100.122C184.142 92.5457 165.127 89.1112 148.339 91.0683C137.166 92.5163 135.316 93.4115 131.313 99.6106C128.723 103.223 126.626 108.957 126.399 112.264C126.096 116.672 124.039 119.342 118.516 122.243C111.76 125.74 110.872 125.636 106.607 121.383C91.7857 106.481 86.0442 102.637 79.8331 101.913L73.22 101.459L79.491 97.5876C84.1823 95.0133 86.1838 91.9138 86.4585 87.2902L86.9124 80.6772L94.2336 83.224C99.5375 85.3768 107.842 85.393 125.087 83.595C138.221 82.1113 150.739 80.926 153.158 81.0494C156.222 81.0893 157.185 80.0906 156.262 78.0255C155.609 76.3623 154.782 71.6631 154.468 67.5528C153.33 53.7179 150.243 48.4377 140.634 45.095C135.815 43.3163 131.613 41.2391 131.53 40.5945C131.112 37.3715 148.353 40.599 153.665 44.4986ZM113.485 61.5034C113.329 68.7332 113.954 70.1816 117.288 70.6233C119.52 70.9895 118.502 71.5584 114.662 72.2745C105.665 73.6589 102.355 66.6598 108.097 58.706C110.314 55.5786 112.399 53.1237 113.043 53.0401C113.473 52.9844 113.759 56.8799 113.485 61.5034ZM141.274 61.8346C142.969 68.1692 142.622 68.8694 137.036 69.5934C131.449 70.3174 130.936 69.7285 129.962 62.2082C129.377 57.6961 129.464 53.3152 129.998 52.3722C132.429 49.217 139.551 55.2851 141.274 61.8346ZM62.5723 100.217C63.0578 100.591 59.2459 101.522 54.0891 102.19C48.9323 102.859 42.0367 105.282 38.8216 107.446C32.0174 112.26 30.9709 112.615 31.5997 109.037C32.8095 103.2 56.8308 96.3732 62.5723 100.217ZM79.7088 127.927C83.266 130.088 87.2329 133.725 88.8562 136.136C91.534 139.94 91.3748 140.398 86.5085 139.936C79.2509 139.566 80.0505 144.05 87.3439 146.382C94.3946 148.527 92.3452 152.943 82.712 156.158C77.8815 157.658 75.4623 157.535 72.9517 155.02C69.685 151.729 69.2553 151.785 67.0946 155.342C65.3079 158.414 64.0466 158.796 61.2176 157.196C56.7732 154.932 51.3026 139.692 54.7404 139.247C55.8147 139.107 57.0005 139.828 57.1675 141.117C57.4738 143.48 66.7966 142.928 68.6668 140.5C69.2 139.557 68.3048 137.707 66.3631 136.211C61.5089 132.471 61.501 130.724 66.9404 127.179C72.7816 123.363 72.5667 123.391 79.7088 127.927ZM188.339 123.244C192.457 124.676 197.152 128.874 199.428 132.949C203.924 140.668 203.697 143.975 198.469 140.72C196.798 139.625 192.763 138.837 189.699 138.798C186.421 138.785 181.63 137.222 178.988 135.379C173.219 131.32 166.781 133.903 168.794 139.322C169.987 141.789 168.603 144.59 164.826 147.483L159.041 151.728L158.205 145.282C157.649 140.985 159.081 136.867 162.531 133.142C167.318 127.934 168.15 127.608 172.809 129.844C179.326 132.932 182.207 128.189 176.064 124.616C171.806 122.109 171.806 122.109 176.506 121.282C179.299 120.92 184.651 121.755 188.339 123.244ZM199.161 151.117C203.056 150.83 203.084 151.045 200.514 153.126C195.345 157.073 178.573 162.524 174.539 161.736C171.363 160.836 171.841 159.464 176.863 152.696L182.819 144.714L188.72 148.1C192.035 150.074 196.582 151.451 199.161 151.117Z" fill="black"/>
<path d="M72.1561 145.51C69.0046 149.851 69.0603 150.281 73.6639 152.087C76.4094 153.042 78.4267 153.436 78.6137 153.194C79.2147 149.402 78.0809 142.339 76.923 141.834C75.98 141.3 73.8114 143.111 72.1561 145.51Z" fill="black"/>
<path d="M278.485 327.324C277.971 329.895 278.828 334.865 280.199 338.465C281.571 342.064 284.484 351.662 286.713 359.89L290.655 374.973L282.77 375.487C271.115 376.344 269.401 378.572 275.572 384.743C278.828 387.828 280.714 391.599 280.714 394.512C280.714 400.511 283.97 404.625 289.284 405.311C293.054 405.825 293.569 406.853 294.083 413.024C294.768 422.622 297.339 424.507 306.766 421.936C315.508 419.537 320.821 420.565 327.506 426.05C332.99 430.678 333.847 433.763 335.047 451.246C336.076 467.7 338.475 475.584 342.075 474.899C349.616 473.528 353.387 450.731 348.931 435.134C346.188 425.536 336.933 411.652 330.762 407.882C325.106 404.625 308.309 403.768 305.395 406.682C304.195 407.882 302.995 403.082 301.624 391.77C299.91 377.201 298.368 369.831 291.855 344.978C289.284 335.379 283.456 322.696 281.399 322.696C280.371 322.696 279 324.753 278.485 327.324Z" fill="black"/>
<path d="M183.187 333.323C181.473 337.437 179.074 345.664 178.045 351.834C176.845 358.005 174.446 368.288 172.732 374.973C170.846 381.486 168.618 391.256 167.59 396.398L165.876 405.825L153.192 406.168C140.851 406.511 140.509 406.339 141.023 402.74C141.366 400.683 142.051 395.37 142.737 390.742C143.251 386.285 144.451 383.029 145.136 383.372C146.85 384.4 160.734 380.629 165.019 378.058C167.933 376.173 168.104 375.659 165.876 374.287C161.762 371.545 138.28 370.002 134.681 372.231C132.967 373.259 129.539 374.116 126.968 374.287C122.683 374.287 122.512 374.459 125.597 375.83C127.482 376.687 128.339 377.373 127.311 377.544C126.454 377.544 127.825 379.601 130.739 381.829L135.881 386.114L129.882 387.314C126.625 387.999 123.369 388.342 122.683 388.171C120.798 387.657 116.17 401.369 116.17 407.196C116.341 411.653 117.713 413.709 123.712 418.337L131.253 423.993L145.479 421.422C153.364 420.051 161.077 418.509 162.619 417.823C164.333 417.137 165.876 417.823 166.561 419.708C167.933 423.136 167.418 423.651 163.133 424.508C149.25 427.421 144.965 432.563 144.108 447.475C143.422 460.502 145.308 469.243 148.907 469.243C150.278 469.243 151.478 467.529 151.821 465.301C152.164 463.073 153.535 460.844 154.906 460.33C156.277 459.816 157.306 457.074 157.306 453.303C157.306 446.961 163.99 433.592 168.618 431.021C170.161 430.164 171.703 426.907 172.046 423.993C172.389 420.908 173.075 417.823 173.589 417.137C173.932 416.28 175.303 408.396 176.331 399.655C178.559 380.629 178.559 381.143 181.987 360.404C186.101 337.265 187.644 333.152 191.586 334.18C193.471 334.694 194.671 335.551 194.328 336.237C193.985 336.751 198.442 336.922 204.612 336.408C210.611 335.894 216.953 336.065 218.496 336.751C225.523 339.493 249.176 337.437 244.377 334.523C243.006 333.666 248.148 332.98 256.718 332.809C266.487 332.809 270.087 332.295 267.859 331.266L264.431 329.724L267.859 329.552C270.944 329.552 270.944 329.209 268.544 327.838C264.602 325.61 204.098 328.695 198.099 331.438C192.614 333.837 187.472 332.295 188.843 328.695C189.358 327.324 189.015 326.124 188.158 326.124C187.129 326.124 184.901 329.381 183.187 333.323ZM232.379 335.894C230.665 336.237 227.923 336.237 226.38 335.894C224.666 335.38 226.037 335.037 229.294 335.037C232.55 335.037 233.922 335.38 232.379 335.894Z" fill="black"/>
<path d="M245.576 358.176C246.262 364.689 246.947 378.744 247.119 389.542C247.29 412.681 249.004 414.395 258.088 400.855C262.716 393.999 263.573 390.913 263.573 382.686C263.573 376.344 262.716 372.059 261.173 370.86C259.974 369.831 258.431 366.575 257.745 363.832C256.717 358.005 250.547 349.092 246.776 347.549C244.719 346.864 244.548 348.406 245.576 358.176Z" fill="black"/>
<path d="M187.129 384.743L187.301 390.399L199.813 390.913L212.154 391.428V399.14C212.154 407.025 216.439 416.966 219.867 416.966C222.952 416.966 225.352 414.395 227.066 409.082C229.294 402.568 228.094 390.913 225.009 389.199C223.809 388.342 223.123 386.457 223.638 384.572C224.666 380.629 218.667 379.258 200.156 379.258H186.958L187.129 384.743Z" fill="black"/>
<path d="M286.713 427.421C277.115 431.535 272.83 432.906 271.287 432.563C270.43 432.22 270.087 432.735 270.773 433.249C271.458 433.934 270.944 436.163 269.573 438.219C268.202 440.105 267.002 443.019 267.002 444.561C267.002 446.961 265.459 447.475 259.46 447.475C255.347 447.475 249.519 448.846 246.605 450.217C240.778 453.303 239.407 458.102 244.377 458.102C246.948 458.102 246.948 458.445 244.72 459.987C242.663 461.358 243.006 461.53 246.434 460.844C248.834 460.33 251.576 459.816 252.433 459.816C253.461 459.816 256.375 457.93 259.118 455.531C261.86 453.131 266.316 451.246 268.887 451.246C272.144 451.246 275.572 449.36 279.343 445.59C287.399 437.362 290.141 436.163 298.368 437.705C317.222 440.962 319.107 442.676 317.908 456.045C317.565 462.215 316.194 466.329 313.794 468.729C310.537 471.814 309.509 471.985 304.024 470.1C295.112 467.186 288.77 458.959 289.798 451.76C290.827 445.59 288.084 444.047 284.142 448.675C282.942 450.046 281.4 450.903 280.714 450.389C278.657 449.189 275.743 459.816 276.429 465.301C277.115 470.614 281.4 477.47 282.942 475.756C283.628 475.242 284.142 475.585 284.142 476.613C284.142 477.641 285.513 478.498 287.227 478.498C290.998 478.498 298.711 479.87 298.711 480.384C298.711 480.555 300.596 481.069 302.996 481.412C309.852 482.098 323.221 477.127 328.706 471.471C332.991 467.186 333.848 465.129 333.848 457.93C333.848 446.789 327.335 435.134 318.593 430.849C311.737 427.25 292.026 425.193 286.713 427.421ZM327.163 441.305C328.192 443.361 328.192 444.39 326.992 444.39C326.135 444.39 325.278 443.533 325.278 442.333C325.278 441.305 323.907 438.734 322.364 436.848C319.45 433.42 319.45 433.42 322.364 435.648C324.078 437.02 326.306 439.591 327.163 441.305Z" fill="black"/>
<path d="M187.301 428.45C180.102 430.335 167.762 441.305 168.961 444.733C169.133 445.59 168.79 446.104 168.104 446.104C165.876 446.104 165.533 461.701 167.762 464.272C170.504 467.529 175.646 467.357 177.703 463.586C179.417 461.015 179.931 461.015 183.188 465.472C185.073 468.043 187.301 469.757 188.158 469.243C188.844 468.728 189.872 469.414 190.386 470.785C190.901 471.985 195.185 474.042 199.813 475.242C210.44 477.641 219.181 475.413 228.437 467.7C234.093 462.901 234.95 461.187 235.122 454.502C235.122 446.961 229.98 433.42 227.751 434.963C226.894 435.306 223.809 434.277 220.553 432.563C214.725 429.478 193.643 426.907 187.301 428.45ZM212.84 442.847C218.324 447.132 218.839 455.702 214.039 461.701C211.126 465.3 210.44 465.472 205.641 463.415C202.384 462.044 199.128 458.616 197.071 454.502C195.185 450.903 193.3 448.332 192.786 449.017C191.243 450.389 183.016 451.246 183.016 449.874C183.188 445.247 193.643 439.419 202.041 439.248C205.812 439.248 210.097 440.619 212.84 442.847Z" fill="black"/>
<path d="M15.2479 503.912V504.502H10.7209V504.032L13.4039 501.405C13.742 501.073 13.9694 500.787 14.0862 500.547C14.2091 500.301 14.2706 500.055 14.2706 499.81C14.2706 499.428 14.1384 499.133 13.8741 498.924C13.6159 498.709 13.2441 498.602 12.7585 498.602C12.0025 498.602 11.4155 498.841 10.9975 499.321L10.5273 498.915C10.7793 498.62 11.0989 498.393 11.4862 498.233C11.8795 498.073 12.3221 497.993 12.8138 497.993C13.4715 497.993 13.9909 498.15 14.372 498.463C14.7592 498.771 14.9528 499.195 14.9528 499.736C14.9528 500.068 14.8791 500.387 14.7316 500.695C14.584 501.002 14.3044 501.355 13.8925 501.755L11.6982 503.912H15.2479ZM17.7774 500.695C18.7117 500.695 19.3909 500.864 19.815 501.202C20.2453 501.534 20.4604 502.001 20.4604 502.603C20.4604 502.978 20.3713 503.313 20.193 503.608C20.0209 503.903 19.7597 504.137 19.4093 504.309C19.059 504.475 18.6287 504.558 18.1186 504.558C17.6576 504.558 17.2181 504.484 16.8001 504.336C16.3883 504.183 16.0564 503.98 15.8044 503.728L16.1271 503.202C16.3422 503.424 16.6249 503.605 16.9753 503.746C17.3257 503.882 17.7037 503.949 18.1093 503.949C18.6441 503.949 19.0559 503.829 19.3448 503.59C19.6398 503.35 19.7874 503.03 19.7874 502.631C19.7874 502.188 19.6214 501.853 19.2895 501.626C18.9637 501.398 18.4105 501.285 17.6299 501.285H16.2561L16.5881 498.049H20.1193V498.639H17.1689L16.9476 500.695H17.7774ZM21.801 504.549C21.6658 504.549 21.549 504.499 21.4507 504.401C21.3585 504.303 21.3124 504.183 21.3124 504.041C21.3124 503.9 21.3585 503.783 21.4507 503.691C21.549 503.593 21.6658 503.544 21.801 503.544C21.9363 503.544 22.0531 503.593 22.1514 503.691C22.2497 503.783 22.2989 503.9 22.2989 504.041C22.2989 504.183 22.2497 504.303 22.1514 504.401C22.0531 504.499 21.9363 504.549 21.801 504.549ZM24.9376 498.049V504.502H24.2738V498.639H22.7525V498.049H24.9376ZM30.8875 503.912V504.502H26.3605V504.032L29.0435 501.405C29.3815 501.073 29.609 500.787 29.7258 500.547C29.8487 500.301 29.9101 500.055 29.9101 499.81C29.9101 499.428 29.778 499.133 29.5137 498.924C29.2555 498.709 28.8837 498.602 28.3981 498.602C27.6421 498.602 27.0551 498.841 26.6371 499.321L26.1669 498.915C26.4189 498.62 26.7385 498.393 27.1257 498.233C27.5191 498.073 27.9617 497.993 28.4534 497.993C29.1111 497.993 29.6305 498.15 30.0116 498.463C30.3988 498.771 30.5924 499.195 30.5924 499.736C30.5924 500.068 30.5187 500.387 30.3711 500.695C30.2236 501.002 29.944 501.355 29.5321 501.755L27.3378 503.912H30.8875ZM32.3085 504.549C32.1732 504.549 32.0565 504.499 31.9581 504.401C31.8659 504.303 31.8198 504.183 31.8198 504.041C31.8198 503.9 31.8659 503.783 31.9581 503.691C32.0565 503.593 32.1732 503.544 32.3085 503.544C32.4437 503.544 32.5605 503.593 32.6588 503.691C32.7572 503.783 32.8063 503.9 32.8063 504.041C32.8063 504.183 32.7572 504.303 32.6588 504.401C32.5605 504.499 32.4437 504.549 32.3085 504.549ZM38.2616 503.912V504.502H33.7346V504.032L36.4176 501.405C36.7556 501.073 36.9831 500.787 37.0999 500.547C37.2228 500.301 37.2843 500.055 37.2843 499.81C37.2843 499.428 37.1521 499.133 36.8878 498.924C36.6296 498.709 36.2578 498.602 35.7722 498.602C35.0162 498.602 34.4292 498.841 34.0112 499.321L33.541 498.915C33.793 498.62 34.1126 498.393 34.4999 498.233C34.8932 498.073 35.3358 497.993 35.8275 497.993C36.4852 497.993 37.0046 498.15 37.3857 498.463C37.7729 498.771 37.9665 499.195 37.9665 499.736C37.9665 500.068 37.8928 500.387 37.7453 500.695C37.5977 501.002 37.3181 501.355 36.9062 501.755L34.7119 503.912H38.2616ZM41.631 504.558C41.1331 504.558 40.6875 504.426 40.2941 504.161C39.9069 503.897 39.6026 503.519 39.3813 503.027C39.1662 502.529 39.0587 501.945 39.0587 501.275C39.0587 500.606 39.1662 500.025 39.3813 499.533C39.6026 499.035 39.9069 498.654 40.2941 498.39C40.6875 498.125 41.1331 497.993 41.631 497.993C42.1289 497.993 42.5714 498.125 42.9587 498.39C43.352 498.654 43.6594 499.035 43.8807 499.533C44.1019 500.025 44.2126 500.606 44.2126 501.275C44.2126 501.945 44.1019 502.529 43.8807 503.027C43.6594 503.519 43.352 503.897 42.9587 504.161C42.5714 504.426 42.1289 504.558 41.631 504.558ZM41.631 503.949C42.0059 503.949 42.3348 503.845 42.6175 503.636C42.9064 503.427 43.1308 503.123 43.2906 502.723C43.4504 502.323 43.5303 501.841 43.5303 501.275C43.5303 500.71 43.4504 500.227 43.2906 499.828C43.1308 499.428 42.9064 499.124 42.6175 498.915C42.3348 498.706 42.0059 498.602 41.631 498.602C41.2561 498.602 40.9241 498.706 40.6353 498.915C40.3525 499.124 40.1312 499.428 39.9714 499.828C39.8116 500.227 39.7317 500.71 39.7317 501.275C39.7317 501.841 39.8116 502.323 39.9714 502.723C40.1312 503.123 40.3525 503.427 40.6353 503.636C40.9241 503.845 41.2561 503.949 41.631 503.949ZM49.5523 503.912V504.502H45.0254V504.032L47.7083 501.405C48.0464 501.073 48.2738 500.787 48.3906 500.547C48.5135 500.301 48.575 500.055 48.575 499.81C48.575 499.428 48.4429 499.133 48.1786 498.924C47.9204 498.709 47.5485 498.602 47.063 498.602C46.3069 498.602 45.7199 498.841 45.302 499.321L44.8317 498.915C45.0838 498.62 45.4034 498.393 45.7906 498.233C46.184 498.073 46.6265 497.993 47.1183 497.993C47.776 497.993 48.2953 498.15 48.6764 498.463C49.0637 498.771 49.2573 499.195 49.2573 499.736C49.2573 500.068 49.1835 500.387 49.036 500.695C48.8885 501.002 48.6088 501.355 48.197 501.755L46.0027 503.912H49.5523ZM55.6552 502.806H54.3644V504.502H53.7005V502.806H50.0587V502.327L53.4793 498.049H54.2169L50.9161 502.216H53.719V500.722H54.3644V502.216H55.6552V502.806Z" fill="black"/>
<path d="M163.644 503.912V504.502H159.117V504.032L161.8 501.405C162.138 501.073 162.365 500.787 162.482 500.547C162.605 500.301 162.667 500.055 162.667 499.81C162.667 499.428 162.534 499.133 162.27 498.924C162.012 498.709 161.64 498.602 161.154 498.602C160.398 498.602 159.811 498.841 159.393 499.321L158.923 498.915C159.175 498.62 159.495 498.393 159.882 498.233C160.276 498.073 160.718 497.993 161.21 497.993C161.867 497.993 162.387 498.15 162.768 498.463C163.155 498.771 163.349 499.195 163.349 499.736C163.349 500.068 163.275 500.387 163.128 500.695C162.98 501.002 162.7 501.355 162.289 501.755L160.094 503.912H163.644ZM166.173 500.695C167.108 500.695 167.787 500.864 168.211 501.202C168.641 501.534 168.856 502.001 168.856 502.603C168.856 502.978 168.767 503.313 168.589 503.608C168.417 503.903 168.156 504.137 167.805 504.309C167.455 504.475 167.025 504.558 166.515 504.558C166.054 504.558 165.614 504.484 165.196 504.336C164.784 504.183 164.452 503.98 164.2 503.728L164.523 503.202C164.738 503.424 165.021 503.605 165.371 503.746C165.722 503.882 166.1 503.949 166.505 503.949C167.04 503.949 167.452 503.829 167.741 503.59C168.036 503.35 168.183 503.03 168.183 502.631C168.183 502.188 168.017 501.853 167.685 501.626C167.36 501.398 166.807 501.285 166.026 501.285H164.652L164.984 498.049H168.515V498.639H165.565L165.344 500.695H166.173ZM170.197 504.549C170.062 504.549 169.945 504.499 169.847 504.401C169.754 504.303 169.708 504.183 169.708 504.041C169.708 503.9 169.754 503.783 169.847 503.691C169.945 503.593 170.062 503.544 170.197 503.544C170.332 503.544 170.449 503.593 170.547 503.691C170.646 503.783 170.695 503.9 170.695 504.041C170.695 504.183 170.646 504.303 170.547 504.401C170.449 504.499 170.332 504.549 170.197 504.549ZM173.334 498.049V504.502H172.67V498.639H171.148V498.049H173.334ZM179.283 503.912V504.502H174.756V504.032L177.439 501.405C177.778 501.073 178.005 500.787 178.122 500.547C178.245 500.301 178.306 500.055 178.306 499.81C178.306 499.428 178.174 499.133 177.91 498.924C177.652 498.709 177.28 498.602 176.794 498.602C176.038 498.602 175.451 498.841 175.033 499.321L174.563 498.915C174.815 498.62 175.135 498.393 175.522 498.233C175.915 498.073 176.358 497.993 176.849 497.993C177.507 497.993 178.026 498.15 178.408 498.463C178.795 498.771 178.988 499.195 178.988 499.736C178.988 500.068 178.915 500.387 178.767 500.695C178.62 501.002 178.34 501.355 177.928 501.755L175.734 503.912H179.283ZM180.704 504.549C180.569 504.549 180.452 504.499 180.354 504.401C180.262 504.303 180.216 504.183 180.216 504.041C180.216 503.9 180.262 503.783 180.354 503.691C180.452 503.593 180.569 503.544 180.704 503.544C180.84 503.544 180.956 503.593 181.055 503.691C181.153 503.783 181.202 503.9 181.202 504.041C181.202 504.183 181.153 504.303 181.055 504.401C180.956 504.499 180.84 504.549 180.704 504.549ZM186.658 503.912V504.502H182.131V504.032L184.814 501.405C185.152 501.073 185.379 500.787 185.496 500.547C185.619 500.301 185.68 500.055 185.68 499.81C185.68 499.428 185.548 499.133 185.284 498.924C185.026 498.709 184.654 498.602 184.168 498.602C183.412 498.602 182.825 498.841 182.407 499.321L181.937 498.915C182.189 498.62 182.509 498.393 182.896 498.233C183.289 498.073 183.732 497.993 184.224 497.993C184.881 497.993 185.401 498.15 185.782 498.463C186.169 498.771 186.363 499.195 186.363 499.736C186.363 500.068 186.289 500.387 186.141 500.695C185.994 501.002 185.714 501.355 185.302 501.755L183.108 503.912H186.658ZM190.027 504.558C189.529 504.558 189.083 504.426 188.69 504.161C188.303 503.897 187.999 503.519 187.777 503.027C187.562 502.529 187.455 501.945 187.455 501.275C187.455 500.606 187.562 500.025 187.777 499.533C187.999 499.035 188.303 498.654 188.69 498.39C189.083 498.125 189.529 497.993 190.027 497.993C190.525 497.993 190.967 498.125 191.355 498.39C191.748 498.654 192.055 499.035 192.277 499.533C192.498 500.025 192.609 500.606 192.609 501.275C192.609 501.945 192.498 502.529 192.277 503.027C192.055 503.519 191.748 503.897 191.355 504.161C190.967 504.426 190.525 504.558 190.027 504.558ZM190.027 503.949C190.402 503.949 190.731 503.845 191.014 503.636C191.302 503.427 191.527 503.123 191.687 502.723C191.846 502.323 191.926 501.841 191.926 501.275C191.926 500.71 191.846 500.227 191.687 499.828C191.527 499.428 191.302 499.124 191.014 498.915C190.731 498.706 190.402 498.602 190.027 498.602C189.652 498.602 189.32 498.706 189.031 498.915C188.749 499.124 188.527 499.428 188.367 499.828C188.208 500.227 188.128 500.71 188.128 501.275C188.128 501.841 188.208 502.323 188.367 502.723C188.527 503.123 188.749 503.427 189.031 503.636C189.32 503.845 189.652 503.949 190.027 503.949ZM197.948 503.912V504.502H193.421V504.032L196.104 501.405C196.442 501.073 196.67 500.787 196.787 500.547C196.91 500.301 196.971 500.055 196.971 499.81C196.971 499.428 196.839 499.133 196.575 498.924C196.316 498.709 195.945 498.602 195.459 498.602C194.703 498.602 194.116 498.841 193.698 499.321L193.228 498.915C193.48 498.62 193.799 498.393 194.187 498.233C194.58 498.073 195.023 497.993 195.514 497.993C196.172 497.993 196.691 498.15 197.072 498.463C197.46 498.771 197.653 499.195 197.653 499.736C197.653 500.068 197.58 500.387 197.432 500.695C197.284 501.002 197.005 501.355 196.593 501.755L194.399 503.912H197.948ZM204.051 502.806H202.76V504.502H202.097V502.806H198.455V502.327L201.875 498.049H202.613L199.312 502.216H202.115V500.722H202.76V502.216H204.051V502.806Z" fill="black"/>
<path d="M312.04 503.825V504.415H307.513V503.945L310.196 501.317C310.534 500.985 310.762 500.699 310.879 500.459C311.002 500.214 311.063 499.968 311.063 499.722C311.063 499.341 310.931 499.046 310.667 498.837C310.408 498.622 310.037 498.514 309.551 498.514C308.795 498.514 308.208 498.754 307.79 499.233L307.32 498.828C307.572 498.533 307.891 498.305 308.279 498.145C308.672 497.985 309.115 497.906 309.606 497.906C310.264 497.906 310.783 498.062 311.164 498.376C311.552 498.683 311.745 499.107 311.745 499.648C311.745 499.98 311.672 500.3 311.524 500.607C311.377 500.914 311.097 501.268 310.685 501.667L308.491 503.825H312.04ZM314.57 500.607C315.504 500.607 316.183 500.776 316.608 501.114C317.038 501.446 317.253 501.913 317.253 502.515C317.253 502.89 317.164 503.225 316.986 503.52C316.813 503.816 316.552 504.049 316.202 504.221C315.851 504.387 315.421 504.47 314.911 504.47C314.45 504.47 314.011 504.396 313.593 504.249C313.181 504.095 312.849 503.892 312.597 503.64L312.92 503.115C313.135 503.336 313.417 503.517 313.768 503.659C314.118 503.794 314.496 503.862 314.902 503.862C315.437 503.862 315.848 503.742 316.137 503.502C316.432 503.262 316.58 502.943 316.58 502.543C316.58 502.101 316.414 501.766 316.082 501.538C315.756 501.311 315.203 501.197 314.422 501.197H313.049L313.381 497.961H316.912V498.551H313.961L313.74 500.607H314.57ZM318.594 504.461C318.458 504.461 318.342 504.412 318.243 504.313C318.151 504.215 318.105 504.095 318.105 503.954C318.105 503.812 318.151 503.696 318.243 503.603C318.342 503.505 318.458 503.456 318.594 503.456C318.729 503.456 318.846 503.505 318.944 503.603C319.042 503.696 319.091 503.812 319.091 503.954C319.091 504.095 319.042 504.215 318.944 504.313C318.846 504.412 318.729 504.461 318.594 504.461ZM321.73 497.961V504.415H321.066V498.551H319.545V497.961H321.73ZM327.68 503.825V504.415H323.153V503.945L325.836 501.317C326.174 500.985 326.401 500.699 326.518 500.459C326.641 500.214 326.703 499.968 326.703 499.722C326.703 499.341 326.57 499.046 326.306 498.837C326.048 498.622 325.676 498.514 325.191 498.514C324.435 498.514 323.848 498.754 323.43 499.233L322.959 498.828C323.211 498.533 323.531 498.305 323.918 498.145C324.312 497.985 324.754 497.906 325.246 497.906C325.904 497.906 326.423 498.062 326.804 498.376C327.191 498.683 327.385 499.107 327.385 499.648C327.385 499.98 327.311 500.3 327.164 500.607C327.016 500.914 326.736 501.268 326.325 501.667L324.13 503.825H327.68ZM329.101 504.461C328.966 504.461 328.849 504.412 328.751 504.313C328.658 504.215 328.612 504.095 328.612 503.954C328.612 503.812 328.658 503.696 328.751 503.603C328.849 503.505 328.966 503.456 329.101 503.456C329.236 503.456 329.353 503.505 329.451 503.603C329.55 503.696 329.599 503.812 329.599 503.954C329.599 504.095 329.55 504.215 329.451 504.313C329.353 504.412 329.236 504.461 329.101 504.461ZM335.054 503.825V504.415H330.527V503.945L333.21 501.317C333.548 500.985 333.776 500.699 333.892 500.459C334.015 500.214 334.077 499.968 334.077 499.722C334.077 499.341 333.945 499.046 333.68 498.837C333.422 498.622 333.05 498.514 332.565 498.514C331.809 498.514 331.222 498.754 330.804 499.233L330.333 498.828C330.585 498.533 330.905 498.305 331.292 498.145C331.686 497.985 332.128 497.906 332.62 497.906C333.278 497.906 333.797 498.062 334.178 498.376C334.565 498.683 334.759 499.107 334.759 499.648C334.759 499.98 334.685 500.3 334.538 500.607C334.39 500.914 334.111 501.268 333.699 501.667L331.504 503.825H335.054ZM338.423 504.47C337.926 504.47 337.48 504.338 337.087 504.074C336.699 503.809 336.395 503.431 336.174 502.94C335.959 502.442 335.851 501.858 335.851 501.188C335.851 500.518 335.959 499.937 336.174 499.445C336.395 498.947 336.699 498.566 337.087 498.302C337.48 498.038 337.926 497.906 338.423 497.906C338.921 497.906 339.364 498.038 339.751 498.302C340.145 498.566 340.452 498.947 340.673 499.445C340.894 499.937 341.005 500.518 341.005 501.188C341.005 501.858 340.894 502.442 340.673 502.94C340.452 503.431 340.145 503.809 339.751 504.074C339.364 504.338 338.921 504.47 338.423 504.47ZM338.423 503.862C338.798 503.862 339.127 503.757 339.41 503.548C339.699 503.339 339.923 503.035 340.083 502.635C340.243 502.236 340.323 501.753 340.323 501.188C340.323 500.622 340.243 500.14 340.083 499.74C339.923 499.341 339.699 499.037 339.41 498.828C339.127 498.619 338.798 498.514 338.423 498.514C338.049 498.514 337.717 498.619 337.428 498.828C337.145 499.037 336.924 499.341 336.764 499.74C336.604 500.14 336.524 500.622 336.524 501.188C336.524 501.753 336.604 502.236 336.764 502.635C336.924 503.035 337.145 503.339 337.428 503.548C337.717 503.757 338.049 503.862 338.423 503.862ZM346.345 503.825V504.415H341.818V503.945L344.501 501.317C344.839 500.985 345.066 500.699 345.183 500.459C345.306 500.214 345.367 499.968 345.367 499.722C345.367 499.341 345.235 499.046 344.971 498.837C344.713 498.622 344.341 498.514 343.855 498.514C343.099 498.514 342.512 498.754 342.094 499.233L341.624 498.828C341.876 498.533 342.196 498.305 342.583 498.145C342.976 497.985 343.419 497.906 343.911 497.906C344.568 497.906 345.088 498.062 345.469 498.376C345.856 498.683 346.05 499.107 346.05 499.648C346.05 499.98 345.976 500.3 345.828 500.607C345.681 500.914 345.401 501.268 344.989 501.667L342.795 503.825H346.345ZM352.448 502.718H351.157V504.415H350.493V502.718H346.851V502.239L350.272 497.961H351.009L347.709 502.128H350.511V500.635H351.157V502.128H352.448V502.718Z" fill="black"/>
<path d="M308.429 235.872C307.946 237.804 308.107 241.506 308.751 243.921C309.234 246.336 310.521 256.478 311.326 266.619C313.258 288.995 314.385 291.088 323.078 287.708L327.263 286.259L323.883 280.464C321.951 277.405 319.536 271.771 318.249 267.907L315.995 261.146L316.639 267.907C316.961 271.61 318.409 276.6 320.019 279.015C323.078 283.683 321.307 287.225 316.961 285.615C315.029 284.81 314.546 282.073 314.546 273.702C314.546 267.746 313.741 258.409 312.614 253.097C311.648 247.785 310.521 241.506 310.039 239.092C309.234 235.228 309.717 234.745 315.029 233.618C318.731 232.975 323.078 233.458 326.941 234.906C331.932 236.838 332.898 237.804 332.898 241.828C332.898 245.853 332.093 246.98 327.746 248.268C324.849 249.073 322.434 250.36 322.434 251.326C322.434 252.131 328.712 259.214 336.439 267.263C349.479 280.786 350.122 281.912 347.386 284.005C343.683 286.581 341.43 286.098 339.337 281.912C334.829 273.058 322.917 258.892 320.18 258.731C317.283 258.731 317.283 258.892 319.536 260.663C320.985 261.79 325.976 268.551 330.805 275.634C339.337 288.352 339.659 288.674 344.649 287.386C354.469 284.81 353.181 280.786 337.083 264.366C330.483 257.765 325.976 252.292 327.102 252.292C330.483 252.292 335.312 245.853 335.312 241.346C335.312 234.906 328.229 231.043 317.605 231.687C310.682 232.17 309.234 232.653 308.429 235.872Z" fill="black"/>
<path d="M313.902 237.32C313.258 237.803 312.775 239.896 312.775 241.989C312.775 245.369 316.317 247.462 322.756 247.462C326.781 247.462 329.678 241.506 327.103 238.447C325.171 236.194 315.834 235.228 313.902 237.32ZM318.41 239.413C318.893 240.218 320.824 241.023 322.595 241.023C326.137 241.023 326.781 243.921 323.4 245.208C320.341 246.335 314.385 243.116 314.385 240.218C314.385 237.481 316.961 236.998 318.41 239.413Z" fill="black"/>
<path d="M272.631 232.747C271.079 233.781 271.208 234.04 273.536 234.04C276.251 234.04 279.355 238.049 286.984 250.85C292.285 259.772 297.716 284.47 294.354 284.47C293.449 284.47 291.51 284.858 290.087 285.246C286.596 286.151 282.975 279.944 282.975 273.091C282.975 270.117 282.458 267.531 281.682 267.013C281.036 266.626 280.13 262.876 279.613 258.608C279.096 254.341 278.191 250.85 277.674 250.85C275.605 250.85 271.338 259.126 271.338 262.876C271.338 267.401 269.01 277.617 267.07 281.625C266.165 283.565 264.743 284.47 263.062 284.211C260.734 283.823 260.346 283.048 260.605 277.358C260.734 273.737 262.674 264.169 265.001 256.022C269.527 239.471 270.95 232.876 269.269 234.428C268.751 234.945 268.105 236.109 267.976 237.014C267.717 237.919 267.07 240.505 266.295 242.704C265.519 245.031 264.226 248.91 263.45 251.109C262.803 253.436 261.898 256.798 261.51 258.608C261.122 260.419 260.346 263.91 259.7 266.367C258.924 268.824 258.407 275.16 258.407 280.203V289.642L261.639 288.349C263.45 287.703 265.648 287.444 266.682 287.832C267.846 288.22 268.751 287.315 269.269 285.117C270.303 280.849 274.57 276.712 277.674 276.712C279.355 276.712 281.294 278.651 283.234 282.142C286.208 287.573 286.337 287.703 292.673 287.444C297.458 287.315 299.009 286.798 298.621 285.504C298.363 284.599 297.846 281.496 297.587 278.651C296.811 269.212 293.061 256.798 288.923 249.816C286.725 245.936 283.88 241.023 282.587 238.824C280.26 234.945 276.898 231.454 275.346 231.454C274.958 231.454 273.665 232.1 272.631 232.747ZM277.286 265.332C273.536 267.919 272.76 263.522 275.475 255.893L277.156 251.497L277.932 257.962C278.449 262.1 278.191 264.815 277.286 265.332ZM280.13 271.151C280.518 274.643 280.13 275.16 276.639 275.677C273.277 276.194 272.631 275.806 272.631 273.737C272.631 270.634 276.381 266.108 278.32 266.755C279.096 267.013 279.872 268.953 280.13 271.151Z" fill="black"/>
<path d="M226.219 234.487C223.858 236.061 220.055 240.258 217.956 243.668C214.284 249.57 214.022 250.882 214.022 263.342C213.891 275.014 214.284 277.375 216.776 281.441C218.35 283.933 221.235 286.818 223.071 287.868C226.088 289.442 227.006 289.442 231.072 287.212C233.564 285.9 235.794 283.54 236.187 282.097C238.679 269.375 237.761 263.342 234.351 270.949C230.023 280.916 223.858 275.67 222.809 261.374L222.022 251.406L226.35 249.177C229.236 247.734 232.252 247.209 235.4 247.734L240.122 248.521L239.728 242.881C238.941 232.651 238.417 231.471 234.351 231.471C232.383 231.471 228.711 232.782 226.219 234.487ZM236.974 239.602C237.892 243.144 237.761 243.275 233.17 243.275C230.416 243.275 226.613 244.455 224.121 246.16C219.924 249.046 219.793 249.57 219.793 257.702C219.793 271.736 220.842 275.146 225.826 278.424C229.629 280.916 230.416 281.048 231.072 279.343C231.465 278.293 232.383 277.769 233.039 278.162C234.744 279.08 232.121 283.54 228.842 285.376C226.481 286.556 225.432 286.163 222.284 283.146C217.169 278.293 215.464 272.26 216.251 261.899C217.038 250.751 217.694 248.127 220.973 242.75C225.957 234.881 235.269 233.045 236.974 239.602Z" fill="black"/>
<path d="M157.367 252.917C156.389 253.266 154.852 253.686 153.875 253.755C151.36 254.035 151.151 257.038 153.455 260.53C155.062 262.905 155.621 263.254 157.926 263.254C159.322 263.324 162.256 263.464 164.351 263.673C166.447 263.813 171.685 264.092 175.876 264.232C180.136 264.442 184.676 264.861 186.003 265.28C190.054 266.537 194.245 266.258 195.083 264.721C196.061 262.765 195.921 259.902 194.524 256.27L193.267 253.127L185.305 252.987C180.905 252.987 173.222 252.778 168.193 252.568C163.164 252.428 158.345 252.568 157.367 252.917ZM192.778 258.505C193.267 260.181 193.686 262.207 193.686 263.045C193.686 264.442 193.407 264.581 191.451 264.232C190.194 264.023 188.657 263.673 188.099 263.464C187.54 263.254 182.371 262.835 176.574 262.486C158.624 261.438 157.227 261.229 155.341 259.413C154.363 258.435 153.805 257.457 154.084 257.248C155.481 255.851 164.351 255.082 177.552 255.292L191.87 255.501L192.778 258.505Z" fill="black"/>
<path d="M96.2648 239.54C92.289 247.489 91.9779 244.187 100.19 271.078C103.879 282.918 106.151 286.682 110.953 288.793C114.292 290.221 115.204 290.061 124.846 286.086C135.331 281.56 136.58 280.266 139.125 270.286C140.279 265.383 134.237 245.497 130.424 242.138C128.518 240.458 126.934 238.319 126.774 237.407C126.431 235.453 121.262 233.541 112.291 232.161C102.318 230.421 100.087 231.484 96.2648 239.54ZM116.325 236.019C121.948 237.449 125.723 239.069 125.952 240.371C126.135 241.413 127.52 243.185 129.051 244.258C131.042 245.655 132.112 248.69 134.179 258.935C136.52 270.743 136.596 271.938 134.178 276.525C132.574 279.627 130.289 281.908 127.622 282.779C125.369 283.711 121.836 285.003 119.69 285.782C116.44 287.158 115.46 286.928 113.003 284.405C111.487 282.657 109.718 281.759 109.136 282.264C107.863 283.427 104.215 276.414 101.816 268.107C100.893 264.375 99.2492 260.366 98.3693 259.178C97.359 258.013 96.2205 254.587 95.6946 251.591C94.8714 246.901 95.3557 245.071 98.6622 240.194C100.787 237.001 103.655 234.215 104.827 234.009C106 233.803 111.247 234.627 116.325 236.019Z" fill="black"/>
<path d="M108.173 253.832C107.94 257.095 107.623 260.642 107.438 261.883C107.383 263.102 109.802 266.168 113.369 268.899C118.973 273.286 119.693 273.563 122.874 271.796C126.293 269.853 126.355 269.439 125.122 260.122C123.608 248.437 121.281 245.891 113.596 247.24C108.776 248.086 108.561 248.393 108.173 253.832ZM120.121 249.989C122.134 251.515 122.959 253.922 123.705 259.699C124.572 266.932 124.403 267.499 121.475 268.416C119.567 269.019 116.909 268.412 114.788 267.038C111.618 265.044 111.175 264.047 110.905 257.918C110.785 254.179 110.842 250.678 111.119 249.958C111.841 247.951 117.472 247.903 120.121 249.989Z" fill="black"/>
<path d="M68.4151 234.071C66.913 234.322 65.4108 235.573 65.0353 236.7C64.6597 237.827 64.5346 249.719 64.6597 262.988C65.0353 288.775 65.4108 290.528 71.1691 288.775C72.5461 288.399 76.677 287.899 80.1821 287.774L86.8166 287.648L86.6915 282.641C86.5663 279.887 86.1907 276.257 85.69 274.504C84.9389 271.75 84.1879 271.375 79.3058 271.625C73.2972 272.001 71.795 270.874 71.795 265.366C71.795 261.861 71.6698 261.861 80.5576 261.486C85.8152 261.235 87.067 259.483 86.0656 253.349C85.1893 248.091 85.0641 247.966 81.3087 248.592C79.1807 248.968 76.5519 249.594 75.4252 250.094C74.1734 250.595 73.0468 249.844 72.0454 247.966C70.7936 245.212 70.6684 245.337 70.6684 249.218C70.5432 252.973 70.7936 253.224 74.0483 252.473C75.926 251.972 78.6799 251.221 80.0569 250.595C83.4368 249.343 84.313 250.219 84.313 254.601C84.313 258.481 82.4353 259.483 75.4252 259.483H70.5432V267.119V274.63L77.0526 274.254L83.562 273.879L84.4382 278.26C84.9389 280.638 85.0641 283.017 84.5634 283.517C84.0627 284.018 79.9317 284.769 75.4252 285.27L67.1633 286.021L66.4123 278.135C65.7864 271.5 66.0367 239.704 66.6626 236.7C66.6626 236.199 69.1662 235.323 72.1706 234.697C77.3029 233.445 74.0483 232.945 68.4151 234.071Z" fill="black"/>
<path d="M84.8138 235.198C86.3159 239.204 83.3116 241.832 76.4267 242.333C71.0439 242.709 71.2943 242.834 78.054 242.709L86.1908 242.583L86.5663 237.827C86.8167 234.947 86.4411 233.195 85.5649 233.195C84.6886 233.195 84.4382 234.071 84.8138 235.198Z" fill="black"/>
<path d="M40.1491 232.169C38.1402 233.351 38.1402 238.905 40.0309 254.74C40.8581 261.121 41.4489 268.92 41.4489 272.229V278.137L37.313 273.529C35.0678 271.047 31.2863 264.784 28.9229 259.703C20.8874 241.977 18.0513 236.187 16.2788 233.823C14.6244 231.578 14.388 231.815 13.0882 236.778C11.7883 241.268 11.9065 243.632 13.5608 251.903C15.2152 259.585 15.4516 264.548 14.7425 275.183L13.9154 288.773L17.1059 288.891C18.7603 289.009 20.8874 289.127 21.5964 289.245C23.2508 289.363 23.3689 286.764 21.9509 280.264C20.8874 274.828 22.1872 268.447 23.8416 271.165C24.4325 271.992 24.9052 273.883 24.9052 275.301C24.9052 279.201 29.8683 285.582 33.7679 286.645C40.2672 288.418 49.0118 288.773 49.9572 287.236C52.4387 283.455 49.839 238.314 47.0029 233.587C45.8212 231.815 42.0398 230.987 40.1491 232.169ZM46.1757 236.069C47.5938 239.614 49.6027 261.121 49.7208 271.283V285.227H42.3943C31.9953 285.227 29.8683 283.691 26.4414 274.592C24.9052 270.338 23.3689 265.611 23.0144 263.957C22.7781 262.302 21.7146 258.639 20.7692 255.685C19.233 250.722 19.1148 251.431 19.7057 266.911C20.0602 276.01 20.5329 284.164 20.8874 284.873C21.1237 285.7 20.2965 286.409 19.1148 286.409C16.3969 286.409 15.4516 279.555 16.8696 270.574C17.3423 266.911 17.1059 261.712 16.0424 255.803C14.9789 250.367 14.7425 245.168 15.3334 242.686C16.1606 238.55 16.2788 238.787 24.078 254.74C29.1593 265.257 33.7679 272.938 36.9585 276.365C39.6764 279.319 42.2761 281.682 42.7488 281.682C44.4032 281.682 44.6395 272.583 43.2215 265.729C41.3308 256.985 39.7946 237.369 40.7399 235.832C41.3308 234.887 45.9394 235.123 46.1757 236.069Z" fill="black"/>
</g>
<defs>
<clipPath id="clip0_631_131637">
<rect width="363" height="518.596" fill="white"/>
</clipPath>
</defs>
</svg>
