<svg width="363" height="519" viewBox="0 0 363 519" fill="none" xmlns="http://www.w3.org/2000/svg">
<rect width="363" height="518.596" fill="white"/>
<path d="M63.9 131.835C73.2709 139.218 88.3212 150.86 97.4081 157.96C122.965 178.121 177.487 244.57 197.933 280.918C203.044 290.005 208.156 296.536 209.575 295.116C216.391 288.017 227.465 260.188 228.033 248.545C229.169 220.432 232.861 208.79 241.096 207.37C242.516 207.086 244.219 206.802 245.355 206.234C250.183 205.098 302.433 204.814 301.581 206.234C301.013 207.086 304.137 207.938 308.112 208.222C317.483 208.79 326.002 219.013 332.533 238.606C336.793 251.385 337.361 255.928 334.521 268.423C330.546 286.881 330.546 331.18 334.237 341.403C335.941 345.662 337.929 362.132 338.497 377.751C339.916 417.79 333.101 444.767 317.199 459.817C306.976 469.472 304.988 470.324 288.802 470.324C267.789 470.324 253.306 463.509 240.244 447.891C232.577 439.088 229.737 437.384 224.91 439.088C221.786 440.507 206.452 443.631 191.117 446.471C167.832 450.446 160.733 450.73 149.942 447.891C134.04 443.915 128.645 437.952 122.965 418.074C117.002 398.196 117.286 391.949 124.101 376.899C130.348 363.552 136.88 357.021 144.547 356.737C147.102 356.737 150.226 355.317 151.362 353.329C152.782 351.342 152.214 351.058 149.658 352.477C147.102 353.897 146.535 353.613 147.954 351.342C149.09 349.638 151.362 348.786 152.782 349.638C154.202 350.774 159.597 348.218 164.708 344.242C170.104 339.983 175.783 336.859 177.771 336.859C179.759 336.859 180.327 335.723 179.475 334.02C177.203 330.612 186.858 317.265 191.401 316.981C196.513 316.981 196.229 315.846 187.71 298.524C179.759 282.621 155.338 248.829 127.793 216.173C111.89 197.147 79.8022 169.886 76.9625 173.01C76.1106 173.578 76.9625 190.048 78.3823 209.358C80.0861 228.668 82.0739 263.028 82.9258 285.745C83.7777 308.462 85.1975 329.76 86.0494 333.168C87.1853 338.847 86.0494 339.699 77.2465 339.699C69.0114 339.699 66.7397 341.119 64.4679 347.082C62.7641 351.058 62.1962 355.601 63.332 357.021C66.1717 361.564 72.9869 359.861 75.2587 353.897C77.2465 348.218 77.8144 348.218 85.1975 356.169C95.1364 366.392 97.9761 379.738 91.4448 385.986C79.5182 397.912 59.6405 393.653 46.5779 376.047C32.3796 357.305 28.404 321.809 39.4788 311.302C42.8864 308.178 46.5779 305.623 47.9978 305.623C49.1337 305.623 49.4176 296.252 48.8497 284.893C47.9978 273.818 46.8619 245.138 46.01 221.852C45.4421 198.283 44.0222 176.134 43.4543 172.158C42.6024 168.182 40.3307 158.528 38.6269 150.293C34.9353 134.106 36.6391 122.464 42.8864 120.192C45.4421 119.056 54.2451 124.167 63.9 131.835ZM254.442 257.348C245.355 276.374 241.096 306.475 247.627 303.919C249.899 302.783 251.887 299.375 251.887 295.684C251.887 292.276 256.146 283.757 261.257 276.942C266.653 270.127 272.616 259.62 274.32 253.657C277.728 243.434 278.296 243.15 283.975 246.841C291.358 251.669 293.346 263.028 288.234 272.399C283.407 281.77 266.085 300.795 264.381 299.092C263.529 298.524 264.949 295.684 267.505 293.412C272.9 288.017 272.9 285.461 267.789 287.449C262.393 289.437 259.838 300.511 264.097 303.351C266.085 304.487 270.344 305.623 273.752 305.623C276.876 305.623 287.95 309.314 297.889 313.574L315.779 321.809V282.621L316.063 243.434L304.421 242.298C298.173 241.73 285.963 241.446 277.444 241.446L261.825 241.73L254.442 257.348ZM266.653 351.626C263.529 355.601 270.344 376.615 274.604 376.615C276.592 376.615 285.963 354.749 285.963 350.206C285.963 346.798 269.776 347.934 266.653 351.626ZM180.895 358.157C177.487 362.132 180.043 376.615 184.018 376.615C186.858 376.615 195.093 361.28 195.093 355.601C195.093 350.774 185.722 352.477 180.895 358.157ZM290.506 365.824C283.407 376.047 285.111 377.183 297.889 370.651C308.68 365.256 309.532 364.12 304.421 362.132C295.901 358.725 295.05 359.009 290.506 365.824ZM223.49 367.528C223.49 368.664 219.23 371.503 214.119 373.491L205.032 377.183L214.119 380.306C220.366 382.01 223.49 384.85 223.49 388.257C223.49 392.801 221.218 393.653 209.291 393.653C193.673 393.653 192.821 394.789 200.772 404.727C205.6 410.123 208.156 410.975 216.107 409.555C226.613 407.567 226.897 406.999 230.589 378.602C232.009 367.528 231.441 365.256 228.033 365.256C225.478 365.256 223.49 366.392 223.49 367.528ZM162.437 370.935C157.325 376.615 157.609 376.615 164.708 376.615C170.388 376.615 171.524 375.479 170.388 370.935C169.536 367.812 168.684 365.256 168.116 365.256C167.832 365.256 165.276 367.812 162.437 370.935ZM308.396 373.491C304.704 376.331 297.605 380.59 293.062 383.146L284.543 387.689L296.185 387.973C303.001 387.973 309.532 389.677 311.52 392.233C315.211 396.776 312.656 403.308 308.112 400.468C306.408 399.332 300.161 398.196 294.482 397.912L283.975 397.344L285.111 417.506C285.963 428.581 286.531 438.52 286.815 439.939C287.098 441.075 291.926 438.804 297.321 435.112C305.556 429.717 308.964 424.321 315.211 406.147C327.138 371.503 324.866 360.429 308.396 373.491ZM144.831 395.357C147.386 397.912 152.782 393.653 150.794 390.245C149.658 388.541 147.954 388.541 145.967 390.529C144.263 392.233 143.695 394.221 144.831 395.357ZM257.566 412.679C256.146 414.666 254.726 417.506 254.726 419.21C254.726 420.914 252.738 422.901 250.467 423.753C248.195 424.889 246.207 426.593 246.207 428.013C246.207 432.84 264.381 441.927 273.752 441.927C284.259 441.927 285.111 439.372 279.715 421.766C276.592 411.259 276.308 410.975 272.616 416.37C270.344 419.494 266.937 422.049 264.665 422.049C261.257 422.049 261.257 420.346 264.665 409.839C268.357 399.332 268.357 398.48 264.665 403.592C262.393 406.715 259.27 410.691 257.566 412.679ZM144.547 403.592C141.139 404.727 138.299 407.851 138.299 410.975C138.299 415.802 140.855 416.37 163.573 416.37C189.414 416.37 195.661 414.098 187.994 407.851C184.586 405.011 182.314 405.295 176.635 408.987C167.548 414.95 165.844 414.666 169.536 408.135C170.956 405.011 172.376 401.604 172.376 400.752C172.376 398.764 155.054 400.468 144.547 403.592Z" fill="black"/>
<path d="M15.2474 503.561V504.151H10.7204V503.681L13.4034 501.053C13.7415 500.722 13.9689 500.436 14.0857 500.196C14.2086 499.95 14.2701 499.704 14.2701 499.458C14.2701 499.077 14.1379 498.782 13.8736 498.573C13.6155 498.358 13.2436 498.251 12.758 498.251C12.002 498.251 11.415 498.49 10.997 498.97L10.5268 498.564C10.7788 498.269 11.0984 498.042 11.4857 497.882C11.879 497.722 12.3216 497.642 12.8133 497.642C13.471 497.642 13.9904 497.799 14.3715 498.112C14.7587 498.42 14.9523 498.844 14.9523 499.385C14.9523 499.717 14.8786 500.036 14.7311 500.344C14.5835 500.651 14.3039 501.004 13.8921 501.404L11.6977 503.561H15.2474ZM17.7769 500.344C18.7112 500.344 19.3904 500.513 19.8145 500.851C20.2448 501.183 20.4599 501.65 20.4599 502.252C20.4599 502.627 20.3708 502.962 20.1926 503.257C20.0204 503.552 19.7592 503.786 19.4089 503.958C19.0585 504.124 18.6282 504.207 18.1181 504.207C17.6571 504.207 17.2176 504.133 16.7996 503.985C16.3878 503.832 16.0559 503.629 15.8039 503.377L16.1266 502.851C16.3417 503.073 16.6245 503.254 16.9748 503.395C17.3252 503.531 17.7032 503.598 18.1089 503.598C18.6436 503.598 19.0554 503.478 19.3443 503.239C19.6394 502.999 19.7869 502.679 19.7869 502.28C19.7869 501.837 19.6209 501.502 19.289 501.275C18.9632 501.047 18.41 500.934 17.6294 500.934H16.2557L16.5876 497.697H20.1188V498.288H17.1684L16.9472 500.344H17.7769ZM21.8006 504.197C21.6653 504.197 21.5485 504.148 21.4502 504.05C21.358 503.952 21.3119 503.832 21.3119 503.69C21.3119 503.549 21.358 503.432 21.4502 503.34C21.5485 503.242 21.6653 503.192 21.8006 503.192C21.9358 503.192 22.0526 503.242 22.1509 503.34C22.2493 503.432 22.2984 503.549 22.2984 503.69C22.2984 503.832 22.2493 503.952 22.1509 504.05C22.0526 504.148 21.9358 504.197 21.8006 504.197ZM24.9371 497.697V504.151H24.2733V498.288H22.752V497.697H24.9371ZM30.887 503.561V504.151H26.36V503.681L29.043 501.053C29.3811 500.722 29.6085 500.436 29.7253 500.196C29.8482 499.95 29.9097 499.704 29.9097 499.458C29.9097 499.077 29.7775 498.782 29.5132 498.573C29.255 498.358 28.8832 498.251 28.3976 498.251C27.6416 498.251 27.0546 498.49 26.6366 498.97L26.1664 498.564C26.4184 498.269 26.738 498.042 27.1253 497.882C27.5186 497.722 27.9612 497.642 28.4529 497.642C29.1106 497.642 29.63 497.799 30.0111 498.112C30.3983 498.42 30.5919 498.844 30.5919 499.385C30.5919 499.717 30.5182 500.036 30.3707 500.344C30.2231 500.651 29.9435 501.004 29.5316 501.404L27.3373 503.561H30.887ZM32.308 504.197C32.1728 504.197 32.056 504.148 31.9576 504.05C31.8654 503.952 31.8193 503.832 31.8193 503.69C31.8193 503.549 31.8654 503.432 31.9576 503.34C32.056 503.242 32.1728 503.192 32.308 503.192C32.4432 503.192 32.56 503.242 32.6583 503.34C32.7567 503.432 32.8059 503.549 32.8059 503.69C32.8059 503.832 32.7567 503.952 32.6583 504.05C32.56 504.148 32.4432 504.197 32.308 504.197ZM38.2611 503.561V504.151H33.7341V503.681L36.4171 501.053C36.7552 500.722 36.9826 500.436 37.0994 500.196C37.2223 499.95 37.2838 499.704 37.2838 499.458C37.2838 499.077 37.1516 498.782 36.8873 498.573C36.6292 498.358 36.2573 498.251 35.7717 498.251C35.0157 498.251 34.4287 498.49 34.0107 498.97L33.5405 498.564C33.7925 498.269 34.1121 498.042 34.4994 497.882C34.8927 497.722 35.3353 497.642 35.827 497.642C36.4847 497.642 37.0041 497.799 37.3852 498.112C37.7724 498.42 37.966 498.844 37.966 499.385C37.966 499.717 37.8923 500.036 37.7448 500.344C37.5972 500.651 37.3176 501.004 36.9058 501.404L34.7114 503.561H38.2611ZM41.6305 504.207C41.1326 504.207 40.687 504.075 40.2936 503.81C39.9064 503.546 39.6021 503.168 39.3809 502.676C39.1657 502.178 39.0582 501.594 39.0582 500.924C39.0582 500.254 39.1657 499.674 39.3809 499.182C39.6021 498.684 39.9064 498.303 40.2936 498.039C40.687 497.774 41.1326 497.642 41.6305 497.642C42.1284 497.642 42.5709 497.774 42.9582 498.039C43.3516 498.303 43.6589 498.684 43.8802 499.182C44.1014 499.674 44.2121 500.254 44.2121 500.924C44.2121 501.594 44.1014 502.178 43.8802 502.676C43.6589 503.168 43.3516 503.546 42.9582 503.81C42.5709 504.075 42.1284 504.207 41.6305 504.207ZM41.6305 503.598C42.0055 503.598 42.3343 503.494 42.617 503.285C42.9059 503.076 43.1303 502.771 43.2901 502.372C43.4499 501.972 43.5298 501.49 43.5298 500.924C43.5298 500.359 43.4499 499.876 43.2901 499.477C43.1303 499.077 42.9059 498.773 42.617 498.564C42.3343 498.355 42.0055 498.251 41.6305 498.251C41.2556 498.251 40.9237 498.355 40.6348 498.564C40.352 498.773 40.1307 499.077 39.9709 499.477C39.8111 499.876 39.7312 500.359 39.7312 500.924C39.7312 501.49 39.8111 501.972 39.9709 502.372C40.1307 502.771 40.352 503.076 40.6348 503.285C40.9237 503.494 41.2556 503.598 41.6305 503.598ZM49.5518 503.561V504.151H45.0249V503.681L47.7079 501.053C48.0459 500.722 48.2733 500.436 48.3901 500.196C48.5131 499.95 48.5745 499.704 48.5745 499.458C48.5745 499.077 48.4424 498.782 48.1781 498.573C47.9199 498.358 47.548 498.251 47.0625 498.251C46.3064 498.251 45.7194 498.49 45.3015 498.97L44.8313 498.564C45.0833 498.269 45.4029 498.042 45.7901 497.882C46.1835 497.722 46.6261 497.642 47.1178 497.642C47.7755 497.642 48.2949 497.799 48.6759 498.112C49.0632 498.42 49.2568 498.844 49.2568 499.385C49.2568 499.717 49.183 500.036 49.0355 500.344C48.888 500.651 48.6083 501.004 48.1965 501.404L46.0022 503.561H49.5518ZM55.6547 502.455H54.3639V504.151H53.7001V502.455H50.0582V501.975L53.4788 497.697H54.2164L50.9157 501.865H53.7185V500.371H54.3639V501.865H55.6547V502.455Z" fill="black"/>
<path d="M163.643 503.561V504.151H159.116V503.681L161.799 501.053C162.137 500.722 162.365 500.436 162.482 500.196C162.605 499.95 162.666 499.704 162.666 499.458C162.666 499.077 162.534 498.782 162.27 498.573C162.011 498.358 161.64 498.251 161.154 498.251C160.398 498.251 159.811 498.49 159.393 498.97L158.923 498.564C159.175 498.269 159.494 498.042 159.882 497.882C160.275 497.722 160.718 497.642 161.209 497.642C161.867 497.642 162.386 497.799 162.767 498.112C163.155 498.42 163.348 498.844 163.348 499.385C163.348 499.717 163.275 500.036 163.127 500.344C162.98 500.651 162.7 501.004 162.288 501.404L160.094 503.561H163.643ZM166.173 500.344C167.107 500.344 167.786 500.513 168.211 500.851C168.641 501.183 168.856 501.65 168.856 502.252C168.856 502.627 168.767 502.962 168.589 503.257C168.416 503.552 168.155 503.786 167.805 503.958C167.455 504.124 167.024 504.207 166.514 504.207C166.053 504.207 165.614 504.133 165.196 503.985C164.784 503.832 164.452 503.629 164.2 503.377L164.523 502.851C164.738 503.073 165.02 503.254 165.371 503.395C165.721 503.531 166.099 503.598 166.505 503.598C167.04 503.598 167.451 503.478 167.74 503.239C168.035 502.999 168.183 502.679 168.183 502.28C168.183 501.837 168.017 501.502 167.685 501.275C167.359 501.047 166.806 500.934 166.025 500.934H164.652L164.984 497.697H168.515V498.288H165.564L165.343 500.344H166.173ZM170.197 504.197C170.061 504.197 169.945 504.148 169.846 504.05C169.754 503.952 169.708 503.832 169.708 503.69C169.708 503.549 169.754 503.432 169.846 503.34C169.945 503.242 170.061 503.192 170.197 503.192C170.332 503.192 170.449 503.242 170.547 503.34C170.645 503.432 170.694 503.549 170.694 503.69C170.694 503.832 170.645 503.952 170.547 504.05C170.449 504.148 170.332 504.197 170.197 504.197ZM173.333 497.697V504.151H172.669V498.288H171.148V497.697H173.333ZM179.283 503.561V504.151H174.756V503.681L177.439 501.053C177.777 500.722 178.004 500.436 178.121 500.196C178.244 499.95 178.306 499.704 178.306 499.458C178.306 499.077 178.174 498.782 177.909 498.573C177.651 498.358 177.279 498.251 176.794 498.251C176.038 498.251 175.451 498.49 175.033 498.97L174.562 498.564C174.814 498.269 175.134 498.042 175.521 497.882C175.915 497.722 176.357 497.642 176.849 497.642C177.507 497.642 178.026 497.799 178.407 498.112C178.794 498.42 178.988 498.844 178.988 499.385C178.988 499.717 178.914 500.036 178.767 500.344C178.619 500.651 178.339 501.004 177.928 501.404L175.733 503.561H179.283ZM180.704 504.197C180.569 504.197 180.452 504.148 180.354 504.05C180.261 503.952 180.215 503.832 180.215 503.69C180.215 503.549 180.261 503.432 180.354 503.34C180.452 503.242 180.569 503.192 180.704 503.192C180.839 503.192 180.956 503.242 181.054 503.34C181.153 503.432 181.202 503.549 181.202 503.69C181.202 503.832 181.153 503.952 181.054 504.05C180.956 504.148 180.839 504.197 180.704 504.197ZM186.657 503.561V504.151H182.13V503.681L184.813 501.053C185.151 500.722 185.379 500.436 185.495 500.196C185.618 499.95 185.68 499.704 185.68 499.458C185.68 499.077 185.548 498.782 185.283 498.573C185.025 498.358 184.653 498.251 184.168 498.251C183.412 498.251 182.825 498.49 182.407 498.97L181.936 498.564C182.189 498.269 182.508 498.042 182.895 497.882C183.289 497.722 183.731 497.642 184.223 497.642C184.881 497.642 185.4 497.799 185.781 498.112C186.168 498.42 186.362 498.844 186.362 499.385C186.362 499.717 186.288 500.036 186.141 500.344C185.993 500.651 185.714 501.004 185.302 501.404L183.107 503.561H186.657ZM190.027 504.207C189.529 504.207 189.083 504.075 188.69 503.81C188.302 503.546 187.998 503.168 187.777 502.676C187.562 502.178 187.454 501.594 187.454 500.924C187.454 500.254 187.562 499.674 187.777 499.182C187.998 498.684 188.302 498.303 188.69 498.039C189.083 497.774 189.529 497.642 190.027 497.642C190.524 497.642 190.967 497.774 191.354 498.039C191.748 498.303 192.055 498.684 192.276 499.182C192.497 499.674 192.608 500.254 192.608 500.924C192.608 501.594 192.497 502.178 192.276 502.676C192.055 503.168 191.748 503.546 191.354 503.81C190.967 504.075 190.524 504.207 190.027 504.207ZM190.027 503.598C190.401 503.598 190.73 503.494 191.013 503.285C191.302 503.076 191.526 502.771 191.686 502.372C191.846 501.972 191.926 501.49 191.926 500.924C191.926 500.359 191.846 499.876 191.686 499.477C191.526 499.077 191.302 498.773 191.013 498.564C190.73 498.355 190.401 498.251 190.027 498.251C189.652 498.251 189.32 498.355 189.031 498.564C188.748 498.773 188.527 499.077 188.367 499.477C188.207 499.876 188.127 500.359 188.127 500.924C188.127 501.49 188.207 501.972 188.367 502.372C188.527 502.771 188.748 503.076 189.031 503.285C189.32 503.494 189.652 503.598 190.027 503.598ZM197.948 503.561V504.151H193.421V503.681L196.104 501.053C196.442 500.722 196.669 500.436 196.786 500.196C196.909 499.95 196.971 499.704 196.971 499.458C196.971 499.077 196.838 498.782 196.574 498.573C196.316 498.358 195.944 498.251 195.458 498.251C194.702 498.251 194.115 498.49 193.697 498.97L193.227 498.564C193.479 498.269 193.799 498.042 194.186 497.882C194.579 497.722 195.022 497.642 195.514 497.642C196.171 497.642 196.691 497.799 197.072 498.112C197.459 498.42 197.653 498.844 197.653 499.385C197.653 499.717 197.579 500.036 197.432 500.344C197.284 500.651 197.004 501.004 196.593 501.404L194.398 503.561H197.948ZM204.051 502.455H202.76V504.151H202.096V502.455H198.454V501.975L201.875 497.697H202.612L199.312 501.865H202.114V500.371H202.76V501.865H204.051V502.455Z" fill="black"/>
<path d="M312.04 503.561V504.151H307.513V503.681L310.196 501.053C310.534 500.722 310.761 500.436 310.878 500.196C311.001 499.95 311.063 499.704 311.063 499.458C311.063 499.077 310.93 498.782 310.666 498.573C310.408 498.358 310.036 498.251 309.55 498.251C308.794 498.251 308.207 498.49 307.789 498.97L307.319 498.564C307.571 498.269 307.891 498.042 308.278 497.882C308.672 497.722 309.114 497.642 309.606 497.642C310.263 497.642 310.783 497.799 311.164 498.112C311.551 498.42 311.745 498.844 311.745 499.385C311.745 499.717 311.671 500.036 311.524 500.344C311.376 500.651 311.096 501.004 310.685 501.404L308.49 503.561H312.04ZM314.569 500.344C315.504 500.344 316.183 500.513 316.607 500.851C317.037 501.183 317.252 501.65 317.252 502.252C317.252 502.627 317.163 502.962 316.985 503.257C316.813 503.552 316.552 503.786 316.201 503.958C315.851 504.124 315.421 504.207 314.911 504.207C314.45 504.207 314.01 504.133 313.592 503.985C313.18 503.832 312.848 503.629 312.596 503.377L312.919 502.851C313.134 503.073 313.417 503.254 313.767 503.395C314.118 503.531 314.496 503.598 314.901 503.598C315.436 503.598 315.848 503.478 316.137 503.239C316.432 502.999 316.579 502.679 316.579 502.28C316.579 501.837 316.413 501.502 316.081 501.275C315.756 501.047 315.203 500.934 314.422 500.934H313.048L313.38 497.697H316.911V498.288H313.961L313.74 500.344H314.569ZM318.593 504.197C318.458 504.197 318.341 504.148 318.243 504.05C318.15 503.952 318.104 503.832 318.104 503.69C318.104 503.549 318.15 503.432 318.243 503.34C318.341 503.242 318.458 503.192 318.593 503.192C318.728 503.192 318.845 503.242 318.943 503.34C319.042 503.432 319.091 503.549 319.091 503.69C319.091 503.832 319.042 503.952 318.943 504.05C318.845 504.148 318.728 504.197 318.593 504.197ZM321.73 497.697V504.151H321.066V498.288H319.544V497.697H321.73ZM327.679 503.561V504.151H323.152V503.681L325.835 501.053C326.174 500.722 326.401 500.436 326.518 500.196C326.641 499.95 326.702 499.704 326.702 499.458C326.702 499.077 326.57 498.782 326.306 498.573C326.048 498.358 325.676 498.251 325.19 498.251C324.434 498.251 323.847 498.49 323.429 498.97L322.959 498.564C323.211 498.269 323.531 498.042 323.918 497.882C324.311 497.722 324.754 497.642 325.245 497.642C325.903 497.642 326.422 497.799 326.804 498.112C327.191 498.42 327.384 498.844 327.384 499.385C327.384 499.717 327.311 500.036 327.163 500.344C327.016 500.651 326.736 501.004 326.324 501.404L324.13 503.561H327.679ZM329.1 504.197C328.965 504.197 328.848 504.148 328.75 504.05C328.658 503.952 328.612 503.832 328.612 503.69C328.612 503.549 328.658 503.432 328.75 503.34C328.848 503.242 328.965 503.192 329.1 503.192C329.236 503.192 329.352 503.242 329.451 503.34C329.549 503.432 329.598 503.549 329.598 503.69C329.598 503.832 329.549 503.952 329.451 504.05C329.352 504.148 329.236 504.197 329.1 504.197ZM335.054 503.561V504.151H330.527V503.681L333.21 501.053C333.548 500.722 333.775 500.436 333.892 500.196C334.015 499.95 334.076 499.704 334.076 499.458C334.076 499.077 333.944 498.782 333.68 498.573C333.422 498.358 333.05 498.251 332.564 498.251C331.808 498.251 331.221 498.49 330.803 498.97L330.333 498.564C330.585 498.269 330.905 498.042 331.292 497.882C331.685 497.722 332.128 497.642 332.62 497.642C333.277 497.642 333.797 497.799 334.178 498.112C334.565 498.42 334.759 498.844 334.759 499.385C334.759 499.717 334.685 500.036 334.537 500.344C334.39 500.651 334.11 501.004 333.698 501.404L331.504 503.561H335.054ZM338.423 504.207C337.925 504.207 337.479 504.075 337.086 503.81C336.699 503.546 336.395 503.168 336.173 502.676C335.958 502.178 335.851 501.594 335.851 500.924C335.851 500.254 335.958 499.674 336.173 499.182C336.395 498.684 336.699 498.303 337.086 498.039C337.479 497.774 337.925 497.642 338.423 497.642C338.921 497.642 339.363 497.774 339.751 498.039C340.144 498.303 340.451 498.684 340.673 499.182C340.894 499.674 341.005 500.254 341.005 500.924C341.005 501.594 340.894 502.178 340.673 502.676C340.451 503.168 340.144 503.546 339.751 503.81C339.363 504.075 338.921 504.207 338.423 504.207ZM338.423 503.598C338.798 503.598 339.127 503.494 339.41 503.285C339.698 503.076 339.923 502.771 340.083 502.372C340.242 501.972 340.322 501.49 340.322 500.924C340.322 500.359 340.242 499.876 340.083 499.477C339.923 499.077 339.698 498.773 339.41 498.564C339.127 498.355 338.798 498.251 338.423 498.251C338.048 498.251 337.716 498.355 337.427 498.564C337.145 498.773 336.923 499.077 336.763 499.477C336.604 499.876 336.524 500.359 336.524 500.924C336.524 501.49 336.604 501.972 336.763 502.372C336.923 502.771 337.145 503.076 337.427 503.285C337.716 503.494 338.048 503.598 338.423 503.598ZM346.344 503.561V504.151H341.817V503.681L344.5 501.053C344.838 500.722 345.066 500.436 345.183 500.196C345.306 499.95 345.367 499.704 345.367 499.458C345.367 499.077 345.235 498.782 344.971 498.573C344.712 498.358 344.341 498.251 343.855 498.251C343.099 498.251 342.512 498.49 342.094 498.97L341.624 498.564C341.876 498.269 342.195 498.042 342.583 497.882C342.976 497.722 343.419 497.642 343.91 497.642C344.568 497.642 345.087 497.799 345.468 498.112C345.856 498.42 346.049 498.844 346.049 499.385C346.049 499.717 345.976 500.036 345.828 500.344C345.68 500.651 345.401 501.004 344.989 501.404L342.795 503.561H346.344ZM352.447 502.455H351.156V504.151H350.493V502.455H346.851V501.975L350.271 497.697H351.009L347.708 501.865H350.511V500.371H351.156V501.865H352.447V502.455Z" fill="black"/>
<path d="M63.5577 67.5289C63.0921 68.0611 63.0255 68.7263 63.4247 69.325C63.8903 70.0568 64.0234 70.0568 64.0234 69.3915C64.0234 68.8594 64.356 68.7263 64.8882 69.0589C65.2873 69.325 67.0834 69.5911 68.813 69.5911C71.4739 69.6576 72.3387 69.9902 74.3343 71.9194C77.4609 74.9129 77.4609 77.5073 74.5339 80.3677C73.3365 81.4986 71.6735 82.7625 70.8752 83.1617C69.0791 84.093 68.1478 88.1508 69.2786 89.9469C69.6778 90.6787 70.0104 92.5413 70.0104 94.1379C70.0104 96.4661 69.7443 97.1314 68.6799 97.3975C67.5491 97.6635 67.3495 97.3975 67.3495 95.6013C67.3495 94.4705 66.8838 91.6765 66.2186 89.5478C65.5534 86.9534 65.1543 83.0951 65.1543 78.7047C65.2208 74.9794 64.9547 71.9194 64.6221 71.9194C63.3582 71.9194 63.7573 87.3526 65.0877 92.6744C65.6199 94.8031 65.886 97.2644 65.6199 98.1957C65.2208 99.7923 65.2873 99.8588 67.6156 99.5927C68.8795 99.4596 70.2765 99.127 70.6756 98.8609C71.6735 98.2622 71.4739 91.8096 70.343 89.6143C69.0791 87.2195 69.5447 85.4899 71.873 84.226C76.33 81.7647 78.3922 78.5716 77.6605 75.179C77.1948 73.0503 72.0726 68.1276 69.8773 67.662C65.6199 66.7972 64.2895 66.7972 63.5577 67.5289Z" fill="black"/>
<path d="M34.9552 70.4862C31.6277 71.8837 30.8291 72.8154 30.8291 75.6105C30.8291 79.1376 31.5611 80.6017 33.2249 80.6017C34.0235 80.6017 34.9552 80.2689 35.1548 79.9362C35.3545 79.5369 36.0865 79.2707 36.752 79.2707C37.7502 79.2707 38.083 80.6682 39.1478 89.9186C40.2126 99.169 40.4788 100.567 41.4105 100.167C42.0094 99.9676 43.3404 99.4352 44.3386 99.1024L46.202 98.4369L45.6696 91.3161C45.4034 87.4563 45.2038 83.1971 45.1372 81.9327V79.6034H48.6644C50.7939 79.6034 52.3911 79.2707 52.7239 78.7383C53.3228 77.7401 52.5908 71.4844 51.7256 70.6193C51.3929 70.2865 48.132 69.8872 44.4717 69.621C38.9481 69.3548 37.3509 69.4879 34.9552 70.4862ZM48.3316 73.0816C50.7939 73.3478 51.4594 73.6805 51.4594 74.6122C51.4594 76.3425 50.6608 76.6753 48.3316 76.0098C47.2003 75.677 45.5365 75.5439 44.5383 75.7436C42.9411 76.0763 42.808 76.3425 42.808 79.5369C42.808 81.4003 43.2738 85.5929 43.8728 88.9204C44.871 94.5105 44.8045 94.9098 43.7397 95.7084C41.6101 97.239 40.8115 96.7732 40.6784 93.7119C40.4788 88.388 40.3457 86.9239 39.8798 83.064C39.5471 80.5351 39.6136 79.2707 40.0795 79.2707C40.4788 79.2707 40.8115 79.0045 40.8115 78.7383C40.8115 77.8732 35.6207 76.4756 34.1566 76.9415C33.0918 77.2742 32.8256 77.0746 32.8256 75.7436C32.8256 74.6788 33.4911 73.8802 35.0217 73.0816C37.1513 71.9503 38.7485 71.9503 48.3316 73.0816Z" fill="black"/>
<path d="M68.6802 76.8423C68.6802 81.4323 68.7467 81.7649 70.0106 81.4323C71.4741 81.0332 74.6672 78.1062 74.6672 77.1083C74.6672 75.8444 72.6715 72.7179 71.6737 72.3187C68.9463 71.3209 68.6802 71.72 68.6802 76.8423ZM73.1372 75.1792C74.0685 76.4431 73.8689 76.7757 71.3411 78.5718L69.3454 79.9688V76.7092C69.3454 73.5827 69.4119 73.3831 70.8754 73.7822C71.6737 73.9818 72.6715 74.647 73.1372 75.1792Z" fill="black"/>
<path d="M14.5933 70.1889C13.7283 70.8377 12.3587 72.8561 11.5657 74.8024C10.1961 77.9741 10.124 78.9833 10.7007 86.1198C11.4216 95.2025 12.4308 97.0768 17.1884 98.6626C19.8556 99.5277 20.5764 99.5277 22.0902 98.6626C24.6132 97.2209 26.992 92.5354 25.8386 91.1658C25.4061 90.6612 24.6132 90.3007 24.0365 90.517C23.5319 90.7332 22.8831 90.5891 22.5948 90.1566C22.3786 89.724 21.5135 89.3636 20.7927 89.3636C19.1347 89.3636 17.1884 85.9756 17.1884 83.2364C17.1884 81.4342 18.8464 80.7134 19.7114 82.1551C20.6485 83.741 21.946 82.7318 23.0994 79.56C24.3249 76.0278 23.9644 72.9282 21.946 70.6935C20.5043 69.1076 16.5396 68.8914 14.5933 70.1889ZM20.7206 74.0094C21.7298 73.0002 21.8019 74.8024 20.7927 77.3974C20.216 78.9833 19.8556 79.1275 17.5488 78.7671C16.1792 78.5508 15.0258 78.6229 15.0258 78.9833C15.0979 84.1735 18.6301 94.6979 19.4951 92.1749C19.7114 91.4541 20.2881 91.5983 21.6577 92.6795C23.6761 94.2654 23.5319 95.1304 21.0089 96.5001C18.9905 97.5093 16.4676 96.5722 14.5212 94.1213C12.5029 91.5983 11.6378 80.3529 13.2237 77.3254C13.8004 76.2441 14.305 74.8745 14.305 74.3699C14.305 73.8653 15.0258 73.1444 15.963 72.784C17.1884 72.3515 17.8372 72.4956 18.7022 73.5048C19.5672 74.514 20.0718 74.6582 20.7206 74.0094Z" fill="black"/>
<path d="M96.6541 68.3844C96.1544 69.1696 95.3691 69.8121 94.8694 69.8121C94.4411 69.8121 94.0128 70.3832 94.0128 71.0257C94.0842 74.0954 90.2293 92.4419 88.7301 96.5824C87.8021 99.0809 87.8021 99.5093 88.6587 100.009C89.3012 100.366 90.0865 100.295 90.5862 99.9376C91.0859 99.5807 92.6564 99.0809 94.1556 98.7954C96.5113 98.3671 96.7969 98.0815 96.7969 96.2255C96.7969 95.1546 97.0111 93.6555 97.2252 93.013C97.6535 91.9422 101.009 89.8006 102.365 89.8006C102.722 89.8006 103.365 91.7994 103.793 94.1552C104.792 99.4379 105.078 99.7948 106.506 97.796C107.077 96.9393 108.005 96.2255 108.504 96.2255C109.004 96.2255 110.289 95.4402 111.36 94.4408C112.93 93.013 113.216 92.1564 113.216 88.9439C113.216 82.5191 111.289 78.45 104.792 70.6688C101.294 66.5283 98.296 65.6716 96.6541 68.3844ZM104.293 72.9532C109.218 78.2358 112.502 84.161 112.502 87.9445C112.502 90.0147 112.002 91.0856 110.218 92.7275C108.933 93.8697 107.505 94.7977 107.077 94.7977C106.648 94.7977 106.149 93.0844 105.863 90.6572C105.72 88.3728 104.864 85.2318 104.078 83.6613C101.437 78.5214 98.2246 76.9509 98.2246 80.8772C98.2246 81.8052 97.9391 83.3757 97.5108 84.3751C97.1538 85.446 96.6541 88.2301 96.44 90.6572C96.083 95.583 95.3691 96.5824 91.8712 97.2963C89.7295 97.796 89.5154 97.6532 89.9437 96.511C90.9431 94.0838 93.87 81.6624 94.6553 76.3084C95.5119 71.2399 97.0824 68.3844 99.0813 68.3844C99.581 68.3844 101.937 70.4546 104.293 72.9532ZM100.509 84.2324C99.8666 84.8749 99.6524 84.7321 99.6524 83.3757C99.6524 82.0194 99.8666 81.8766 100.509 82.5191C101.152 83.1616 101.152 83.5899 100.509 84.2324ZM102.651 87.2306C102.936 88.587 102.651 89.0867 101.366 89.3723C100.509 89.5864 99.2955 90.0147 98.653 90.2289C97.0824 90.8 97.2252 89.6578 99.0099 87.3734C100.866 85.0176 102.222 85.0176 102.651 87.2306Z" fill="black"/>
<path d="M120.16 69.984C120.125 70.3914 120.741 77.3427 121.57 85.4806L122.989 100.331L125.556 98.7525C127.742 97.3784 127.999 96.7848 127.793 94.2257C127.615 92.6318 127.685 91.0908 128.065 90.8869C128.366 90.6918 130.518 90.4512 132.856 90.4319L137.036 90.2872L137.561 94.9893C137.847 97.5395 138.326 99.6646 138.645 99.6289C140.797 99.3883 144.222 96.8266 144.089 95.6312C143.937 94.2763 143.848 94.2056 142.078 95.6946C141.043 96.5366 139.972 97.0598 139.715 96.9272C139.529 96.7059 138.907 94.7581 138.339 92.5623L137.415 88.6309L132.536 88.289C126.93 87.9476 126.337 88.4173 126.809 92.6412C127.005 94.3945 126.652 95.5637 125.598 96.2463C124.173 97.2126 124.067 96.9824 122.667 83.7441C121.304 71.5507 121.232 70.1869 122.481 70.5314C123.393 70.7522 123.623 70.6458 123.153 70.0528C122.4 69.088 120.221 69.0895 120.16 69.984Z" fill="black"/>
<path d="M135.232 69.8319C133.949 71.3471 133.905 72.401 135.013 72.9227C135.438 73.1172 135.88 72.745 136.128 72.0718C136.525 70.5749 140.174 70.0055 140.803 71.3069C141.025 71.8469 141.45 72.0414 141.663 71.7756C142.459 70.9603 139.393 68.0755 137.799 68.2538C137.002 68.3429 135.789 69.0433 135.232 69.8319Z" fill="black"/>
<path d="M125.47 78.5086L126.298 84.468L131.399 84.6238C134.392 84.6925 136.704 84.4341 137.057 83.9911C137.332 83.5569 137.153 81.2369 136.647 78.8727L135.758 74.534L135.725 78.5723L135.772 82.6016L132.965 82.7541C127.094 82.9265 126.589 82.7409 126.702 79.4199C126.674 77.7285 126.265 75.5148 125.742 74.4437C124.935 73.0007 124.874 73.8952 125.47 78.5086Z" fill="black"/>
<path d="M143.677 89.7869C143.873 91.5402 144.103 92.16 144.147 91.1061C144.199 90.1319 144.039 88.6974 143.791 87.9183C143.471 87.2278 143.401 88.0425 143.677 89.7869Z" fill="black"/>
<path d="M150.052 69.6967C150.017 70.104 150.632 77.0554 151.462 85.1932L152.88 100.043L155.447 98.4652C157.634 97.091 157.89 96.4975 157.685 93.9383C157.506 92.3444 157.576 90.8035 157.957 90.5995C158.258 90.4045 160.41 90.1639 162.747 90.1445L166.927 89.9999L167.453 94.7019C167.738 97.2522 168.218 99.3772 168.537 99.3416C170.688 99.1009 174.114 96.5392 173.98 95.3438C173.829 93.989 173.74 93.9182 171.97 95.4072C170.934 96.2492 169.863 96.7725 169.606 96.6398C169.42 96.4185 168.799 94.4707 168.231 92.2749L167.307 88.3436L162.427 88.0016C156.821 87.6602 156.228 88.13 156.701 92.3538C156.897 94.1071 156.543 95.2763 155.49 95.959C154.065 96.9253 153.958 96.6951 152.559 83.4567C151.195 71.2633 151.123 69.8996 152.372 70.2441C153.285 70.4648 153.515 70.3584 153.045 69.7654C152.292 68.8007 150.113 68.8022 150.052 69.6967Z" fill="black"/>
<path d="M165.124 69.544C163.841 71.0593 163.797 72.1131 164.905 72.6348C165.33 72.8294 165.773 72.4571 166.02 71.7839C166.417 70.287 170.066 69.7177 170.695 71.019C170.917 71.5591 171.342 71.7536 171.555 71.4878C172.351 70.6725 169.285 67.7877 167.691 67.9659C166.894 68.055 165.681 68.7555 165.124 69.544Z" fill="black"/>
<path d="M155.362 78.2208L156.19 84.1801L161.291 84.336C164.284 84.4047 166.595 84.1463 166.949 83.7032C167.223 83.2691 167.045 80.949 166.538 78.5849L165.65 74.2462L165.617 78.2844L165.664 82.3138L162.857 82.4663C156.986 82.6387 156.481 82.4531 156.594 79.1321C156.566 77.4406 156.157 75.227 155.634 74.1558C154.827 72.7129 154.765 73.6074 155.362 78.2208Z" fill="black"/>
<path d="M173.569 89.4991C173.765 91.2524 173.996 91.8721 174.039 90.8183C174.092 89.8441 173.931 88.4096 173.683 87.6304C173.363 86.9399 173.293 87.7547 173.569 89.4991Z" fill="black"/>
<path d="M233.338 68.2113C231.944 69.2955 232.022 69.373 234.19 69.2955C235.507 69.2181 237.288 69.4504 238.295 69.7602C240.618 70.5347 240.231 72.8581 236.746 79.9832C235.584 82.384 235.584 82.4615 237.443 83.3134C238.45 83.778 239.689 84.1653 240.076 84.1653C241.238 84.1653 247.743 88.8895 247.743 89.7414C247.743 90.6708 244.336 95.7823 243.716 95.7823C243.406 95.7823 241.238 93.3814 238.837 90.361C236.436 87.3406 234.267 84.9397 233.958 84.9397C233.648 84.9397 232.176 87.2631 230.705 90.1287C227.994 95.3176 225.748 97.0214 224.819 94.6206C223.967 92.5295 226.058 87.1857 228.536 84.8623C230.627 83.0036 230.782 82.5389 229.93 81.5321C229.388 80.8351 228.149 80.293 227.142 80.293C225.051 80.293 219.862 76.0334 219.862 74.407C219.862 72.7032 222.031 72.2385 223.58 73.4777C224.819 74.4845 232.796 78.744 233.493 78.744C234.113 78.744 233.725 72.9355 233.028 71.3866C232.564 70.3023 232.486 70.9219 232.796 73.0904C233.028 74.9491 233.028 76.4206 232.719 76.4206C232.022 76.4206 224.122 71.5415 223.89 70.8445C223.193 69.2955 218.313 72.8581 218.313 74.8717C218.313 76.5755 223.812 81.6095 226.368 82.3066L228.304 82.7712L226.136 85.6368C224.199 88.0376 221.489 96.0921 222.263 96.944C222.496 97.0989 223.967 97.3312 225.593 97.4861L228.614 97.7184L231.557 91.9099C233.183 88.7346 234.5 86.4887 234.577 86.9534C234.577 88.0376 243.793 98.8801 244.645 98.8801C245.11 98.8801 245.42 98.1831 245.42 97.4086C245.42 96.5567 245.73 95.7048 246.117 95.4725C246.504 95.2401 247.511 93.7687 248.44 92.2972L249.989 89.5865L247.511 86.721C246.117 85.1721 243.561 83.2359 241.78 82.4615L238.45 80.99L239.534 78.3568C240.153 76.9628 240.463 75.5687 240.231 75.4138C240.076 75.1815 240.231 74.2521 240.773 73.4002C241.935 71.1543 240.696 69.0632 237.598 67.979C234.577 66.9721 235.197 66.8947 233.338 68.2113Z" fill="black"/>
<path d="M182.753 80.4359C182.753 92.2679 183.005 93.5266 186.865 97.8902C189.047 100.324 191.061 100.324 193.83 97.8902C194.669 97.1349 197.69 96.5475 202.221 96.2958C206.081 96.044 209.606 95.4566 210.193 94.8692C210.781 94.3657 211.452 90.8413 211.788 87.0651C212.459 79.261 211.368 74.8135 208.347 72.7996C206.249 71.373 199.704 70.6178 199.116 71.6248C198.865 71.9604 199.284 73.6387 199.956 75.317C200.627 76.9114 201.214 80.3519 201.214 82.8694V87.4847L199.2 85.4708C198.109 84.3799 195.844 83.2051 194.165 82.9533C191.144 82.3659 191.144 82.282 191.144 78.1701C191.144 71.8765 189.298 69.1073 185.103 69.1073H182.753V80.4359ZM188.963 72.6318C189.802 73.8066 190.305 76.324 190.305 79.6806V84.7994L193.578 85.3868C197.018 85.8903 199.536 88.3239 199.536 91.0931C199.536 93.0231 197.102 94.1979 194.501 93.6944C192.991 93.4427 191.816 93.8623 190.809 95.0371C188.627 97.3867 188.04 97.3028 186.361 94.0301C185.019 91.4287 183.173 72.9674 184.179 71.4569C184.935 70.1143 187.704 70.8695 188.963 72.6318ZM208.683 75.9044C210.193 77.331 210.445 78.5058 210.445 85.0512C210.445 89.163 210.193 92.6874 209.857 92.8553C209.438 93.107 207.34 93.5266 205.074 93.8623C201.046 94.5336 201.046 94.4497 202.053 92.6035C203.48 89.8343 203.816 79.261 202.473 76.0723C201.886 74.6457 201.55 73.2192 201.802 73.0513C202.473 72.2961 206.753 74.1422 208.683 75.9044Z" fill="black"/>
<path d="M191.144 87.988C191.144 88.6593 190.641 89.2468 189.969 89.2468C189.298 89.2468 188.459 89.5824 188.207 90.0859C187.872 90.5894 188.291 90.6733 189.13 90.3376C190.137 89.9181 190.389 90.0859 189.885 90.8411C189.55 91.5125 189.718 92.2677 190.389 92.6034C191.899 93.6103 193.074 92.6873 191.983 91.3446C190.976 90.0859 191.816 87.4006 193.074 87.8202C193.578 87.988 194.333 88.7433 194.836 89.4985C195.508 90.5894 195.424 91.1768 194.501 91.8481C193.41 92.6034 193.41 92.6873 194.501 92.3516C196.179 91.932 196.599 89.4985 195.34 87.988C193.997 86.3097 191.144 86.3936 191.144 87.988Z" fill="black"/>
<path d="M112.482 21.0572C110.083 21.8967 107.984 23.8757 107.984 25.195C107.984 25.5548 108.464 25.2549 109.063 24.5353C110.023 23.276 114.46 21.1771 115.54 21.417C115.84 21.4769 117.099 21.357 118.358 21.0572C121.297 20.4575 123.096 21.297 124.415 23.8157L125.435 25.8546L125.075 24.0556C124.355 20.8772 123.216 20.1576 118.838 20.1576C116.679 20.2176 113.801 20.5774 112.482 21.0572Z" fill="black"/>
<path d="M106.844 29.0327C105.645 33.8902 106.065 50.6813 107.564 56.0184C108.223 58.4172 108.943 60.2762 109.123 60.1563C114.04 57.4577 119.857 56.3783 121.356 57.8775C122.916 59.4366 123.395 58.4771 123.515 54.0395C123.635 49.7218 123.575 49.4819 122.076 48.9422C119.977 48.1626 116.019 48.1626 114.46 49.0022C112.781 49.9017 112.361 49.242 111.941 44.9243L111.582 41.2663L113.441 40.8465C116.679 40.1269 120.157 40.9664 121.776 42.9454C122.616 43.9648 123.395 44.7444 123.635 44.7444C123.815 44.7444 123.995 43.665 124.055 42.2857C124.115 40.9664 124.295 39.5871 124.475 39.2873C124.715 38.9875 124.355 37.7881 123.815 36.5887C122.376 33.5903 119.737 32.5109 115.599 33.2905C113.74 33.6503 112.241 33.6503 111.941 33.2905C111.042 32.4509 112.721 29.8723 115.06 28.433C116.979 27.2936 117.399 27.2337 119.917 27.8933C121.656 28.3731 123.215 29.3326 124.295 30.5319L125.914 32.4509L125.854 29.4525C125.854 27.7734 125.674 27.0538 125.554 27.7734C125.254 29.3925 124.595 29.5125 123.335 28.1932C122.796 27.7134 121.476 26.9938 120.457 26.694C115.12 25.1348 110.382 28.553 110.382 33.9501C110.382 37.1884 111.042 37.7281 112.721 35.6892C113.501 34.6697 114.46 34.3699 117.219 34.3099C120.397 34.25 120.817 34.3699 122.136 36.049C123.635 37.908 124.115 41.746 122.856 41.746C122.496 41.746 121.656 41.2663 121.057 40.7265C119.797 39.6471 114.46 39.2873 111.522 40.0669C110.022 40.4867 110.022 40.5466 110.262 45.7639C110.382 48.7023 110.742 51.2809 111.042 51.6408C111.402 52.0006 112.241 51.8207 113.321 51.161C114.46 50.5014 116.319 50.1416 118.718 50.1416H122.376V52.4803C122.376 56.0784 121.956 56.798 120.157 56.0784C117.878 55.2389 116.199 55.4188 112.601 57.0379L109.303 58.4771L108.583 56.5582C107.564 53.8596 107.084 31.1316 108.043 29.3925C108.463 28.553 108.523 27.7134 108.163 27.1137C107.744 26.3342 107.444 26.7539 106.844 29.0327Z" fill="black"/>
<path d="M82.747 21.411C81.7681 22.3146 82.2199 22.9924 83.5753 22.6911C85.9097 22.0134 87.4157 24.0466 87.8675 28.4141C88.0934 30.6732 88.6206 34.8901 89.0724 37.6762C89.4489 40.4624 89.5242 46.1854 89.223 50.327C88.7712 57.4054 88.6959 57.8572 87.1898 57.6313C85.8344 57.4054 85.6085 56.8782 85.6085 53.6403C85.5332 51.5318 85.0814 46.1101 84.4789 41.4413C83.6506 34.5889 83.6506 32.1792 84.4036 28.8659C85.4579 24.1219 85.1567 23.0677 82.747 23.4442C81.8434 23.5948 80.4879 23.3689 79.8102 22.9924C77.7018 21.9381 74.9156 23.0677 71.6776 26.3056C68.9667 29.0165 68.6655 29.7695 68.6655 32.9322C68.6655 36.0196 68.9667 36.8479 70.774 38.2034C72.4306 39.5588 73.5602 39.7847 77.0993 39.5588C81.3163 39.2576 81.3163 39.2576 81.8434 41.5166C82.0693 42.7968 82.4458 47.2396 82.747 51.3812C83.1988 59.7397 83.8012 60.7939 87.9428 60.7939C89.6748 60.7939 90.5031 60.4174 90.8043 59.4385C91.5573 56.6523 92.3104 49.6493 92.3857 44.9805C92.3857 40.9895 92.6116 40.1612 93.5152 40.3871C99.3887 41.9685 103.003 40.0859 103.606 35.0407C104.434 27.9623 96.2261 19.9803 91.2561 23.0677C90.5031 23.5948 89.9007 23.3689 89.1477 22.3146C88.1687 20.8839 83.8012 20.2815 82.747 21.411ZM99.0122 26.4562C103.304 30.7485 103.681 38.2034 99.6899 39.5588C96.6026 40.5377 92.7622 39.107 92.7622 36.9232C92.7622 35.4172 92.9881 35.2666 94.1929 35.9443C99.0875 38.5046 101.648 33.5346 97.5815 29.393C96.0754 27.887 95.1718 27.5858 93.4399 27.9623C90.6537 28.4894 89.5995 26.6068 91.7079 25.0255C94.0423 23.2936 96.3014 23.7454 99.0122 26.4562ZM78.8313 25.4773C79.1325 25.9291 79.8102 26.0797 80.4126 25.8538C81.0151 25.6279 81.4669 25.8538 81.4669 26.3809C81.4669 26.9834 80.4879 27.3599 78.9066 27.3599C75.5933 27.3599 73.9367 28.7906 73.9367 31.5015C73.9367 33.1581 74.3132 33.6852 75.4427 33.6852C77.4759 33.6852 80.7138 35.2666 80.7138 36.3208C80.7138 36.8479 79.1325 37.2244 76.6475 37.375C73.1836 37.5256 72.3553 37.2997 71.4517 35.869C69.6445 33.384 70.4728 29.9201 73.5602 27.0587C76.271 24.5737 78.003 24.0466 78.8313 25.4773ZM79.7349 29.6189C81.5422 31.4262 79.8855 32.7063 77.25 31.5015C75.6686 30.8238 75.4427 30.4472 76.1957 29.5436C77.4006 28.1129 78.3042 28.1129 79.7349 29.6189ZM97.2803 30.8238C98.1086 31.7274 98.7863 33.0828 98.7863 33.9111C98.7863 35.116 98.4098 35.3419 96.452 34.8901C95.1718 34.6642 93.5905 34.4383 93.0634 34.4383C91.9338 34.4383 91.7079 32.4051 92.461 30.3719C93.1387 28.64 95.473 28.8659 97.2803 30.8238Z" fill="black"/>
<path d="M161.83 21.6014C157.538 25.4418 159.194 30.2611 164.692 29.8846L167.854 29.6587L168.005 44.192C168.08 57.8216 168.155 58.8759 169.586 59.8548C170.414 60.4572 171.921 60.909 172.975 60.7584C175.083 60.5325 175.083 61.0596 174.255 44.3426C173.803 35.8334 174.481 31.0141 176.213 29.8846C176.665 29.5834 178.698 29.1316 180.656 28.9057C184.119 28.3786 184.27 28.3032 184.27 25.8936C184.27 24.5382 183.743 23.0321 183.216 22.505C181.484 21.1496 173.878 19.5682 168.758 19.4929C164.767 19.4929 163.863 19.7941 161.83 21.6014ZM179.978 23.7098C184.044 24.3875 183.818 26.6466 179.677 27.249C177.945 27.4749 175.836 28.3786 174.933 29.2822C173.427 30.7882 173.351 31.5412 173.502 45.1709C173.577 59.3277 173.577 59.4783 171.996 59.2524C169.661 58.8759 169.134 55.9391 168.984 42.0835C168.833 35.231 168.532 29.2069 168.231 28.6798C167.854 28.2279 166.8 27.7761 165.821 27.7761C163.487 27.7761 161.679 27.0231 161.679 26.1195C161.679 25.6677 162.207 25.5171 162.809 25.8183C163.487 26.0442 163.939 25.8183 163.939 25.1406C163.939 24.6135 164.541 23.9357 165.294 23.7851C167.327 23.258 176.815 23.258 179.978 23.7098Z" fill="black"/>
<path d="M146.054 21.0717C139.126 23.2555 136.189 27.5477 133.855 38.6171C132.424 45.6955 132.424 50.4395 133.78 53.7528C135.06 56.6896 138.223 60.1534 139.653 60.1534C140.18 60.1534 139.804 59.6263 138.9 58.9486C137.921 58.2709 136.415 56.0118 135.436 53.8281C133.93 50.4395 133.78 49.2347 134.307 45.5449C134.608 43.1352 135.06 41.0267 135.211 40.8008C135.738 40.2737 137.997 48.2557 137.545 49.0087C136.942 49.9877 138.75 51.8702 140.331 51.8702C141.159 51.8702 142.214 50.8913 142.967 49.5359C144.021 47.5027 144.397 47.2768 146.431 47.6533C147.711 47.8792 149.217 48.1051 149.819 48.1051C150.647 48.1051 150.873 48.7075 150.647 50.3642C150.422 51.8702 150.647 52.6232 151.325 52.6232C151.928 52.6232 152.304 51.6443 152.304 49.6865C152.304 46.9003 152.229 46.7497 148.765 45.8461C145.301 44.7918 145.301 44.7918 143.268 47.2015C142.138 48.5569 140.858 49.6112 140.406 49.6112C139.955 49.6112 139.051 47.8792 138.449 45.8461C137.47 42.6081 137.47 41.5539 138.298 38.7677C140.331 32.0658 141.159 30.7857 144.021 30.3339C145.452 30.1079 147.259 29.7314 147.937 29.5808C148.614 29.3549 149.518 29.8067 149.894 30.4845C150.572 31.614 150.723 31.614 151.551 29.9573C152.907 27.5477 152.831 21.9 151.476 20.6952C150.572 19.7916 149.744 19.8669 146.054 21.0717ZM150.045 25.6651V28.1501H145.753C143.343 28.1501 140.708 28.5266 139.879 28.9031C138.449 29.5808 138.449 29.5055 139.578 27.7736C141.009 25.4392 145.15 23.2555 148.012 23.2555C149.819 23.2555 150.045 23.5567 150.045 25.6651Z" fill="black"/>
<path d="M145.527 56.9155C144.473 57.9697 144.096 58.7227 144.699 58.5721C145.678 58.1956 148.388 54.8823 147.711 54.8823C147.56 54.8823 146.581 55.7859 145.527 56.9155Z" fill="black"/>
<path d="M191.049 22.152C190.116 22.5015 189.27 23.1055 189.19 23.6171C189.109 24.0436 188.946 24.8114 188.866 25.323C188.699 25.7503 189.069 28.8119 189.696 32.1265C190.238 35.3568 190.908 43.1836 191.223 49.4811C191.538 55.6935 192.014 61.053 192.273 61.3911C192.616 61.6433 193.294 61.2963 193.882 60.4393C195.478 58.2104 199.988 57.9122 199.158 60.1338C198.244 62.6116 199.51 61.4076 203.208 56.2639C205.224 53.4351 207.569 49.326 208.4 47.1044C210.141 42.1496 212.577 38.7208 213.355 39.9906C213.615 40.4138 213.619 40.8395 213.193 40.8435C212.853 40.8467 212.541 43.9148 212.576 47.5756C212.612 51.3216 212.894 54.1286 213.147 53.9559C213.401 53.7832 213.879 50.2878 214.181 46.1981C214.396 42.0241 214.864 37.422 215.105 35.8871C215.753 32.4753 214.047 32.1509 212.802 35.4833C212.304 36.8503 211.047 38.9907 210.039 40.4477C209.031 41.8196 207.189 45.1576 206.021 47.723C202.853 54.8199 201.417 56.0255 197.157 55.6402L193.493 55.3344L193.325 46.6515C193.281 41.969 192.881 35.7574 192.515 33.0364C191.509 25.7237 192.003 24.0161 194.983 23.9878C196.856 23.9701 197.542 24.4744 197.982 26.0028C198.249 27.1923 198.261 28.4693 198.01 28.9825C197.674 29.4114 197.85 30.0057 198.364 30.3414C198.792 30.5928 199.156 33.0585 199.181 35.6977C199.069 41.829 200.264 51.0982 201.206 51.6852C201.634 51.9366 202.309 51.249 202.724 50.1383C203.139 49.0275 203.971 46.9761 204.469 45.6091C212.445 24.7587 212.278 25.186 215.165 24.3072C219.58 22.9881 219.844 23.9222 218.84 34.7448C218.224 41.6472 218.175 45.3939 218.886 48.5375C220.395 55.0791 220.314 55.5056 217.413 54.852C214.854 54.3654 211.375 55.5904 211.389 57.0377C211.394 57.5485 213.61 57.868 216.335 57.8422L221.187 57.7961L221.026 40.7692C220.757 21.4444 220.494 20.5955 215.14 21.668C213.526 22.0239 211.828 22.5509 211.319 22.8111C210.389 23.5011 205.137 35.3006 203.567 40.2537C202.328 44.3523 201.059 45.2158 200.944 42.0666C200.847 40.7904 200.833 39.3431 200.915 39.0018C201.239 37.2107 198.215 23.6166 197.354 22.6031C196.32 21.3357 193.935 21.1881 191.049 22.152Z" fill="black"/>
<path d="M237.11 22.4575C237.385 23.1697 238.284 23.7866 239.269 23.9559C243.027 24.5457 245.991 26.2152 247.263 28.4368C247.99 29.6808 248.532 30.3011 248.615 29.6748C248.6 28.0667 244.177 23.3733 242.027 22.7682C240.952 22.421 239.339 21.9896 238.354 21.7309C237.279 21.4731 236.834 21.656 237.11 22.4575Z" fill="black"/>
<path d="M234.217 28.2034C232.466 32.062 232.13 34.2989 231.964 45.0222C231.777 53.6014 232.084 57.7085 232.807 58.5951C234.344 60.4568 241.32 61.1947 244.524 59.8241C248.35 58.1796 252.575 51.4384 253.062 46.2516C253.382 42.3172 253.197 41.6935 250.764 39.4829C248.51 37.36 248.235 36.6478 248.934 34.9436C249.634 33.418 249.537 32.6148 248.547 31.8201C247.915 31.2006 247.557 31.1147 247.919 31.558C249.184 33.0649 246.884 35.4991 243.76 35.8861C242.065 36.0809 240.636 36.1838 240.635 36.0945C240.617 34.129 242.734 31.2498 244.163 31.2362C245.146 31.2269 245.946 30.8619 245.941 30.3259C245.936 29.7898 245.132 29.7975 243.618 30.3479C241.661 31.1706 241.392 31.0838 241.647 29.7412C241.816 28.7568 242.705 28.2122 243.688 28.2923C245.477 28.454 245.476 28.3646 243.767 27.13C240.708 24.9253 239.921 26.7197 239.394 37.0891C239.172 42.0053 238.68 46.5668 237.59 54.1717C237.34 56.0503 236.636 57.2185 235.388 57.4984C233.517 58.0523 233.515 57.8736 233.758 45.8093C234.032 36.9613 234.526 32.5785 235.575 30.1562C237.936 24.6836 236.668 22.9086 234.217 28.2034ZM249.254 40.4801C251.235 42.0696 251.693 43.2267 251.629 45.9078C251.489 50.0191 247.882 55.9503 244.766 57.1414C242.541 58.056 236.737 58.3791 238.872 57.4654C239.407 57.2816 239.927 55.6684 239.911 53.9709C239.883 50.9334 239.883 50.9334 243.903 50.8952C247.744 50.8588 247.922 50.7677 247.81 48.3564C247.787 45.9442 247.787 45.9442 246.914 48.0969C246.391 49.4421 245.681 49.9849 244.695 49.6368C243.888 49.3765 242.456 49.122 241.563 49.1305C240.134 49.144 239.862 48.7892 240.293 47.0875C241.247 44.0406 241.957 43.5872 244.737 44.633C246.978 45.4158 247.067 45.415 246.073 44.1735C245.441 43.4648 244.184 42.8513 243.29 42.8597C242.308 42.8691 241.59 42.5185 241.585 42.0718C241.581 41.6251 241.393 40.644 241.118 39.9319C240.204 37.7068 246.462 38.0942 249.254 40.4801Z" fill="black"/>
<path d="M263.719 24.6788C262.017 26.6444 261.63 28.1388 261.671 32.4386C261.719 37.5411 260.548 41.0497 257.935 43.5399C255.776 45.6818 255.335 47.5781 255.627 54.1117L255.844 58.9258L257.858 59.5947C258.951 59.9857 261.076 60.3669 262.568 60.5248L265.265 60.7858L265.575 57.2281C265.786 55.2766 266.112 53.3815 266.339 53.0926C266.734 52.4008 275.671 51.628 275.219 52.3777C275.049 52.6086 275.224 52.8363 275.51 52.8336C275.854 52.8303 276.146 53.4009 276.153 54.1462C276.167 55.5795 279.184 59.335 279.809 58.6984C280.036 58.4669 281.812 58.278 283.818 58.259C287.372 58.1679 287.372 58.1679 287.528 56.4464C287.784 53.2905 285.206 41.3317 283.39 37.3354C282.746 35.9081 281.407 33.7421 280.305 32.4911C279.261 31.1823 277.924 29.2456 277.34 28.1617C275.237 24.0535 274.43 23.6025 269.27 23.6514C265.487 23.6873 264.399 23.927 263.719 24.6788ZM273.717 27.0494C274.244 28.1338 275.001 29.3307 275.291 29.7293C275.639 30.1273 275.931 30.6979 275.934 30.9845C275.936 31.2712 276.401 31.8975 276.978 32.2934C279.461 34.1046 283.66 41.5757 284.385 45.4677C284.568 46.6127 284.245 48.9092 283.411 51.6119C282.188 55.6943 282.076 55.9248 280.358 56.1131C278.525 56.3025 278.524 56.2451 277.804 52.8691C277.384 50.9237 276.796 49.3812 276.567 49.3834C276.28 49.3861 276.158 48.6419 276.207 47.7241C276.256 46.8062 276.016 45.7191 275.668 45.2637C275.32 44.8657 274.502 43.2107 273.913 41.6109C270.859 33.9568 270.109 33.4479 269.066 38.3887C268.571 40.5722 267.84 42.1272 266.761 43.1695C265 44.9063 264.776 45.4818 265.98 45.4703C266.668 45.4638 266.672 45.8651 266.06 47.8777C265.561 49.6598 265.052 50.41 264.022 50.6492C262.764 51.0051 262.765 51.0624 263.687 51.5697C264.667 52.1338 264.668 52.2484 263.72 55.0096C262.658 57.8864 261.746 58.5258 259.275 57.9185C258.068 57.6433 257.892 57.1863 257.508 52.9471L257.062 48.3071L259.053 46.6255C260.191 45.6973 261.379 44.0233 261.713 42.9307C262.938 39.1349 263.786 31.7879 263.246 29.2702C262.581 25.607 263.547 24.7378 268.652 24.9187C272.666 25.0526 272.724 25.0521 273.717 27.0494ZM272.013 40.7689C272.016 41.0555 272.194 41.6845 272.371 42.1989C272.606 42.8847 272.379 43.1162 271.462 43.1249C270.545 43.1336 270.313 42.9064 270.536 42.2163C270.703 41.6987 270.869 41.0664 270.866 40.7798C270.864 40.4931 271.148 40.2611 271.435 40.2583C271.779 40.2551 272.01 40.4822 272.013 40.7689ZM274.081 47.2282C274.555 48.8291 274.97 50.2586 274.971 50.3733C274.971 50.4306 273.309 50.5037 271.244 50.4086C268.205 50.3228 267.572 50.1568 267.853 49.4661C268.02 49.0058 268.467 47.7975 268.803 46.877C269.472 44.8638 270.154 44.284 271.874 44.2677C272.906 44.2579 273.313 44.8274 274.081 47.2282ZM286.047 51.4149C286.722 56.11 286.613 56.7417 285.065 56.7564C283.747 56.7689 283.63 56.598 283.898 54.5887C284.219 52.1776 284.596 49.6512 284.652 49.4213C284.708 49.3635 284.937 49.304 285.224 49.3012C285.51 49.2985 285.864 50.2699 286.047 51.4149Z" fill="black"/>
<path d="M300.63 22.5094L298.119 23.2643L297.703 30.8231C297.427 36.0248 296.499 40.9077 294.842 46.1225C292.083 54.9221 291.006 61.2686 292.378 60.362C292.862 60.0325 294.001 60.1841 294.898 60.5818C297.103 61.7794 298.225 60.144 299.465 53.8772C300.631 48.3421 300.798 40.2983 299.824 40.3075C299.499 40.3106 299.349 41.693 299.529 43.4785C299.708 45.1827 299.26 49.4112 298.562 52.8297C297.396 58.3647 297.077 59.0177 295.371 59.0338C293.665 59.05 293.5 58.8079 294.127 56.3649C294.52 54.9802 295.065 52.4567 295.294 50.9111C295.523 49.3654 296.308 46.4335 296.938 44.3967C298.359 40.0777 299.713 28.6107 298.965 26.8306C298.299 25.131 300.076 24.0581 303.65 24.0242C307.061 23.9918 307.143 24.0723 309.014 32.8279C309.696 36.2333 311.214 42.1491 312.388 46.0372C313.562 49.9253 314.327 53.4924 314.007 53.9829C313.767 54.3913 313.934 54.7959 314.421 54.7913C314.99 54.7859 315.238 55.271 315 55.9231C314.763 56.5752 314.932 57.2235 315.42 57.3813C317.132 57.9338 315.198 59.658 312.843 59.6804C309.919 59.7081 309.42 58.4943 309.172 49.5608C308.848 41.0342 307.154 33.7392 305.448 33.7553C304.636 33.763 304.478 34.252 304.896 35.5477C305.483 37.4918 306.916 51.5319 307.047 56.7297C307.152 59.247 307.483 59.8937 309.358 60.607C311.967 61.5571 316.591 60.8633 317.145 59.3959C317.303 58.9069 316.033 53.4762 314.27 47.4816C312.426 41.4877 310.738 34.7612 310.473 32.5704C309.86 27.8645 308.858 24.9496 307.052 23.0171C305.575 21.4064 304.437 21.336 300.63 22.5094Z" fill="black"/>
<path d="M301.248 36.3137C300.286 37.6226 299.73 39.0088 299.976 39.2502C300.223 39.5728 300.548 39.5697 300.709 39.4057C301.827 37.4455 303.498 33.774 303.255 33.7763C303.092 33.7779 302.21 34.9235 301.248 36.3137Z" fill="black"/>
<path d="M324.414 24.286C322.854 25.3479 322.349 27.3159 322.392 31.8966C322.555 35.2981 322.237 43.1543 321.773 49.4412C321.065 57.5629 321.228 60.9644 322.275 60.9545C323.061 60.947 323.694 58.716 323.799 55.9664C323.774 53.3489 324.134 49.9424 324.382 48.5003C324.63 47.0582 325.104 41.8182 325.45 36.8412C326.007 26.6268 327.558 24.5179 333.079 27.0832C335.313 27.9782 336.372 29.2771 335.992 30.5895C335.611 31.7711 334.991 35.4418 334.629 38.7174L333.77 44.7464L338.882 45.4832C341.766 45.9793 345.316 47.6472 347.035 49.4633C350.603 53.0943 350.392 58.4626 346.734 59.1517C344.906 59.5618 344.509 59.1729 345.019 57.7283C345.4 56.5467 344.594 54.3293 343.138 52.6415C340.624 49.7859 340.494 49.7871 342.221 52.5194C344.35 56.164 343.442 57.0888 337.425 57.4077C333.63 57.5746 332.317 57.0635 331.512 54.977C330.973 53.4114 331.087 51.5779 331.993 50.5222C333.157 49.0714 333.024 48.8109 331.458 49.3493C330.414 49.621 329.129 52.1201 328.761 54.7413C328.149 59.1972 328.283 59.5886 331.425 59.6897C333.259 59.8032 338.496 60.0152 343.079 60.2335L351.197 60.5491L351.151 55.7068C351.088 49.0322 346.974 43.0504 341.196 41.0111C336.599 39.3532 336.598 39.2223 337.331 33.7181C338.066 28.4757 337.801 28.0855 333.72 25.6374C328.718 22.6745 327.538 22.4239 324.414 24.286Z" fill="black"/>
<path d="M321.983 110.845C320.552 111.11 319.399 111.807 319.393 112.235C319.327 116.803 315.74 137.738 314.714 139.579C313.246 142.413 314.218 144.284 318.751 146.776C321.725 148.39 322.441 148.257 324.187 145.998C325.207 144.585 326.096 142.314 326.119 140.744C326.22 133.749 332.987 129.85 336.051 135.177C336.887 136.616 337.594 137.055 337.607 136.199C337.638 134.057 332.987 129.85 330.418 129.813C327.135 129.765 324.807 132.73 324.745 137.012C324.714 139.153 324.247 141.859 323.8 143.137C322.762 145.835 319.475 146.073 318.655 143.491C318.105 142.055 318.519 133.21 319.09 133.218C319.232 133.22 319.578 129.085 319.793 124.091C320.341 115.818 321.956 112.701 325.527 112.609C326.526 112.624 327.147 119.058 326.644 124.19C326.475 126.044 327.892 126.778 332.453 127.272C335.73 127.748 338.583 127.932 338.87 127.793C339.015 127.653 338.612 125.934 337.925 124.068C337.238 122.202 336.535 121.478 336.52 122.477C336.361 123.617 335.068 124.169 333.216 123.857C330.368 123.387 329.954 122.382 329.609 116.666C329.279 109.808 328.855 109.517 321.983 110.845Z" fill="black"/>
<path d="M341.185 115.834C338.605 116.511 336.446 117.764 336.435 118.478C336.425 119.192 338.138 119.216 340.718 118.54C344.731 117.456 345.014 117.603 344.956 121.599C344.923 123.883 345.61 125.749 346.324 125.76C347.18 125.772 347.788 123.211 347.834 120.071C347.879 116.93 347.488 114.355 346.915 114.489C346.202 114.479 343.622 115.155 341.185 115.834Z" fill="black"/>
<path d="M346.364 132.899C346.289 138.038 346.564 138.755 347.735 136.774C348.759 135.075 348.79 132.934 347.828 130.35C346.595 126.763 346.593 126.906 346.364 132.899Z" fill="black"/>
<path d="M337.95 142.057C338.18 145.915 338.602 146.349 342.462 145.977C347.752 145.482 348.041 145.201 346.233 141.891C345.397 140.451 344.688 140.155 344.675 141.012C344.634 143.867 339.22 143.075 338.405 140.207C338.138 138.919 337.843 139.628 337.95 142.057Z" fill="black"/>
<path d="M291.877 111.931C287.748 112.703 286.325 114.073 285.654 118.208C285.364 120.002 284.427 122.813 283.525 124.428C282.623 126.043 282.123 127.644 282.306 127.994C282.568 128.357 282.23 128.462 281.644 128.127C280.98 127.779 280.32 125.43 280.099 122.351C279.084 110.337 279.071 110.415 276.889 110.542C274.161 110.58 273.069 113.365 273.895 118.143C275.548 127.699 275.633 132.116 274.226 137.333C271.772 146.543 271.973 147.776 276.059 146.277C277.33 145.843 279.848 145.13 281.587 144.772C283.249 144.401 284.74 143.601 284.906 143.068C284.995 142.522 285.429 140.831 285.826 139.374C286.222 137.917 287.089 134.054 287.763 130.88C288.516 127.72 289.967 123.711 291.05 121.965C292.999 118.838 295.849 117.059 296.895 118.509C297.157 118.872 296.433 122.838 295.244 127.209C293.262 134.494 292.371 144.438 293.482 145.98C294.005 146.705 298.443 145.503 300.594 144.09C302.745 142.678 303.624 138.737 303.438 131.981C303.402 129.733 303.59 125.12 303.9 121.727C304.665 112.563 304.783 112.823 299.634 111.988C297.203 111.674 293.694 111.585 291.877 111.931ZM301.612 121.516C301.602 125.037 301.673 129.533 301.916 131.494C302.42 136.78 300.813 140.763 297.545 142.155C294.808 143.232 294.808 143.232 294.475 141.337C294.237 140.337 295.029 134.461 296.197 128.245C298.215 117.282 298.253 117.048 296.61 115.821C293.743 113.755 294.04 113.403 297.903 114.269L301.766 115.136L301.612 121.516ZM291.173 117.261C289.081 120.285 287.308 124.801 285.467 131.709C283.422 139.384 281.975 141.392 278.288 141.915L275.171 142.37L276.337 138.636C277.708 134.134 277.549 127.703 275.772 119.408C274.445 113.268 274.671 111.383 276.267 113.884C277.104 115.14 279.335 129.033 279.462 134.178C279.567 137.478 281.008 136.991 281.589 133.402C281.83 131.92 282.781 129.512 283.749 127.988C284.704 126.541 286.066 123.079 286.833 120.321C287.919 116.093 288.37 115.286 290.226 114.706C292.925 113.862 293.161 114.381 291.173 117.261Z" fill="black"/>
<path d="M251.549 110.717C249.342 111.706 247.647 113.554 247.534 115.106C247.469 116.005 247.889 115.871 248.883 114.629C249.608 113.697 251.056 112.981 252.118 113.058C253.834 113.182 253.961 113.685 254.22 121.424C254.457 128.34 254.886 130.342 256.767 133.846C257.995 136.153 258.809 138.512 258.517 139.148C257.557 141.049 252.817 141.855 245.137 141.296C241.052 140.999 236.027 141.209 233.774 141.702C230.102 142.503 225.859 142.113 227.004 141.046C227.261 140.9 227.041 139.406 226.495 137.888C225.896 135.955 225.785 131.841 226.254 125.386L226.954 115.746L228.48 118.485C229.272 120.021 230.148 123.781 230.413 126.921C230.912 133.61 231.122 134.118 233.852 134.973L235.859 135.612L236.554 126.053C237.054 118.04 237.33 116.5 238.392 116.577C239.291 116.643 239.547 117.647 239.432 120.349C238.546 133.672 238.604 134.005 241.06 135.251C244.472 136.895 247.052 136.426 248.467 133.9C249.596 131.929 249.598 130.779 248.764 125.298C247.659 117.908 246.879 116.209 246.785 120.883C246.731 122.768 246.851 124.502 247.16 124.771C247.381 125.115 247.484 127.094 247.323 129.3C247.05 133.058 246.957 133.216 244.669 133.049C243.28 132.948 241.997 132.526 241.787 132.018C241.572 131.592 241.315 127.22 241.251 122.452C241.268 117.69 240.993 113.563 240.69 113.213C239.781 112.161 237.327 114.282 236.04 117.31C235.249 119.141 234.661 122.712 234.593 125.911C234.523 130.258 234.289 131.227 233.525 130.432C232.989 129.9 232.227 127.956 231.873 126.041C231.514 124.208 230.607 120.857 229.945 118.674C229.2 116.484 228.719 114.067 228.784 113.169C228.85 112.27 228.361 111.084 227.749 110.465C226.746 109.571 226.402 109.792 225.255 112.009C224.289 113.992 223.795 117.405 223.523 124.531C223.008 139.524 224.658 146.214 228.82 145.449C229.981 145.287 231.89 145.015 233.046 144.935C234.202 144.854 235.112 144.756 235.118 144.675C235.124 144.593 240.371 144.728 251.593 145.133C255.194 145.313 259.564 141.688 259.808 138.338C259.908 136.949 259.002 133.598 257.885 130.889C256.122 126.901 255.71 124.653 255.735 118.659C255.769 110.284 255.123 109.005 251.549 110.717Z" fill="black"/>
<path d="M196.027 110.35C193.836 112.965 191.222 122.151 190.798 128.793C190.656 131.267 190.02 135.577 189.455 138.333C187.901 145.752 187.901 145.894 191.08 145.894C193.2 145.894 194.26 145.399 195.673 143.774C198.571 140.523 203.446 140.947 205.496 144.551C206.768 146.671 208.181 147.307 208.181 145.611C208.181 145.116 209.029 144.48 210.159 144.268C212.279 143.844 215.247 139.463 215.247 136.708C215.247 132.821 200.055 109.149 197.581 109.149C197.299 109.149 196.592 109.714 196.027 110.35ZM207.333 125.755C212.633 134.658 213.41 136.637 212.35 138.686C211.078 140.947 208.251 141.513 206.98 139.817C206.414 139.11 206.132 137.909 206.344 137.273C206.485 136.566 206.344 135.86 206.061 135.648C205.708 135.436 205.213 133.81 204.93 131.973C204.577 129.429 203.87 128.157 201.892 126.32C200.479 125.048 198.995 123.988 198.571 123.988C197.511 123.988 196.733 127.592 196.804 131.902C196.945 135.93 195.461 139.817 193.412 140.947C191.575 141.937 190.303 141.23 190.868 139.534C191.08 138.827 191.716 135.789 192.282 132.75C192.918 129.641 193.483 126.532 193.695 125.755C193.836 124.978 194.119 123.564 194.26 122.575C194.402 121.586 195.108 118.971 195.815 116.781L197.087 112.753L200.337 116.074C202.104 117.911 205.284 122.222 207.333 125.755ZM202.174 134.517C201.75 134.87 200.761 135.365 199.913 135.648C198.641 136.001 198.359 135.86 198.712 135.012C198.924 134.376 199.984 133.881 200.973 133.881C202.104 133.881 202.528 134.164 202.174 134.517ZM203.234 138.121C203.234 138.474 202.245 138.827 201.044 138.827C199.843 138.827 199.065 138.545 199.348 138.121C199.56 137.697 200.549 137.414 201.538 137.414C202.457 137.414 203.234 137.697 203.234 138.121Z" fill="black"/>
<path d="M165.316 110.111C164.573 110.834 163.455 112.537 162.907 113.814C162.353 115.168 161.666 116.204 161.358 116.184C161.05 116.163 159.748 114.84 158.46 113.286C157.25 111.738 155.947 110.415 155.644 110.317C155.337 110.297 154.347 110.077 153.516 109.789C151.465 109.267 150.634 110.138 148.204 115.308C146.23 119.426 143.852 130.781 143.222 139.084C142.904 142.694 143.135 143.868 144.505 145.35L146.085 147.155L146.197 145.463C146.351 143.155 148.079 142.729 150.751 144.375L152.982 145.683L154.053 142.354C154.638 140.539 155.186 138.103 155.268 136.872C155.483 133.641 156.493 131.236 157.473 131.61C157.924 131.795 158.765 133.087 159.288 134.512C160.356 137.056 161.432 137.128 161.591 134.743C161.637 134.051 162.411 132.866 163.309 132.153C164.857 130.942 164.934 130.948 164.842 132.332C164.704 134.409 167.572 141.245 169.772 144.173C171.48 146.373 171.706 146.465 172.48 145.28C172.988 144.619 174.105 144.075 174.875 144.126C175.721 144.182 177.152 143.582 178.054 142.792C180.515 140.638 180.382 136.843 177.648 131.484C173.559 123.254 172.097 119.68 171.666 116.869C171.143 113.126 168.788 109.029 167.101 108.839C166.87 108.824 166.06 109.388 165.316 110.111ZM167.471 114.89C168.235 116.178 169.43 119.116 170.123 121.48C170.893 123.849 172.842 128.229 174.504 131.121C179.059 139.305 179.064 139.228 173.792 140.654L171.192 141.409L169.469 137.122C168.54 134.819 167.652 130.742 167.514 128.183C167.215 122.214 166.077 120.747 164.949 124.922C164.734 125.835 163.852 127.476 163.088 128.507L161.647 130.42L159.606 127.425C155.938 122.159 155.102 123.108 153.55 134.826C153.12 137.811 152.54 140.708 152.284 141.078C152.022 141.524 150.387 141.724 148.617 141.606L145.54 141.401L146.529 133.509C147.123 129.221 147.749 124.473 148 123.021C148.615 119.585 152.968 113.384 154.665 113.42C156.127 113.517 159.564 118.768 159.425 120.845C159.144 125.076 162.261 121.189 164.066 114.973C164.881 112.014 165.655 111.988 167.471 114.89Z" fill="black"/>
</svg>
