<svg width="974" height="178" viewBox="0 0 974 178" fill="none" xmlns="http://www.w3.org/2000/svg">
<g filter="url(#filter0_d_702_79)">
<path d="M758 20C758 22.9547 758.582 25.8805 759.713 28.6104C760.844 31.3402 762.501 33.8208 764.59 35.9102C766.679 37.9995 769.16 39.6564 771.89 40.7871C774.619 41.9178 777.545 42.5 780.5 42.5C783.455 42.5 786.381 41.9178 789.11 40.7871C791.84 39.6564 794.321 37.9995 796.41 35.9102C798.499 33.8208 800.156 31.3402 801.287 28.6104C802.418 25.8805 803 22.9547 803 20H937C937 23.0204 937.595 26.0113 938.751 28.8018C939.907 31.5922 941.601 34.128 943.736 36.2637C945.872 38.3994 948.408 40.0932 951.198 41.249C953.989 42.4049 956.98 43 960 43V147C956.98 147 953.989 147.595 951.198 148.751C948.408 149.907 945.872 151.601 943.736 153.736C941.601 155.872 939.907 158.408 938.751 161.198C937.595 163.989 937 166.98 937 170H803C803 167.045 802.418 164.119 801.287 161.39C800.156 158.66 798.499 156.179 796.41 154.09C794.321 152.001 791.84 150.344 789.11 149.213C786.381 148.082 783.455 147.5 780.5 147.5C777.545 147.5 774.619 148.082 771.89 149.213C769.16 150.344 766.679 152.001 764.59 154.09C762.501 156.179 760.844 158.66 759.713 161.39C758.582 164.119 758 167.045 758 170H24C18.4772 170 14 165.523 14 160V30C14 24.4772 18.4772 20 24 20H758Z" fill="#575757"/>
</g>
<path d="M35 60.68H38C39.0133 58.8133 39.8 56.9067 40.36 54.96C40.92 52.9867 41.3333 51.0267 41.6 49.08C41.8933 47.1333 42.0667 45.24 42.12 43.4C42.2 41.56 42.24 39.8267 42.24 38.2V34.44H59.92V60.68H63.32V70.6H60.6V63H37.72V70.6H35V60.68ZM57.2 60.68V36.76H44.96V37.72C44.96 39.32 44.9333 41.0667 44.88 42.96C44.8533 44.8267 44.7067 46.76 44.44 48.76C44.1733 50.76 43.76 52.7733 43.2 54.8C42.6667 56.8267 41.8933 58.7867 40.88 60.68H57.2ZM74.3128 63.56C72.6595 63.56 71.2461 63.28 70.0728 62.72C68.8995 62.1333 67.9395 61.3467 67.1928 60.36C66.4461 59.3467 65.8861 58.1867 65.5128 56.88C65.1661 55.5733 64.9928 54.1733 64.9928 52.68C64.9928 51.32 65.1661 49.9867 65.5128 48.68C65.8861 47.3733 66.4461 46.2133 67.1928 45.2C67.9395 44.16 68.8995 43.3333 70.0728 42.72C71.2461 42.08 72.6595 41.76 74.3128 41.76C75.9661 41.76 77.3795 42.0933 78.5528 42.76C79.7261 43.4267 80.6728 44.3067 81.3928 45.4C82.1395 46.4667 82.6728 47.7067 82.9928 49.12C83.3128 50.5067 83.4461 51.92 83.3928 53.36H67.5128C67.5128 54.2933 67.6328 55.24 67.8728 56.2C68.1395 57.16 68.5528 58.0267 69.1128 58.8C69.6728 59.5733 70.3795 60.2133 71.2328 60.72C72.0861 61.2267 73.1128 61.48 74.3128 61.48C76.1528 61.48 77.5928 61 78.6328 60.04C79.6728 59.08 80.3928 57.8 80.7928 56.2H83.3128C82.7795 58.5467 81.7928 60.36 80.3528 61.64C78.9395 62.92 76.9261 63.56 74.3128 63.56ZM80.8728 51.24C80.8461 50.28 80.6728 49.36 80.3528 48.48C80.0595 47.6 79.6328 46.8267 79.0728 46.16C78.5128 45.4667 77.8328 44.92 77.0328 44.52C76.2328 44.0933 75.3261 43.88 74.3128 43.88C73.2728 43.88 72.3528 44.0933 71.5528 44.52C70.7528 44.92 70.0728 45.4667 69.5128 46.16C68.9528 46.8267 68.4995 47.6133 68.1528 48.52C67.8328 49.4 67.6195 50.3067 67.5128 51.24H80.8728ZM91.975 44.48H84.335V42.36H102.135V44.48H94.495V63H91.975V44.48ZM113.229 63.56C111.656 63.56 110.256 63.28 109.029 62.72C107.829 62.1333 106.816 61.3467 105.989 60.36C105.163 59.3733 104.536 58.2267 104.109 56.92C103.683 55.5867 103.469 54.1733 103.469 52.68C103.469 51.2133 103.683 49.8133 104.109 48.48C104.536 47.1467 105.163 45.9867 105.989 45C106.816 44.0133 107.829 43.2267 109.029 42.64C110.256 42.0533 111.656 41.76 113.229 41.76C115.443 41.76 117.309 42.3467 118.829 43.52C120.376 44.6933 121.296 46.4667 121.589 48.84H119.069C118.723 47.2933 118.083 46.08 117.149 45.2C116.216 44.32 114.909 43.88 113.229 43.88C112.029 43.88 110.976 44.1333 110.069 44.64C109.163 45.1467 108.403 45.8133 107.789 46.64C107.203 47.4667 106.749 48.4133 106.429 49.48C106.136 50.52 105.989 51.5867 105.989 52.68C105.989 53.7733 106.136 54.8533 106.429 55.92C106.749 56.96 107.203 57.8933 107.789 58.72C108.403 59.5467 109.163 60.2133 110.069 60.72C110.976 61.2267 112.029 61.48 113.229 61.48C114.003 61.48 114.736 61.3333 115.429 61.04C116.123 60.7467 116.736 60.3467 117.269 59.84C117.803 59.3067 118.243 58.68 118.589 57.96C118.936 57.24 119.149 56.4533 119.229 55.6H121.749C121.403 58.1067 120.483 60.0667 118.989 61.48C117.496 62.8667 115.576 63.56 113.229 63.56ZM125.252 42.36H127.772V52.96L139.212 42.36H142.572L133.812 50.44L143.092 63H139.932L131.972 52.16L127.772 56.04V63H125.252V42.36ZM145.133 42.36H147.653V60.04L159.053 42.36H162.173V63H159.653V45.32L148.253 63H145.133V42.36ZM166.891 42.36H169.411V60.04L180.811 42.36H183.931V63H181.411V45.32L170.011 63H166.891V42.36ZM175.331 39.32C173.651 39.32 172.345 38.88 171.411 38C170.478 37.0933 169.905 35.8 169.691 34.12H171.251C171.385 35.1333 171.798 35.9333 172.491 36.52C173.211 37.1067 174.171 37.4 175.371 37.4C176.518 37.4 177.451 37.12 178.171 36.56C178.918 35.9733 179.398 35.16 179.611 34.12H181.171C180.878 35.8 180.251 37.0933 179.291 38C178.331 38.88 177.011 39.32 175.331 39.32ZM193.209 38.88V34.2H194.889V38.88L199.449 37.2L200.049 38.96L195.489 40.44L198.489 44.68L196.929 45.64L193.969 41.32L190.849 45.56L189.449 44.48L192.529 40.44L188.049 38.84L188.769 37.16L193.209 38.88Z" fill="#D9D9D9"/>
<path d="M38.168 145.144C38.3813 146.68 38.9893 147.832 39.992 148.6C41.016 149.347 42.264 149.72 43.736 149.72C44.568 149.72 45.3147 149.571 45.976 149.272C46.6587 148.973 47.2347 148.568 47.704 148.056C48.1733 147.523 48.5253 146.915 48.76 146.232C49.016 145.528 49.144 144.771 49.144 143.96C49.144 143.128 49.0053 142.36 48.728 141.656C48.472 140.952 48.0987 140.344 47.608 139.832C47.1387 139.32 46.552 138.925 45.848 138.648C45.1653 138.371 44.3973 138.232 43.544 138.232C42.52 138.232 41.6027 138.424 40.792 138.808C39.9813 139.171 39.2667 139.757 38.648 140.568L36.952 140.344L38.776 128.664H49.976V130.392H40.504L39.096 137.976C39.544 137.699 39.9493 137.464 40.312 137.272C40.696 137.08 41.08 136.931 41.464 136.824C41.848 136.696 42.2427 136.611 42.648 136.568C43.0747 136.525 43.544 136.504 44.056 136.504C45.08 136.504 46.0293 136.675 46.904 137.016C47.7787 137.357 48.536 137.848 49.176 138.488C49.816 139.128 50.3067 139.917 50.648 140.856C51.0107 141.773 51.192 142.808 51.192 143.96C51.192 145.155 50.9893 146.221 50.584 147.16C50.2 148.077 49.6773 148.856 49.016 149.496C48.3547 150.136 47.5867 150.627 46.712 150.968C45.8587 151.288 44.9733 151.448 44.056 151.448C42.9893 151.448 41.9867 151.341 41.048 151.128C40.1307 150.915 39.32 150.563 38.616 150.072C37.912 149.56 37.336 148.909 36.888 148.12C36.4613 147.309 36.2053 146.317 36.12 145.144H38.168ZM67.2453 139.896C67.2453 138.68 67.1706 137.496 67.0213 136.344C66.8933 135.171 66.6266 134.125 66.2213 133.208C65.8159 132.291 65.2399 131.555 64.4933 131C63.7679 130.445 62.8079 130.168 61.6133 130.168C60.4826 130.168 59.5546 130.456 58.8293 131.032C58.1253 131.587 57.5706 132.333 57.1653 133.272C56.7599 134.211 56.4719 135.277 56.3013 136.472C56.1519 137.667 56.0773 138.883 56.0773 140.12C56.0773 141.571 56.1626 142.893 56.3333 144.088C56.5253 145.261 56.8346 146.264 57.2613 147.096C57.6879 147.928 58.2533 148.579 58.9573 149.048C59.6826 149.496 60.5893 149.72 61.6773 149.72C62.8933 149.72 63.8639 149.421 64.5893 148.824C65.3359 148.227 65.9013 147.459 66.2853 146.52C66.6693 145.581 66.9253 144.525 67.0533 143.352C67.1813 142.179 67.2453 141.027 67.2453 139.896ZM61.6773 128.44C62.7866 128.44 63.7466 128.611 64.5573 128.952C65.3679 129.272 66.0506 129.72 66.6053 130.296C67.1813 130.872 67.6399 131.544 67.9813 132.312C68.3439 133.08 68.6213 133.901 68.8133 134.776C69.0053 135.629 69.1333 136.515 69.1973 137.432C69.2613 138.349 69.2933 139.245 69.2933 140.12C69.2933 141.613 69.1866 143.043 68.9733 144.408C68.7599 145.773 68.3653 146.979 67.7893 148.024C67.2346 149.069 66.4666 149.901 65.4853 150.52C64.5039 151.139 63.2346 151.448 61.6773 151.448C60.1199 151.448 58.8399 151.139 57.8373 150.52C56.8559 149.901 56.0773 149.069 55.5013 148.024C54.9466 146.957 54.5626 145.731 54.3493 144.344C54.1359 142.936 54.0293 141.453 54.0293 139.896C54.0293 138.467 54.1253 137.069 54.3173 135.704C54.5093 134.339 54.8719 133.123 55.4053 132.056C55.9599 130.968 56.7386 130.093 57.7413 129.432C58.7439 128.771 60.0559 128.44 61.6773 128.44ZM85.0265 139.896C85.0265 138.68 84.9518 137.496 84.8025 136.344C84.6745 135.171 84.4078 134.125 84.0025 133.208C83.5972 132.291 83.0212 131.555 82.2745 131C81.5492 130.445 80.5892 130.168 79.3945 130.168C78.2638 130.168 77.3358 130.456 76.6105 131.032C75.9065 131.587 75.3518 132.333 74.9465 133.272C74.5412 134.211 74.2532 135.277 74.0825 136.472C73.9332 137.667 73.8585 138.883 73.8585 140.12C73.8585 141.571 73.9438 142.893 74.1145 144.088C74.3065 145.261 74.6158 146.264 75.0425 147.096C75.4692 147.928 76.0345 148.579 76.7385 149.048C77.4638 149.496 78.3705 149.72 79.4585 149.72C80.6745 149.72 81.6452 149.421 82.3705 148.824C83.1172 148.227 83.6825 147.459 84.0665 146.52C84.4505 145.581 84.7065 144.525 84.8345 143.352C84.9625 142.179 85.0265 141.027 85.0265 139.896ZM79.4585 128.44C80.5678 128.44 81.5278 128.611 82.3385 128.952C83.1492 129.272 83.8318 129.72 84.3865 130.296C84.9625 130.872 85.4212 131.544 85.7625 132.312C86.1252 133.08 86.4025 133.901 86.5945 134.776C86.7865 135.629 86.9145 136.515 86.9785 137.432C87.0425 138.349 87.0745 139.245 87.0745 140.12C87.0745 141.613 86.9678 143.043 86.7545 144.408C86.5412 145.773 86.1465 146.979 85.5705 148.024C85.0158 149.069 84.2478 149.901 83.2665 150.52C82.2852 151.139 81.0158 151.448 79.4585 151.448C77.9012 151.448 76.6212 151.139 75.6185 150.52C74.6372 149.901 73.8585 149.069 73.2825 148.024C72.7278 146.957 72.3438 145.731 72.1305 144.344C71.9172 142.936 71.8105 141.453 71.8105 139.896C71.8105 138.467 71.9065 137.069 72.0985 135.704C72.2905 134.339 72.6532 133.123 73.1865 132.056C73.7412 130.968 74.5198 130.093 75.5225 129.432C76.5252 128.771 77.8372 128.44 79.4585 128.44ZM91.6078 151V148.184H93.9438V151H91.6078ZM111.714 139.896C111.714 138.68 111.639 137.496 111.49 136.344C111.362 135.171 111.095 134.125 110.69 133.208C110.285 132.291 109.709 131.555 108.962 131C108.237 130.445 107.277 130.168 106.082 130.168C104.951 130.168 104.023 130.456 103.298 131.032C102.594 131.587 102.039 132.333 101.634 133.272C101.229 134.211 100.941 135.277 100.77 136.472C100.621 137.667 100.546 138.883 100.546 140.12C100.546 141.571 100.631 142.893 100.802 144.088C100.994 145.261 101.303 146.264 101.73 147.096C102.157 147.928 102.722 148.579 103.426 149.048C104.151 149.496 105.058 149.72 106.146 149.72C107.362 149.72 108.333 149.421 109.058 148.824C109.805 148.227 110.37 147.459 110.754 146.52C111.138 145.581 111.394 144.525 111.522 143.352C111.65 142.179 111.714 141.027 111.714 139.896ZM106.146 128.44C107.255 128.44 108.215 128.611 109.026 128.952C109.837 129.272 110.519 129.72 111.074 130.296C111.65 130.872 112.109 131.544 112.45 132.312C112.813 133.08 113.09 133.901 113.282 134.776C113.474 135.629 113.602 136.515 113.666 137.432C113.73 138.349 113.762 139.245 113.762 140.12C113.762 141.613 113.655 143.043 113.442 144.408C113.229 145.773 112.834 146.979 112.258 148.024C111.703 149.069 110.935 149.901 109.954 150.52C108.973 151.139 107.703 151.448 106.146 151.448C104.589 151.448 103.309 151.139 102.306 150.52C101.325 149.901 100.546 149.069 99.97 148.024C99.4153 146.957 99.0313 145.731 98.818 144.344C98.6047 142.936 98.498 141.453 98.498 139.896C98.498 138.467 98.594 137.069 98.786 135.704C98.978 134.339 99.3407 133.123 99.874 132.056C100.429 130.968 101.207 130.093 102.21 129.432C103.213 128.771 104.525 128.44 106.146 128.44ZM129.495 139.896C129.495 138.68 129.421 137.496 129.271 136.344C129.143 135.171 128.877 134.125 128.471 133.208C128.066 132.291 127.49 131.555 126.743 131C126.018 130.445 125.058 130.168 123.863 130.168C122.733 130.168 121.805 130.456 121.079 131.032C120.375 131.587 119.821 132.333 119.415 133.272C119.01 134.211 118.722 135.277 118.551 136.472C118.402 137.667 118.327 138.883 118.327 140.12C118.327 141.571 118.413 142.893 118.583 144.088C118.775 145.261 119.085 146.264 119.511 147.096C119.938 147.928 120.503 148.579 121.207 149.048C121.933 149.496 122.839 149.72 123.927 149.72C125.143 149.72 126.114 149.421 126.839 148.824C127.586 148.227 128.151 147.459 128.535 146.52C128.919 145.581 129.175 144.525 129.303 143.352C129.431 142.179 129.495 141.027 129.495 139.896ZM123.927 128.44C125.037 128.44 125.997 128.611 126.807 128.952C127.618 129.272 128.301 129.72 128.855 130.296C129.431 130.872 129.89 131.544 130.231 132.312C130.594 133.08 130.871 133.901 131.063 134.776C131.255 135.629 131.383 136.515 131.447 137.432C131.511 138.349 131.543 139.245 131.543 140.12C131.543 141.613 131.437 143.043 131.223 144.408C131.01 145.773 130.615 146.979 130.039 148.024C129.485 149.069 128.717 149.901 127.735 150.52C126.754 151.139 125.485 151.448 123.927 151.448C122.37 151.448 121.09 151.139 120.087 150.52C119.106 149.901 118.327 149.069 117.751 148.024C117.197 146.957 116.813 145.731 116.599 144.344C116.386 142.936 116.279 141.453 116.279 139.896C116.279 138.467 116.375 137.069 116.567 135.704C116.759 134.339 117.122 133.123 117.655 132.056C118.21 130.968 118.989 130.093 119.991 129.432C120.994 128.771 122.306 128.44 123.927 128.44ZM135.917 151V128.152H141.933C144.727 128.152 146.797 128.717 148.141 129.848C149.506 130.979 150.189 132.621 150.189 134.776C150.189 136.227 149.858 137.475 149.197 138.52C148.535 139.544 147.554 140.333 146.253 140.888C144.973 141.443 143.383 141.72 141.485 141.72H138.797V151H135.917ZM133.133 146.648V144.568H144.077V146.648H133.133ZM133.133 141.72V139.288H140.461V141.72H133.133ZM141.069 139.288C142.37 139.288 143.469 139.149 144.365 138.872C145.282 138.595 145.986 138.136 146.477 137.496C146.967 136.856 147.213 135.981 147.213 134.872C147.213 133.421 146.765 132.344 145.869 131.64C144.973 130.936 143.575 130.584 141.677 130.584H138.797V139.288H141.069Z" fill="#D9D9D9"/>
<line x1="779.5" y1="43" x2="779.5" y2="146" stroke="white" stroke-dasharray="12 12"/>
<rect x="23.75" y="28.75" width="729.5" height="132.5" rx="9.25" stroke="#D9D9D9" stroke-width="1.5"/>
<defs>
<filter id="filter0_d_702_79" x="0" y="0" width="974" height="178" filterUnits="userSpaceOnUse" color-interpolation-filters="sRGB">
<feFlood flood-opacity="0" result="BackgroundImageFix"/>
<feColorMatrix in="SourceAlpha" type="matrix" values="0 0 0 0 0 0 0 0 0 0 0 0 0 0 0 0 0 0 127 0" result="hardAlpha"/>
<feOffset dy="-6"/>
<feGaussianBlur stdDeviation="7"/>
<feComposite in2="hardAlpha" operator="out"/>
<feColorMatrix type="matrix" values="0 0 0 0 0 0 0 0 0 0 0 0 0 0 0 0 0 0 0.25 0"/>
<feBlend mode="normal" in2="BackgroundImageFix" result="effect1_dropShadow_702_79"/>
<feBlend mode="normal" in="SourceGraphic" in2="effect1_dropShadow_702_79" result="shape"/>
</filter>
</defs>
</svg>
