<svg width="974" height="178" viewBox="0 0 974 178" fill="none" xmlns="http://www.w3.org/2000/svg">
<g filter="url(#filter0_d_616_9401)">
<path d="M758 20C758 22.9547 758.582 25.8805 759.713 28.6104C760.844 31.3402 762.501 33.8208 764.59 35.9102C766.679 37.9995 769.16 39.6564 771.89 40.7871C774.619 41.9178 777.545 42.5 780.5 42.5C783.455 42.5 786.381 41.9178 789.11 40.7871C791.84 39.6564 794.321 37.9995 796.41 35.9102C798.499 33.8208 800.156 31.3402 801.287 28.6104C802.418 25.8805 803 22.9547 803 20H937C937 23.0204 937.595 26.0113 938.751 28.8018C939.907 31.5922 941.601 34.128 943.736 36.2637C945.872 38.3994 948.408 40.0932 951.198 41.249C953.989 42.4049 956.98 43 960 43V147C956.98 147 953.989 147.595 951.198 148.751C948.408 149.907 945.872 151.601 943.736 153.736C941.601 155.872 939.907 158.408 938.751 161.198C937.595 163.989 937 166.98 937 170H803C803 167.045 802.418 164.119 801.287 161.39C800.156 158.66 798.499 156.179 796.41 154.09C794.321 152.001 791.84 150.344 789.11 149.213C786.381 148.082 783.455 147.5 780.5 147.5C777.545 147.5 774.619 148.082 771.89 149.213C769.16 150.344 766.679 152.001 764.59 154.09C762.501 156.179 760.844 158.66 759.713 161.39C758.582 164.119 758 167.045 758 170H24C18.4772 170 14 165.523 14 160V30C14 24.4772 18.4772 20 24 20H758Z" fill="#575757"/>
</g>
<path d="M37.88 36.44H49.96C51.16 36.44 52.3067 36.56 53.4 36.8C54.52 37.0133 55.4933 37.4 56.32 37.96C57.1733 38.4933 57.8533 39.2133 58.36 40.12C58.8667 41 59.12 42.1067 59.12 43.44C59.12 44.1867 59 44.92 58.76 45.64C58.52 46.3333 58.1733 46.9733 57.72 47.56C57.2933 48.12 56.7733 48.6 56.16 49C55.5733 49.4 54.9067 49.68 54.16 49.84V49.92C56 50.16 57.4667 50.92 58.56 52.2C59.6533 53.4533 60.2 55.0133 60.2 56.88C60.2 57.5733 60.0933 58.3867 59.88 59.32C59.6933 60.2267 59.2533 61.1067 58.56 61.96C57.8667 62.8133 56.84 63.5333 55.48 64.12C54.12 64.7067 52.28 65 49.96 65H37.88V36.44ZM49.96 62.68C50.9733 62.68 51.9333 62.6 52.84 62.44C53.7467 62.2533 54.5467 61.9333 55.24 61.48C55.9333 61.0267 56.48 60.4267 56.88 59.68C57.28 58.9333 57.48 57.9733 57.48 56.8C57.48 54.96 56.8267 53.5867 55.52 52.68C54.24 51.7467 52.3867 51.28 49.96 51.28H40.6V62.68H49.96ZM49.96 48.96C51.0267 48.96 51.96 48.84 52.76 48.6C53.5867 48.3333 54.2667 47.9867 54.8 47.56C55.3333 47.1067 55.7333 46.5867 56 46C56.2667 45.4133 56.4 44.7867 56.4 44.12C56.4 40.5467 54.2533 38.76 49.96 38.76H40.6V48.96H49.96ZM71.3197 65.56C68.573 65.56 66.493 64.9333 65.0797 63.68C63.693 62.4 62.933 60.68 62.7997 58.52H65.3197C65.4264 59.2667 65.613 59.9467 65.8797 60.56C66.1464 61.1733 66.5197 61.6933 66.9997 62.12C67.4797 62.5467 68.0664 62.88 68.7597 63.12C69.4797 63.3333 70.3464 63.44 71.3597 63.44C72.5064 63.44 73.4397 63.3067 74.1597 63.04C74.8797 62.7733 75.4397 62.4267 75.8397 62C76.2664 61.5467 76.5597 61.0533 76.7197 60.52C76.8797 59.9867 76.9597 59.4533 76.9597 58.92C76.9597 57.88 76.613 57 75.9197 56.28C75.253 55.56 74.133 55.2 72.5597 55.2H69.1197V53.28H71.9597C73.1597 53.28 74.1864 52.96 75.0397 52.32C75.893 51.68 76.3197 50.7467 76.3197 49.52C76.3197 49.1467 76.253 48.7467 76.1197 48.32C76.013 47.8933 75.773 47.5067 75.3997 47.16C75.0264 46.7867 74.5064 46.4933 73.8397 46.28C73.173 46.04 72.3064 45.92 71.2397 45.92C69.3464 45.92 67.973 46.3467 67.1197 47.2C66.293 48.0267 65.813 49.08 65.6797 50.36H63.1997C63.3064 49.1067 63.5997 48.0667 64.0797 47.24C64.5597 46.3867 65.1597 45.7067 65.8797 45.2C66.5997 44.6933 67.4264 44.3333 68.3597 44.12C69.293 43.9067 70.2664 43.8 71.2797 43.8C72.3464 43.8 73.333 43.9067 74.2397 44.12C75.173 44.3067 75.9864 44.6267 76.6797 45.08C77.373 45.5067 77.9197 46.08 78.3197 46.8C78.7197 47.4933 78.9197 48.3467 78.9197 49.36C78.9197 49.9733 78.8264 50.5333 78.6397 51.04C78.453 51.5467 78.1997 52 77.8797 52.4C77.5864 52.8 77.2397 53.1333 76.8397 53.4C76.4397 53.6667 76.0264 53.84 75.5997 53.92V54C76.0797 54.08 76.5597 54.2267 77.0397 54.44C77.5197 54.6533 77.9464 54.96 78.3197 55.36C78.693 55.7333 78.9997 56.2133 79.2397 56.8C79.4797 57.36 79.5997 58.04 79.5997 58.84C79.5997 59.96 79.373 60.9467 78.9197 61.8C78.4664 62.6267 77.853 63.32 77.0797 63.88C76.333 64.44 75.453 64.8533 74.4397 65.12C73.453 65.4133 72.413 65.56 71.3197 65.56ZM83.4938 44.36H85.8138V48.28H85.8938C86.4804 46.84 87.4271 45.7333 88.7338 44.96C90.0671 44.16 91.5738 43.76 93.2538 43.76C94.8271 43.76 96.1871 44.0533 97.3338 44.64C98.5071 45.2267 99.4804 46.0267 100.254 47.04C101.027 48.0267 101.6 49.1867 101.974 50.52C102.347 51.8267 102.534 53.2133 102.534 54.68C102.534 56.1733 102.347 57.5733 101.974 58.88C101.6 60.1867 101.027 61.3467 100.254 62.36C99.4804 63.3467 98.5071 64.1333 97.3338 64.72C96.1871 65.28 94.8271 65.56 93.2538 65.56C92.4804 65.56 91.7204 65.4667 90.9738 65.28C90.2538 65.0933 89.5738 64.8133 88.9338 64.44C88.2938 64.0667 87.7204 63.6 87.2138 63.04C86.7338 62.48 86.3604 61.8267 86.0938 61.08H86.0138V72.6H83.4938V44.36ZM93.2538 63.48C94.4538 63.48 95.4804 63.2267 96.3338 62.72C97.1871 62.1867 97.8804 61.5067 98.4138 60.68C98.9738 59.8533 99.3738 58.92 99.6138 57.88C99.8804 56.8133 100.014 55.7467 100.014 54.68C100.014 53.6133 99.8804 52.56 99.6138 51.52C99.3738 50.4533 98.9738 49.5067 98.4138 48.68C97.8804 47.8533 97.1871 47.1867 96.3338 46.68C95.4804 46.1467 94.4538 45.88 93.2538 45.88C91.8404 45.88 90.6671 46.12 89.7338 46.6C88.8271 47.08 88.0938 47.72 87.5338 48.52C86.9738 49.32 86.5738 50.2533 86.3338 51.32C86.1204 52.3867 86.0138 53.5067 86.0138 54.68C86.0138 55.7467 86.1338 56.8133 86.3737 57.88C86.6404 58.92 87.0538 59.8533 87.6138 60.68C88.2004 61.5067 88.9471 62.1867 89.8538 62.72C90.7871 63.2267 91.9204 63.48 93.2538 63.48ZM115.183 65.56C113.609 65.56 112.209 65.28 110.983 64.72C109.783 64.1333 108.769 63.3467 107.943 62.36C107.116 61.3733 106.489 60.2267 106.063 58.92C105.636 57.5867 105.423 56.1733 105.423 54.68C105.423 53.2133 105.636 51.8133 106.063 50.48C106.489 49.1467 107.116 47.9867 107.943 47C108.769 46.0133 109.783 45.2267 110.983 44.64C112.209 44.0533 113.609 43.76 115.183 43.76C116.756 43.76 118.143 44.0533 119.343 44.64C120.569 45.2267 121.596 46.0133 122.423 47C123.249 47.9867 123.876 49.1467 124.303 50.48C124.729 51.8133 124.943 53.2133 124.943 54.68C124.943 56.1733 124.729 57.5867 124.303 58.92C123.876 60.2267 123.249 61.3733 122.423 62.36C121.596 63.3467 120.569 64.1333 119.343 64.72C118.143 65.28 116.756 65.56 115.183 65.56ZM115.183 63.48C116.383 63.48 117.436 63.2267 118.343 62.72C119.249 62.2133 119.996 61.5467 120.583 60.72C121.196 59.8933 121.649 58.96 121.943 57.92C122.263 56.8533 122.423 55.7733 122.423 54.68C122.423 53.5867 122.263 52.52 121.943 51.48C121.649 50.4133 121.196 49.4667 120.583 48.64C119.996 47.8133 119.249 47.1467 118.343 46.64C117.436 46.1333 116.383 45.88 115.183 45.88C113.983 45.88 112.929 46.1333 112.023 46.64C111.116 47.1467 110.356 47.8133 109.743 48.64C109.156 49.4667 108.703 50.4133 108.383 51.48C108.089 52.52 107.943 53.5867 107.943 54.68C107.943 55.7733 108.089 56.8533 108.383 57.92C108.703 58.96 109.156 59.8933 109.743 60.72C110.356 61.5467 111.116 62.2133 112.023 62.72C112.929 63.2267 113.983 63.48 115.183 63.48ZM137.409 65.56C135.836 65.56 134.436 65.28 133.209 64.72C132.009 64.1333 130.996 63.3467 130.169 62.36C129.342 61.3733 128.716 60.2267 128.289 58.92C127.862 57.5867 127.649 56.1733 127.649 54.68C127.649 53.2133 127.862 51.8133 128.289 50.48C128.716 49.1467 129.342 47.9867 130.169 47C130.996 46.0133 132.009 45.2267 133.209 44.64C134.436 44.0533 135.836 43.76 137.409 43.76C139.622 43.76 141.489 44.3467 143.009 45.52C144.556 46.6933 145.476 48.4667 145.769 50.84H143.249C142.902 49.2933 142.262 48.08 141.329 47.2C140.396 46.32 139.089 45.88 137.409 45.88C136.209 45.88 135.156 46.1333 134.249 46.64C133.342 47.1467 132.582 47.8133 131.969 48.64C131.382 49.4667 130.929 50.4133 130.609 51.48C130.316 52.52 130.169 53.5867 130.169 54.68C130.169 55.7733 130.316 56.8533 130.609 57.92C130.929 58.96 131.382 59.8933 131.969 60.72C132.582 61.5467 133.342 62.2133 134.249 62.72C135.156 63.2267 136.209 63.48 137.409 63.48C138.182 63.48 138.916 63.3333 139.609 63.04C140.302 62.7467 140.916 62.3467 141.449 61.84C141.982 61.3067 142.422 60.68 142.769 59.96C143.116 59.24 143.329 58.4533 143.409 57.6H145.929C145.582 60.1067 144.662 62.0667 143.169 63.48C141.676 64.8667 139.756 65.56 137.409 65.56ZM149.191 65.2C149.058 65.2 148.898 65.1867 148.711 65.16C148.525 65.1333 148.325 65.1067 148.111 65.08C147.925 65.0533 147.738 65.0267 147.551 65C147.391 64.9467 147.271 64.9067 147.191 64.88V62.68C147.405 62.76 147.725 62.8267 148.151 62.88C148.578 62.9333 148.938 62.96 149.231 62.96C149.498 62.96 149.791 62.92 150.111 62.84C150.431 62.76 150.751 62.5467 151.071 62.2C151.391 61.8267 151.698 61.2533 151.991 60.48C152.285 59.7067 152.538 58.64 152.751 57.28C152.965 55.8933 153.138 54.16 153.271 52.08C153.405 49.9733 153.471 47.4 153.471 44.36H167.271V65H164.751V46.48H155.911C155.911 49.4667 155.818 52 155.631 54.08C155.471 56.16 155.231 57.8933 154.911 59.28C154.591 60.6667 154.218 61.76 153.791 62.56C153.365 63.36 152.898 63.96 152.391 64.36C151.911 64.7333 151.391 64.96 150.831 65.04C150.298 65.1467 149.751 65.2 149.191 65.2ZM172.008 44.36H174.528V52.64H181.208C183.208 52.64 184.795 53.1733 185.968 54.24C187.142 55.3067 187.728 56.8133 187.728 58.76C187.728 60.7067 187.142 62.24 185.968 63.36C184.795 64.4533 183.208 65 181.208 65H172.008V44.36ZM180.608 62.88C182.048 62.88 183.168 62.5333 183.968 61.84C184.795 61.1467 185.208 60.12 185.208 58.76C185.208 57.4 184.795 56.4 183.968 55.76C183.168 55.0933 182.048 54.76 180.608 54.76H174.528V62.88H180.608ZM191.608 44.36H194.128V65H191.608V44.36ZM198.844 44.36H201.364V62.04L212.764 44.36H215.884V65H213.364V47.32L201.964 65H198.844V44.36ZM207.284 41.32C205.604 41.32 204.298 40.88 203.364 40C202.431 39.0933 201.858 37.8 201.644 36.12H203.204C203.338 37.1333 203.751 37.9333 204.444 38.52C205.164 39.1067 206.124 39.4 207.324 39.4C208.471 39.4 209.404 39.12 210.124 38.56C210.871 37.9733 211.351 37.16 211.564 36.12H213.124C212.831 37.8 212.204 39.0933 211.244 40C210.284 40.88 208.964 41.32 207.284 41.32Z" fill="#D9D9D9"/>
<path d="M37.208 137.832C37.208 136.723 37.3787 135.72 37.72 134.824C38.0613 133.907 38.552 133.128 39.192 132.488C39.832 131.827 40.6 131.325 41.496 130.984C42.4133 130.621 43.4267 130.44 44.536 130.44C45.6667 130.44 46.6587 130.611 47.512 130.952C48.3867 131.272 49.112 131.709 49.688 132.264C50.2853 132.819 50.7333 133.48 51.032 134.248C51.3307 135.016 51.48 135.827 51.48 136.68C51.48 137.683 51.3093 138.568 50.968 139.336C50.648 140.104 50.2107 140.787 49.656 141.384C49.1227 141.981 48.504 142.515 47.8 142.984C47.1173 143.453 46.4133 143.901 45.688 144.328C44.9627 144.733 44.248 145.128 43.544 145.512C42.84 145.896 42.2107 146.301 41.656 146.728C41.2933 147.005 40.9413 147.304 40.6 147.624C40.2587 147.923 39.9493 148.253 39.672 148.616C39.3947 148.979 39.1707 149.384 39 149.832C38.8293 150.259 38.7333 150.739 38.712 151.272H51.288V153H36.536C36.5573 151.912 36.6747 150.931 36.888 150.056C37.1013 149.181 37.5707 148.328 38.296 147.496C39.0853 146.6 39.896 145.832 40.728 145.192C41.5813 144.552 42.4133 143.987 43.224 143.496C44.0347 142.984 44.8027 142.525 45.528 142.12C46.2533 141.693 46.8933 141.235 47.448 140.744C48.0027 140.253 48.44 139.699 48.76 139.08C49.08 138.461 49.24 137.704 49.24 136.808C49.24 136.083 49.112 135.432 48.856 134.856C48.6 134.28 48.248 133.789 47.8 133.384C47.352 132.979 46.8293 132.68 46.232 132.488C45.6347 132.275 44.984 132.168 44.28 132.168C43.5333 132.168 42.8507 132.328 42.232 132.648C41.6347 132.947 41.112 133.352 40.664 133.864C40.2373 134.376 39.9067 134.973 39.672 135.656C39.4373 136.339 39.3413 137.064 39.384 137.832H37.208ZM55.9493 147.144C56.1626 148.68 56.7706 149.832 57.7733 150.6C58.7973 151.347 60.0453 151.72 61.5173 151.72C62.3493 151.72 63.0959 151.571 63.7573 151.272C64.4399 150.973 65.0159 150.568 65.4853 150.056C65.9546 149.523 66.3066 148.915 66.5413 148.232C66.7973 147.528 66.9253 146.771 66.9253 145.96C66.9253 145.128 66.7866 144.36 66.5093 143.656C66.2533 142.952 65.8799 142.344 65.3893 141.832C64.9199 141.32 64.3333 140.925 63.6293 140.648C62.9466 140.371 62.1786 140.232 61.3253 140.232C60.3013 140.232 59.3839 140.424 58.5733 140.808C57.7626 141.171 57.0479 141.757 56.4293 142.568L54.7333 142.344L56.5573 130.664H67.7573V132.392H58.2853L56.8773 139.976C57.3253 139.699 57.7306 139.464 58.0933 139.272C58.4773 139.08 58.8613 138.931 59.2453 138.824C59.6293 138.696 60.0239 138.611 60.4293 138.568C60.8559 138.525 61.3253 138.504 61.8373 138.504C62.8613 138.504 63.8106 138.675 64.6853 139.016C65.5599 139.357 66.3173 139.848 66.9573 140.488C67.5973 141.128 68.0879 141.917 68.4293 142.856C68.7919 143.773 68.9733 144.808 68.9733 145.96C68.9733 147.155 68.7706 148.221 68.3653 149.16C67.9813 150.077 67.4586 150.856 66.7973 151.496C66.1359 152.136 65.3679 152.627 64.4933 152.968C63.6399 153.288 62.7546 153.448 61.8373 153.448C60.7706 153.448 59.7679 153.341 58.8293 153.128C57.9119 152.915 57.1013 152.563 56.3973 152.072C55.6933 151.56 55.1173 150.909 54.6693 150.12C54.2426 149.309 53.9866 148.317 53.9013 147.144H55.9493ZM85.0265 141.896C85.0265 140.68 84.9518 139.496 84.8025 138.344C84.6745 137.171 84.4078 136.125 84.0025 135.208C83.5972 134.291 83.0212 133.555 82.2745 133C81.5492 132.445 80.5892 132.168 79.3945 132.168C78.2638 132.168 77.3358 132.456 76.6105 133.032C75.9065 133.587 75.3518 134.333 74.9465 135.272C74.5412 136.211 74.2532 137.277 74.0825 138.472C73.9332 139.667 73.8585 140.883 73.8585 142.12C73.8585 143.571 73.9438 144.893 74.1145 146.088C74.3065 147.261 74.6158 148.264 75.0425 149.096C75.4692 149.928 76.0345 150.579 76.7385 151.048C77.4638 151.496 78.3705 151.72 79.4585 151.72C80.6745 151.72 81.6452 151.421 82.3705 150.824C83.1172 150.227 83.6825 149.459 84.0665 148.52C84.4505 147.581 84.7065 146.525 84.8345 145.352C84.9625 144.179 85.0265 143.027 85.0265 141.896ZM79.4585 130.44C80.5678 130.44 81.5278 130.611 82.3385 130.952C83.1492 131.272 83.8318 131.72 84.3865 132.296C84.9625 132.872 85.4212 133.544 85.7625 134.312C86.1252 135.08 86.4025 135.901 86.5945 136.776C86.7865 137.629 86.9145 138.515 86.9785 139.432C87.0425 140.349 87.0745 141.245 87.0745 142.12C87.0745 143.613 86.9678 145.043 86.7545 146.408C86.5412 147.773 86.1465 148.979 85.5705 150.024C85.0158 151.069 84.2478 151.901 83.2665 152.52C82.2852 153.139 81.0158 153.448 79.4585 153.448C77.9012 153.448 76.6212 153.139 75.6185 152.52C74.6372 151.901 73.8585 151.069 73.2825 150.024C72.7278 148.957 72.3438 147.731 72.1305 146.344C71.9172 144.936 71.8105 143.453 71.8105 141.896C71.8105 140.467 71.9065 139.069 72.0985 137.704C72.2905 136.339 72.6532 135.123 73.1865 134.056C73.7412 132.968 74.5198 132.093 75.5225 131.432C76.5252 130.771 77.8372 130.44 79.4585 130.44ZM102.808 141.896C102.808 140.68 102.733 139.496 102.584 138.344C102.456 137.171 102.189 136.125 101.784 135.208C101.378 134.291 100.802 133.555 100.056 133C99.3304 132.445 98.3704 132.168 97.1758 132.168C96.0451 132.168 95.1171 132.456 94.3918 133.032C93.6878 133.587 93.1331 134.333 92.7278 135.272C92.3224 136.211 92.0344 137.277 91.8638 138.472C91.7144 139.667 91.6398 140.883 91.6398 142.12C91.6398 143.571 91.7251 144.893 91.8958 146.088C92.0878 147.261 92.3971 148.264 92.8238 149.096C93.2504 149.928 93.8158 150.579 94.5198 151.048C95.2451 151.496 96.1518 151.72 97.2398 151.72C98.4558 151.72 99.4264 151.421 100.152 150.824C100.898 150.227 101.464 149.459 101.848 148.52C102.232 147.581 102.488 146.525 102.616 145.352C102.744 144.179 102.808 143.027 102.808 141.896ZM97.2398 130.44C98.3491 130.44 99.3091 130.611 100.12 130.952C100.93 131.272 101.613 131.72 102.168 132.296C102.744 132.872 103.202 133.544 103.544 134.312C103.906 135.08 104.184 135.901 104.376 136.776C104.568 137.629 104.696 138.515 104.76 139.432C104.824 140.349 104.856 141.245 104.856 142.12C104.856 143.613 104.749 145.043 104.536 146.408C104.322 147.773 103.928 148.979 103.352 150.024C102.797 151.069 102.029 151.901 101.048 152.52C100.066 153.139 98.7971 153.448 97.2398 153.448C95.6824 153.448 94.4024 153.139 93.3998 152.52C92.4184 151.901 91.6398 151.069 91.0638 150.024C90.5091 148.957 90.1251 147.731 89.9118 146.344C89.6984 144.936 89.5918 143.453 89.5918 141.896C89.5918 140.467 89.6878 139.069 89.8798 137.704C90.0718 136.339 90.4344 135.123 90.9678 134.056C91.5224 132.968 92.3011 132.093 93.3038 131.432C94.3064 130.771 95.6184 130.44 97.2398 130.44ZM109.389 153V150.184H111.725V153H109.389ZM129.495 141.896C129.495 140.68 129.421 139.496 129.271 138.344C129.143 137.171 128.877 136.125 128.471 135.208C128.066 134.291 127.49 133.555 126.743 133C126.018 132.445 125.058 132.168 123.863 132.168C122.733 132.168 121.805 132.456 121.079 133.032C120.375 133.587 119.821 134.333 119.415 135.272C119.01 136.211 118.722 137.277 118.551 138.472C118.402 139.667 118.327 140.883 118.327 142.12C118.327 143.571 118.413 144.893 118.583 146.088C118.775 147.261 119.085 148.264 119.511 149.096C119.938 149.928 120.503 150.579 121.207 151.048C121.933 151.496 122.839 151.72 123.927 151.72C125.143 151.72 126.114 151.421 126.839 150.824C127.586 150.227 128.151 149.459 128.535 148.52C128.919 147.581 129.175 146.525 129.303 145.352C129.431 144.179 129.495 143.027 129.495 141.896ZM123.927 130.44C125.037 130.44 125.997 130.611 126.807 130.952C127.618 131.272 128.301 131.72 128.855 132.296C129.431 132.872 129.89 133.544 130.231 134.312C130.594 135.08 130.871 135.901 131.063 136.776C131.255 137.629 131.383 138.515 131.447 139.432C131.511 140.349 131.543 141.245 131.543 142.12C131.543 143.613 131.437 145.043 131.223 146.408C131.01 147.773 130.615 148.979 130.039 150.024C129.485 151.069 128.717 151.901 127.735 152.52C126.754 153.139 125.485 153.448 123.927 153.448C122.37 153.448 121.09 153.139 120.087 152.52C119.106 151.901 118.327 151.069 117.751 150.024C117.197 148.957 116.813 147.731 116.599 146.344C116.386 144.936 116.279 143.453 116.279 141.896C116.279 140.467 116.375 139.069 116.567 137.704C116.759 136.339 117.122 135.123 117.655 134.056C118.21 132.968 118.989 132.093 119.991 131.432C120.994 130.771 122.306 130.44 123.927 130.44ZM147.277 141.896C147.277 140.68 147.202 139.496 147.053 138.344C146.925 137.171 146.658 136.125 146.253 135.208C145.847 134.291 145.271 133.555 144.525 133C143.799 132.445 142.839 132.168 141.645 132.168C140.514 132.168 139.586 132.456 138.861 133.032C138.157 133.587 137.602 134.333 137.197 135.272C136.791 136.211 136.503 137.277 136.333 138.472C136.183 139.667 136.109 140.883 136.109 142.12C136.109 143.571 136.194 144.893 136.365 146.088C136.557 147.261 136.866 148.264 137.293 149.096C137.719 149.928 138.285 150.579 138.989 151.048C139.714 151.496 140.621 151.72 141.709 151.72C142.925 151.72 143.895 151.421 144.621 150.824C145.367 150.227 145.933 149.459 146.317 148.52C146.701 147.581 146.957 146.525 147.085 145.352C147.213 144.179 147.277 143.027 147.277 141.896ZM141.709 130.44C142.818 130.44 143.778 130.611 144.589 130.952C145.399 131.272 146.082 131.72 146.637 132.296C147.213 132.872 147.671 133.544 148.013 134.312C148.375 135.08 148.653 135.901 148.845 136.776C149.037 137.629 149.165 138.515 149.229 139.432C149.293 140.349 149.325 141.245 149.325 142.12C149.325 143.613 149.218 145.043 149.005 146.408C148.791 147.773 148.397 148.979 147.821 150.024C147.266 151.069 146.498 151.901 145.517 152.52C144.535 153.139 143.266 153.448 141.709 153.448C140.151 153.448 138.871 153.139 137.869 152.52C136.887 151.901 136.109 151.069 135.533 150.024C134.978 148.957 134.594 147.731 134.381 146.344C134.167 144.936 134.061 143.453 134.061 141.896C134.061 140.467 134.157 139.069 134.349 137.704C134.541 136.339 134.903 135.123 135.437 134.056C135.991 132.968 136.77 132.093 137.773 131.432C138.775 130.771 140.087 130.44 141.709 130.44ZM153.698 153V130.152H159.714C162.508 130.152 164.578 130.717 165.922 131.848C167.287 132.979 167.97 134.621 167.97 136.776C167.97 138.227 167.639 139.475 166.978 140.52C166.316 141.544 165.335 142.333 164.034 142.888C162.754 143.443 161.164 143.72 159.266 143.72H156.578V153H153.698ZM150.914 148.648V146.568H161.858V148.648H150.914ZM150.914 143.72V141.288H158.242V143.72H150.914ZM158.85 141.288C160.151 141.288 161.25 141.149 162.146 140.872C163.063 140.595 163.767 140.136 164.258 139.496C164.748 138.856 164.994 137.981 164.994 136.872C164.994 135.421 164.546 134.344 163.65 133.64C162.754 132.936 161.356 132.584 159.458 132.584H156.578V141.288H158.85Z" fill="#D9D9D9"/>
<line x1="779.5" y1="43" x2="779.5" y2="146" stroke="white" stroke-dasharray="12 12"/>
<rect x="23.75" y="28.75" width="729.5" height="132.5" rx="9.25" stroke="#D9D9D9" stroke-width="1.5"/>
<defs>
<filter id="filter0_d_616_9401" x="0" y="0" width="974" height="178" filterUnits="userSpaceOnUse" color-interpolation-filters="sRGB">
<feFlood flood-opacity="0" result="BackgroundImageFix"/>
<feColorMatrix in="SourceAlpha" type="matrix" values="0 0 0 0 0 0 0 0 0 0 0 0 0 0 0 0 0 0 127 0" result="hardAlpha"/>
<feOffset dy="-6"/>
<feGaussianBlur stdDeviation="7"/>
<feComposite in2="hardAlpha" operator="out"/>
<feColorMatrix type="matrix" values="0 0 0 0 0 0 0 0 0 0 0 0 0 0 0 0 0 0 0.25 0"/>
<feBlend mode="normal" in2="BackgroundImageFix" result="effect1_dropShadow_616_9401"/>
<feBlend mode="normal" in="SourceGraphic" in2="effect1_dropShadow_616_9401" result="shape"/>
</filter>
</defs>
</svg>
